<?xml version="1.0" encoding="UTF-8" standalone="no"?>
<!DOCTYPE svg PUBLIC "-//W3C//DTD SVG 1.1//EN"
 "http://www.w3.org/Graphics/SVG/1.1/DTD/svg11.dtd">
<!-- Generated by graphviz version 14.1.2 (20260124.0452)
 -->
<!-- Title: EngineCodeIOLite Pages: 1 -->
<svg width="6042pt" height="503pt"
 viewBox="0.00 0.00 6042.00 503.00" xmlns="http://www.w3.org/2000/svg" xmlns:xlink="http://www.w3.org/1999/xlink">
<g id="graph0" class="graph" transform="scale(1 1) rotate(0) translate(4 498.72)">
<title>EngineCodeIOLite</title>
<polygon fill="white" stroke="none" points="-4,4 -4,-498.72 6037.75,-498.72 6037.75,4 -4,4"/>
<text xml:space="preserve" text-anchor="middle" x="3016.88" y="-481.22" font-family="Helvetica,sans-Serif" font-size="10.00">Data Engine Code&#45;Level IO Ownership Flow (simplified)</text>
<g id="clust1" class="cluster">
<title>cluster_layer1</title>
<path fill="#e8f0fe" stroke="#e8f0fe" d="M370.25,-142.12C370.25,-142.12 3673.5,-142.12 3673.5,-142.12 3679.5,-142.12 3685.5,-148.12 3685.5,-154.12 3685.5,-154.12 3685.5,-334.12 3685.5,-334.12 3685.5,-340.12 3679.5,-346.12 3673.5,-346.12 3673.5,-346.12 370.25,-346.12 370.25,-346.12 364.25,-346.12 358.25,-340.12 358.25,-334.12 358.25,-334.12 358.25,-154.12 358.25,-154.12 358.25,-148.12 364.25,-142.12 370.25,-142.12"/>
<text xml:space="preserve" text-anchor="middle" x="2021.88" y="-332.62" font-family="Helvetica,sans-Serif" font-size="10.00">Layer 1 &#45; World and Merchant Realism</text>
</g>
<g id="clust2" class="cluster">
<title>cluster_layer2</title>
<path fill="#e6fffa" stroke="#e6fffa" d="M3909.5,-226.12C3909.5,-226.12 4877,-226.12 4877,-226.12 4883,-226.12 4889,-232.12 4889,-238.12 4889,-238.12 4889,-311.12 4889,-311.12 4889,-317.12 4883,-323.12 4877,-323.12 4877,-323.12 3909.5,-323.12 3909.5,-323.12 3903.5,-323.12 3897.5,-317.12 3897.5,-311.12 3897.5,-311.12 3897.5,-238.12 3897.5,-238.12 3897.5,-232.12 3903.5,-226.12 3909.5,-226.12"/>
<text xml:space="preserve" text-anchor="middle" x="4393.25" y="-309.62" font-family="Helvetica,sans-Serif" font-size="10.00">Layer 2 &#45; Temporal Arrival Surfaces</text>
</g>
<g id="clust3" class="cluster">
<title>cluster_layer3</title>
<path fill="#fff7ed" stroke="#fff7ed" d="M5055.25,-241.12C5055.25,-241.12 6013.75,-241.12 6013.75,-241.12 6019.75,-241.12 6025.75,-247.12 6025.75,-253.12 6025.75,-253.12 6025.75,-326.12 6025.75,-326.12 6025.75,-332.12 6019.75,-338.12 6013.75,-338.12 6013.75,-338.12 5055.25,-338.12 5055.25,-338.12 5049.25,-338.12 5043.25,-332.12 5043.25,-326.12 5043.25,-326.12 5043.25,-253.12 5043.25,-253.12 5043.25,-247.12 5049.25,-241.12 5055.25,-241.12"/>
<text xml:space="preserve" text-anchor="middle" x="5534.5" y="-324.62" font-family="Helvetica,sans-Serif" font-size="10.00">Layer 3 &#45; Behavior, Fraud, and Labels</text>
</g>
<!-- external_refs -->
<g id="node1" class="node">
<title>external_refs</title>
<polygon fill="#fef3c7" stroke="#4b5563" points="116.5,-287.12 113.5,-291.12 92.5,-291.12 89.5,-287.12 0,-287.12 0,-251.12 116.5,-251.12 116.5,-287.12"/>
<text xml:space="preserve" text-anchor="middle" x="58.25" y="-265.82" font-family="Helvetica,sans-Serif" font-size="9.00">External refs / authorities</text>
</g>
<!-- seg_1A -->
<g id="node2" class="node">
<title>seg_1A</title>
<path fill="white" stroke="#4b5563" d="M747.5,-212.12C747.5,-212.12 378.25,-212.12 378.25,-212.12 372.25,-212.12 366.25,-206.12 366.25,-200.12 366.25,-200.12 366.25,-188.12 366.25,-188.12 366.25,-182.12 372.25,-176.12 378.25,-176.12 378.25,-176.12 747.5,-176.12 747.5,-176.12 753.5,-176.12 759.5,-182.12 759.5,-188.12 759.5,-188.12 759.5,-200.12 759.5,-200.12 759.5,-206.12 753.5,-212.12 747.5,-212.12"/>
<text xml:space="preserve" text-anchor="middle" x="562.88" y="-190.82" font-family="Helvetica,sans-Serif" font-size="9.00">1A\nMerchants to Physical Sites\nowner: engine.layers.l1.seg_1A.*\nIO contract: R=44 W=32</text>
</g>
<!-- external_refs&#45;&gt;seg_1A -->
<g id="edge31" class="edge">
<title>external_refs&#45;&gt;seg_1A</title>
<path fill="none" stroke="#d97706" stroke-width="1.1" stroke-dasharray="1,5" d="M85.11,-250.64C99.05,-241.68 116.97,-231.72 134.5,-226.37 204.42,-205.05 283.62,-195.34 354.67,-191.48"/>
<polygon fill="#d97706" stroke="#d97706" stroke-width="1.1" points="354.53,-194.99 364.34,-190.99 354.18,-188 354.53,-194.99"/>
<text xml:space="preserve" text-anchor="middle" x="241.38" y="-228.52" font-family="Helvetica,sans-Serif" font-size="8.00">ccy_country_shares_2024Q4, ccy_smoothing_params (+18)</text>
</g>
<!-- seg_1B -->
<g id="node3" class="node">
<title>seg_1B</title>
<path fill="white" stroke="#4b5563" d="M1314.75,-256.12C1314.75,-256.12 989.75,-256.12 989.75,-256.12 983.75,-256.12 977.75,-250.12 977.75,-244.12 977.75,-244.12 977.75,-232.12 977.75,-232.12 977.75,-226.12 983.75,-220.12 989.75,-220.12 989.75,-220.12 1314.75,-220.12 1314.75,-220.12 1320.75,-220.12 1326.75,-226.12 1326.75,-232.12 1326.75,-232.12 1326.75,-244.12 1326.75,-244.12 1326.75,-250.12 1320.75,-256.12 1314.75,-256.12"/>
<text xml:space="preserve" text-anchor="middle" x="1152.25" y="-234.82" font-family="Helvetica,sans-Serif" font-size="9.00">1B\nSite Geolocation\nowner: engine.layers.l1.seg_1B.*\nIO contract: R=25 W=26</text>
</g>
<!-- external_refs&#45;&gt;seg_1B -->
<g id="edge32" class="edge">
<title>external_refs&#45;&gt;seg_1B</title>
<path fill="none" stroke="#d97706" stroke-width="1.1" stroke-dasharray="1,5" d="M116.81,-267.49C273.53,-263.04 713.02,-250.56 965.87,-243.38"/>
<polygon fill="#d97706" stroke="#d97706" stroke-width="1.1" points="965.83,-246.89 975.73,-243.1 965.64,-239.89 965.83,-246.89"/>
<text xml:space="preserve" text-anchor="middle" x="562.88" y="-262.77" font-family="Helvetica,sans-Serif" font-size="8.00">iso3166_canonical_2024, math_profile_manifest (+4)</text>
</g>
<!-- seg_2A -->
<g id="node4" class="node">
<title>seg_2A</title>
<path fill="white" stroke="#4b5563" d="M1838.5,-278.12C1838.5,-278.12 1545.75,-278.12 1545.75,-278.12 1539.75,-278.12 1533.75,-272.12 1533.75,-266.12 1533.75,-266.12 1533.75,-254.12 1533.75,-254.12 1533.75,-248.12 1539.75,-242.12 1545.75,-242.12 1545.75,-242.12 1838.5,-242.12 1838.5,-242.12 1844.5,-242.12 1850.5,-248.12 1850.5,-254.12 1850.5,-254.12 1850.5,-266.12 1850.5,-266.12 1850.5,-272.12 1844.5,-278.12 1838.5,-278.12"/>
<text xml:space="preserve" text-anchor="middle" x="1692.12" y="-256.82" font-family="Helvetica,sans-Serif" font-size="9.00">2A\nCivil Time\nowner: engine.layers.l1.seg_2A.*\nIO contract: R=15 W=9</text>
</g>
<!-- external_refs&#45;&gt;seg_2A -->
<g id="edge33" class="edge">
<title>external_refs&#45;&gt;seg_2A</title>
<path fill="none" stroke="#d97706" stroke-width="1.1" stroke-dasharray="1,5" d="M116.75,-273.33C122.74,-273.66 128.74,-273.93 134.5,-274.12 412.12,-283.33 481.72,-275.04 759.5,-274.12 1095.62,-273.01 1179.77,-278.85 1515.75,-269.12 1517.74,-269.06 1519.74,-269 1521.76,-268.94"/>
<polygon fill="#d97706" stroke="#d97706" stroke-width="1.1" points="1521.85,-272.44 1531.73,-268.6 1521.62,-265.44 1521.85,-272.44"/>
<text xml:space="preserve" text-anchor="middle" x="868.62" y="-276.33" font-family="Helvetica,sans-Serif" font-size="8.00">iso3166_canonical_2024, merchant_mcc_map (+5)</text>
</g>
<!-- seg_2B -->
<g id="node5" class="node">
<title>seg_2B</title>
<path fill="white" stroke="#4b5563" d="M2507.75,-252.12C2507.75,-252.12 2115.25,-252.12 2115.25,-252.12 2109.25,-252.12 2103.25,-246.12 2103.25,-240.12 2103.25,-240.12 2103.25,-228.12 2103.25,-228.12 2103.25,-222.12 2109.25,-216.12 2115.25,-216.12 2115.25,-216.12 2507.75,-216.12 2507.75,-216.12 2513.75,-216.12 2519.75,-222.12 2519.75,-228.12 2519.75,-228.12 2519.75,-240.12 2519.75,-240.12 2519.75,-246.12 2513.75,-252.12 2507.75,-252.12"/>
<text xml:space="preserve" text-anchor="middle" x="2311.5" y="-230.82" font-family="Helvetica,sans-Serif" font-size="9.00">2B\nRouting: traffic to sites and edges\nowner: engine.layers.l1.seg_2B.*\nIO contract: R=24 W=18</text>
</g>
<!-- external_refs&#45;&gt;seg_2B -->
<g id="edge34" class="edge">
<title>external_refs&#45;&gt;seg_2B</title>
<path fill="none" stroke="#d97706" stroke-width="1.1" stroke-dasharray="1,5" d="M116.84,-286.9C122.76,-288.21 128.72,-289.33 134.5,-290.12 409.71,-327.8 481.72,-290.5 759.5,-290.12 1244.39,-289.45 1366.12,-309.41 1850.5,-287.12 1961.7,-282 2087.19,-266.91 2178.98,-254.14"/>
<polygon fill="#d97706" stroke="#d97706" stroke-width="1.1" points="2179.22,-257.64 2188.64,-252.78 2178.25,-250.71 2179.22,-257.64"/>
<text xml:space="preserve" text-anchor="middle" x="1152.25" y="-299.16" font-family="Helvetica,sans-Serif" font-size="8.00">alias_layout_policy_v1, day_effect_policy_v1 (+2)</text>
</g>
<!-- seg_3A -->
<g id="node6" class="node">
<title>seg_3A</title>
<path fill="white" stroke="#4b5563" d="M3089.25,-217.12C3089.25,-217.12 2768,-217.12 2768,-217.12 2762,-217.12 2756,-211.12 2756,-205.12 2756,-205.12 2756,-193.12 2756,-193.12 2756,-187.12 2762,-181.12 2768,-181.12 2768,-181.12 3089.25,-181.12 3089.25,-181.12 3095.25,-181.12 3101.25,-187.12 3101.25,-193.12 3101.25,-193.12 3101.25,-205.12 3101.25,-205.12 3101.25,-211.12 3095.25,-217.12 3089.25,-217.12"/>
<text xml:space="preserve" text-anchor="middle" x="2928.62" y="-195.82" font-family="Helvetica,sans-Serif" font-size="9.00">3A\nZone Allocation\nowner: engine.layers.l1.seg_3A.*\nIO contract: R=30 W=24</text>
</g>
<!-- external_refs&#45;&gt;seg_3A -->
<g id="edge35" class="edge">
<title>external_refs&#45;&gt;seg_3A</title>
<path fill="none" stroke="#d97706" stroke-width="1.1" stroke-dasharray="1,5" d="M70.88,-250.62C83.91,-231.61 106.86,-202.78 134.5,-188.12 304.29,-98.06 369.68,-122.12 561.88,-122.12 561.88,-122.12 561.88,-122.12 2312.5,-122.12 2494.49,-122.12 2704.44,-155.72 2826.01,-178.52"/>
<polygon fill="#d97706" stroke="#d97706" stroke-width="1.1" points="2825.02,-181.9 2835.5,-180.32 2826.32,-175.02 2825.02,-181.9"/>
<text xml:space="preserve" text-anchor="middle" x="1430.25" y="-124.27" font-family="Helvetica,sans-Serif" font-size="8.00">country_zone_alphas, day_effect_policy_v1 (+4)</text>
</g>
<!-- seg_3B -->
<g id="node7" class="node">
<title>seg_3B</title>
<path fill="white" stroke="#4b5563" d="M3665.5,-289.12C3665.5,-289.12 3269.25,-289.12 3269.25,-289.12 3263.25,-289.12 3257.25,-283.12 3257.25,-277.12 3257.25,-277.12 3257.25,-265.12 3257.25,-265.12 3257.25,-259.12 3263.25,-253.12 3269.25,-253.12 3269.25,-253.12 3665.5,-253.12 3665.5,-253.12 3671.5,-253.12 3677.5,-259.12 3677.5,-265.12 3677.5,-265.12 3677.5,-277.12 3677.5,-277.12 3677.5,-283.12 3671.5,-289.12 3665.5,-289.12"/>
<text xml:space="preserve" text-anchor="middle" x="3467.38" y="-267.82" font-family="Helvetica,sans-Serif" font-size="9.00">3B\nVirtual merchants &amp; CDN surfaces\nowner: engine.layers.l1.seg_3B.*\nIO contract: R=45 W=26</text>
</g>
<!-- external_refs&#45;&gt;seg_3B -->
<g id="edge36" class="edge">
<title>external_refs&#45;&gt;seg_3B</title>
<path fill="none" stroke="#d97706" stroke-width="1.1" stroke-dasharray="1,5" d="M85.59,-287.47C99.52,-296.3 117.27,-306.23 134.5,-312.12 316,-374.15 370.07,-372.12 561.88,-372.12 561.88,-372.12 561.88,-372.12 1431.25,-372.12 2092.12,-372.12 2872.21,-318.33 3245.6,-289.26"/>
<polygon fill="#d97706" stroke="#d97706" stroke-width="1.1" points="3245.71,-292.76 3255.41,-288.5 3245.17,-285.79 3245.71,-292.76"/>
<text xml:space="preserve" text-anchor="middle" x="1692.12" y="-373.8" font-family="Helvetica,sans-Serif" font-size="8.00">alias_layout_policy_v1, cdn_country_weights (+12)</text>
</g>
<!-- seg_5A -->
<g id="node8" class="node">
<title>seg_5A</title>
<path fill="white" stroke="#4b5563" d="M4247,-295.12C4247,-295.12 3917.5,-295.12 3917.5,-295.12 3911.5,-295.12 3905.5,-289.12 3905.5,-283.12 3905.5,-283.12 3905.5,-271.12 3905.5,-271.12 3905.5,-265.12 3911.5,-259.12 3917.5,-259.12 3917.5,-259.12 4247,-259.12 4247,-259.12 4253,-259.12 4259,-265.12 4259,-271.12 4259,-271.12 4259,-283.12 4259,-283.12 4259,-289.12 4253,-295.12 4247,-295.12"/>
<text xml:space="preserve" text-anchor="middle" x="4082.25" y="-273.82" font-family="Helvetica,sans-Serif" font-size="9.00">5A\nIntensity Surfaces\nowner: engine.layers.l2.seg_5A.*\nIO contract: R=40 W=25</text>
</g>
<!-- external_refs&#45;&gt;seg_5A -->
<g id="edge37" class="edge">
<title>external_refs&#45;&gt;seg_5A</title>
<path fill="none" stroke="#d97706" stroke-width="1.1" stroke-dasharray="1,5" d="M70.29,-287.51C83.12,-307.14 106.2,-337.53 134.5,-353.12 303.21,-446.07 369.25,-425.12 561.88,-425.12 561.88,-425.12 561.88,-425.12 3468.38,-425.12 3654.96,-425.12 3710,-458.62 3887.5,-401.12 3952.12,-380.19 4016.4,-332.33 4052.27,-302.57"/>
<polygon fill="#d97706" stroke="#d97706" stroke-width="1.1" points="4054.09,-305.61 4059.48,-296.49 4049.58,-300.26 4054.09,-305.61"/>
<text xml:space="preserve" text-anchor="middle" x="1976.88" y="-427.27" font-family="Helvetica,sans-Serif" font-size="8.00">baseline_intensity_policy_5A, demand_scale_policy_5A (+12)</text>
</g>
<!-- seg_5B -->
<g id="node9" class="node">
<title>seg_5B</title>
<path fill="white" stroke="#4b5563" d="M4869,-270.12C4869,-270.12 4536.5,-270.12 4536.5,-270.12 4530.5,-270.12 4524.5,-264.12 4524.5,-258.12 4524.5,-258.12 4524.5,-246.12 4524.5,-246.12 4524.5,-240.12 4530.5,-234.12 4536.5,-234.12 4536.5,-234.12 4869,-234.12 4869,-234.12 4875,-234.12 4881,-240.12 4881,-246.12 4881,-246.12 4881,-258.12 4881,-258.12 4881,-264.12 4875,-270.12 4869,-270.12"/>
<text xml:space="preserve" text-anchor="middle" x="4702.75" y="-248.82" font-family="Helvetica,sans-Serif" font-size="9.00">5B\nArrival Realisation\nowner: engine.layers.l2.seg_5B.*\nIO contract: R=65 W=23</text>
</g>
<!-- external_refs&#45;&gt;seg_5B -->
<g id="edge38" class="edge">
<title>external_refs&#45;&gt;seg_5B</title>
<path fill="none" stroke="#d97706" stroke-width="1.1" stroke-dasharray="1,5" d="M62.33,-250.79C68.95,-217.72 87.9,-148.6 134.5,-117.12 292.37,-10.48 371.37,-84.12 561.88,-84.12 561.88,-84.12 561.88,-84.12 4083.25,-84.12 4274.21,-84.12 4324.69,-99.7 4506.5,-158.12 4562.07,-175.97 4621.99,-206.71 4660.58,-228.16"/>
<polygon fill="#d97706" stroke="#d97706" stroke-width="1.1" points="4658.51,-231.01 4668.95,-232.85 4661.94,-224.91 4658.51,-231.01"/>
<text xml:space="preserve" text-anchor="middle" x="2311.5" y="-86.27" font-family="Helvetica,sans-Serif" font-size="8.00">alias_layout_policy_v1, arrival_count_config_5B (+9)</text>
</g>
<!-- seg_6A -->
<g id="node10" class="node">
<title>seg_6A</title>
<path fill="white" stroke="#4b5563" d="M5411.5,-310.12C5411.5,-310.12 5063.25,-310.12 5063.25,-310.12 5057.25,-310.12 5051.25,-304.12 5051.25,-298.12 5051.25,-298.12 5051.25,-286.12 5051.25,-286.12 5051.25,-280.12 5057.25,-274.12 5063.25,-274.12 5063.25,-274.12 5411.5,-274.12 5411.5,-274.12 5417.5,-274.12 5423.5,-280.12 5423.5,-286.12 5423.5,-286.12 5423.5,-298.12 5423.5,-298.12 5423.5,-304.12 5417.5,-310.12 5411.5,-310.12"/>
<text xml:space="preserve" text-anchor="middle" x="5237.38" y="-288.82" font-family="Helvetica,sans-Serif" font-size="9.00">6A\nEntity &amp; Product World\nowner: engine.layers.l3.seg_6A.*\nIO contract: R=65 W=49</text>
</g>
<!-- external_refs&#45;&gt;seg_6A -->
<g id="edge39" class="edge">
<title>external_refs&#45;&gt;seg_6A</title>
<path fill="none" stroke="#d97706" stroke-width="1.1" stroke-dasharray="1,5" d="M63.94,-287.31C72.55,-316.8 93.87,-374.63 134.5,-403.12 291.55,-513.24 370.07,-463.12 561.88,-463.12 561.88,-463.12 561.88,-463.12 4703.75,-463.12 4893.9,-463.12 5104.74,-363.1 5193.4,-316.05"/>
<polygon fill="#d97706" stroke="#d97706" stroke-width="1.1" points="5194.97,-319.18 5202.13,-311.37 5191.66,-313.01 5194.97,-319.18"/>
<text xml:space="preserve" text-anchor="middle" x="2637.88" y="-465.27" font-family="Helvetica,sans-Serif" font-size="8.00">device_linkage_rules_6A, graph_linkage_rules_6A (+23)</text>
</g>
<!-- seg_6B -->
<g id="node11" class="node">
<title>seg_6B</title>
<path fill="white" stroke="#4b5563" d="M6005.75,-285.12C6005.75,-285.12 5596,-285.12 5596,-285.12 5590,-285.12 5584,-279.12 5584,-273.12 5584,-273.12 5584,-261.12 5584,-261.12 5584,-255.12 5590,-249.12 5596,-249.12 5596,-249.12 6005.75,-249.12 6005.75,-249.12 6011.75,-249.12 6017.75,-255.12 6017.75,-261.12 6017.75,-261.12 6017.75,-273.12 6017.75,-273.12 6017.75,-279.12 6011.75,-285.12 6005.75,-285.12"/>
<text xml:space="preserve" text-anchor="middle" x="5800.88" y="-263.82" font-family="Helvetica,sans-Serif" font-size="9.00">6B\nBehaviour, Fraud Overlay &amp; Labelling\nowner: engine.layers.l3.seg_6B.*\nIO contract: R=71 W=26</text>
</g>
<!-- external_refs&#45;&gt;seg_6B -->
<g id="edge40" class="edge">
<title>external_refs&#45;&gt;seg_6B</title>
<path fill="none" stroke="#d97706" stroke-width="1.1" stroke-dasharray="1,5" d="M59.34,-250.88C60.65,-208.3 70.51,-102.39 134.5,-55.12 287.4,57.83 371.78,-38.12 561.88,-38.12 561.88,-38.12 561.88,-38.12 5238.38,-38.12 5452.56,-38.12 5680.94,-182.75 5765.68,-242.13"/>
<polygon fill="#d97706" stroke="#d97706" stroke-width="1.1" points="5763.51,-244.89 5773.7,-247.81 5767.56,-239.17 5763.51,-244.89"/>
<text xml:space="preserve" text-anchor="middle" x="2928.62" y="-40.27" font-family="Helvetica,sans-Serif" font-size="8.00">amount_model_6B, attachment_policy_6B (+17)</text>
</g>
<!-- seg_1A&#45;&gt;seg_1B -->
<g id="edge1" class="edge">
<title>seg_1A&#45;&gt;seg_1B</title>
<path fill="none" stroke="#334155" stroke-width="1.8" d="M759.87,-208.8C826,-213.76 899.59,-219.27 964.95,-224.16"/>
<polygon fill="#334155" stroke="#334155" stroke-width="1.8" points="964.53,-227.64 974.76,-224.9 965.05,-220.66 964.53,-227.64"/>
<text xml:space="preserve" text-anchor="middle" x="868.62" y="-224.78" font-family="Helvetica,sans-Serif" font-size="8.00">phase progression</text>
</g>
<!-- seg_1A&#45;&gt;seg_1B -->
<g id="edge10" class="edge">
<title>seg_1A&#45;&gt;seg_1B</title>
<path fill="none" stroke="#2563eb" stroke-width="1.2" stroke-dasharray="5,2" d="M759.9,-187.94C823.78,-188 894.93,-190.28 959.75,-197.37 996.33,-201.37 1036.22,-209.28 1070.08,-217.07"/>
<polygon fill="#2563eb" stroke="#2563eb" stroke-width="1.2" points="1069.01,-220.41 1079.55,-219.28 1070.61,-213.6 1069.01,-220.41"/>
<text xml:space="preserve" text-anchor="middle" x="868.62" y="-199.52" font-family="Helvetica,sans-Serif" font-size="8.00">outlet_catalogue, rng_trace_log (+3)</text>
</g>
<!-- seg_1A&#45;&gt;seg_3A -->
<g id="edge11" class="edge">
<title>seg_1A&#45;&gt;seg_3A</title>
<path fill="none" stroke="#dc2626" stroke-width="1.4" d="M759.73,-184.67C765.72,-184.47 771.65,-184.29 777.5,-184.12 1551.54,-161.92 1745.68,-148.86 2519.75,-170.12 2616.86,-172.79 2641.11,-175.11 2738,-182.12 2739.89,-182.26 2741.8,-182.4 2743.71,-182.54"/>
<polygon fill="#dc2626" stroke="#dc2626" stroke-width="1.4" points="2743.21,-186.01 2753.45,-183.27 2743.74,-179.03 2743.21,-186.01"/>
<text xml:space="preserve" text-anchor="middle" x="1692.12" y="-164.89" font-family="Helvetica,sans-Serif" font-size="8.00">outlet_catalogue, rng_trace_log (+2)</text>
</g>
<!-- seg_1B&#45;&gt;seg_2A -->
<g id="edge2" class="edge">
<title>seg_1B&#45;&gt;seg_2A</title>
<path fill="none" stroke="#334155" stroke-width="1.8" d="M1327.03,-248.3C1333.01,-248.58 1338.93,-248.86 1344.75,-249.12 1402.03,-251.67 1464.66,-253.85 1520.72,-255.58"/>
<polygon fill="#334155" stroke="#334155" stroke-width="1.8" points="1520.49,-259.07 1530.6,-255.88 1520.71,-252.08 1520.49,-259.07"/>
<text xml:space="preserve" text-anchor="middle" x="1430.25" y="-257.56" font-family="Helvetica,sans-Serif" font-size="8.00">phase progression</text>
</g>
<!-- seg_1B&#45;&gt;seg_2A -->
<g id="edge12" class="edge">
<title>seg_1B&#45;&gt;seg_2A</title>
<path fill="none" stroke="#2563eb" stroke-width="1.2" stroke-dasharray="5,2" d="M1327.17,-233.92C1386.99,-233.62 1454.35,-234.56 1515.75,-238.37 1525,-238.94 1534.51,-239.69 1544.09,-240.55"/>
<polygon fill="#2563eb" stroke="#2563eb" stroke-width="1.2" points="1543.71,-244.03 1553.99,-241.48 1544.37,-237.06 1543.71,-244.03"/>
<text xml:space="preserve" text-anchor="middle" x="1430.25" y="-240.52" font-family="Helvetica,sans-Serif" font-size="8.00">site_locations, validation_bundle_1B (+1)</text>
</g>
<!-- seg_1B&#45;&gt;seg_2B -->
<g id="edge13" class="edge">
<title>seg_1B&#45;&gt;seg_2B</title>
<path fill="none" stroke="#dc2626" stroke-width="1.4" d="M1327.24,-225.84C1514.51,-214.41 1821.09,-200.83 2085.25,-213.12 2095.3,-213.59 2105.59,-214.17 2115.98,-214.84"/>
<polygon fill="#dc2626" stroke="#dc2626" stroke-width="1.4" points="2115.41,-218.31 2125.62,-215.5 2115.88,-211.33 2115.41,-218.31"/>
<text xml:space="preserve" text-anchor="middle" x="1692.12" y="-217.25" font-family="Helvetica,sans-Serif" font-size="8.00">rng_audit_log, rng_trace_log (+3)</text>
</g>
<!-- seg_1B&#45;&gt;seg_3B -->
<g id="edge14" class="edge">
<title>seg_1B&#45;&gt;seg_3B</title>
<path fill="none" stroke="#dc2626" stroke-width="1.4" d="M1259.68,-256.62C1287.33,-261.08 1317.11,-265.57 1344.75,-269.12 1428.44,-279.87 1449.46,-283.12 1533.75,-287.12 2153.25,-316.55 2885.68,-295.14 3245,-280.96"/>
<polygon fill="#dc2626" stroke="#dc2626" stroke-width="1.4" points="3245.13,-284.46 3254.98,-280.57 3244.85,-277.47 3245.13,-284.46"/>
<text xml:space="preserve" text-anchor="middle" x="2311.5" y="-304" font-family="Helvetica,sans-Serif" font-size="8.00">rng_audit_log, rng_trace_log (+3)</text>
</g>
<!-- seg_2A&#45;&gt;seg_2B -->
<g id="edge3" class="edge">
<title>seg_2A&#45;&gt;seg_2B</title>
<path fill="none" stroke="#334155" stroke-width="1.8" d="M1788.6,-241.62C1809.07,-237.4 1830.54,-232.78 1850.5,-228.12 1858.56,-226.24 1860.29,-224.43 1868.5,-223.37 1964.03,-210.98 1988.94,-221.07 2085.25,-223.37 2086.87,-223.41 2088.5,-223.45 2090.14,-223.49"/>
<polygon fill="#334155" stroke="#334155" stroke-width="1.8" points="2089.97,-226.99 2100.06,-223.76 2090.17,-219.99 2089.97,-226.99"/>
<text xml:space="preserve" text-anchor="middle" x="1976.88" y="-225.52" font-family="Helvetica,sans-Serif" font-size="8.00">phase progression</text>
</g>
<!-- seg_2A&#45;&gt;seg_2B -->
<g id="edge15" class="edge">
<title>seg_2A&#45;&gt;seg_2B</title>
<path fill="none" stroke="#2563eb" stroke-width="1.2" stroke-dasharray="5,2" d="M1850.91,-253.47C1923.95,-250.4 2011.94,-246.69 2091.29,-243.35"/>
<polygon fill="#2563eb" stroke="#2563eb" stroke-width="1.2" points="2091.28,-246.86 2101.12,-242.94 2090.98,-239.86 2091.28,-246.86"/>
<text xml:space="preserve" text-anchor="middle" x="1976.88" y="-254.59" font-family="Helvetica,sans-Serif" font-size="8.00">site_timezones, tz_timetable_cache</text>
</g>
<!-- seg_2A&#45;&gt;seg_3A -->
<g id="edge16" class="edge">
<title>seg_2A&#45;&gt;seg_3A</title>
<path fill="none" stroke="#dc2626" stroke-width="1.4" d="M1818.86,-241.73C1829.82,-238.23 1840.52,-234.07 1850.5,-229.12 1860.09,-224.36 1858.63,-217.26 1868.5,-213.12 2046.75,-138.43 2544.75,-193.08 2738,-195.12 2739.8,-195.14 2741.61,-195.16 2743.43,-195.18"/>
<polygon fill="#dc2626" stroke="#dc2626" stroke-width="1.4" points="2743.38,-198.68 2753.42,-195.31 2743.47,-191.68 2743.38,-198.68"/>
<text xml:space="preserve" text-anchor="middle" x="2311.5" y="-186.72" font-family="Helvetica,sans-Serif" font-size="8.00">s4_legality_report, site_timezones (+3)</text>
</g>
<!-- seg_2A&#45;&gt;seg_3B -->
<g id="edge17" class="edge">
<title>seg_2A&#45;&gt;seg_3B</title>
<path fill="none" stroke="#dc2626" stroke-width="1.4" d="M1850.86,-265.75C1856.82,-265.89 1862.71,-266.01 1868.5,-266.12 2360.04,-275.3 2936.79,-274.16 3245.2,-272.6"/>
<polygon fill="#dc2626" stroke="#dc2626" stroke-width="1.4" points="3244.87,-276.1 3254.85,-272.55 3244.83,-269.1 3244.87,-276.1"/>
<text xml:space="preserve" text-anchor="middle" x="2637.88" y="-275.76" font-family="Helvetica,sans-Serif" font-size="8.00">site_timezones, tz_timetable_cache (+2)</text>
</g>
<!-- seg_2B&#45;&gt;seg_3A -->
<g id="edge4" class="edge">
<title>seg_2B&#45;&gt;seg_3A</title>
<path fill="none" stroke="#334155" stroke-width="1.8" d="M2443.59,-215.64C2474.42,-211.94 2507.19,-208.53 2537.75,-206.37 2604.68,-201.64 2678.22,-199.48 2743.23,-198.62"/>
<polygon fill="#334155" stroke="#334155" stroke-width="1.8" points="2743.01,-202.12 2752.96,-198.5 2742.92,-195.12 2743.01,-202.12"/>
<text xml:space="preserve" text-anchor="middle" x="2637.88" y="-208.52" font-family="Helvetica,sans-Serif" font-size="8.00">phase progression</text>
</g>
<!-- seg_2B&#45;&gt;seg_3A -->
<g id="edge18" class="edge">
<title>seg_2B&#45;&gt;seg_3A</title>
<path fill="none" stroke="#2563eb" stroke-width="1.2" stroke-dasharray="5,2" d="M2520.1,-227.3C2589.43,-224.5 2667.08,-220.8 2738,-216.12 2739.98,-215.99 2741.98,-215.85 2743.98,-215.72"/>
<polygon fill="#2563eb" stroke="#2563eb" stroke-width="1.2" points="2744.03,-219.22 2753.75,-215.03 2743.53,-212.24 2744.03,-219.22"/>
<text xml:space="preserve" text-anchor="middle" x="2637.88" y="-228.63" font-family="Helvetica,sans-Serif" font-size="8.00">rng_audit_log, rng_trace_log</text>
</g>
<!-- seg_2B&#45;&gt;seg_5B -->
<g id="edge19" class="edge">
<title>seg_2B&#45;&gt;seg_5B</title>
<path fill="none" stroke="#dc2626" stroke-width="1.4" d="M2418.49,-215.65C2473.83,-206.03 2531.39,-196.06 2537.75,-195.12 2710.45,-169.55 2753.04,-147.12 2927.62,-147.12 2927.62,-147.12 2927.62,-147.12 4083.25,-147.12 4280.95,-147.12 4509.24,-199.91 4625.35,-230.63"/>
<polygon fill="#dc2626" stroke="#dc2626" stroke-width="1.4" points="4624.3,-233.97 4634.86,-233.16 4626.1,-227.2 4624.3,-233.97"/>
<text xml:space="preserve" text-anchor="middle" x="3467.38" y="-149.27" font-family="Helvetica,sans-Serif" font-size="8.00">rng_audit_log, rng_trace_log (+7)</text>
</g>
<!-- seg_2B&#45;&gt;seg_6A -->
<g id="edge20" class="edge">
<title>seg_2B&#45;&gt;seg_6A</title>
<path fill="none" stroke="#dc2626" stroke-width="1.4" d="M2378.92,-252.58C2526.39,-293.27 2872.46,-387.12 2927.62,-387.12 2927.62,-387.12 2927.62,-387.12 4703.75,-387.12 4869.94,-387.12 5060.83,-341.74 5162.89,-313.71"/>
<polygon fill="#dc2626" stroke="#dc2626" stroke-width="1.4" points="5163.55,-317.16 5172.25,-311.12 5161.68,-310.41 5163.55,-317.16"/>
<text xml:space="preserve" text-anchor="middle" x="3791.5" y="-389.27" font-family="Helvetica,sans-Serif" font-size="8.00">rng_audit_log, rng_trace_log (+2)</text>
</g>
<!-- seg_3A&#45;&gt;seg_3B -->
<g id="edge5" class="edge">
<title>seg_3A&#45;&gt;seg_3B</title>
<path fill="none" stroke="#334155" stroke-width="1.8" d="M3101.66,-207.06C3146.58,-210.35 3194.85,-214.95 3239.25,-221.37 3287.06,-228.29 3339.81,-239.61 3382.43,-249.71"/>
<polygon fill="#334155" stroke="#334155" stroke-width="1.8" points="3381.56,-253.1 3392.1,-252.02 3383.19,-246.29 3381.56,-253.1"/>
<text xml:space="preserve" text-anchor="middle" x="3179.25" y="-223.52" font-family="Helvetica,sans-Serif" font-size="8.00">phase progression</text>
</g>
<!-- seg_3A&#45;&gt;seg_3B -->
<g id="edge21" class="edge">
<title>seg_3A&#45;&gt;seg_3B</title>
<path fill="none" stroke="#2563eb" stroke-width="1.2" stroke-dasharray="5,2" d="M3032.81,-217.54C3060.81,-222.27 3091.15,-227.13 3119.25,-231.12 3170.9,-238.45 3227.02,-245.37 3278.78,-251.32"/>
<polygon fill="#2563eb" stroke="#2563eb" stroke-width="1.2" points="3278.31,-254.79 3288.64,-252.45 3279.1,-247.84 3278.31,-254.79"/>
<text xml:space="preserve" text-anchor="middle" x="3179.25" y="-248.15" font-family="Helvetica,sans-Serif" font-size="8.00">rng_audit_log, rng_trace_log (+4)</text>
</g>
<!-- seg_3A&#45;&gt;seg_5B -->
<g id="edge22" class="edge">
<title>seg_3A&#45;&gt;seg_5B</title>
<path fill="none" stroke="#dc2626" stroke-width="1.4" d="M3101.59,-201.69C3146.41,-202.42 3194.64,-203.25 3239.25,-204.12 3802.51,-215.11 3944.14,-199.37 4506.5,-233.12 4508.4,-233.23 4510.3,-233.35 4512.22,-233.47"/>
<polygon fill="#dc2626" stroke="#dc2626" stroke-width="1.4" points="4511.76,-236.95 4521.97,-234.13 4512.22,-229.97 4511.76,-236.95"/>
<text xml:space="preserve" text-anchor="middle" x="3791.5" y="-212.31" font-family="Helvetica,sans-Serif" font-size="8.00">rng_audit_log, rng_trace_log (+4)</text>
</g>
<!-- seg_3B&#45;&gt;seg_5A -->
<g id="edge6" class="edge">
<title>seg_3B&#45;&gt;seg_5A</title>
<path fill="none" stroke="#334155" stroke-width="1.8" d="M3677.82,-277.81C3683.78,-277.93 3689.68,-278.03 3695.5,-278.12 3780.82,-279.43 3802.17,-278.34 3887.5,-278.12 3889.22,-278.12 3890.95,-278.11 3892.69,-278.11"/>
<polygon fill="#334155" stroke="#334155" stroke-width="1.8" points="3892.45,-281.61 3902.44,-278.08 3892.43,-274.61 3892.45,-281.61"/>
<text xml:space="preserve" text-anchor="middle" x="3791.5" y="-280.91" font-family="Helvetica,sans-Serif" font-size="8.00">phase progression</text>
</g>
<!-- seg_3B&#45;&gt;seg_5A -->
<g id="edge23" class="edge">
<title>seg_3B&#45;&gt;seg_5A</title>
<path fill="none" stroke="#2563eb" stroke-width="1.2" stroke-dasharray="5,2" d="M3677.86,-266.44C3744.84,-265.7 3819.3,-265.66 3887.5,-267.37 3889.5,-267.42 3891.5,-267.47 3893.52,-267.53"/>
<polygon fill="#2563eb" stroke="#2563eb" stroke-width="1.2" points="3893.26,-271.02 3903.36,-267.82 3893.47,-264.03 3893.26,-271.02"/>
<text xml:space="preserve" text-anchor="middle" x="3791.5" y="-269.52" font-family="Helvetica,sans-Serif" font-size="8.00">validation_bundle_3B, validation_passed_flag_3B (+3)</text>
</g>
<!-- seg_3B&#45;&gt;seg_5B -->
<g id="edge24" class="edge">
<title>seg_3B&#45;&gt;seg_5B</title>
<path fill="none" stroke="#dc2626" stroke-width="1.4" d="M3677.75,-253.1C3747.58,-247.9 3825.84,-242.93 3897.5,-240.37 4168,-230.69 4235.93,-236.53 4506.5,-244.12 4508.3,-244.17 4510.11,-244.22 4511.93,-244.28"/>
<polygon fill="#dc2626" stroke="#dc2626" stroke-width="1.4" points="4511.82,-247.77 4521.93,-244.58 4512.04,-240.78 4511.82,-247.77"/>
<text xml:space="preserve" text-anchor="middle" x="4082.25" y="-242.52" font-family="Helvetica,sans-Serif" font-size="8.00">edge_alias_blob_3B, edge_alias_index_3B (+11)</text>
</g>
<!-- seg_3B&#45;&gt;seg_6A -->
<g id="edge25" class="edge">
<title>seg_3B&#45;&gt;seg_6A</title>
<path fill="none" stroke="#dc2626" stroke-width="1.4" d="M3579.13,-289.59C3665.56,-303.03 3788.79,-320.06 3897.5,-327.12 4337.24,-355.69 4448.89,-349.24 4889,-327.12 4949.6,-324.07 5015.92,-318.06 5074.23,-311.86"/>
<polygon fill="#dc2626" stroke="#dc2626" stroke-width="1.4" points="5074.48,-315.36 5084.05,-310.81 5073.73,-308.4 5074.48,-315.36"/>
<text xml:space="preserve" text-anchor="middle" x="4391.75" y="-348.35" font-family="Helvetica,sans-Serif" font-size="8.00">edge_universe_hash_3B, rng_audit_log (+6)</text>
</g>
<!-- seg_5A&#45;&gt;seg_5B -->
<g id="edge7" class="edge">
<title>seg_5A&#45;&gt;seg_5B</title>
<path fill="none" stroke="#334155" stroke-width="1.8" d="M4216.99,-258.62C4237.07,-256.45 4257.55,-254.59 4277,-253.37 4353.62,-248.58 4438.16,-247.48 4511.51,-247.86"/>
<polygon fill="#334155" stroke="#334155" stroke-width="1.8" points="4511.38,-251.36 4521.4,-247.92 4511.43,-244.36 4511.38,-251.36"/>
<text xml:space="preserve" text-anchor="middle" x="4391.75" y="-255.52" font-family="Helvetica,sans-Serif" font-size="8.00">phase progression</text>
</g>
<!-- seg_5A&#45;&gt;seg_5B -->
<g id="edge26" class="edge">
<title>seg_5A&#45;&gt;seg_5B</title>
<path fill="none" stroke="#2563eb" stroke-width="1.2" stroke-dasharray="5,2" d="M4259.35,-272.21C4335.39,-269.85 4425.34,-266.75 4506.5,-263.12 4508.48,-263.03 4510.48,-262.94 4512.48,-262.85"/>
<polygon fill="#2563eb" stroke="#2563eb" stroke-width="1.2" points="4512.41,-266.36 4522.23,-262.39 4512.08,-259.36 4512.41,-266.36"/>
<text xml:space="preserve" text-anchor="middle" x="4391.75" y="-273.48" font-family="Helvetica,sans-Serif" font-size="8.00">class_zone_shape_5A, merchant_zone_overlay_factors_5A (+7)</text>
</g>
<!-- seg_5A&#45;&gt;seg_6A -->
<g id="edge27" class="edge">
<title>seg_5A&#45;&gt;seg_6A</title>
<path fill="none" stroke="#dc2626" stroke-width="1.4" d="M4259.33,-284.65C4265.29,-284.82 4271.19,-284.98 4277,-285.12 4540.61,-291.52 4845.07,-292.68 5039.05,-292.64"/>
<polygon fill="#dc2626" stroke="#dc2626" stroke-width="1.4" points="5038.97,-296.14 5048.96,-292.63 5038.96,-289.14 5038.97,-296.14"/>
<text xml:space="preserve" text-anchor="middle" x="4702.75" y="-294.54" font-family="Helvetica,sans-Serif" font-size="8.00">merchant_zone_profile_5A, validation_bundle_5A (+1)</text>
</g>
<!-- seg_5B&#45;&gt;seg_6A -->
<g id="edge8" class="edge">
<title>seg_5B&#45;&gt;seg_6A</title>
<path fill="none" stroke="#334155" stroke-width="1.8" d="M4881.48,-265.47C4931.78,-269.25 4986.85,-273.38 5038.27,-277.24"/>
<polygon fill="#334155" stroke="#334155" stroke-width="1.8" points="5037.96,-280.73 5048.2,-277.99 5038.49,-273.75 5037.96,-280.73"/>
<text xml:space="preserve" text-anchor="middle" x="4966.12" y="-277.85" font-family="Helvetica,sans-Serif" font-size="8.00">phase progression</text>
</g>
<!-- seg_5B&#45;&gt;seg_6A -->
<g id="edge28" class="edge">
<title>seg_5B&#45;&gt;seg_6A</title>
<path fill="none" stroke="#2563eb" stroke-width="1.2" stroke-dasharray="5,2" d="M4881.47,-246.79C4930.72,-246.95 4984.14,-248.63 5033.25,-253.37 5070.82,-256.99 5111.78,-264.17 5147.02,-271.38"/>
<polygon fill="#2563eb" stroke="#2563eb" stroke-width="1.2" points="5145.97,-274.74 5156.47,-273.35 5147.39,-267.88 5145.97,-274.74"/>
<text xml:space="preserve" text-anchor="middle" x="4966.12" y="-255.52" font-family="Helvetica,sans-Serif" font-size="8.00">arrival_events_5B, rng_audit_log (+3)</text>
</g>
<!-- seg_5B&#45;&gt;seg_6B -->
<g id="edge29" class="edge">
<title>seg_5B&#45;&gt;seg_6B</title>
<path fill="none" stroke="#dc2626" stroke-width="1.4" d="M4881.45,-243.58C4887.37,-243.41 4893.23,-243.25 4899,-243.12 5128.01,-237.84 5389.74,-246.45 5571.85,-254.79"/>
<polygon fill="#dc2626" stroke="#dc2626" stroke-width="1.4" points="5571.46,-258.28 5581.61,-255.24 5571.78,-251.28 5571.46,-258.28"/>
<text xml:space="preserve" text-anchor="middle" x="5237.38" y="-250.59" font-family="Helvetica,sans-Serif" font-size="8.00">arrival_events_5B, rng_audit_log (+3)</text>
</g>
<!-- seg_6A&#45;&gt;seg_6B -->
<g id="edge9" class="edge">
<title>seg_6A&#45;&gt;seg_6B</title>
<path fill="none" stroke="#334155" stroke-width="1.8" d="M5378.6,-273.63C5399.65,-271.46 5421.12,-269.59 5441.5,-268.37 5483.33,-265.86 5527.96,-264.58 5571.01,-264.07"/>
<polygon fill="#334155" stroke="#334155" stroke-width="1.8" points="5571.02,-267.57 5580.99,-263.96 5570.95,-260.57 5571.02,-267.57"/>
<text xml:space="preserve" text-anchor="middle" x="5503.75" y="-270.52" font-family="Helvetica,sans-Serif" font-size="8.00">phase progression</text>
</g>
<!-- seg_6A&#45;&gt;seg_6B -->
<g id="edge30" class="edge">
<title>seg_6A&#45;&gt;seg_6B</title>
<path fill="none" stroke="#2563eb" stroke-width="1.2" stroke-dasharray="5,2" d="M5423.77,-284.34C5470.22,-282.35 5519.93,-280.19 5566,-278.12 5567.99,-278.03 5569.99,-277.94 5571.99,-277.85"/>
<polygon fill="#2563eb" stroke="#2563eb" stroke-width="1.2" points="5571.93,-281.36 5581.76,-277.41 5571.61,-274.36 5571.93,-281.36"/>
<text xml:space="preserve" text-anchor="middle" x="5503.75" y="-285.41" font-family="Helvetica,sans-Serif" font-size="8.00">rng_audit_log, rng_trace_log (+14)</text>
</g>
</g>
</svg>
