<?xml version="1.0" encoding="UTF-8" standalone="no"?>
<!DOCTYPE svg PUBLIC "-//W3C//DTD SVG 1.1//EN"
 "http://www.w3.org/Graphics/SVG/1.1/DTD/svg11.dtd">
<!-- Generated by graphviz version 14.1.2 (20260124.0452)
 -->
<!-- Title: EngineStateGateLite Pages: 1 -->
<svg width="2791pt" height="384pt"
 viewBox="0.00 0.00 2791.00 384.00" xmlns="http://www.w3.org/2000/svg" xmlns:xlink="http://www.w3.org/1999/xlink">
<g id="graph0" class="graph" transform="scale(1 1) rotate(0) translate(4 380)">
<title>EngineStateGateLite</title>
<polygon fill="white" stroke="none" points="-4,4 -4,-380 2787.25,-380 2787.25,4 -4,4"/>
<text xml:space="preserve" text-anchor="middle" x="1391.62" y="-362.5" font-family="Helvetica,sans-Serif" font-size="10.00">Data Engine State/Gate View (docs&#45;driven, simplified)</text>
<g id="clust1" class="cluster">
<title>cluster_layer1</title>
<path fill="#e8f0fe" stroke="#e8f0fe" d="M20,-104C20,-104 1615.5,-104 1615.5,-104 1621.5,-104 1627.5,-110 1627.5,-116 1627.5,-116 1627.5,-336 1627.5,-336 1627.5,-342 1621.5,-348 1615.5,-348 1615.5,-348 20,-348 20,-348 14,-348 8,-342 8,-336 8,-336 8,-116 8,-116 8,-110 14,-104 20,-104"/>
<text xml:space="preserve" text-anchor="middle" x="817.75" y="-334.5" font-family="Helvetica,sans-Serif" font-size="10.00">Layer 1 &#45; World and Merchant Realism</text>
</g>
<g id="clust2" class="cluster">
<title>cluster_layer2</title>
<path fill="#e6fffa" stroke="#e6fffa" d="M1725.5,-77C1725.5,-77 2138,-77 2138,-77 2144,-77 2150,-83 2150,-89 2150,-89 2150,-137 2150,-137 2150,-143 2144,-149 2138,-149 2138,-149 1725.5,-149 1725.5,-149 1719.5,-149 1713.5,-143 1713.5,-137 1713.5,-137 1713.5,-89 1713.5,-89 1713.5,-83 1719.5,-77 1725.5,-77"/>
<text xml:space="preserve" text-anchor="middle" x="1931.75" y="-135.5" font-family="Helvetica,sans-Serif" font-size="10.00">Layer 2 &#45; Temporal Arrival Surfaces</text>
</g>
<g id="clust3" class="cluster">
<title>cluster_layer3</title>
<path fill="#fff7ed" stroke="#fff7ed" d="M2248,-77C2248,-77 2763.25,-77 2763.25,-77 2769.25,-77 2775.25,-83 2775.25,-89 2775.25,-89 2775.25,-137 2775.25,-137 2775.25,-143 2769.25,-149 2763.25,-149 2763.25,-149 2248,-149 2248,-149 2242,-149 2236,-143 2236,-137 2236,-137 2236,-89 2236,-89 2236,-83 2242,-77 2248,-77"/>
<text xml:space="preserve" text-anchor="middle" x="2505.62" y="-135.5" font-family="Helvetica,sans-Serif" font-size="10.00">Layer 3 &#45; Behavior, Fraud, and Labels</text>
</g>
<!-- seg_1A -->
<g id="node1" class="node">
<title>seg_1A</title>
<path fill="white" stroke="#4b5563" d="M212,-278C212,-278 28,-278 28,-278 22,-278 16,-272 16,-266 16,-266 16,-254 16,-254 16,-248 22,-242 28,-242 28,-242 212,-242 212,-242 218,-242 224,-248 224,-254 224,-254 224,-266 224,-266 224,-272 218,-278 212,-278"/>
<text xml:space="preserve" text-anchor="middle" x="120" y="-256.5" font-family="Helvetica,sans-Serif" font-size="10.00">1A\nMerchants to Physical Sites\n10 states</text>
</g>
<!-- seg_1B -->
<g id="node2" class="node">
<title>seg_1B</title>
<path fill="white" stroke="#4b5563" d="M471,-216C471,-216 338,-216 338,-216 332,-216 326,-210 326,-204 326,-204 326,-192 326,-192 326,-186 332,-180 338,-180 338,-180 471,-180 471,-180 477,-180 483,-186 483,-192 483,-192 483,-204 483,-204 483,-210 477,-216 471,-216"/>
<text xml:space="preserve" text-anchor="middle" x="404.5" y="-194.5" font-family="Helvetica,sans-Serif" font-size="10.00">1B\nSite Geolocation\n10 states</text>
</g>
<!-- seg_1A&#45;&gt;seg_1B -->
<g id="edge1" class="edge">
<title>seg_1A&#45;&gt;seg_1B</title>
<path fill="none" stroke="#334155" stroke-width="1.8" d="M204.99,-241.57C239.18,-234.06 278.76,-225.38 313.54,-217.74"/>
<polygon fill="#334155" stroke="#334155" stroke-width="1.8" points="313.95,-221.24 322.96,-215.68 312.44,-214.4 313.95,-221.24"/>
<text xml:space="preserve" text-anchor="middle" x="275" y="-234.86" font-family="Helvetica,sans-Serif" font-size="8.00">phase progression</text>
</g>
<!-- seg_3A -->
<g id="node5" class="node">
<title>seg_3A</title>
<path fill="white" stroke="#4b5563" d="M1273.5,-213C1273.5,-213 1151,-213 1151,-213 1145,-213 1139,-207 1139,-201 1139,-201 1139,-189 1139,-189 1139,-183 1145,-177 1151,-177 1151,-177 1273.5,-177 1273.5,-177 1279.5,-177 1285.5,-183 1285.5,-189 1285.5,-189 1285.5,-201 1285.5,-201 1285.5,-207 1279.5,-213 1273.5,-213"/>
<text xml:space="preserve" text-anchor="middle" x="1212.25" y="-191.5" font-family="Helvetica,sans-Serif" font-size="10.00">3A\nZone Allocation\n8 states</text>
</g>
<!-- seg_1A&#45;&gt;seg_3A -->
<g id="edge10" class="edge">
<title>seg_1A&#45;&gt;seg_3A</title>
<path fill="none" stroke="#d97706" stroke-width="1.2" stroke-dasharray="5,2" d="M224.22,-267.38C394.03,-278.16 742.85,-294.63 1037,-272 1074.67,-269.1 1085.99,-273.19 1121,-259 1143.53,-249.87 1165.84,-234.12 1182.64,-220.53"/>
<polygon fill="#d97706" stroke="#d97706" stroke-width="1.2" points="1184.54,-223.51 1189.98,-214.43 1180.06,-218.13 1184.54,-223.51"/>
<text xml:space="preserve" text-anchor="middle" x="646.62" y="-285.48" font-family="Helvetica,sans-Serif" font-size="8.00">gate ref</text>
</g>
<!-- seg_3B -->
<g id="node6" class="node">
<title>seg_3B</title>
<path fill="white" stroke="#4b5563" d="M1607.5,-251C1607.5,-251 1399.5,-251 1399.5,-251 1393.5,-251 1387.5,-245 1387.5,-239 1387.5,-239 1387.5,-227 1387.5,-227 1387.5,-221 1393.5,-215 1399.5,-215 1399.5,-215 1607.5,-215 1607.5,-215 1613.5,-215 1619.5,-221 1619.5,-227 1619.5,-227 1619.5,-239 1619.5,-239 1619.5,-245 1613.5,-251 1607.5,-251"/>
<text xml:space="preserve" text-anchor="middle" x="1503.5" y="-229.5" font-family="Helvetica,sans-Serif" font-size="10.00">3B\nVirtual merchants &amp; CDN surfaces\n6 states</text>
</g>
<!-- seg_1A&#45;&gt;seg_3B -->
<g id="edge11" class="edge">
<title>seg_1A&#45;&gt;seg_3B</title>
<path fill="none" stroke="#d97706" stroke-width="1.2" stroke-dasharray="5,2" d="M224.26,-273.17C230.26,-273.82 236.21,-274.43 242,-275 279.25,-278.64 288.65,-278.51 326,-281 441.08,-288.66 469.72,-293.44 585,-297 785.9,-303.2 836.45,-295.45 1037,-282 1147.63,-274.58 1175.09,-270.14 1285.5,-260 1322.84,-256.57 1332.26,-256.43 1369.5,-252 1371.49,-251.76 1373.5,-251.52 1375.52,-251.27"/>
<polygon fill="#d97706" stroke="#d97706" stroke-width="1.2" points="1375.91,-254.75 1385.4,-250.03 1375.04,-247.81 1375.91,-254.75"/>
<text xml:space="preserve" text-anchor="middle" x="759.25" y="-301.24" font-family="Helvetica,sans-Serif" font-size="8.00">gate ref</text>
</g>
<!-- seg_5A -->
<g id="node7" class="node">
<title>seg_5A</title>
<path fill="white" stroke="#4b5563" d="M1868.75,-121C1868.75,-121 1733.5,-121 1733.5,-121 1727.5,-121 1721.5,-115 1721.5,-109 1721.5,-109 1721.5,-97 1721.5,-97 1721.5,-91 1727.5,-85 1733.5,-85 1733.5,-85 1868.75,-85 1868.75,-85 1874.75,-85 1880.75,-91 1880.75,-97 1880.75,-97 1880.75,-109 1880.75,-109 1880.75,-115 1874.75,-121 1868.75,-121"/>
<text xml:space="preserve" text-anchor="middle" x="1801.12" y="-99.5" font-family="Helvetica,sans-Serif" font-size="10.00">5A\nIntensity Surfaces\n6 states</text>
</g>
<!-- seg_1A&#45;&gt;seg_5A -->
<g id="edge12" class="edge">
<title>seg_1A&#45;&gt;seg_5A</title>
<path fill="none" stroke="#d97706" stroke-width="1.2" stroke-dasharray="5,2" d="M129.59,-241.72C158.81,-182.54 260.52,0 403.5,0 403.5,0 403.5,0 1504.5,0 1595.8,0 1620.04,-13.98 1703.5,-51 1722.1,-59.25 1742.01,-69.67 1758.88,-79.01"/>
<polygon fill="#d97706" stroke="#d97706" stroke-width="1.2" points="1756.94,-81.94 1767.38,-83.77 1760.37,-75.83 1756.94,-81.94"/>
<text xml:space="preserve" text-anchor="middle" x="923.62" y="-2.15" font-family="Helvetica,sans-Serif" font-size="8.00">gate ref</text>
</g>
<!-- seg_2A -->
<g id="node3" class="node">
<title>seg_2A</title>
<path fill="white" stroke="#4b5563" d="M696.25,-148C696.25,-148 597,-148 597,-148 591,-148 585,-142 585,-136 585,-136 585,-124 585,-124 585,-118 591,-112 597,-112 597,-112 696.25,-112 696.25,-112 702.25,-112 708.25,-118 708.25,-124 708.25,-124 708.25,-136 708.25,-136 708.25,-142 702.25,-148 696.25,-148"/>
<text xml:space="preserve" text-anchor="middle" x="646.62" y="-126.5" font-family="Helvetica,sans-Serif" font-size="10.00">2A\nCivil Time\n6 states</text>
</g>
<!-- seg_1B&#45;&gt;seg_2A -->
<g id="edge2" class="edge">
<title>seg_1B&#45;&gt;seg_2A</title>
<path fill="none" stroke="#334155" stroke-width="1.8" d="M465.8,-179.58C477.46,-176.09 489.6,-172.51 501,-169.25 524.22,-162.61 549.61,-155.62 572.55,-149.41"/>
<polygon fill="#334155" stroke="#334155" stroke-width="1.8" points="573.28,-152.84 582.02,-146.86 571.46,-146.08 573.28,-152.84"/>
<text xml:space="preserve" text-anchor="middle" x="534" y="-171.4" font-family="Helvetica,sans-Serif" font-size="8.00">phase progression</text>
</g>
<!-- seg_2B -->
<g id="node4" class="node">
<title>seg_2B</title>
<path fill="white" stroke="#4b5563" d="M1025,-194C1025,-194 822.25,-194 822.25,-194 816.25,-194 810.25,-188 810.25,-182 810.25,-182 810.25,-170 810.25,-170 810.25,-164 816.25,-158 822.25,-158 822.25,-158 1025,-158 1025,-158 1031,-158 1037,-164 1037,-170 1037,-170 1037,-182 1037,-182 1037,-188 1031,-194 1025,-194"/>
<text xml:space="preserve" text-anchor="middle" x="923.62" y="-172.5" font-family="Helvetica,sans-Serif" font-size="10.00">2B\nRouting: traffic to sites and edges\n9 states</text>
</g>
<!-- seg_1B&#45;&gt;seg_2B -->
<g id="edge13" class="edge">
<title>seg_1B&#45;&gt;seg_2B</title>
<path fill="none" stroke="#d97706" stroke-width="1.2" stroke-dasharray="5,2" d="M483.48,-194.68C566.85,-191.14 700.26,-185.46 798.18,-181.29"/>
<polygon fill="#d97706" stroke="#d97706" stroke-width="1.2" points="798.28,-184.79 808.13,-180.87 797.99,-177.8 798.28,-184.79"/>
<text xml:space="preserve" text-anchor="middle" x="646.62" y="-192.41" font-family="Helvetica,sans-Serif" font-size="8.00">gate ref</text>
</g>
<!-- seg_1B&#45;&gt;seg_3A -->
<g id="edge14" class="edge">
<title>seg_1B&#45;&gt;seg_3A</title>
<path fill="none" stroke="#d97706" stroke-width="1.2" stroke-dasharray="5,2" d="M483.24,-201.17C514.81,-202.3 551.64,-203.44 585,-204 714.22,-206.16 994.17,-208.76 1121,-203 1123.09,-202.91 1125.21,-202.8 1127.34,-202.68"/>
<polygon fill="#d97706" stroke="#d97706" stroke-width="1.2" points="1127.3,-206.19 1137.06,-202.08 1126.87,-199.2 1127.3,-206.19"/>
<text xml:space="preserve" text-anchor="middle" x="759.25" y="-208.36" font-family="Helvetica,sans-Serif" font-size="8.00">gate ref</text>
</g>
<!-- seg_1B&#45;&gt;seg_3B -->
<g id="edge15" class="edge">
<title>seg_1B&#45;&gt;seg_3B</title>
<path fill="none" stroke="#d97706" stroke-width="1.2" stroke-dasharray="5,2" d="M483.32,-208.75C564.7,-219.64 696.21,-236.22 810.25,-246 918.78,-255.31 946.11,-256.11 1055,-259 1194.89,-262.71 1229.92,-253.98 1369.5,-244 1371.49,-243.86 1373.49,-243.71 1375.5,-243.57"/>
<polygon fill="#d97706" stroke="#d97706" stroke-width="1.2" points="1375.65,-247.06 1385.36,-242.83 1375.13,-240.08 1375.65,-247.06"/>
<text xml:space="preserve" text-anchor="middle" x="923.62" y="-260.66" font-family="Helvetica,sans-Serif" font-size="8.00">gate ref</text>
</g>
<!-- seg_1B&#45;&gt;seg_5A -->
<g id="edge16" class="edge">
<title>seg_1B&#45;&gt;seg_5A</title>
<path fill="none" stroke="#d97706" stroke-width="1.2" stroke-dasharray="5,2" d="M419.54,-179.65C453.43,-137.62 544.43,-38 645.62,-38 645.62,-38 645.62,-38 1504.5,-38 1586.45,-38 1678.26,-62.12 1737.51,-80.98"/>
<polygon fill="#d97706" stroke="#d97706" stroke-width="1.2" points="1736.23,-84.24 1746.82,-83.99 1738.38,-77.58 1736.23,-84.24"/>
<text xml:space="preserve" text-anchor="middle" x="1088" y="-40.15" font-family="Helvetica,sans-Serif" font-size="8.00">gate ref</text>
</g>
<!-- seg_2A&#45;&gt;seg_2B -->
<g id="edge3" class="edge">
<title>seg_2A&#45;&gt;seg_2B</title>
<path fill="none" stroke="#334155" stroke-width="1.8" d="M708.66,-140.21C735.55,-144.71 768.16,-150.16 799.73,-155.44"/>
<polygon fill="#334155" stroke="#334155" stroke-width="1.8" points="799.11,-158.89 809.55,-157.09 800.26,-151.98 799.11,-158.89"/>
<text xml:space="preserve" text-anchor="middle" x="759.25" y="-155.15" font-family="Helvetica,sans-Serif" font-size="8.00">phase progression</text>
</g>
<!-- seg_2A&#45;&gt;seg_3A -->
<g id="edge17" class="edge">
<title>seg_2A&#45;&gt;seg_3A</title>
<path fill="none" stroke="#d97706" stroke-width="1.2" stroke-dasharray="5,2" d="M708.5,-126.12C785.57,-122.42 922.14,-119.92 1037,-139.25 1077.38,-146.04 1121.29,-160.14 1154.92,-172.45"/>
<polygon fill="#d97706" stroke="#d97706" stroke-width="1.2" points="1153.62,-175.7 1164.21,-175.91 1156.06,-169.14 1153.62,-175.7"/>
<text xml:space="preserve" text-anchor="middle" x="923.62" y="-141.4" font-family="Helvetica,sans-Serif" font-size="8.00">gate ref</text>
</g>
<!-- seg_2A&#45;&gt;seg_3B -->
<g id="edge18" class="edge">
<title>seg_2A&#45;&gt;seg_3B</title>
<path fill="none" stroke="#d97706" stroke-width="1.2" stroke-dasharray="5,2" d="M674.41,-148.4C685.9,-157.26 698.82,-168.65 708.25,-181 719.83,-196.18 710.26,-209.58 726.25,-220 779.04,-254.4 1168.88,-245.48 1375.21,-238.17"/>
<polygon fill="#d97706" stroke="#d97706" stroke-width="1.2" points="1375.33,-241.67 1385.2,-237.82 1375.08,-234.68 1375.33,-241.67"/>
<text xml:space="preserve" text-anchor="middle" x="1088" y="-247.06" font-family="Helvetica,sans-Serif" font-size="8.00">gate ref</text>
</g>
<!-- seg_2A&#45;&gt;seg_5A -->
<g id="edge19" class="edge">
<title>seg_2A&#45;&gt;seg_5A</title>
<path fill="none" stroke="#d97706" stroke-width="1.2" stroke-dasharray="5,2" d="M708.57,-113.85C763.98,-100.59 848.2,-84 922.62,-84 922.62,-84 922.62,-84 1504.5,-84 1573.45,-84 1651.26,-89.21 1709.73,-94.17"/>
<polygon fill="#d97706" stroke="#d97706" stroke-width="1.2" points="1709.09,-97.63 1719.35,-95.01 1709.69,-90.66 1709.09,-97.63"/>
<text xml:space="preserve" text-anchor="middle" x="1212.25" y="-86.15" font-family="Helvetica,sans-Serif" font-size="8.00">gate ref</text>
</g>
<!-- seg_2B&#45;&gt;seg_3A -->
<g id="edge4" class="edge">
<title>seg_2B&#45;&gt;seg_3A</title>
<path fill="none" stroke="#334155" stroke-width="1.8" d="M1037.5,-183.48C1066.98,-185.44 1098.26,-187.51 1126.03,-189.35"/>
<polygon fill="#334155" stroke="#334155" stroke-width="1.8" points="1125.6,-192.83 1135.81,-190 1126.06,-185.85 1125.6,-192.83"/>
<text xml:space="preserve" text-anchor="middle" x="1088" y="-191" font-family="Helvetica,sans-Serif" font-size="8.00">phase progression</text>
</g>
<!-- seg_2B&#45;&gt;seg_5A -->
<g id="edge20" class="edge">
<title>seg_2B&#45;&gt;seg_5A</title>
<path fill="none" stroke="#d97706" stroke-width="1.2" stroke-dasharray="5,2" d="M1037.29,-166.61C1212.89,-151.96 1548.4,-123.99 1709.45,-110.56"/>
<polygon fill="#d97706" stroke="#d97706" stroke-width="1.2" points="1709.72,-114.05 1719.4,-109.73 1709.14,-107.07 1709.72,-114.05"/>
<text xml:space="preserve" text-anchor="middle" x="1336.5" y="-145.85" font-family="Helvetica,sans-Serif" font-size="8.00">gate ref</text>
</g>
<!-- seg_3A&#45;&gt;seg_3B -->
<g id="edge5" class="edge">
<title>seg_3A&#45;&gt;seg_3B</title>
<path fill="none" stroke="#334155" stroke-width="1.8" d="M1285.87,-204.54C1312.78,-208.08 1344.17,-212.2 1374.55,-216.19"/>
<polygon fill="#334155" stroke="#334155" stroke-width="1.8" points="1373.97,-219.64 1384.34,-217.48 1374.88,-212.7 1373.97,-219.64"/>
<text xml:space="preserve" text-anchor="middle" x="1336.5" y="-217.29" font-family="Helvetica,sans-Serif" font-size="8.00">phase progression</text>
</g>
<!-- seg_3A&#45;&gt;seg_5A -->
<g id="edge21" class="edge">
<title>seg_3A&#45;&gt;seg_5A</title>
<path fill="none" stroke="#d97706" stroke-width="1.2" stroke-dasharray="5,2" d="M1285.92,-191.02C1382.35,-184.66 1557.45,-169.34 1703.5,-136 1715.94,-133.16 1729.02,-129.31 1741.4,-125.24"/>
<polygon fill="#d97706" stroke="#d97706" stroke-width="1.2" points="1742.47,-128.57 1750.81,-122.05 1740.22,-121.95 1742.47,-128.57"/>
<text xml:space="preserve" text-anchor="middle" x="1503.5" y="-184.78" font-family="Helvetica,sans-Serif" font-size="8.00">gate ref</text>
</g>
<!-- seg_3B&#45;&gt;seg_5A -->
<g id="edge6" class="edge">
<title>seg_3B&#45;&gt;seg_5A</title>
<path fill="none" stroke="#334155" stroke-width="1.8" d="M1619.83,-218.65C1648.19,-212.3 1677.78,-203.16 1703.5,-190 1732.04,-175.4 1758.65,-150.23 1776.69,-130.7"/>
<polygon fill="#334155" stroke="#334155" stroke-width="1.8" points="1779.17,-133.18 1783.24,-123.4 1773.96,-128.5 1779.17,-133.18"/>
<text xml:space="preserve" text-anchor="middle" x="1670.5" y="-215.53" font-family="Helvetica,sans-Serif" font-size="8.00">phase progression</text>
</g>
<!-- seg_5B -->
<g id="node8" class="node">
<title>seg_5B</title>
<path fill="white" stroke="#4b5563" d="M2130,-121C2130,-121 1994.75,-121 1994.75,-121 1988.75,-121 1982.75,-115 1982.75,-109 1982.75,-109 1982.75,-97 1982.75,-97 1982.75,-91 1988.75,-85 1994.75,-85 1994.75,-85 2130,-85 2130,-85 2136,-85 2142,-91 2142,-97 2142,-97 2142,-109 2142,-109 2142,-115 2136,-121 2130,-121"/>
<text xml:space="preserve" text-anchor="middle" x="2062.38" y="-99.5" font-family="Helvetica,sans-Serif" font-size="10.00">5B\nArrival Realisation\n6 states</text>
</g>
<!-- seg_5A&#45;&gt;seg_5B -->
<g id="edge7" class="edge">
<title>seg_5A&#45;&gt;seg_5B</title>
<path fill="none" stroke="#334155" stroke-width="1.8" d="M1880.96,-103C1908.99,-103 1940.79,-103 1969.79,-103"/>
<polygon fill="#334155" stroke="#334155" stroke-width="1.8" points="1969.74,-106.5 1979.74,-103 1969.74,-99.5 1969.74,-106.5"/>
<text xml:space="preserve" text-anchor="middle" x="1931.75" y="-105.15" font-family="Helvetica,sans-Serif" font-size="8.00">phase progression</text>
</g>
<!-- seg_6A -->
<g id="node9" class="node">
<title>seg_6A</title>
<path fill="white" stroke="#4b5563" d="M2411.5,-121C2411.5,-121 2256,-121 2256,-121 2250,-121 2244,-115 2244,-109 2244,-109 2244,-97 2244,-97 2244,-91 2250,-85 2256,-85 2256,-85 2411.5,-85 2411.5,-85 2417.5,-85 2423.5,-91 2423.5,-97 2423.5,-97 2423.5,-109 2423.5,-109 2423.5,-115 2417.5,-121 2411.5,-121"/>
<text xml:space="preserve" text-anchor="middle" x="2333.75" y="-99.5" font-family="Helvetica,sans-Serif" font-size="10.00">6A\nEntity &amp; Product World\n6 states</text>
</g>
<!-- seg_5B&#45;&gt;seg_6A -->
<g id="edge8" class="edge">
<title>seg_5B&#45;&gt;seg_6A</title>
<path fill="none" stroke="#334155" stroke-width="1.8" d="M2142.38,-103C2170.22,-103 2201.92,-103 2231.36,-103"/>
<polygon fill="#334155" stroke="#334155" stroke-width="1.8" points="2231.1,-106.5 2241.1,-103 2231.1,-99.5 2231.1,-106.5"/>
<text xml:space="preserve" text-anchor="middle" x="2193" y="-105.15" font-family="Helvetica,sans-Serif" font-size="8.00">phase progression</text>
</g>
<!-- seg_6B -->
<g id="node10" class="node">
<title>seg_6B</title>
<path fill="white" stroke="#4b5563" d="M2755.25,-121C2755.25,-121 2537.5,-121 2537.5,-121 2531.5,-121 2525.5,-115 2525.5,-109 2525.5,-109 2525.5,-97 2525.5,-97 2525.5,-91 2531.5,-85 2537.5,-85 2537.5,-85 2755.25,-85 2755.25,-85 2761.25,-85 2767.25,-91 2767.25,-97 2767.25,-97 2767.25,-109 2767.25,-109 2767.25,-115 2761.25,-121 2755.25,-121"/>
<text xml:space="preserve" text-anchor="middle" x="2646.38" y="-99.5" font-family="Helvetica,sans-Serif" font-size="10.00">6B\nBehaviour, Fraud Overlay &amp; Labelling\n6 states</text>
</g>
<!-- seg_6A&#45;&gt;seg_6B -->
<g id="edge9" class="edge">
<title>seg_6A&#45;&gt;seg_6B</title>
<path fill="none" stroke="#334155" stroke-width="1.8" d="M2423.76,-103C2451.49,-103 2482.7,-103 2512.74,-103"/>
<polygon fill="#334155" stroke="#334155" stroke-width="1.8" points="2512.36,-106.5 2522.36,-103 2512.36,-99.5 2512.36,-106.5"/>
<text xml:space="preserve" text-anchor="middle" x="2474.5" y="-105.15" font-family="Helvetica,sans-Serif" font-size="8.00">phase progression</text>
</g>
</g>
</svg>
