<?xml version="1.0" encoding="UTF-8" standalone="no"?>
<!DOCTYPE svg PUBLIC "-//W3C//DTD SVG 1.1//EN"
 "http://www.w3.org/Graphics/SVG/1.1/DTD/svg11.dtd">
<!-- Generated by graphviz version 14.1.2 (20260124.0452)
 -->
<!-- Title: EngineStateGateLite Pages: 1 -->
<svg width="2143pt" height="392pt"
 viewBox="0.00 0.00 2143.00 392.00" xmlns="http://www.w3.org/2000/svg" xmlns:xlink="http://www.w3.org/1999/xlink">
<g id="graph0" class="graph" transform="scale(1 1) rotate(0) translate(4 388)">
<title>EngineStateGateLite</title>
<polygon fill="white" stroke="none" points="-4,4 -4,-388 2139.25,-388 2139.25,4 -4,4"/>
<text xml:space="preserve" text-anchor="middle" x="1067.62" y="-370.5" font-family="Helvetica,sans-Serif" font-size="10.00">Data Engine State/Gate View (docs&#45;driven, simplified)</text>
<g id="clust1" class="cluster">
<title>cluster_layer1</title>
<path fill="#e8f0fe" stroke="#e8f0fe" d="M20,-104C20,-104 1222.5,-104 1222.5,-104 1228.5,-104 1234.5,-110 1234.5,-116 1234.5,-116 1234.5,-344 1234.5,-344 1234.5,-350 1228.5,-356 1222.5,-356 1222.5,-356 20,-356 20,-356 14,-356 8,-350 8,-344 8,-344 8,-116 8,-116 8,-110 14,-104 20,-104"/>
<text xml:space="preserve" text-anchor="middle" x="621.25" y="-342.5" font-family="Helvetica,sans-Serif" font-size="10.00">Layer 1 &#45; World and Merchant Realism</text>
</g>
<g id="clust2" class="cluster">
<title>cluster_layer2</title>
<path fill="#e6fffa" stroke="#e6fffa" d="M1332.5,-73C1332.5,-73 1617.5,-73 1617.5,-73 1623.5,-73 1629.5,-79 1629.5,-85 1629.5,-85 1629.5,-141 1629.5,-141 1629.5,-147 1623.5,-153 1617.5,-153 1617.5,-153 1332.5,-153 1332.5,-153 1326.5,-153 1320.5,-147 1320.5,-141 1320.5,-141 1320.5,-85 1320.5,-85 1320.5,-79 1326.5,-73 1332.5,-73"/>
<text xml:space="preserve" text-anchor="middle" x="1475" y="-139.5" font-family="Helvetica,sans-Serif" font-size="10.00">Layer 2 &#45; Temporal Arrival Surfaces</text>
</g>
<g id="clust3" class="cluster">
<title>cluster_layer3</title>
<path fill="#fff7ed" stroke="#fff7ed" d="M1727.5,-73C1727.5,-73 2115.25,-73 2115.25,-73 2121.25,-73 2127.25,-79 2127.25,-85 2127.25,-85 2127.25,-141 2127.25,-141 2127.25,-147 2121.25,-153 2115.25,-153 2115.25,-153 1727.5,-153 1727.5,-153 1721.5,-153 1715.5,-147 1715.5,-141 1715.5,-141 1715.5,-85 1715.5,-85 1715.5,-79 1721.5,-73 1727.5,-73"/>
<text xml:space="preserve" text-anchor="middle" x="1921.38" y="-139.5" font-family="Helvetica,sans-Serif" font-size="10.00">Layer 3 &#45; Behavior, Fraud, and Labels</text>
</g>
<!-- seg_1A -->
<g id="node1" class="node">
<title>seg_1A</title>
<path fill="white" stroke="#4b5563" d="M143,-297C143,-297 28,-297 28,-297 22,-297 16,-291 16,-285 16,-285 16,-265 16,-265 16,-259 22,-253 28,-253 28,-253 143,-253 143,-253 149,-253 155,-259 155,-265 155,-265 155,-285 155,-285 155,-291 149,-297 143,-297"/>
<text xml:space="preserve" text-anchor="middle" x="85.5" y="-283.5" font-family="Helvetica,sans-Serif" font-size="10.00">1A</text>
<text xml:space="preserve" text-anchor="middle" x="85.5" y="-271.5" font-family="Helvetica,sans-Serif" font-size="10.00">Merchants to Physical Sites</text>
<text xml:space="preserve" text-anchor="middle" x="85.5" y="-259.5" font-family="Helvetica,sans-Serif" font-size="10.00">10 states</text>
</g>
<!-- seg_1B -->
<g id="node2" class="node">
<title>seg_1B</title>
<path fill="white" stroke="#4b5563" d="M333,-228C333,-228 269,-228 269,-228 263,-228 257,-222 257,-216 257,-216 257,-196 257,-196 257,-190 263,-184 269,-184 269,-184 333,-184 333,-184 339,-184 345,-190 345,-196 345,-196 345,-216 345,-216 345,-222 339,-228 333,-228"/>
<text xml:space="preserve" text-anchor="middle" x="301" y="-214.5" font-family="Helvetica,sans-Serif" font-size="10.00">1B</text>
<text xml:space="preserve" text-anchor="middle" x="301" y="-202.5" font-family="Helvetica,sans-Serif" font-size="10.00">Site Geolocation</text>
<text xml:space="preserve" text-anchor="middle" x="301" y="-190.5" font-family="Helvetica,sans-Serif" font-size="10.00">10 states</text>
</g>
<!-- seg_1A&#45;&gt;seg_1B -->
<g id="edge1" class="edge">
<title>seg_1A&#45;&gt;seg_1B</title>
<path fill="none" stroke="#334155" stroke-width="1.8" d="M155.23,-252.79C184.09,-243.46 217.21,-232.76 244.48,-223.94"/>
<polygon fill="#334155" stroke="#334155" stroke-width="1.8" points="245.54,-227.28 253.98,-220.87 243.38,-220.62 245.54,-227.28"/>
<text xml:space="preserve" text-anchor="middle" x="206" y="-248.83" font-family="Helvetica,sans-Serif" font-size="8.00">phase progression</text>
</g>
<!-- seg_3A -->
<g id="node5" class="node">
<title>seg_3A</title>
<path fill="white" stroke="#4b5563" d="M944.25,-212C944.25,-212 885.5,-212 885.5,-212 879.5,-212 873.5,-206 873.5,-200 873.5,-200 873.5,-180 873.5,-180 873.5,-174 879.5,-168 885.5,-168 885.5,-168 944.25,-168 944.25,-168 950.25,-168 956.25,-174 956.25,-180 956.25,-180 956.25,-200 956.25,-200 956.25,-206 950.25,-212 944.25,-212"/>
<text xml:space="preserve" text-anchor="middle" x="914.88" y="-198.5" font-family="Helvetica,sans-Serif" font-size="10.00">3A</text>
<text xml:space="preserve" text-anchor="middle" x="914.88" y="-186.5" font-family="Helvetica,sans-Serif" font-size="10.00">Zone Allocation</text>
<text xml:space="preserve" text-anchor="middle" x="914.88" y="-174.5" font-family="Helvetica,sans-Serif" font-size="10.00">8 states</text>
</g>
<!-- seg_1A&#45;&gt;seg_3A -->
<g id="edge10" class="edge">
<title>seg_1A&#45;&gt;seg_3A</title>
<path fill="none" stroke="#d97706" stroke-width="1.2" stroke-dasharray="5,2" d="M155.24,-279.93C278.88,-287.78 546.84,-300.21 771.5,-279 809.34,-275.43 822.95,-282.61 855.5,-263 871.88,-253.13 885.54,-236.89 895.52,-222.22"/>
<polygon fill="#d97706" stroke="#d97706" stroke-width="1.2" points="898.38,-224.25 900.85,-213.95 892.5,-220.46 898.38,-224.25"/>
<text xml:space="preserve" text-anchor="middle" x="476.75" y="-292.91" font-family="Helvetica,sans-Serif" font-size="8.00">gate ref</text>
</g>
<!-- seg_3B -->
<g id="node6" class="node">
<title>seg_3B</title>
<path fill="white" stroke="#4b5563" d="M1214.5,-263C1214.5,-263 1070.25,-263 1070.25,-263 1064.25,-263 1058.25,-257 1058.25,-251 1058.25,-251 1058.25,-231 1058.25,-231 1058.25,-225 1064.25,-219 1070.25,-219 1070.25,-219 1214.5,-219 1214.5,-219 1220.5,-219 1226.5,-225 1226.5,-231 1226.5,-231 1226.5,-251 1226.5,-251 1226.5,-257 1220.5,-263 1214.5,-263"/>
<text xml:space="preserve" text-anchor="middle" x="1142.38" y="-249.5" font-family="Helvetica,sans-Serif" font-size="10.00">3B</text>
<text xml:space="preserve" text-anchor="middle" x="1142.38" y="-237.5" font-family="Helvetica,sans-Serif" font-size="10.00">Virtual merchants &amp; CDN surfaces</text>
<text xml:space="preserve" text-anchor="middle" x="1142.38" y="-225.5" font-family="Helvetica,sans-Serif" font-size="10.00">6 states</text>
</g>
<!-- seg_1A&#45;&gt;seg_3B -->
<g id="edge11" class="edge">
<title>seg_1A&#45;&gt;seg_3B</title>
<path fill="none" stroke="#d97706" stroke-width="1.2" stroke-dasharray="5,2" d="M155.36,-285.9C161.32,-286.68 167.26,-287.39 173,-288 294.33,-300.86 325.05,-301.22 447,-305 711.33,-313.19 778.52,-296.86 1040.25,-259 1042.22,-258.71 1044.21,-258.42 1046.22,-258.12"/>
<polygon fill="#d97706" stroke="#d97706" stroke-width="1.2" points="1046.71,-261.58 1056.05,-256.59 1045.63,-254.67 1046.71,-261.58"/>
<text xml:space="preserve" text-anchor="middle" x="557.5" y="-309.22" font-family="Helvetica,sans-Serif" font-size="8.00">gate ref</text>
</g>
<!-- seg_5A -->
<g id="node7" class="node">
<title>seg_5A</title>
<path fill="white" stroke="#4b5563" d="M1412,-125C1412,-125 1340.5,-125 1340.5,-125 1334.5,-125 1328.5,-119 1328.5,-113 1328.5,-113 1328.5,-93 1328.5,-93 1328.5,-87 1334.5,-81 1340.5,-81 1340.5,-81 1412,-81 1412,-81 1418,-81 1424,-87 1424,-93 1424,-93 1424,-113 1424,-113 1424,-119 1418,-125 1412,-125"/>
<text xml:space="preserve" text-anchor="middle" x="1376.25" y="-111.5" font-family="Helvetica,sans-Serif" font-size="10.00">5A</text>
<text xml:space="preserve" text-anchor="middle" x="1376.25" y="-99.5" font-family="Helvetica,sans-Serif" font-size="10.00">Intensity Surfaces</text>
<text xml:space="preserve" text-anchor="middle" x="1376.25" y="-87.5" font-family="Helvetica,sans-Serif" font-size="10.00">6 states</text>
</g>
<!-- seg_1A&#45;&gt;seg_5A -->
<g id="edge12" class="edge">
<title>seg_1A&#45;&gt;seg_5A</title>
<path fill="none" stroke="#d97706" stroke-width="1.2" stroke-dasharray="5,2" d="M92.02,-252.96C109.83,-187.7 172.16,0 300,0 300,0 300,0 1143.38,0 1220.91,0 1242.75,-12.3 1310.5,-50 1321.97,-56.38 1333.41,-64.86 1343.41,-73.16"/>
<polygon fill="#d97706" stroke="#d97706" stroke-width="1.2" points="1340.9,-75.62 1350.77,-79.48 1345.46,-70.31 1340.9,-75.62"/>
<text xml:space="preserve" text-anchor="middle" x="690" y="-2.15" font-family="Helvetica,sans-Serif" font-size="8.00">gate ref</text>
</g>
<!-- seg_2A -->
<g id="node3" class="node">
<title>seg_2A</title>
<path fill="white" stroke="#4b5563" d="M494.5,-156C494.5,-156 459,-156 459,-156 453,-156 447,-150 447,-144 447,-144 447,-124 447,-124 447,-118 453,-112 459,-112 459,-112 494.5,-112 494.5,-112 500.5,-112 506.5,-118 506.5,-124 506.5,-124 506.5,-144 506.5,-144 506.5,-150 500.5,-156 494.5,-156"/>
<text xml:space="preserve" text-anchor="middle" x="476.75" y="-142.5" font-family="Helvetica,sans-Serif" font-size="10.00">2A</text>
<text xml:space="preserve" text-anchor="middle" x="476.75" y="-130.5" font-family="Helvetica,sans-Serif" font-size="10.00">Civil Time</text>
<text xml:space="preserve" text-anchor="middle" x="476.75" y="-118.5" font-family="Helvetica,sans-Serif" font-size="10.00">6 states</text>
</g>
<!-- seg_1B&#45;&gt;seg_2A -->
<g id="edge2" class="edge">
<title>seg_1B&#45;&gt;seg_2A</title>
<path fill="none" stroke="#334155" stroke-width="1.8" d="M345.47,-185.03C351.33,-182.34 357.29,-179.69 363,-177.25 386.64,-167.16 413.51,-156.81 435.08,-148.77"/>
<polygon fill="#334155" stroke="#334155" stroke-width="1.8" points="436.06,-152.14 444.23,-145.38 433.63,-145.57 436.06,-152.14"/>
<text xml:space="preserve" text-anchor="middle" x="396" y="-179.4" font-family="Helvetica,sans-Serif" font-size="8.00">phase progression</text>
</g>
<!-- seg_2B -->
<g id="node4" class="node">
<title>seg_2B</title>
<path fill="white" stroke="#4b5563" d="M759.5,-202C759.5,-202 620.5,-202 620.5,-202 614.5,-202 608.5,-196 608.5,-190 608.5,-190 608.5,-170 608.5,-170 608.5,-164 614.5,-158 620.5,-158 620.5,-158 759.5,-158 759.5,-158 765.5,-158 771.5,-164 771.5,-170 771.5,-170 771.5,-190 771.5,-190 771.5,-196 765.5,-202 759.5,-202"/>
<text xml:space="preserve" text-anchor="middle" x="690" y="-188.5" font-family="Helvetica,sans-Serif" font-size="10.00">2B</text>
<text xml:space="preserve" text-anchor="middle" x="690" y="-176.5" font-family="Helvetica,sans-Serif" font-size="10.00">Routing: traffic to sites and edges</text>
<text xml:space="preserve" text-anchor="middle" x="690" y="-164.5" font-family="Helvetica,sans-Serif" font-size="10.00">9 states</text>
</g>
<!-- seg_1B&#45;&gt;seg_2B -->
<g id="edge13" class="edge">
<title>seg_1B&#45;&gt;seg_2B</title>
<path fill="none" stroke="#d97706" stroke-width="1.2" stroke-dasharray="5,2" d="M345.27,-203.09C405.8,-199.03 517.27,-191.54 596.86,-186.19"/>
<polygon fill="#d97706" stroke="#d97706" stroke-width="1.2" points="596.81,-189.7 606.55,-185.54 596.34,-182.72 596.81,-189.7"/>
<text xml:space="preserve" text-anchor="middle" x="476.75" y="-198.16" font-family="Helvetica,sans-Serif" font-size="8.00">gate ref</text>
</g>
<!-- seg_1B&#45;&gt;seg_3A -->
<g id="edge14" class="edge">
<title>seg_1B&#45;&gt;seg_3A</title>
<path fill="none" stroke="#d97706" stroke-width="1.2" stroke-dasharray="5,2" d="M345.42,-208.49C428.32,-212.78 614.86,-220.29 771.5,-211 809.03,-208.77 818.34,-206.71 855.5,-201 857.46,-200.7 859.46,-200.38 861.48,-200.05"/>
<polygon fill="#d97706" stroke="#d97706" stroke-width="1.2" points="862.06,-203.5 871.32,-198.35 860.87,-196.6 862.06,-203.5"/>
<text xml:space="preserve" text-anchor="middle" x="557.5" y="-217.56" font-family="Helvetica,sans-Serif" font-size="8.00">gate ref</text>
</g>
<!-- seg_1B&#45;&gt;seg_3B -->
<g id="edge15" class="edge">
<title>seg_1B&#45;&gt;seg_3B</title>
<path fill="none" stroke="#d97706" stroke-width="1.2" stroke-dasharray="5,2" d="M345.43,-213.2C390.24,-220.55 462.18,-232.1 524.5,-241 751.46,-273.42 811.75,-269.71 1040.25,-251 1042.21,-250.84 1044.2,-250.67 1046.2,-250.5"/>
<polygon fill="#d97706" stroke="#d97706" stroke-width="1.2" points="1046.33,-254.01 1055.98,-249.65 1045.72,-247.03 1046.33,-254.01"/>
<text xml:space="preserve" text-anchor="middle" x="690" y="-267.12" font-family="Helvetica,sans-Serif" font-size="8.00">gate ref</text>
</g>
<!-- seg_1B&#45;&gt;seg_5A -->
<g id="edge16" class="edge">
<title>seg_1B&#45;&gt;seg_5A</title>
<path fill="none" stroke="#d97706" stroke-width="1.2" stroke-dasharray="5,2" d="M312.09,-183.69C334.46,-137.99 392.88,-38 475.75,-38 475.75,-38 475.75,-38 1143.38,-38 1204.53,-38 1271.5,-59.22 1317.68,-77.41"/>
<polygon fill="#d97706" stroke="#d97706" stroke-width="1.2" points="1316.1,-80.55 1326.68,-81.04 1318.71,-74.06 1316.1,-80.55"/>
<text xml:space="preserve" text-anchor="middle" x="822.5" y="-40.15" font-family="Helvetica,sans-Serif" font-size="8.00">gate ref</text>
</g>
<!-- seg_2A&#45;&gt;seg_2B -->
<g id="edge3" class="edge">
<title>seg_2A&#45;&gt;seg_2B</title>
<path fill="none" stroke="#334155" stroke-width="1.8" d="M506.68,-140.3C529.83,-145.34 563.63,-152.7 595.87,-159.72"/>
<polygon fill="#334155" stroke="#334155" stroke-width="1.8" points="594.94,-163.1 605.45,-161.81 596.43,-156.26 594.94,-163.1"/>
<text xml:space="preserve" text-anchor="middle" x="557.5" y="-160.53" font-family="Helvetica,sans-Serif" font-size="8.00">phase progression</text>
</g>
<!-- seg_2A&#45;&gt;seg_3A -->
<g id="edge17" class="edge">
<title>seg_2A&#45;&gt;seg_3A</title>
<path fill="none" stroke="#d97706" stroke-width="1.2" stroke-dasharray="5,2" d="M506.83,-131.44C559.92,-127.43 675.91,-121.84 771.5,-139.25 802.59,-144.91 835.93,-156.47 862.52,-167.14"/>
<polygon fill="#d97706" stroke="#d97706" stroke-width="1.2" points="860.85,-170.23 871.43,-170.78 863.5,-163.75 860.85,-170.23"/>
<text xml:space="preserve" text-anchor="middle" x="690" y="-141.4" font-family="Helvetica,sans-Serif" font-size="8.00">gate ref</text>
</g>
<!-- seg_2A&#45;&gt;seg_3B -->
<g id="edge18" class="edge">
<title>seg_2A&#45;&gt;seg_3B</title>
<path fill="none" stroke="#d97706" stroke-width="1.2" stroke-dasharray="5,2" d="M489.8,-156.33C495.06,-166.26 501.23,-178.15 506.5,-189 515.02,-206.53 508.23,-218.26 524.5,-229 566.83,-256.96 884.36,-250.11 1046.58,-244.66"/>
<polygon fill="#d97706" stroke="#d97706" stroke-width="1.2" points="1046.29,-248.17 1056.17,-244.33 1046.05,-241.17 1046.29,-248.17"/>
<text xml:space="preserve" text-anchor="middle" x="822.5" y="-251.73" font-family="Helvetica,sans-Serif" font-size="8.00">gate ref</text>
</g>
<!-- seg_2A&#45;&gt;seg_5A -->
<g id="edge19" class="edge">
<title>seg_2A&#45;&gt;seg_5A</title>
<path fill="none" stroke="#d97706" stroke-width="1.2" stroke-dasharray="5,2" d="M506.97,-122.53C547.27,-107.77 622.48,-84 689,-84 689,-84 689,-84 1143.38,-84 1202.58,-84 1270,-90.23 1316.83,-95.55"/>
<polygon fill="#d97706" stroke="#d97706" stroke-width="1.2" points="1316.13,-99 1326.46,-96.67 1316.93,-92.04 1316.13,-99"/>
<text xml:space="preserve" text-anchor="middle" x="914.88" y="-86.15" font-family="Helvetica,sans-Serif" font-size="8.00">gate ref</text>
</g>
<!-- seg_2B&#45;&gt;seg_3A -->
<g id="edge4" class="edge">
<title>seg_2B&#45;&gt;seg_3A</title>
<path fill="none" stroke="#334155" stroke-width="1.8" d="M771.78,-183.62C801.33,-184.95 833.99,-186.42 860.55,-187.61"/>
<polygon fill="#334155" stroke="#334155" stroke-width="1.8" points="860.18,-191.09 870.33,-188.05 860.5,-184.1 860.18,-191.09"/>
<text xml:space="preserve" text-anchor="middle" x="822.5" y="-189.47" font-family="Helvetica,sans-Serif" font-size="8.00">phase progression</text>
</g>
<!-- seg_2B&#45;&gt;seg_5A -->
<g id="edge20" class="edge">
<title>seg_2B&#45;&gt;seg_5A</title>
<path fill="none" stroke="#d97706" stroke-width="1.2" stroke-dasharray="5,2" d="M771.85,-170.64C803.54,-166.98 840.23,-162.77 873.5,-159 1033.86,-140.83 1223.1,-119.83 1316.73,-109.47"/>
<polygon fill="#d97706" stroke="#d97706" stroke-width="1.2" points="1316.85,-112.97 1326.4,-108.4 1316.08,-106.02 1316.85,-112.97"/>
<text xml:space="preserve" text-anchor="middle" x="1007.25" y="-149.23" font-family="Helvetica,sans-Serif" font-size="8.00">gate ref</text>
</g>
<!-- seg_3A&#45;&gt;seg_3B -->
<g id="edge5" class="edge">
<title>seg_3A&#45;&gt;seg_3B</title>
<path fill="none" stroke="#334155" stroke-width="1.8" d="M956.71,-199.24C981.59,-204.86 1014.47,-212.3 1045.6,-219.34"/>
<polygon fill="#334155" stroke="#334155" stroke-width="1.8" points="1044.69,-222.72 1055.22,-221.51 1046.24,-215.89 1044.69,-222.72"/>
<text xml:space="preserve" text-anchor="middle" x="1007.25" y="-219.18" font-family="Helvetica,sans-Serif" font-size="8.00">phase progression</text>
</g>
<!-- seg_3A&#45;&gt;seg_5A -->
<g id="edge21" class="edge">
<title>seg_3A&#45;&gt;seg_5A</title>
<path fill="none" stroke="#d97706" stroke-width="1.2" stroke-dasharray="5,2" d="M956.61,-188.89C1029.3,-185.95 1185.46,-175.18 1310.5,-136 1315.65,-134.39 1320.88,-132.39 1326.03,-130.19"/>
<polygon fill="#d97706" stroke="#d97706" stroke-width="1.2" points="1327.14,-133.53 1334.77,-126.18 1324.22,-127.17 1327.14,-133.53"/>
<text xml:space="preserve" text-anchor="middle" x="1142.38" y="-184.04" font-family="Helvetica,sans-Serif" font-size="8.00">gate ref</text>
</g>
<!-- seg_3B&#45;&gt;seg_5A -->
<g id="edge6" class="edge">
<title>seg_3B&#45;&gt;seg_5A</title>
<path fill="none" stroke="#334155" stroke-width="1.8" d="M1226.81,-227.87C1255.18,-220.58 1285.9,-209.32 1310.5,-192 1330.78,-177.72 1347.14,-155.04 1358.34,-136.15"/>
<polygon fill="#334155" stroke="#334155" stroke-width="1.8" points="1361.27,-138.08 1363.15,-127.65 1355.18,-134.63 1361.27,-138.08"/>
<text xml:space="preserve" text-anchor="middle" x="1277.5" y="-224.39" font-family="Helvetica,sans-Serif" font-size="8.00">phase progression</text>
</g>
<!-- seg_5B -->
<g id="node8" class="node">
<title>seg_5B</title>
<path fill="white" stroke="#4b5563" d="M1609.5,-125C1609.5,-125 1538,-125 1538,-125 1532,-125 1526,-119 1526,-113 1526,-113 1526,-93 1526,-93 1526,-87 1532,-81 1538,-81 1538,-81 1609.5,-81 1609.5,-81 1615.5,-81 1621.5,-87 1621.5,-93 1621.5,-93 1621.5,-113 1621.5,-113 1621.5,-119 1615.5,-125 1609.5,-125"/>
<text xml:space="preserve" text-anchor="middle" x="1573.75" y="-111.5" font-family="Helvetica,sans-Serif" font-size="10.00">5B</text>
<text xml:space="preserve" text-anchor="middle" x="1573.75" y="-99.5" font-family="Helvetica,sans-Serif" font-size="10.00">Arrival Realisation</text>
<text xml:space="preserve" text-anchor="middle" x="1573.75" y="-87.5" font-family="Helvetica,sans-Serif" font-size="10.00">6 states</text>
</g>
<!-- seg_5A&#45;&gt;seg_5B -->
<g id="edge7" class="edge">
<title>seg_5A&#45;&gt;seg_5B</title>
<path fill="none" stroke="#334155" stroke-width="1.8" d="M1424.08,-103C1450.72,-103 1484.37,-103 1512.92,-103"/>
<polygon fill="#334155" stroke="#334155" stroke-width="1.8" points="1512.9,-106.5 1522.9,-103 1512.9,-99.5 1512.9,-106.5"/>
<text xml:space="preserve" text-anchor="middle" x="1475" y="-105.15" font-family="Helvetica,sans-Serif" font-size="8.00">phase progression</text>
</g>
<!-- seg_6A -->
<g id="node9" class="node">
<title>seg_6A</title>
<path fill="white" stroke="#4b5563" d="M1827.25,-125C1827.25,-125 1735.5,-125 1735.5,-125 1729.5,-125 1723.5,-119 1723.5,-113 1723.5,-113 1723.5,-93 1723.5,-93 1723.5,-87 1729.5,-81 1735.5,-81 1735.5,-81 1827.25,-81 1827.25,-81 1833.25,-81 1839.25,-87 1839.25,-93 1839.25,-93 1839.25,-113 1839.25,-113 1839.25,-119 1833.25,-125 1827.25,-125"/>
<text xml:space="preserve" text-anchor="middle" x="1781.38" y="-111.5" font-family="Helvetica,sans-Serif" font-size="10.00">6A</text>
<text xml:space="preserve" text-anchor="middle" x="1781.38" y="-99.5" font-family="Helvetica,sans-Serif" font-size="10.00">Entity &amp; Product World</text>
<text xml:space="preserve" text-anchor="middle" x="1781.38" y="-87.5" font-family="Helvetica,sans-Serif" font-size="10.00">6 states</text>
</g>
<!-- seg_5B&#45;&gt;seg_6A -->
<g id="edge8" class="edge">
<title>seg_5B&#45;&gt;seg_6A</title>
<path fill="none" stroke="#334155" stroke-width="1.8" d="M1621.92,-103C1648.16,-103 1681.31,-103 1710.5,-103"/>
<polygon fill="#334155" stroke="#334155" stroke-width="1.8" points="1710.44,-106.5 1720.44,-103 1710.44,-99.5 1710.44,-106.5"/>
<text xml:space="preserve" text-anchor="middle" x="1672.5" y="-105.15" font-family="Helvetica,sans-Serif" font-size="8.00">phase progression</text>
</g>
<!-- seg_6B -->
<g id="node10" class="node">
<title>seg_6B</title>
<path fill="white" stroke="#4b5563" d="M2107.25,-125C2107.25,-125 1953.25,-125 1953.25,-125 1947.25,-125 1941.25,-119 1941.25,-113 1941.25,-113 1941.25,-93 1941.25,-93 1941.25,-87 1947.25,-81 1953.25,-81 1953.25,-81 2107.25,-81 2107.25,-81 2113.25,-81 2119.25,-87 2119.25,-93 2119.25,-93 2119.25,-113 2119.25,-113 2119.25,-119 2113.25,-125 2107.25,-125"/>
<text xml:space="preserve" text-anchor="middle" x="2030.25" y="-111.5" font-family="Helvetica,sans-Serif" font-size="10.00">6B</text>
<text xml:space="preserve" text-anchor="middle" x="2030.25" y="-99.5" font-family="Helvetica,sans-Serif" font-size="10.00">Behaviour, Fraud Overlay &amp; Labelling</text>
<text xml:space="preserve" text-anchor="middle" x="2030.25" y="-87.5" font-family="Helvetica,sans-Serif" font-size="10.00">6 states</text>
</g>
<!-- seg_6A&#45;&gt;seg_6B -->
<g id="edge9" class="edge">
<title>seg_6A&#45;&gt;seg_6B</title>
<path fill="none" stroke="#334155" stroke-width="1.8" d="M1839.63,-103C1866.05,-103 1898.21,-103 1928.48,-103"/>
<polygon fill="#334155" stroke="#334155" stroke-width="1.8" points="1928.14,-106.5 1938.14,-103 1928.14,-99.5 1928.14,-106.5"/>
<text xml:space="preserve" text-anchor="middle" x="1890.25" y="-105.15" font-family="Helvetica,sans-Serif" font-size="8.00">phase progression</text>
</g>
</g>
</svg>
