<?xml version="1.0" encoding="UTF-8" standalone="no"?>
<!DOCTYPE svg PUBLIC "-//W3C//DTD SVG 1.1//EN"
 "http://www.w3.org/Graphics/SVG/1.1/DTD/svg11.dtd">
<!-- Generated by graphviz version 14.1.2 (20260124.0452)
 -->
<!-- Title: EngineCodeIOLite Pages: 1 -->
<svg width="4023pt" height="506pt"
 viewBox="0.00 0.00 4023.00 506.00" xmlns="http://www.w3.org/2000/svg" xmlns:xlink="http://www.w3.org/1999/xlink">
<g id="graph0" class="graph" transform="scale(1 1) rotate(0) translate(4 502.43)">
<title>EngineCodeIOLite</title>
<polygon fill="white" stroke="none" points="-4,4 -4,-502.43 4019.25,-502.43 4019.25,4 -4,4"/>
<text xml:space="preserve" text-anchor="middle" x="2007.62" y="-484.93" font-family="Helvetica,sans-Serif" font-size="10.00">Data Engine Code&#45;Level IO Ownership Flow (simplified)</text>
<g id="clust1" class="cluster">
<title>cluster_layer1</title>
<path fill="#e8f0fe" stroke="#e8f0fe" d="M388.88,-124.68C388.88,-124.68 2485,-124.68 2485,-124.68 2491,-124.68 2497,-130.68 2497,-136.68 2497,-136.68 2497,-330.68 2497,-330.68 2497,-336.68 2491,-342.68 2485,-342.68 2485,-342.68 388.88,-342.68 388.88,-342.68 382.88,-342.68 376.88,-336.68 376.88,-330.68 376.88,-330.68 376.88,-136.68 376.88,-136.68 376.88,-130.68 382.88,-124.68 388.88,-124.68"/>
<text xml:space="preserve" text-anchor="middle" x="1436.94" y="-329.18" font-family="Helvetica,sans-Serif" font-size="10.00">Layer 1 &#45; World and Merchant Realism</text>
</g>
<g id="clust2" class="cluster">
<title>cluster_layer2</title>
<path fill="#e6fffa" stroke="#e6fffa" d="M2732.12,-222.68C2732.12,-222.68 3324,-222.68 3324,-222.68 3330,-222.68 3336,-228.68 3336,-234.68 3336,-234.68 3336,-307.68 3336,-307.68 3336,-313.68 3330,-319.68 3324,-319.68 3324,-319.68 2732.12,-319.68 2732.12,-319.68 2726.12,-319.68 2720.12,-313.68 2720.12,-307.68 2720.12,-307.68 2720.12,-234.68 2720.12,-234.68 2720.12,-228.68 2726.12,-222.68 2732.12,-222.68"/>
<text xml:space="preserve" text-anchor="middle" x="3028.06" y="-306.18" font-family="Helvetica,sans-Serif" font-size="10.00">Layer 2 &#45; Temporal Arrival Surfaces</text>
</g>
<g id="clust3" class="cluster">
<title>cluster_layer3</title>
<path fill="#fff7ed" stroke="#fff7ed" d="M3523.5,-259.68C3523.5,-259.68 3995.25,-259.68 3995.25,-259.68 4001.25,-259.68 4007.25,-265.68 4007.25,-271.68 4007.25,-271.68 4007.25,-344.68 4007.25,-344.68 4007.25,-350.68 4001.25,-356.68 3995.25,-356.68 3995.25,-356.68 3523.5,-356.68 3523.5,-356.68 3517.5,-356.68 3511.5,-350.68 3511.5,-344.68 3511.5,-344.68 3511.5,-271.68 3511.5,-271.68 3511.5,-265.68 3517.5,-259.68 3523.5,-259.68"/>
<text xml:space="preserve" text-anchor="middle" x="3759.38" y="-343.18" font-family="Helvetica,sans-Serif" font-size="10.00">Layer 3 &#45; Behavior, Fraud, and Labels</text>
</g>
<!-- external_refs -->
<g id="node1" class="node">
<title>external_refs</title>
<polygon fill="#fef3c7" stroke="#4b5563" points="116.5,-281.68 113.5,-285.68 92.5,-285.68 89.5,-281.68 0,-281.68 0,-245.68 116.5,-245.68 116.5,-281.68"/>
<text xml:space="preserve" text-anchor="middle" x="58.25" y="-260.38" font-family="Helvetica,sans-Serif" font-size="9.00">External refs / authorities</text>
</g>
<!-- seg_1A -->
<g id="node2" class="node">
<title>seg_1A</title>
<path fill="white" stroke="#4b5563" d="M523.88,-208.68C523.88,-208.68 396.88,-208.68 396.88,-208.68 390.88,-208.68 384.88,-202.68 384.88,-196.68 384.88,-196.68 384.88,-170.68 384.88,-170.68 384.88,-164.68 390.88,-158.68 396.88,-158.68 396.88,-158.68 523.88,-158.68 523.88,-158.68 529.88,-158.68 535.88,-164.68 535.88,-170.68 535.88,-170.68 535.88,-196.68 535.88,-196.68 535.88,-202.68 529.88,-208.68 523.88,-208.68"/>
<text xml:space="preserve" text-anchor="middle" x="460.38" y="-196.13" font-family="Helvetica,sans-Serif" font-size="9.00">1A</text>
<text xml:space="preserve" text-anchor="middle" x="460.38" y="-185.63" font-family="Helvetica,sans-Serif" font-size="9.00">Merchants to Physical Sites</text>
<text xml:space="preserve" text-anchor="middle" x="460.38" y="-175.13" font-family="Helvetica,sans-Serif" font-size="9.00">owner: engine.layers.l1.seg_1A.*</text>
<text xml:space="preserve" text-anchor="middle" x="460.38" y="-164.63" font-family="Helvetica,sans-Serif" font-size="9.00">IO contract: R=44 W=32</text>
</g>
<!-- external_refs&#45;&gt;seg_1A -->
<g id="edge31" class="edge">
<title>external_refs&#45;&gt;seg_1A</title>
<path fill="none" stroke="#d97706" stroke-width="1.1" stroke-dasharray="1,5" d="M85.54,-245.26C99.46,-236.43 117.22,-226.57 134.5,-220.93 212.81,-195.38 306.73,-186.83 373.39,-184.21"/>
<polygon fill="#d97706" stroke="#d97706" stroke-width="1.1" points="373.14,-187.72 383.02,-183.87 372.9,-180.73 373.14,-187.72"/>
<text xml:space="preserve" text-anchor="middle" x="241.38" y="-223.08" font-family="Helvetica,sans-Serif" font-size="8.00">ccy_country_shares_2024Q4, ccy_smoothing_params (+18)</text>
</g>
<!-- seg_1B -->
<g id="node3" class="node">
<title>seg_1B</title>
<path fill="white" stroke="#4b5563" d="M922.88,-245.68C922.88,-245.68 795.88,-245.68 795.88,-245.68 789.88,-245.68 783.88,-239.68 783.88,-233.68 783.88,-233.68 783.88,-207.68 783.88,-207.68 783.88,-201.68 789.88,-195.68 795.88,-195.68 795.88,-195.68 922.88,-195.68 922.88,-195.68 928.88,-195.68 934.88,-201.68 934.88,-207.68 934.88,-207.68 934.88,-233.68 934.88,-233.68 934.88,-239.68 928.88,-245.68 922.88,-245.68"/>
<text xml:space="preserve" text-anchor="middle" x="859.38" y="-233.13" font-family="Helvetica,sans-Serif" font-size="9.00">1B</text>
<text xml:space="preserve" text-anchor="middle" x="859.38" y="-222.63" font-family="Helvetica,sans-Serif" font-size="9.00">Site Geolocation</text>
<text xml:space="preserve" text-anchor="middle" x="859.38" y="-212.13" font-family="Helvetica,sans-Serif" font-size="9.00">owner: engine.layers.l1.seg_1B.*</text>
<text xml:space="preserve" text-anchor="middle" x="859.38" y="-201.63" font-family="Helvetica,sans-Serif" font-size="9.00">IO contract: R=25 W=26</text>
</g>
<!-- external_refs&#45;&gt;seg_1B -->
<g id="edge32" class="edge">
<title>external_refs&#45;&gt;seg_1B</title>
<path fill="none" stroke="#d97706" stroke-width="1.1" stroke-dasharray="1,5" d="M116.72,-260.59C255.21,-253.14 608,-234.15 772.06,-225.33"/>
<polygon fill="#d97706" stroke="#d97706" stroke-width="1.1" points="772.08,-228.83 781.88,-224.8 771.7,-221.84 772.08,-228.83"/>
<text xml:space="preserve" text-anchor="middle" x="460.38" y="-249.31" font-family="Helvetica,sans-Serif" font-size="8.00">iso3166_canonical_2024, math_profile_manifest (+4)</text>
</g>
<!-- seg_2A -->
<g id="node4" class="node">
<title>seg_2A</title>
<path fill="white" stroke="#4b5563" d="M1306.12,-274.68C1306.12,-274.68 1179.12,-274.68 1179.12,-274.68 1173.12,-274.68 1167.12,-268.68 1167.12,-262.68 1167.12,-262.68 1167.12,-236.68 1167.12,-236.68 1167.12,-230.68 1173.12,-224.68 1179.12,-224.68 1179.12,-224.68 1306.12,-224.68 1306.12,-224.68 1312.12,-224.68 1318.12,-230.68 1318.12,-236.68 1318.12,-236.68 1318.12,-262.68 1318.12,-262.68 1318.12,-268.68 1312.12,-274.68 1306.12,-274.68"/>
<text xml:space="preserve" text-anchor="middle" x="1242.62" y="-262.13" font-family="Helvetica,sans-Serif" font-size="9.00">2A</text>
<text xml:space="preserve" text-anchor="middle" x="1242.62" y="-251.63" font-family="Helvetica,sans-Serif" font-size="9.00">Civil Time</text>
<text xml:space="preserve" text-anchor="middle" x="1242.62" y="-241.13" font-family="Helvetica,sans-Serif" font-size="9.00">owner: engine.layers.l1.seg_2A.*</text>
<text xml:space="preserve" text-anchor="middle" x="1242.62" y="-230.63" font-family="Helvetica,sans-Serif" font-size="9.00">IO contract: R=15 W=9</text>
</g>
<!-- external_refs&#45;&gt;seg_2A -->
<g id="edge33" class="edge">
<title>external_refs&#45;&gt;seg_2A</title>
<path fill="none" stroke="#d97706" stroke-width="1.1" stroke-dasharray="1,5" d="M116.76,-267.05C122.75,-267.31 128.75,-267.53 134.5,-267.68 229.47,-270.2 253.25,-268.35 348.25,-267.68 697.94,-265.24 785.58,-270.59 1135,-256.68 1141.59,-256.42 1148.41,-256.1 1155.26,-255.73"/>
<polygon fill="#d97706" stroke="#d97706" stroke-width="1.1" points="1155.34,-259.23 1165.13,-255.18 1154.95,-252.24 1155.34,-259.23"/>
<text xml:space="preserve" text-anchor="middle" x="663.62" y="-269.03" font-family="Helvetica,sans-Serif" font-size="8.00">iso3166_canonical_2024, merchant_mcc_map (+5)</text>
</g>
<!-- seg_2B -->
<g id="node5" class="node">
<title>seg_2B</title>
<path fill="white" stroke="#4b5563" d="M1741.12,-248.68C1741.12,-248.68 1614.12,-248.68 1614.12,-248.68 1608.12,-248.68 1602.12,-242.68 1602.12,-236.68 1602.12,-236.68 1602.12,-210.68 1602.12,-210.68 1602.12,-204.68 1608.12,-198.68 1614.12,-198.68 1614.12,-198.68 1741.12,-198.68 1741.12,-198.68 1747.12,-198.68 1753.12,-204.68 1753.12,-210.68 1753.12,-210.68 1753.12,-236.68 1753.12,-236.68 1753.12,-242.68 1747.12,-248.68 1741.12,-248.68"/>
<text xml:space="preserve" text-anchor="middle" x="1677.62" y="-236.13" font-family="Helvetica,sans-Serif" font-size="9.00">2B</text>
<text xml:space="preserve" text-anchor="middle" x="1677.62" y="-225.63" font-family="Helvetica,sans-Serif" font-size="9.00">Routing: traffic to sites and edges</text>
<text xml:space="preserve" text-anchor="middle" x="1677.62" y="-215.13" font-family="Helvetica,sans-Serif" font-size="9.00">owner: engine.layers.l1.seg_2B.*</text>
<text xml:space="preserve" text-anchor="middle" x="1677.62" y="-204.63" font-family="Helvetica,sans-Serif" font-size="9.00">IO contract: R=24 W=18</text>
</g>
<!-- external_refs&#45;&gt;seg_2B -->
<g id="edge34" class="edge">
<title>external_refs&#45;&gt;seg_2B</title>
<path fill="none" stroke="#d97706" stroke-width="1.1" stroke-dasharray="1,5" d="M116.9,-279.76C122.81,-280.95 128.75,-281.96 134.5,-282.68 583.68,-338.74 700.33,-283.46 1153,-283.68 1232.67,-283.72 1252.71,-288.24 1332.25,-283.68 1437.1,-277.67 1464.14,-277.9 1567,-256.68 1574.74,-255.09 1582.72,-253.19 1590.68,-251.12"/>
<polygon fill="#d97706" stroke="#d97706" stroke-width="1.1" points="1591.54,-254.52 1600.28,-248.54 1589.72,-247.76 1591.54,-254.52"/>
<text xml:space="preserve" text-anchor="middle" x="859.38" y="-298.68" font-family="Helvetica,sans-Serif" font-size="8.00">alias_layout_policy_v1, day_effect_policy_v1 (+2)</text>
</g>
<!-- seg_3A -->
<g id="node6" class="node">
<title>seg_3A</title>
<path fill="white" stroke="#4b5563" d="M2155.88,-213.68C2155.88,-213.68 2028.88,-213.68 2028.88,-213.68 2022.88,-213.68 2016.88,-207.68 2016.88,-201.68 2016.88,-201.68 2016.88,-175.68 2016.88,-175.68 2016.88,-169.68 2022.88,-163.68 2028.88,-163.68 2028.88,-163.68 2155.88,-163.68 2155.88,-163.68 2161.88,-163.68 2167.88,-169.68 2167.88,-175.68 2167.88,-175.68 2167.88,-201.68 2167.88,-201.68 2167.88,-207.68 2161.88,-213.68 2155.88,-213.68"/>
<text xml:space="preserve" text-anchor="middle" x="2092.38" y="-201.13" font-family="Helvetica,sans-Serif" font-size="9.00">3A</text>
<text xml:space="preserve" text-anchor="middle" x="2092.38" y="-190.63" font-family="Helvetica,sans-Serif" font-size="9.00">Zone Allocation</text>
<text xml:space="preserve" text-anchor="middle" x="2092.38" y="-180.13" font-family="Helvetica,sans-Serif" font-size="9.00">owner: engine.layers.l1.seg_3A.*</text>
<text xml:space="preserve" text-anchor="middle" x="2092.38" y="-169.63" font-family="Helvetica,sans-Serif" font-size="9.00">IO contract: R=30 W=24</text>
</g>
<!-- external_refs&#45;&gt;seg_3A -->
<g id="edge35" class="edge">
<title>external_refs&#45;&gt;seg_3A</title>
<path fill="none" stroke="#d97706" stroke-width="1.1" stroke-dasharray="1,5" d="M71.07,-245.39C84.26,-226.5 107.33,-197.62 134.5,-181.68 262.49,-106.6 310.99,-104.68 459.38,-104.68 459.38,-104.68 459.38,-104.68 1678.62,-104.68 1817.73,-104.68 1853.93,-113.47 1988.5,-148.68 1999.48,-151.56 2010.89,-155.24 2021.95,-159.21"/>
<polygon fill="#d97706" stroke="#d97706" stroke-width="1.1" points="2020.69,-162.48 2031.29,-162.68 2023.13,-155.92 2020.69,-162.48"/>
<text xml:space="preserve" text-anchor="middle" x="1049.5" y="-106.83" font-family="Helvetica,sans-Serif" font-size="8.00">country_zone_alphas, day_effect_policy_v1 (+4)</text>
</g>
<!-- seg_3B -->
<g id="node7" class="node">
<title>seg_3B</title>
<path fill="white" stroke="#4b5563" d="M2477,-292.68C2477,-292.68 2346.25,-292.68 2346.25,-292.68 2340.25,-292.68 2334.25,-286.68 2334.25,-280.68 2334.25,-280.68 2334.25,-254.68 2334.25,-254.68 2334.25,-248.68 2340.25,-242.68 2346.25,-242.68 2346.25,-242.68 2477,-242.68 2477,-242.68 2483,-242.68 2489,-248.68 2489,-254.68 2489,-254.68 2489,-280.68 2489,-280.68 2489,-286.68 2483,-292.68 2477,-292.68"/>
<text xml:space="preserve" text-anchor="middle" x="2411.62" y="-280.13" font-family="Helvetica,sans-Serif" font-size="9.00">3B</text>
<text xml:space="preserve" text-anchor="middle" x="2411.62" y="-269.63" font-family="Helvetica,sans-Serif" font-size="9.00">Virtual merchants &amp; CDN surfaces</text>
<text xml:space="preserve" text-anchor="middle" x="2411.62" y="-259.13" font-family="Helvetica,sans-Serif" font-size="9.00">owner: engine.layers.l1.seg_3B.*</text>
<text xml:space="preserve" text-anchor="middle" x="2411.62" y="-248.63" font-family="Helvetica,sans-Serif" font-size="9.00">IO contract: R=45 W=26</text>
</g>
<!-- external_refs&#45;&gt;seg_3B -->
<g id="edge36" class="edge">
<title>external_refs&#45;&gt;seg_3B</title>
<path fill="none" stroke="#d97706" stroke-width="1.1" stroke-dasharray="1,5" d="M86.41,-282.12C100.26,-290.75 117.7,-300.48 134.5,-306.68 272.39,-357.62 312.38,-368.68 459.38,-368.68 459.38,-368.68 459.38,-368.68 1050.5,-368.68 1552.71,-368.68 1677.31,-333.41 2178.25,-297.68 2239.62,-293.3 2255.32,-295.21 2316.25,-286.68 2318.3,-286.4 2320.38,-286.09 2322.47,-285.77"/>
<polygon fill="#d97706" stroke="#d97706" stroke-width="1.1" points="2322.8,-289.26 2332.11,-284.21 2321.68,-282.35 2322.8,-289.26"/>
<text xml:space="preserve" text-anchor="middle" x="1242.62" y="-370.28" font-family="Helvetica,sans-Serif" font-size="8.00">alias_layout_policy_v1, cdn_country_weights (+12)</text>
</g>
<!-- seg_5A -->
<g id="node8" class="node">
<title>seg_5A</title>
<path fill="white" stroke="#4b5563" d="M2867.12,-291.68C2867.12,-291.68 2740.12,-291.68 2740.12,-291.68 2734.12,-291.68 2728.12,-285.68 2728.12,-279.68 2728.12,-279.68 2728.12,-253.68 2728.12,-253.68 2728.12,-247.68 2734.12,-241.68 2740.12,-241.68 2740.12,-241.68 2867.12,-241.68 2867.12,-241.68 2873.12,-241.68 2879.12,-247.68 2879.12,-253.68 2879.12,-253.68 2879.12,-279.68 2879.12,-279.68 2879.12,-285.68 2873.12,-291.68 2867.12,-291.68"/>
<text xml:space="preserve" text-anchor="middle" x="2803.62" y="-279.13" font-family="Helvetica,sans-Serif" font-size="9.00">5A</text>
<text xml:space="preserve" text-anchor="middle" x="2803.62" y="-268.63" font-family="Helvetica,sans-Serif" font-size="9.00">Intensity Surfaces</text>
<text xml:space="preserve" text-anchor="middle" x="2803.62" y="-258.13" font-family="Helvetica,sans-Serif" font-size="9.00">owner: engine.layers.l2.seg_5A.*</text>
<text xml:space="preserve" text-anchor="middle" x="2803.62" y="-247.63" font-family="Helvetica,sans-Serif" font-size="9.00">IO contract: R=40 W=25</text>
</g>
<!-- external_refs&#45;&gt;seg_5A -->
<g id="edge37" class="edge">
<title>external_refs&#45;&gt;seg_5A</title>
<path fill="none" stroke="#d97706" stroke-width="1.1" stroke-dasharray="1,5" d="M70.42,-282.09C83.38,-301.83 106.56,-332.62 134.5,-349.68 261.51,-427.23 310.57,-430.68 459.38,-430.68 459.38,-430.68 459.38,-430.68 2412.62,-430.68 2540.35,-430.68 2587.44,-468.88 2699,-406.68 2740.71,-383.43 2770.39,-335.59 2787.01,-302.35"/>
<polygon fill="#d97706" stroke="#d97706" stroke-width="1.1" points="2790.03,-304.15 2791.23,-293.62 2783.73,-301.11 2790.03,-304.15"/>
<text xml:space="preserve" text-anchor="middle" x="1458.62" y="-432.83" font-family="Helvetica,sans-Serif" font-size="8.00">baseline_intensity_policy_5A, demand_scale_policy_5A (+12)</text>
</g>
<!-- seg_5B -->
<g id="node9" class="node">
<title>seg_5B</title>
<path fill="white" stroke="#4b5563" d="M3316,-280.68C3316,-280.68 3189,-280.68 3189,-280.68 3183,-280.68 3177,-274.68 3177,-268.68 3177,-268.68 3177,-242.68 3177,-242.68 3177,-236.68 3183,-230.68 3189,-230.68 3189,-230.68 3316,-230.68 3316,-230.68 3322,-230.68 3328,-236.68 3328,-242.68 3328,-242.68 3328,-268.68 3328,-268.68 3328,-274.68 3322,-280.68 3316,-280.68"/>
<text xml:space="preserve" text-anchor="middle" x="3252.5" y="-268.13" font-family="Helvetica,sans-Serif" font-size="9.00">5B</text>
<text xml:space="preserve" text-anchor="middle" x="3252.5" y="-257.63" font-family="Helvetica,sans-Serif" font-size="9.00">Arrival Realisation</text>
<text xml:space="preserve" text-anchor="middle" x="3252.5" y="-247.13" font-family="Helvetica,sans-Serif" font-size="9.00">owner: engine.layers.l2.seg_5B.*</text>
<text xml:space="preserve" text-anchor="middle" x="3252.5" y="-236.63" font-family="Helvetica,sans-Serif" font-size="9.00">IO contract: R=65 W=23</text>
</g>
<!-- external_refs&#45;&gt;seg_5B -->
<g id="edge38" class="edge">
<title>external_refs&#45;&gt;seg_5B</title>
<path fill="none" stroke="#d97706" stroke-width="1.1" stroke-dasharray="1,5" d="M61.93,-245.27C68,-210.88 86.23,-137.29 134.5,-102.68 252.57,-18.04 314.1,-66.68 459.38,-66.68 459.38,-66.68 459.38,-66.68 2804.62,-66.68 2954.98,-66.68 3006.79,-51.8 3137.75,-125.68 3177.76,-148.25 3210.62,-190.36 3230.56,-220.54"/>
<polygon fill="#d97706" stroke="#d97706" stroke-width="1.1" points="3227.56,-222.35 3235.91,-228.87 3233.45,-218.57 3227.56,-222.35"/>
<text xml:space="preserve" text-anchor="middle" x="1677.62" y="-68.83" font-family="Helvetica,sans-Serif" font-size="8.00">alias_layout_policy_v1, arrival_count_config_5B (+9)</text>
</g>
<!-- seg_6A -->
<g id="node10" class="node">
<title>seg_6A</title>
<path fill="white" stroke="#4b5563" d="M3658.5,-328.68C3658.5,-328.68 3531.5,-328.68 3531.5,-328.68 3525.5,-328.68 3519.5,-322.68 3519.5,-316.68 3519.5,-316.68 3519.5,-290.68 3519.5,-290.68 3519.5,-284.68 3525.5,-278.68 3531.5,-278.68 3531.5,-278.68 3658.5,-278.68 3658.5,-278.68 3664.5,-278.68 3670.5,-284.68 3670.5,-290.68 3670.5,-290.68 3670.5,-316.68 3670.5,-316.68 3670.5,-322.68 3664.5,-328.68 3658.5,-328.68"/>
<text xml:space="preserve" text-anchor="middle" x="3595" y="-316.13" font-family="Helvetica,sans-Serif" font-size="9.00">6A</text>
<text xml:space="preserve" text-anchor="middle" x="3595" y="-305.63" font-family="Helvetica,sans-Serif" font-size="9.00">Entity &amp; Product World</text>
<text xml:space="preserve" text-anchor="middle" x="3595" y="-295.13" font-family="Helvetica,sans-Serif" font-size="9.00">owner: engine.layers.l3.seg_6A.*</text>
<text xml:space="preserve" text-anchor="middle" x="3595" y="-284.63" font-family="Helvetica,sans-Serif" font-size="9.00">IO contract: R=65 W=49</text>
</g>
<!-- external_refs&#45;&gt;seg_6A -->
<g id="edge39" class="edge">
<title>external_refs&#45;&gt;seg_6A</title>
<path fill="none" stroke="#d97706" stroke-width="1.1" stroke-dasharray="1,5" d="M63.72,-281.88C72.12,-312.05 93.26,-372.14 134.5,-402.68 252.9,-490.38 312.04,-468.68 459.38,-468.68 459.38,-468.68 459.38,-468.68 3253.5,-468.68 3373.78,-468.68 3496.19,-384.27 3556.15,-336.2"/>
<polygon fill="#d97706" stroke="#d97706" stroke-width="1.1" points="3558.04,-339.18 3563.59,-330.15 3553.63,-333.75 3558.04,-339.18"/>
<text xml:space="preserve" text-anchor="middle" x="1888.38" y="-470.83" font-family="Helvetica,sans-Serif" font-size="8.00">device_linkage_rules_6A, graph_linkage_rules_6A (+23)</text>
</g>
<!-- seg_6B -->
<g id="node11" class="node">
<title>seg_6B</title>
<path fill="white" stroke="#4b5563" d="M3987.25,-317.68C3987.25,-317.68 3843,-317.68 3843,-317.68 3837,-317.68 3831,-311.68 3831,-305.68 3831,-305.68 3831,-279.68 3831,-279.68 3831,-273.68 3837,-267.68 3843,-267.68 3843,-267.68 3987.25,-267.68 3987.25,-267.68 3993.25,-267.68 3999.25,-273.68 3999.25,-279.68 3999.25,-279.68 3999.25,-305.68 3999.25,-305.68 3999.25,-311.68 3993.25,-317.68 3987.25,-317.68"/>
<text xml:space="preserve" text-anchor="middle" x="3915.12" y="-305.13" font-family="Helvetica,sans-Serif" font-size="9.00">6B</text>
<text xml:space="preserve" text-anchor="middle" x="3915.12" y="-294.63" font-family="Helvetica,sans-Serif" font-size="9.00">Behaviour, Fraud Overlay &amp; Labelling</text>
<text xml:space="preserve" text-anchor="middle" x="3915.12" y="-284.13" font-family="Helvetica,sans-Serif" font-size="9.00">owner: engine.layers.l3.seg_6B.*</text>
<text xml:space="preserve" text-anchor="middle" x="3915.12" y="-273.63" font-family="Helvetica,sans-Serif" font-size="9.00">IO contract: R=71 W=26</text>
</g>
<!-- external_refs&#45;&gt;seg_6B -->
<g id="edge40" class="edge">
<title>external_refs&#45;&gt;seg_6B</title>
<path fill="none" stroke="#d97706" stroke-width="1.1" stroke-dasharray="1,5" d="M59.47,-245.24C61.08,-202.69 71.55,-97.54 134.5,-48.68 248.98,40.18 314.45,-20.68 459.38,-20.68 459.38,-20.68 459.38,-20.68 3596,-20.68 3740.35,-20.68 3852.24,-184.47 3895.12,-257.85"/>
<polygon fill="#d97706" stroke="#d97706" stroke-width="1.1" points="3891.86,-259.21 3899.88,-266.14 3897.93,-255.72 3891.86,-259.21"/>
<text xml:space="preserve" text-anchor="middle" x="2092.38" y="-22.83" font-family="Helvetica,sans-Serif" font-size="8.00">amount_model_6B, attachment_policy_6B (+17)</text>
</g>
<!-- seg_1A&#45;&gt;seg_1B -->
<g id="edge1" class="edge">
<title>seg_1A&#45;&gt;seg_1B</title>
<path fill="none" stroke="#334155" stroke-width="1.8" d="M536.36,-192.79C548.43,-194.16 560.81,-195.51 572.5,-196.68 638.96,-203.36 714.24,-209.63 770.86,-214.08"/>
<polygon fill="#334155" stroke="#334155" stroke-width="1.8" points="770.42,-217.56 780.66,-214.85 770.96,-210.58 770.42,-217.56"/>
<text xml:space="preserve" text-anchor="middle" x="663.62" y="-214.52" font-family="Helvetica,sans-Serif" font-size="8.00">phase progression</text>
</g>
<!-- seg_1A&#45;&gt;seg_1B -->
<g id="edge10" class="edge">
<title>seg_1A&#45;&gt;seg_1B</title>
<path fill="none" stroke="#2563eb" stroke-width="1.2" stroke-dasharray="5,2" d="M536.11,-177.32C595.74,-173.83 681.19,-172.44 754.75,-184.93 764.32,-186.56 774.2,-188.96 783.88,-191.76"/>
<polygon fill="#2563eb" stroke="#2563eb" stroke-width="1.2" points="782.79,-195.08 793.37,-194.67 784.84,-188.39 782.79,-195.08"/>
<text xml:space="preserve" text-anchor="middle" x="663.62" y="-187.08" font-family="Helvetica,sans-Serif" font-size="8.00">outlet_catalogue, rng_trace_log (+3)</text>
</g>
<!-- seg_1A&#45;&gt;seg_3A -->
<g id="edge11" class="edge">
<title>seg_1A&#45;&gt;seg_3A</title>
<path fill="none" stroke="#dc2626" stroke-width="1.4" d="M536.29,-173.8C548.38,-172.52 560.77,-171.41 572.5,-170.68 1021.64,-142.72 1134.99,-164.46 1585,-162.68 1764.33,-161.97 1810.54,-140.54 1988.5,-162.68 1993.78,-163.34 1999.19,-164.18 2004.61,-165.15"/>
<polygon fill="#dc2626" stroke="#dc2626" stroke-width="1.4" points="2003.93,-168.59 2014.42,-167.07 2005.27,-161.72 2003.93,-168.59"/>
<text xml:space="preserve" text-anchor="middle" x="1242.62" y="-163.41" font-family="Helvetica,sans-Serif" font-size="8.00">outlet_catalogue, rng_trace_log (+2)</text>
</g>
<!-- seg_1B&#45;&gt;seg_2A -->
<g id="edge2" class="edge">
<title>seg_1B&#45;&gt;seg_2A</title>
<path fill="none" stroke="#334155" stroke-width="1.8" d="M935.33,-229.01C944.97,-229.97 954.72,-230.89 964,-231.68 1027.62,-237.12 1099.57,-241.74 1154.28,-244.94"/>
<polygon fill="#334155" stroke="#334155" stroke-width="1.8" points="1153.83,-248.42 1164.02,-245.5 1154.24,-241.43 1153.83,-248.42"/>
<text xml:space="preserve" text-anchor="middle" x="1049.5" y="-245.58" font-family="Helvetica,sans-Serif" font-size="8.00">phase progression</text>
</g>
<!-- seg_1B&#45;&gt;seg_2A -->
<g id="edge12" class="edge">
<title>seg_1B&#45;&gt;seg_2A</title>
<path fill="none" stroke="#2563eb" stroke-width="1.2" stroke-dasharray="5,2" d="M935.32,-215.48C990.73,-212.91 1067.89,-212.01 1135,-220.93 1141.64,-221.81 1148.44,-222.99 1155.26,-224.36"/>
<polygon fill="#2563eb" stroke="#2563eb" stroke-width="1.2" points="1154.4,-227.76 1164.92,-226.46 1155.89,-220.92 1154.4,-227.76"/>
<text xml:space="preserve" text-anchor="middle" x="1049.5" y="-223.08" font-family="Helvetica,sans-Serif" font-size="8.00">site_locations, validation_bundle_1B (+1)</text>
</g>
<!-- seg_1B&#45;&gt;seg_2B -->
<g id="edge13" class="edge">
<title>seg_1B&#45;&gt;seg_2B</title>
<path fill="none" stroke="#dc2626" stroke-width="1.4" d="M935.3,-211.96C944.95,-211.06 954.7,-210.27 964,-209.68 1231.47,-192.86 1299.78,-187.28 1567,-207.68 1574.51,-208.26 1582.3,-209.03 1590.09,-209.93"/>
<polygon fill="#dc2626" stroke="#dc2626" stroke-width="1.4" points="1589.43,-213.37 1599.78,-211.12 1590.28,-206.42 1589.43,-213.37"/>
<text xml:space="preserve" text-anchor="middle" x="1242.62" y="-200.43" font-family="Helvetica,sans-Serif" font-size="8.00">rng_audit_log, rng_trace_log (+3)</text>
</g>
<!-- seg_1B&#45;&gt;seg_3B -->
<g id="edge14" class="edge">
<title>seg_1B&#45;&gt;seg_3B</title>
<path fill="none" stroke="#dc2626" stroke-width="1.4" d="M927.24,-246.1C939.35,-250.08 951.96,-253.81 964,-256.68 1038.59,-274.47 1059.5,-266.24 1135,-279.68 1143.07,-281.12 1144.85,-282.79 1153,-283.68 1589.27,-331.57 2115.73,-294.4 2321.82,-276.21"/>
<polygon fill="#dc2626" stroke="#dc2626" stroke-width="1.4" points="2321.99,-279.71 2331.64,-275.34 2321.37,-272.74 2321.99,-279.71"/>
<text xml:space="preserve" text-anchor="middle" x="1677.62" y="-309.34" font-family="Helvetica,sans-Serif" font-size="8.00">rng_audit_log, rng_trace_log (+3)</text>
</g>
<!-- seg_2A&#45;&gt;seg_2B -->
<g id="edge3" class="edge">
<title>seg_2A&#45;&gt;seg_2B</title>
<path fill="none" stroke="#334155" stroke-width="1.8" d="M1318.52,-226.04C1329.08,-223.52 1339.87,-221.35 1350.25,-219.93 1430.68,-208.92 1523.31,-211.41 1589.29,-215.74"/>
<polygon fill="#334155" stroke="#334155" stroke-width="1.8" points="1588.77,-219.21 1598.98,-216.4 1589.25,-212.22 1588.77,-219.21"/>
<text xml:space="preserve" text-anchor="middle" x="1458.62" y="-222.08" font-family="Helvetica,sans-Serif" font-size="8.00">phase progression</text>
</g>
<!-- seg_2A&#45;&gt;seg_2B -->
<g id="edge15" class="edge">
<title>seg_2A&#45;&gt;seg_2B</title>
<path fill="none" stroke="#2563eb" stroke-width="1.2" stroke-dasharray="5,2" d="M1318.55,-245.18C1394.22,-240.64 1510.99,-233.63 1590.45,-228.86"/>
<polygon fill="#2563eb" stroke="#2563eb" stroke-width="1.2" points="1590.3,-232.37 1600.08,-228.28 1589.88,-225.38 1590.3,-232.37"/>
<text xml:space="preserve" text-anchor="middle" x="1458.62" y="-244.86" font-family="Helvetica,sans-Serif" font-size="8.00">site_timezones, tz_timetable_cache</text>
</g>
<!-- seg_2A&#45;&gt;seg_3A -->
<g id="edge16" class="edge">
<title>seg_2A&#45;&gt;seg_3A</title>
<path fill="none" stroke="#dc2626" stroke-width="1.4" d="M1300.28,-224.24C1316.18,-217.97 1333.66,-211.86 1350.25,-207.68 1580.84,-149.67 1864.58,-165.49 2004.67,-178.8"/>
<polygon fill="#dc2626" stroke="#dc2626" stroke-width="1.4" points="2004.15,-182.26 2014.44,-179.74 2004.83,-175.29 2004.15,-182.26"/>
<text xml:space="preserve" text-anchor="middle" x="1677.62" y="-173.33" font-family="Helvetica,sans-Serif" font-size="8.00">s4_legality_report, site_timezones (+3)</text>
</g>
<!-- seg_2A&#45;&gt;seg_3B -->
<g id="edge17" class="edge">
<title>seg_2A&#45;&gt;seg_3B</title>
<path fill="none" stroke="#dc2626" stroke-width="1.4" d="M1318.46,-255.12C1329.12,-255.74 1339.96,-256.29 1350.25,-256.68 1710.56,-270.37 2140.19,-269.55 2322.19,-268.41"/>
<polygon fill="#dc2626" stroke="#dc2626" stroke-width="1.4" points="2321.98,-271.91 2331.96,-268.35 2321.94,-264.91 2321.98,-271.91"/>
<text xml:space="preserve" text-anchor="middle" x="1888.38" y="-270.79" font-family="Helvetica,sans-Serif" font-size="8.00">site_timezones, tz_timetable_cache (+2)</text>
</g>
<!-- seg_2B&#45;&gt;seg_3A -->
<g id="edge4" class="edge">
<title>seg_2B&#45;&gt;seg_3A</title>
<path fill="none" stroke="#334155" stroke-width="1.8" d="M1753.37,-202.4C1764.97,-199.78 1776.87,-197.49 1788.25,-195.93 1860.44,-186.06 1943.17,-184.74 2003.95,-185.62"/>
<polygon fill="#334155" stroke="#334155" stroke-width="1.8" points="2003.79,-189.11 2013.85,-185.79 2003.91,-182.12 2003.79,-189.11"/>
<text xml:space="preserve" text-anchor="middle" x="1888.38" y="-198.08" font-family="Helvetica,sans-Serif" font-size="8.00">phase progression</text>
</g>
<!-- seg_2B&#45;&gt;seg_3A -->
<g id="edge18" class="edge">
<title>seg_2B&#45;&gt;seg_3A</title>
<path fill="none" stroke="#2563eb" stroke-width="1.2" stroke-dasharray="5,2" d="M1753.32,-221.56C1816.2,-219.24 1908.43,-214.6 1988.5,-205.68 1993.89,-205.08 1999.44,-204.39 2005.02,-203.63"/>
<polygon fill="#2563eb" stroke="#2563eb" stroke-width="1.2" points="2005.29,-207.13 2014.7,-202.26 2004.3,-200.2 2005.29,-207.13"/>
<text xml:space="preserve" text-anchor="middle" x="1888.38" y="-222.24" font-family="Helvetica,sans-Serif" font-size="8.00">rng_audit_log, rng_trace_log</text>
</g>
<!-- seg_2B&#45;&gt;seg_5B -->
<g id="edge19" class="edge">
<title>seg_2B&#45;&gt;seg_5B</title>
<path fill="none" stroke="#dc2626" stroke-width="1.4" d="M1738.8,-198.2C1754.68,-192.15 1771.94,-186.16 1788.25,-181.68 1920.06,-145.5 1954.68,-129.68 2091.38,-129.68 2091.38,-129.68 2091.38,-129.68 2804.62,-129.68 2954.34,-129.68 2998.11,-125.68 3137.75,-179.68 3164.52,-190.04 3191.37,-207.55 3212.25,-223.16"/>
<polygon fill="#dc2626" stroke="#dc2626" stroke-width="1.4" points="3209.95,-225.81 3220.02,-229.11 3214.21,-220.25 3209.95,-225.81"/>
<text xml:space="preserve" text-anchor="middle" x="2411.62" y="-131.83" font-family="Helvetica,sans-Serif" font-size="8.00">rng_audit_log, rng_trace_log (+7)</text>
</g>
<!-- seg_2B&#45;&gt;seg_6A -->
<g id="edge20" class="edge">
<title>seg_2B&#45;&gt;seg_6A</title>
<path fill="none" stroke="#dc2626" stroke-width="1.4" d="M1713.89,-249.17C1782.81,-296.38 1941.74,-392.68 2091.38,-392.68 2091.38,-392.68 2091.38,-392.68 3253.5,-392.68 3349.43,-392.68 3455.77,-359.2 3523.67,-333.31"/>
<polygon fill="#dc2626" stroke="#dc2626" stroke-width="1.4" points="3524.6,-336.71 3532.67,-329.83 3522.08,-330.18 3524.6,-336.71"/>
<text xml:space="preserve" text-anchor="middle" x="2603" y="-394.83" font-family="Helvetica,sans-Serif" font-size="8.00">rng_audit_log, rng_trace_log (+2)</text>
</g>
<!-- seg_3A&#45;&gt;seg_3B -->
<g id="edge5" class="edge">
<title>seg_3A&#45;&gt;seg_3B</title>
<path fill="none" stroke="#334155" stroke-width="1.8" d="M2168.17,-190.76C2212.17,-193.72 2268.39,-200.51 2316.25,-215.93 2331.55,-220.86 2347.22,-228.32 2361.29,-236.05"/>
<polygon fill="#334155" stroke="#334155" stroke-width="1.8" points="2359.4,-239 2369.82,-240.92 2362.87,-232.92 2359.4,-239"/>
<text xml:space="preserve" text-anchor="middle" x="2256.25" y="-218.08" font-family="Helvetica,sans-Serif" font-size="8.00">phase progression</text>
</g>
<!-- seg_3A&#45;&gt;seg_3B -->
<g id="edge21" class="edge">
<title>seg_3A&#45;&gt;seg_3B</title>
<path fill="none" stroke="#2563eb" stroke-width="1.2" stroke-dasharray="5,2" d="M2159.58,-214.16C2171.68,-218.34 2184.27,-222.37 2196.25,-225.68 2237.17,-236.98 2283.29,-246.43 2322.24,-253.48"/>
<polygon fill="#2563eb" stroke="#2563eb" stroke-width="1.2" points="2321.57,-256.92 2332.03,-255.23 2322.8,-250.03 2321.57,-256.92"/>
<text xml:space="preserve" text-anchor="middle" x="2256.25" y="-253.78" font-family="Helvetica,sans-Serif" font-size="8.00">rng_audit_log, rng_trace_log (+4)</text>
</g>
<!-- seg_3A&#45;&gt;seg_5B -->
<g id="edge22" class="edge">
<title>seg_3A&#45;&gt;seg_5B</title>
<path fill="none" stroke="#dc2626" stroke-width="1.4" d="M2168.18,-188.07C2211.45,-187.87 2266.92,-187.87 2316.25,-188.68 2681.51,-194.68 2778.71,-148.31 3137.75,-215.68 3151.33,-218.23 3165.47,-222.13 3178.98,-226.5"/>
<polygon fill="#dc2626" stroke="#dc2626" stroke-width="1.4" points="3177.55,-229.71 3188.15,-229.59 3179.79,-223.08 3177.55,-229.71"/>
<text xml:space="preserve" text-anchor="middle" x="2603" y="-189.48" font-family="Helvetica,sans-Serif" font-size="8.00">rng_audit_log, rng_trace_log (+4)</text>
</g>
<!-- seg_3B&#45;&gt;seg_5A -->
<g id="edge6" class="edge">
<title>seg_3B&#45;&gt;seg_5A</title>
<path fill="none" stroke="#334155" stroke-width="1.8" d="M2489.2,-267.88C2546.88,-267.99 2627.9,-268.03 2699,-267.68 2704.21,-267.66 2709.57,-267.63 2714.98,-267.59"/>
<polygon fill="#334155" stroke="#334155" stroke-width="1.8" points="2714.93,-271.09 2724.91,-267.51 2714.88,-264.09 2714.93,-271.09"/>
<text xml:space="preserve" text-anchor="middle" x="2603" y="-270.11" font-family="Helvetica,sans-Serif" font-size="8.00">phase progression</text>
</g>
<!-- seg_3B&#45;&gt;seg_5A -->
<g id="edge23" class="edge">
<title>seg_3B&#45;&gt;seg_5A</title>
<path fill="none" stroke="#2563eb" stroke-width="1.2" stroke-dasharray="5,2" d="M2489.31,-258.21C2495.29,-257.7 2501.24,-257.26 2507,-256.93 2592.2,-252.1 2613.76,-252.93 2699,-256.93 2704.52,-257.19 2710.2,-257.53 2715.92,-257.92"/>
<polygon fill="#2563eb" stroke="#2563eb" stroke-width="1.2" points="2715.65,-261.41 2725.88,-258.66 2716.16,-254.43 2715.65,-261.41"/>
<text xml:space="preserve" text-anchor="middle" x="2603" y="-259.08" font-family="Helvetica,sans-Serif" font-size="8.00">validation_bundle_3B, validation_passed_flag_3B (+3)</text>
</g>
<!-- seg_3B&#45;&gt;seg_5B -->
<g id="edge24" class="edge">
<title>seg_3B&#45;&gt;seg_5B</title>
<path fill="none" stroke="#dc2626" stroke-width="1.4" d="M2489.3,-252.65C2495.28,-251.6 2501.23,-250.6 2507,-249.68 2599.92,-234.92 2623.1,-228.89 2717,-222.93 2903.81,-211.08 2951.48,-223.17 3137.75,-241.68 3146.49,-242.55 3155.6,-243.54 3164.69,-244.57"/>
<polygon fill="#dc2626" stroke="#dc2626" stroke-width="1.4" points="3164.16,-248.03 3174.5,-245.71 3164.97,-241.08 3164.16,-248.03"/>
<text xml:space="preserve" text-anchor="middle" x="2803.62" y="-225.08" font-family="Helvetica,sans-Serif" font-size="8.00">edge_alias_blob_3B, edge_alias_index_3B (+11)</text>
</g>
<!-- seg_3B&#45;&gt;seg_6A -->
<g id="edge25" class="edge">
<title>seg_3B&#45;&gt;seg_6A</title>
<path fill="none" stroke="#dc2626" stroke-width="1.4" d="M2489.34,-285.8C2550.56,-299.28 2638.75,-316.54 2717,-323.68 2996.84,-349.21 3068.3,-329.22 3349.25,-323.68 3416.96,-322.35 3434.08,-324.09 3501.5,-317.68 3503.38,-317.5 3505.29,-317.31 3507.2,-317.11"/>
<polygon fill="#dc2626" stroke="#dc2626" stroke-width="1.4" points="3507.48,-320.6 3517.01,-315.98 3506.68,-313.65 3507.48,-320.6"/>
<text xml:space="preserve" text-anchor="middle" x="3023" y="-338.51" font-family="Helvetica,sans-Serif" font-size="8.00">edge_universe_hash_3B, rng_audit_log (+6)</text>
</g>
<!-- seg_5A&#45;&gt;seg_5B -->
<g id="edge7" class="edge">
<title>seg_5A&#45;&gt;seg_5B</title>
<path fill="none" stroke="#334155" stroke-width="1.8" d="M2879.45,-253.13C2889.11,-251.81 2898.89,-250.68 2908.25,-249.93 2995.08,-242.96 3094.64,-245.82 3164.1,-249.56"/>
<polygon fill="#334155" stroke="#334155" stroke-width="1.8" points="3163.81,-253.05 3173.99,-250.12 3164.2,-246.06 3163.81,-253.05"/>
<text xml:space="preserve" text-anchor="middle" x="3023" y="-252.08" font-family="Helvetica,sans-Serif" font-size="8.00">phase progression</text>
</g>
<!-- seg_5A&#45;&gt;seg_5B -->
<g id="edge26" class="edge">
<title>seg_5A&#45;&gt;seg_5B</title>
<path fill="none" stroke="#2563eb" stroke-width="1.2" stroke-dasharray="5,2" d="M2879.38,-265.41C2946.9,-264.2 3048.99,-262.18 3137.75,-259.68 3146.57,-259.43 3155.77,-259.15 3164.96,-258.85"/>
<polygon fill="#2563eb" stroke="#2563eb" stroke-width="1.2" points="3164.86,-262.36 3174.74,-258.53 3164.62,-255.36 3164.86,-262.36"/>
<text xml:space="preserve" text-anchor="middle" x="3023" y="-266.89" font-family="Helvetica,sans-Serif" font-size="8.00">class_zone_shape_5A, merchant_zone_overlay_factors_5A (+7)</text>
</g>
<!-- seg_5A&#45;&gt;seg_6A -->
<g id="edge27" class="edge">
<title>seg_5A&#45;&gt;seg_6A</title>
<path fill="none" stroke="#dc2626" stroke-width="1.4" d="M2879.56,-275.93C2889.21,-276.95 2898.96,-277.9 2908.25,-278.68 3111.81,-295.77 3163.05,-296.9 3367.25,-302.68 3413.46,-303.99 3464.99,-304.31 3507.24,-304.27"/>
<polygon fill="#dc2626" stroke="#dc2626" stroke-width="1.4" points="3507.06,-307.77 3517.06,-304.25 3507.05,-300.77 3507.06,-307.77"/>
<text xml:space="preserve" text-anchor="middle" x="3252.5" y="-304.27" font-family="Helvetica,sans-Serif" font-size="8.00">merchant_zone_profile_5A, validation_bundle_5A (+1)</text>
</g>
<!-- seg_5B&#45;&gt;seg_6A -->
<g id="edge8" class="edge">
<title>seg_5B&#45;&gt;seg_6A</title>
<path fill="none" stroke="#334155" stroke-width="1.8" d="M3328.22,-266.22C3380.91,-273.64 3451.65,-283.62 3506.9,-291.4"/>
<polygon fill="#334155" stroke="#334155" stroke-width="1.8" points="3506.07,-294.82 3516.46,-292.75 3507.05,-287.89 3506.07,-294.82"/>
<text xml:space="preserve" text-anchor="middle" x="3434.38" y="-291.65" font-family="Helvetica,sans-Serif" font-size="8.00">phase progression</text>
</g>
<!-- seg_5B&#45;&gt;seg_6A -->
<g id="edge28" class="edge">
<title>seg_5B&#45;&gt;seg_6A</title>
<path fill="none" stroke="#2563eb" stroke-width="1.2" stroke-dasharray="5,2" d="M3328.32,-248.29C3378.08,-245.4 3444.51,-245.48 3501.5,-258.93 3514.93,-262.1 3528.69,-267.44 3541.35,-273.35"/>
<polygon fill="#2563eb" stroke="#2563eb" stroke-width="1.2" points="3539.54,-276.36 3550.06,-277.61 3542.62,-270.08 3539.54,-276.36"/>
<text xml:space="preserve" text-anchor="middle" x="3434.38" y="-261.08" font-family="Helvetica,sans-Serif" font-size="8.00">arrival_events_5B, rng_audit_log (+3)</text>
</g>
<!-- seg_5B&#45;&gt;seg_6B -->
<g id="edge29" class="edge">
<title>seg_5B&#45;&gt;seg_6B</title>
<path fill="none" stroke="#dc2626" stroke-width="1.4" d="M3328.35,-245.9C3341.3,-244.56 3354.65,-243.4 3367.25,-242.68 3525.97,-233.64 3709.95,-257.59 3818.94,-275.39"/>
<polygon fill="#dc2626" stroke="#dc2626" stroke-width="1.4" points="3818.34,-278.84 3828.78,-277.02 3819.49,-271.93 3818.34,-278.84"/>
<text xml:space="preserve" text-anchor="middle" x="3595" y="-256.44" font-family="Helvetica,sans-Serif" font-size="8.00">arrival_events_5B, rng_audit_log (+3)</text>
</g>
<!-- seg_6A&#45;&gt;seg_6B -->
<g id="edge9" class="edge">
<title>seg_6A&#45;&gt;seg_6B</title>
<path fill="none" stroke="#334155" stroke-width="1.8" d="M3670.81,-288.96C3676.78,-288.15 3682.73,-287.45 3688.5,-286.93 3730.94,-283.12 3778.03,-283.59 3818.17,-285.38"/>
<polygon fill="#334155" stroke="#334155" stroke-width="1.8" points="3817.79,-288.87 3827.95,-285.86 3818.13,-281.87 3817.79,-288.87"/>
<text xml:space="preserve" text-anchor="middle" x="3750.75" y="-289.08" font-family="Helvetica,sans-Serif" font-size="8.00">phase progression</text>
</g>
<!-- seg_6A&#45;&gt;seg_6B -->
<g id="edge30" class="edge">
<title>seg_6A&#45;&gt;seg_6B</title>
<path fill="none" stroke="#2563eb" stroke-width="1.2" stroke-dasharray="5,2" d="M3670.82,-301.4C3712.65,-300.1 3765.73,-298.38 3813,-296.68 3814.96,-296.61 3816.94,-296.54 3818.94,-296.47"/>
<polygon fill="#2563eb" stroke="#2563eb" stroke-width="1.2" points="3818.85,-299.97 3828.71,-296.1 3818.59,-292.98 3818.85,-299.97"/>
<text xml:space="preserve" text-anchor="middle" x="3750.75" y="-302.97" font-family="Helvetica,sans-Serif" font-size="8.00">rng_audit_log, rng_trace_log (+14)</text>
</g>
</g>
</svg>
