<?xml version="1.0" encoding="UTF-8"?>
<svg id="Layer_2" data-name="Layer 2" xmlns="http://www.w3.org/2000/svg" viewBox="0 0 321 52.47">
  <defs>
    <style>
      .cls-1 {
        fill: #173361;
        fill-rule: evenodd;
        stroke-width: 0px;
      }
    </style>
  </defs>
  <g id="Layer_1-2" data-name="Layer 1">
    <g>
      <path class="cls-1" d="M92.7,29.62h2.99c-1.17,5.36-5.72,8.97-11.8,8.97-7.14,0-12.89-5.32-12.89-12.36s5.75-12.33,12.89-12.33c6.08,0,10.63,3.57,11.8,8.93h-2.99c-1.02-3.89-4.3-6.34-8.81-6.34-5.61,0-9.98,4.17-9.98,9.74s4.37,9.77,9.98,9.77c4.52,0,7.79-2.52,8.81-6.38M126.55,26.24c0,6.88-5.51,12.35-12.35,12.35s-12.35-5.47-12.35-12.35,5.51-12.35,12.35-12.35,12.35,5.47,12.35,12.35M123.76,26.24c0-5.4-4.18-9.75-9.56-9.75s-9.56,4.35-9.56,9.75,4.19,9.75,9.56,9.75,9.56-4.35,9.56-9.75M155.87,13.89v24.69h-2.28l-15.05-19.46v19.46h-2.73V13.89h2.21l15.11,19.72V13.89h2.73ZM169.54,16.54v9.08h12.58v2.65h-12.58v10.31h-2.87V13.89h16.98v2.65h-14.11ZM209.88,35.93v2.65h-16.98V13.89h2.95v22.04h14.02ZM236.12,27.77c0,6.46-4.31,10.81-10.8,10.81s-10.8-4.35-10.8-10.81v-13.88h2.93v13.88c0,4.75,3.12,8.17,7.87,8.17s7.87-3.43,7.87-8.17v-13.88h2.93v13.88ZM249.74,16.54v8.46h12.73v2.65h-12.73v8.28h14.16v2.65h-16.98V13.89h16.98v2.65h-14.16ZM291.68,13.89v24.69h-2.28l-15.05-19.46v19.46h-2.73V13.89h2.21l15.11,19.72V13.89h2.73ZM321,16.54h-8.68v22.04h-2.73v-22.04h-8.65v-2.65h20.06v2.65ZM37.62,27.74c1.35-.07,2.7-.12,4.05-.21v-1.04c-1.35-.1-2.7-.14-4.05-.22l-4.05-.13c-2.38-.07-4.75-.09-7.13-.11,0-2.38-.02-4.76-.08-7.13l-.11-4.05c-.07-1.35-.11-2.7-.2-4.05h-1.15c-.1,1.35-.13,2.7-.2,4.05l-.11,4.05c-.03,1.12-.04,2.23-.06,3.35-.44-1.03-.88-2.05-1.33-3.07l-1.65-3.7c-.58-1.22-1.13-2.45-1.74-3.67l-1.06.44c.43,1.28.91,2.55,1.36,3.82l1.45,3.79c.4,1.04.81,2.08,1.23,3.11-.8-.78-1.6-1.56-2.41-2.33l-2.94-2.78c-1-.91-1.99-1.83-3.01-2.72l-.81.81c.89,1.02,1.81,2.01,2.72,3.01l2.78,2.94c.77.81,1.55,1.61,2.33,2.41-1.04-.42-2.07-.83-3.12-1.23l-3.79-1.45c-1.27-.45-2.54-.93-3.82-1.36l-.44,1.06c1.21.6,2.44,1.16,3.67,1.74l3.7,1.65c1.02.46,2.04.9,3.07,1.33-1.12.01-2.23.03-3.35.06l-4.05.11c-1.35.07-2.7.11-4.05.2v1.15c1.35.1,2.7.13,4.05.2l4.05.11c2.38.06,4.76.08,7.14.08.02,2.38.03,4.75.11,7.13l.13,4.05c.07,1.35.12,2.7.21,4.05h1.04c.1-1.35.14-2.7.22-4.05l.13-4.05c.04-1.14.05-2.29.07-3.43.45,1.05.91,2.1,1.38,3.14l1.67,3.69c.58,1.22,1.14,2.45,1.75,3.66l.96-.4c-.42-1.28-.9-2.55-1.35-3.82l-1.44-3.79c-.4-1.07-.82-2.13-1.25-3.2.82.8,1.64,1.59,2.48,2.38l2.95,2.78c1.01.9,1.99,1.83,3.02,2.71l.73-.73c-.89-1.02-1.81-2.01-2.71-3.02l-2.78-2.95c-.78-.83-1.58-1.66-2.38-2.47,1.06.42,2.13.84,3.19,1.25l3.79,1.43c1.27.45,2.54.93,3.82,1.35l.4-.96c-1.21-.61-2.44-1.17-3.66-1.75l-3.69-1.67c-1.04-.47-2.09-.92-3.14-1.38,1.14-.02,2.29-.03,3.43-.07,0,0,4.05-.13,4.05-.13Z"/>
      <path class="cls-1" d="M26.24,52.47C11.77,52.47,0,40.7,0,26.24S11.77,0,26.24,0s26.24,11.77,26.24,26.24-11.77,26.24-26.24,26.24M26.24,2.45C13.12,2.45,2.45,13.12,2.45,26.24s10.67,23.78,23.78,23.78,23.78-10.67,23.78-23.78S39.35,2.45,26.24,2.45"/>
    </g>
  </g>
</svg>
