<?xml version="1.0" encoding="utf-8" standalone="no"?>
<!DOCTYPE svg PUBLIC "-//W3C//DTD SVG 1.1//EN"
  "http://www.w3.org/Graphics/SVG/1.1/DTD/svg11.dtd">
<svg xmlns:xlink="http://www.w3.org/1999/xlink" width="1539.102pt" height="540.1965pt" viewBox="0 0 1539.102 540.1965" xmlns="http://www.w3.org/2000/svg" version="1.1">
 <metadata>
  <rdf:RDF xmlns:dc="http://purl.org/dc/elements/1.1/" xmlns:cc="http://creativecommons.org/ns#" xmlns:rdf="http://www.w3.org/1999/02/22-rdf-syntax-ns#">
   <cc:Work>
    <dc:type rdf:resource="http://purl.org/dc/dcmitype/StillImage"/>
    <dc:date>2026-03-21T18:49:48.460815</dc:date>
    <dc:format>image/svg+xml</dc:format>
    <dc:creator>
     <cc:Agent>
      <dc:title>Matplotlib v3.9.0, https://matplotlib.org/</dc:title>
     </cc:Agent>
    </dc:creator>
   </cc:Work>
  </rdf:RDF>
 </metadata>
 <defs>
  <style type="text/css">*{stroke-linejoin: round; stroke-linecap: butt}</style>
 </defs>
 <g id="figure_1">
  <g id="patch_1">
   <path d="M 0 540.1965 
L 1539.102 540.1965 
L 1539.102 0 
L 0 0 
z
" style="fill: #f7f4ed"/>
  </g>
  <g id="axes_1">
   <g id="patch_2">
    <path d="M 51.5 467.44 
L 958.68 467.44 
L 958.68 101.52 
L 51.5 101.52 
z
" style="fill: #f7f4ed"/>
   </g>
   <g id="matplotlib.axis_1">
    <g id="xtick_1">
     <g id="line2d_1">
      <defs>
       <path id="m2be1cd553b" d="M 0 0 
L 0 3.5 
" style="stroke: #5e5a55; stroke-width: 0.8"/>
      </defs>
      <g>
       <use xlink:href="#m2be1cd553b" x="74.202666" y="467.44" style="fill: #5e5a55; stroke: #5e5a55; stroke-width: 0.8"/>
      </g>
     </g>
     <g id="text_1">
      <!-- 30 Dec -->
      <g style="fill: #5e5a55" transform="translate(56.575322 482.038438) scale(0.1 -0.1)">
       <defs>
        <path id="DejaVuSans-33" d="M 2597 2516 
Q 3050 2419 3304 2112 
Q 3559 1806 3559 1356 
Q 3559 666 3084 287 
Q 2609 -91 1734 -91 
Q 1441 -91 1130 -33 
Q 819 25 488 141 
L 488 750 
Q 750 597 1062 519 
Q 1375 441 1716 441 
Q 2309 441 2620 675 
Q 2931 909 2931 1356 
Q 2931 1769 2642 2001 
Q 2353 2234 1838 2234 
L 1294 2234 
L 1294 2753 
L 1863 2753 
Q 2328 2753 2575 2939 
Q 2822 3125 2822 3475 
Q 2822 3834 2567 4026 
Q 2313 4219 1838 4219 
Q 1578 4219 1281 4162 
Q 984 4106 628 3988 
L 628 4550 
Q 988 4650 1302 4700 
Q 1616 4750 1894 4750 
Q 2613 4750 3031 4423 
Q 3450 4097 3450 3541 
Q 3450 3153 3228 2886 
Q 3006 2619 2597 2516 
z
" transform="scale(0.015625)"/>
        <path id="DejaVuSans-30" d="M 2034 4250 
Q 1547 4250 1301 3770 
Q 1056 3291 1056 2328 
Q 1056 1369 1301 889 
Q 1547 409 2034 409 
Q 2525 409 2770 889 
Q 3016 1369 3016 2328 
Q 3016 3291 2770 3770 
Q 2525 4250 2034 4250 
z
M 2034 4750 
Q 2819 4750 3233 4129 
Q 3647 3509 3647 2328 
Q 3647 1150 3233 529 
Q 2819 -91 2034 -91 
Q 1250 -91 836 529 
Q 422 1150 422 2328 
Q 422 3509 836 4129 
Q 1250 4750 2034 4750 
z
" transform="scale(0.015625)"/>
        <path id="DejaVuSans-20" transform="scale(0.015625)"/>
        <path id="DejaVuSans-44" d="M 1259 4147 
L 1259 519 
L 2022 519 
Q 2988 519 3436 956 
Q 3884 1394 3884 2338 
Q 3884 3275 3436 3711 
Q 2988 4147 2022 4147 
L 1259 4147 
z
M 628 4666 
L 1925 4666 
Q 3281 4666 3915 4102 
Q 4550 3538 4550 2338 
Q 4550 1131 3912 565 
Q 3275 0 1925 0 
L 628 0 
L 628 4666 
z
" transform="scale(0.015625)"/>
        <path id="DejaVuSans-65" d="M 3597 1894 
L 3597 1613 
L 953 1613 
Q 991 1019 1311 708 
Q 1631 397 2203 397 
Q 2534 397 2845 478 
Q 3156 559 3463 722 
L 3463 178 
Q 3153 47 2828 -22 
Q 2503 -91 2169 -91 
Q 1331 -91 842 396 
Q 353 884 353 1716 
Q 353 2575 817 3079 
Q 1281 3584 2069 3584 
Q 2775 3584 3186 3129 
Q 3597 2675 3597 1894 
z
M 3022 2063 
Q 3016 2534 2758 2815 
Q 2500 3097 2075 3097 
Q 1594 3097 1305 2825 
Q 1016 2553 972 2059 
L 3022 2063 
z
" transform="scale(0.015625)"/>
        <path id="DejaVuSans-63" d="M 3122 3366 
L 3122 2828 
Q 2878 2963 2633 3030 
Q 2388 3097 2138 3097 
Q 1578 3097 1268 2742 
Q 959 2388 959 1747 
Q 959 1106 1268 751 
Q 1578 397 2138 397 
Q 2388 397 2633 464 
Q 2878 531 3122 666 
L 3122 134 
Q 2881 22 2623 -34 
Q 2366 -91 2075 -91 
Q 1284 -91 818 406 
Q 353 903 353 1747 
Q 353 2603 823 3093 
Q 1294 3584 2113 3584 
Q 2378 3584 2631 3529 
Q 2884 3475 3122 3366 
z
" transform="scale(0.015625)"/>
       </defs>
       <use xlink:href="#DejaVuSans-33"/>
       <use xlink:href="#DejaVuSans-30" x="63.623047"/>
       <use xlink:href="#DejaVuSans-20" x="127.246094"/>
       <use xlink:href="#DejaVuSans-44" x="159.033203"/>
       <use xlink:href="#DejaVuSans-65" x="236.035156"/>
       <use xlink:href="#DejaVuSans-63" x="297.558594"/>
      </g>
     </g>
    </g>
    <g id="xtick_2">
     <g id="line2d_2">
      <g>
       <use xlink:href="#m2be1cd553b" x="203.932186" y="467.44" style="fill: #5e5a55; stroke: #5e5a55; stroke-width: 0.8"/>
      </g>
     </g>
     <g id="text_2">
      <!-- 13 Jan -->
      <g style="fill: #5e5a55" transform="translate(188.272811 482.038438) scale(0.1 -0.1)">
       <defs>
        <path id="DejaVuSans-31" d="M 794 531 
L 1825 531 
L 1825 4091 
L 703 3866 
L 703 4441 
L 1819 4666 
L 2450 4666 
L 2450 531 
L 3481 531 
L 3481 0 
L 794 0 
L 794 531 
z
" transform="scale(0.015625)"/>
        <path id="DejaVuSans-4a" d="M 628 4666 
L 1259 4666 
L 1259 325 
Q 1259 -519 939 -900 
Q 619 -1281 -91 -1281 
L -331 -1281 
L -331 -750 
L -134 -750 
Q 284 -750 456 -515 
Q 628 -281 628 325 
L 628 4666 
z
" transform="scale(0.015625)"/>
        <path id="DejaVuSans-61" d="M 2194 1759 
Q 1497 1759 1228 1600 
Q 959 1441 959 1056 
Q 959 750 1161 570 
Q 1363 391 1709 391 
Q 2188 391 2477 730 
Q 2766 1069 2766 1631 
L 2766 1759 
L 2194 1759 
z
M 3341 1997 
L 3341 0 
L 2766 0 
L 2766 531 
Q 2569 213 2275 61 
Q 1981 -91 1556 -91 
Q 1019 -91 701 211 
Q 384 513 384 1019 
Q 384 1609 779 1909 
Q 1175 2209 1959 2209 
L 2766 2209 
L 2766 2266 
Q 2766 2663 2505 2880 
Q 2244 3097 1772 3097 
Q 1472 3097 1187 3025 
Q 903 2953 641 2809 
L 641 3341 
Q 956 3463 1253 3523 
Q 1550 3584 1831 3584 
Q 2591 3584 2966 3190 
Q 3341 2797 3341 1997 
z
" transform="scale(0.015625)"/>
        <path id="DejaVuSans-6e" d="M 3513 2113 
L 3513 0 
L 2938 0 
L 2938 2094 
Q 2938 2591 2744 2837 
Q 2550 3084 2163 3084 
Q 1697 3084 1428 2787 
Q 1159 2491 1159 1978 
L 1159 0 
L 581 0 
L 581 3500 
L 1159 3500 
L 1159 2956 
Q 1366 3272 1645 3428 
Q 1925 3584 2291 3584 
Q 2894 3584 3203 3211 
Q 3513 2838 3513 2113 
z
" transform="scale(0.015625)"/>
       </defs>
       <use xlink:href="#DejaVuSans-31"/>
       <use xlink:href="#DejaVuSans-33" x="63.623047"/>
       <use xlink:href="#DejaVuSans-20" x="127.246094"/>
       <use xlink:href="#DejaVuSans-4a" x="159.033203"/>
       <use xlink:href="#DejaVuSans-61" x="188.525391"/>
       <use xlink:href="#DejaVuSans-6e" x="249.804688"/>
      </g>
     </g>
    </g>
    <g id="xtick_3">
     <g id="line2d_3">
      <g>
       <use xlink:href="#m2be1cd553b" x="333.661706" y="467.44" style="fill: #5e5a55; stroke: #5e5a55; stroke-width: 0.8"/>
      </g>
     </g>
     <g id="text_3">
      <!-- 27 Jan -->
      <g style="fill: #5e5a55" transform="translate(318.002331 482.038438) scale(0.1 -0.1)">
       <defs>
        <path id="DejaVuSans-32" d="M 1228 531 
L 3431 531 
L 3431 0 
L 469 0 
L 469 531 
Q 828 903 1448 1529 
Q 2069 2156 2228 2338 
Q 2531 2678 2651 2914 
Q 2772 3150 2772 3378 
Q 2772 3750 2511 3984 
Q 2250 4219 1831 4219 
Q 1534 4219 1204 4116 
Q 875 4013 500 3803 
L 500 4441 
Q 881 4594 1212 4672 
Q 1544 4750 1819 4750 
Q 2544 4750 2975 4387 
Q 3406 4025 3406 3419 
Q 3406 3131 3298 2873 
Q 3191 2616 2906 2266 
Q 2828 2175 2409 1742 
Q 1991 1309 1228 531 
z
" transform="scale(0.015625)"/>
        <path id="DejaVuSans-37" d="M 525 4666 
L 3525 4666 
L 3525 4397 
L 1831 0 
L 1172 0 
L 2766 4134 
L 525 4134 
L 525 4666 
z
" transform="scale(0.015625)"/>
       </defs>
       <use xlink:href="#DejaVuSans-32"/>
       <use xlink:href="#DejaVuSans-37" x="63.623047"/>
       <use xlink:href="#DejaVuSans-20" x="127.246094"/>
       <use xlink:href="#DejaVuSans-4a" x="159.033203"/>
       <use xlink:href="#DejaVuSans-61" x="188.525391"/>
       <use xlink:href="#DejaVuSans-6e" x="249.804688"/>
      </g>
     </g>
    </g>
    <g id="xtick_4">
     <g id="line2d_4">
      <g>
       <use xlink:href="#m2be1cd553b" x="463.391226" y="467.44" style="fill: #5e5a55; stroke: #5e5a55; stroke-width: 0.8"/>
      </g>
     </g>
     <g id="text_4">
      <!-- 10 Feb -->
      <g style="fill: #5e5a55" transform="translate(446.588101 482.038438) scale(0.1 -0.1)">
       <defs>
        <path id="DejaVuSans-46" d="M 628 4666 
L 3309 4666 
L 3309 4134 
L 1259 4134 
L 1259 2759 
L 3109 2759 
L 3109 2228 
L 1259 2228 
L 1259 0 
L 628 0 
L 628 4666 
z
" transform="scale(0.015625)"/>
        <path id="DejaVuSans-62" d="M 3116 1747 
Q 3116 2381 2855 2742 
Q 2594 3103 2138 3103 
Q 1681 3103 1420 2742 
Q 1159 2381 1159 1747 
Q 1159 1113 1420 752 
Q 1681 391 2138 391 
Q 2594 391 2855 752 
Q 3116 1113 3116 1747 
z
M 1159 2969 
Q 1341 3281 1617 3432 
Q 1894 3584 2278 3584 
Q 2916 3584 3314 3078 
Q 3713 2572 3713 1747 
Q 3713 922 3314 415 
Q 2916 -91 2278 -91 
Q 1894 -91 1617 61 
Q 1341 213 1159 525 
L 1159 0 
L 581 0 
L 581 4863 
L 1159 4863 
L 1159 2969 
z
" transform="scale(0.015625)"/>
       </defs>
       <use xlink:href="#DejaVuSans-31"/>
       <use xlink:href="#DejaVuSans-30" x="63.623047"/>
       <use xlink:href="#DejaVuSans-20" x="127.246094"/>
       <use xlink:href="#DejaVuSans-46" x="159.033203"/>
       <use xlink:href="#DejaVuSans-65" x="211.052734"/>
       <use xlink:href="#DejaVuSans-62" x="272.576172"/>
      </g>
     </g>
    </g>
    <g id="xtick_5">
     <g id="line2d_5">
      <g>
       <use xlink:href="#m2be1cd553b" x="593.120746" y="467.44" style="fill: #5e5a55; stroke: #5e5a55; stroke-width: 0.8"/>
      </g>
     </g>
     <g id="text_5">
      <!-- 24 Feb -->
      <g style="fill: #5e5a55" transform="translate(576.317621 482.038438) scale(0.1 -0.1)">
       <defs>
        <path id="DejaVuSans-34" d="M 2419 4116 
L 825 1625 
L 2419 1625 
L 2419 4116 
z
M 2253 4666 
L 3047 4666 
L 3047 1625 
L 3713 1625 
L 3713 1100 
L 3047 1100 
L 3047 0 
L 2419 0 
L 2419 1100 
L 313 1100 
L 313 1709 
L 2253 4666 
z
" transform="scale(0.015625)"/>
       </defs>
       <use xlink:href="#DejaVuSans-32"/>
       <use xlink:href="#DejaVuSans-34" x="63.623047"/>
       <use xlink:href="#DejaVuSans-20" x="127.246094"/>
       <use xlink:href="#DejaVuSans-46" x="159.033203"/>
       <use xlink:href="#DejaVuSans-65" x="211.052734"/>
       <use xlink:href="#DejaVuSans-62" x="272.576172"/>
      </g>
     </g>
    </g>
    <g id="xtick_6">
     <g id="line2d_6">
      <g>
       <use xlink:href="#m2be1cd553b" x="722.850266" y="467.44" style="fill: #5e5a55; stroke: #5e5a55; stroke-width: 0.8"/>
      </g>
     </g>
     <g id="text_6">
      <!-- 10 Mar -->
      <g style="fill: #5e5a55" transform="translate(705.465109 482.038438) scale(0.1 -0.1)">
       <defs>
        <path id="DejaVuSans-4d" d="M 628 4666 
L 1569 4666 
L 2759 1491 
L 3956 4666 
L 4897 4666 
L 4897 0 
L 4281 0 
L 4281 4097 
L 3078 897 
L 2444 897 
L 1241 4097 
L 1241 0 
L 628 0 
L 628 4666 
z
" transform="scale(0.015625)"/>
        <path id="DejaVuSans-72" d="M 2631 2963 
Q 2534 3019 2420 3045 
Q 2306 3072 2169 3072 
Q 1681 3072 1420 2755 
Q 1159 2438 1159 1844 
L 1159 0 
L 581 0 
L 581 3500 
L 1159 3500 
L 1159 2956 
Q 1341 3275 1631 3429 
Q 1922 3584 2338 3584 
Q 2397 3584 2469 3576 
Q 2541 3569 2628 3553 
L 2631 2963 
z
" transform="scale(0.015625)"/>
       </defs>
       <use xlink:href="#DejaVuSans-31"/>
       <use xlink:href="#DejaVuSans-30" x="63.623047"/>
       <use xlink:href="#DejaVuSans-20" x="127.246094"/>
       <use xlink:href="#DejaVuSans-4d" x="159.033203"/>
       <use xlink:href="#DejaVuSans-61" x="245.3125"/>
       <use xlink:href="#DejaVuSans-72" x="306.591797"/>
      </g>
     </g>
    </g>
    <g id="xtick_7">
     <g id="line2d_7">
      <g>
       <use xlink:href="#m2be1cd553b" x="852.579785" y="467.44" style="fill: #5e5a55; stroke: #5e5a55; stroke-width: 0.8"/>
      </g>
     </g>
     <g id="text_7">
      <!-- 24 Mar -->
      <g style="fill: #5e5a55" transform="translate(835.194629 482.038438) scale(0.1 -0.1)">
       <use xlink:href="#DejaVuSans-32"/>
       <use xlink:href="#DejaVuSans-34" x="63.623047"/>
       <use xlink:href="#DejaVuSans-20" x="127.246094"/>
       <use xlink:href="#DejaVuSans-4d" x="159.033203"/>
       <use xlink:href="#DejaVuSans-61" x="245.3125"/>
       <use xlink:href="#DejaVuSans-72" x="306.591797"/>
      </g>
     </g>
    </g>
    <g id="text_8">
     <!-- Local calendar date -->
     <g style="fill: #5e5a55" transform="translate(455.935313 495.716563) scale(0.1 -0.1)">
      <defs>
       <path id="DejaVuSans-4c" d="M 628 4666 
L 1259 4666 
L 1259 531 
L 3531 531 
L 3531 0 
L 628 0 
L 628 4666 
z
" transform="scale(0.015625)"/>
       <path id="DejaVuSans-6f" d="M 1959 3097 
Q 1497 3097 1228 2736 
Q 959 2375 959 1747 
Q 959 1119 1226 758 
Q 1494 397 1959 397 
Q 2419 397 2687 759 
Q 2956 1122 2956 1747 
Q 2956 2369 2687 2733 
Q 2419 3097 1959 3097 
z
M 1959 3584 
Q 2709 3584 3137 3096 
Q 3566 2609 3566 1747 
Q 3566 888 3137 398 
Q 2709 -91 1959 -91 
Q 1206 -91 779 398 
Q 353 888 353 1747 
Q 353 2609 779 3096 
Q 1206 3584 1959 3584 
z
" transform="scale(0.015625)"/>
       <path id="DejaVuSans-6c" d="M 603 4863 
L 1178 4863 
L 1178 0 
L 603 0 
L 603 4863 
z
" transform="scale(0.015625)"/>
       <path id="DejaVuSans-64" d="M 2906 2969 
L 2906 4863 
L 3481 4863 
L 3481 0 
L 2906 0 
L 2906 525 
Q 2725 213 2448 61 
Q 2172 -91 1784 -91 
Q 1150 -91 751 415 
Q 353 922 353 1747 
Q 353 2572 751 3078 
Q 1150 3584 1784 3584 
Q 2172 3584 2448 3432 
Q 2725 3281 2906 2969 
z
M 947 1747 
Q 947 1113 1208 752 
Q 1469 391 1925 391 
Q 2381 391 2643 752 
Q 2906 1113 2906 1747 
Q 2906 2381 2643 2742 
Q 2381 3103 1925 3103 
Q 1469 3103 1208 2742 
Q 947 2381 947 1747 
z
" transform="scale(0.015625)"/>
       <path id="DejaVuSans-74" d="M 1172 4494 
L 1172 3500 
L 2356 3500 
L 2356 3053 
L 1172 3053 
L 1172 1153 
Q 1172 725 1289 603 
Q 1406 481 1766 481 
L 2356 481 
L 2356 0 
L 1766 0 
Q 1100 0 847 248 
Q 594 497 594 1153 
L 594 3053 
L 172 3053 
L 172 3500 
L 594 3500 
L 594 4494 
L 1172 4494 
z
" transform="scale(0.015625)"/>
      </defs>
      <use xlink:href="#DejaVuSans-4c"/>
      <use xlink:href="#DejaVuSans-6f" x="53.962891"/>
      <use xlink:href="#DejaVuSans-63" x="115.144531"/>
      <use xlink:href="#DejaVuSans-61" x="170.125"/>
      <use xlink:href="#DejaVuSans-6c" x="231.404297"/>
      <use xlink:href="#DejaVuSans-20" x="259.1875"/>
      <use xlink:href="#DejaVuSans-63" x="290.974609"/>
      <use xlink:href="#DejaVuSans-61" x="345.955078"/>
      <use xlink:href="#DejaVuSans-6c" x="407.234375"/>
      <use xlink:href="#DejaVuSans-65" x="435.017578"/>
      <use xlink:href="#DejaVuSans-6e" x="496.541016"/>
      <use xlink:href="#DejaVuSans-64" x="559.919922"/>
      <use xlink:href="#DejaVuSans-61" x="623.396484"/>
      <use xlink:href="#DejaVuSans-72" x="684.675781"/>
      <use xlink:href="#DejaVuSans-20" x="725.789062"/>
      <use xlink:href="#DejaVuSans-64" x="757.576172"/>
      <use xlink:href="#DejaVuSans-61" x="821.052734"/>
      <use xlink:href="#DejaVuSans-74" x="882.332031"/>
      <use xlink:href="#DejaVuSans-65" x="921.541016"/>
     </g>
    </g>
   </g>
   <g id="matplotlib.axis_2">
    <g id="ytick_1">
     <g id="line2d_8">
      <path d="M 51.5 429.628603 
L 958.68 429.628603 
" clip-path="url(#p3fcccc3690)" style="fill: none; stroke-dasharray: 2.96,1.28; stroke-dashoffset: 0; stroke: #d9d1c7; stroke-opacity: 0.9; stroke-width: 0.8"/>
     </g>
     <g id="line2d_9">
      <defs>
       <path id="m2d6e5c9581" d="M 0 0 
L -3.5 0 
" style="stroke: #5e5a55; stroke-width: 0.8"/>
      </defs>
      <g>
       <use xlink:href="#m2d6e5c9581" x="51.5" y="429.628603" style="fill: #5e5a55; stroke: #5e5a55; stroke-width: 0.8"/>
      </g>
     </g>
     <g id="text_9">
      <!-- 2.50 -->
      <g style="fill: #5e5a55" transform="translate(22.234375 433.427822) scale(0.1 -0.1)">
       <defs>
        <path id="DejaVuSans-2e" d="M 684 794 
L 1344 794 
L 1344 0 
L 684 0 
L 684 794 
z
" transform="scale(0.015625)"/>
        <path id="DejaVuSans-35" d="M 691 4666 
L 3169 4666 
L 3169 4134 
L 1269 4134 
L 1269 2991 
Q 1406 3038 1543 3061 
Q 1681 3084 1819 3084 
Q 2600 3084 3056 2656 
Q 3513 2228 3513 1497 
Q 3513 744 3044 326 
Q 2575 -91 1722 -91 
Q 1428 -91 1123 -41 
Q 819 9 494 109 
L 494 744 
Q 775 591 1075 516 
Q 1375 441 1709 441 
Q 2250 441 2565 725 
Q 2881 1009 2881 1497 
Q 2881 1984 2565 2268 
Q 2250 2553 1709 2553 
Q 1456 2553 1204 2497 
Q 953 2441 691 2322 
L 691 4666 
z
" transform="scale(0.015625)"/>
       </defs>
       <use xlink:href="#DejaVuSans-32"/>
       <use xlink:href="#DejaVuSans-2e" x="63.623047"/>
       <use xlink:href="#DejaVuSans-35" x="95.410156"/>
       <use xlink:href="#DejaVuSans-30" x="159.033203"/>
      </g>
     </g>
    </g>
    <g id="ytick_2">
     <g id="line2d_10">
      <path d="M 51.5 387.6291 
L 958.68 387.6291 
" clip-path="url(#p3fcccc3690)" style="fill: none; stroke-dasharray: 2.96,1.28; stroke-dashoffset: 0; stroke: #d9d1c7; stroke-opacity: 0.9; stroke-width: 0.8"/>
     </g>
     <g id="line2d_11">
      <g>
       <use xlink:href="#m2d6e5c9581" x="51.5" y="387.6291" style="fill: #5e5a55; stroke: #5e5a55; stroke-width: 0.8"/>
      </g>
     </g>
     <g id="text_10">
      <!-- 2.55 -->
      <g style="fill: #5e5a55" transform="translate(22.234375 391.428319) scale(0.1 -0.1)">
       <use xlink:href="#DejaVuSans-32"/>
       <use xlink:href="#DejaVuSans-2e" x="63.623047"/>
       <use xlink:href="#DejaVuSans-35" x="95.410156"/>
       <use xlink:href="#DejaVuSans-35" x="159.033203"/>
      </g>
     </g>
    </g>
    <g id="ytick_3">
     <g id="line2d_12">
      <path d="M 51.5 345.629597 
L 958.68 345.629597 
" clip-path="url(#p3fcccc3690)" style="fill: none; stroke-dasharray: 2.96,1.28; stroke-dashoffset: 0; stroke: #d9d1c7; stroke-opacity: 0.9; stroke-width: 0.8"/>
     </g>
     <g id="line2d_13">
      <g>
       <use xlink:href="#m2d6e5c9581" x="51.5" y="345.629597" style="fill: #5e5a55; stroke: #5e5a55; stroke-width: 0.8"/>
      </g>
     </g>
     <g id="text_11">
      <!-- 2.60 -->
      <g style="fill: #5e5a55" transform="translate(22.234375 349.428815) scale(0.1 -0.1)">
       <defs>
        <path id="DejaVuSans-36" d="M 2113 2584 
Q 1688 2584 1439 2293 
Q 1191 2003 1191 1497 
Q 1191 994 1439 701 
Q 1688 409 2113 409 
Q 2538 409 2786 701 
Q 3034 994 3034 1497 
Q 3034 2003 2786 2293 
Q 2538 2584 2113 2584 
z
M 3366 4563 
L 3366 3988 
Q 3128 4100 2886 4159 
Q 2644 4219 2406 4219 
Q 1781 4219 1451 3797 
Q 1122 3375 1075 2522 
Q 1259 2794 1537 2939 
Q 1816 3084 2150 3084 
Q 2853 3084 3261 2657 
Q 3669 2231 3669 1497 
Q 3669 778 3244 343 
Q 2819 -91 2113 -91 
Q 1303 -91 875 529 
Q 447 1150 447 2328 
Q 447 3434 972 4092 
Q 1497 4750 2381 4750 
Q 2619 4750 2861 4703 
Q 3103 4656 3366 4563 
z
" transform="scale(0.015625)"/>
       </defs>
       <use xlink:href="#DejaVuSans-32"/>
       <use xlink:href="#DejaVuSans-2e" x="63.623047"/>
       <use xlink:href="#DejaVuSans-36" x="95.410156"/>
       <use xlink:href="#DejaVuSans-30" x="159.033203"/>
      </g>
     </g>
    </g>
    <g id="ytick_4">
     <g id="line2d_14">
      <path d="M 51.5 303.630093 
L 958.68 303.630093 
" clip-path="url(#p3fcccc3690)" style="fill: none; stroke-dasharray: 2.96,1.28; stroke-dashoffset: 0; stroke: #d9d1c7; stroke-opacity: 0.9; stroke-width: 0.8"/>
     </g>
     <g id="line2d_15">
      <g>
       <use xlink:href="#m2d6e5c9581" x="51.5" y="303.630093" style="fill: #5e5a55; stroke: #5e5a55; stroke-width: 0.8"/>
      </g>
     </g>
     <g id="text_12">
      <!-- 2.65 -->
      <g style="fill: #5e5a55" transform="translate(22.234375 307.429312) scale(0.1 -0.1)">
       <use xlink:href="#DejaVuSans-32"/>
       <use xlink:href="#DejaVuSans-2e" x="63.623047"/>
       <use xlink:href="#DejaVuSans-36" x="95.410156"/>
       <use xlink:href="#DejaVuSans-35" x="159.033203"/>
      </g>
     </g>
    </g>
    <g id="ytick_5">
     <g id="line2d_16">
      <path d="M 51.5 261.63059 
L 958.68 261.63059 
" clip-path="url(#p3fcccc3690)" style="fill: none; stroke-dasharray: 2.96,1.28; stroke-dashoffset: 0; stroke: #d9d1c7; stroke-opacity: 0.9; stroke-width: 0.8"/>
     </g>
     <g id="line2d_17">
      <g>
       <use xlink:href="#m2d6e5c9581" x="51.5" y="261.63059" style="fill: #5e5a55; stroke: #5e5a55; stroke-width: 0.8"/>
      </g>
     </g>
     <g id="text_13">
      <!-- 2.70 -->
      <g style="fill: #5e5a55" transform="translate(22.234375 265.429809) scale(0.1 -0.1)">
       <use xlink:href="#DejaVuSans-32"/>
       <use xlink:href="#DejaVuSans-2e" x="63.623047"/>
       <use xlink:href="#DejaVuSans-37" x="95.410156"/>
       <use xlink:href="#DejaVuSans-30" x="159.033203"/>
      </g>
     </g>
    </g>
    <g id="ytick_6">
     <g id="line2d_18">
      <path d="M 51.5 219.631087 
L 958.68 219.631087 
" clip-path="url(#p3fcccc3690)" style="fill: none; stroke-dasharray: 2.96,1.28; stroke-dashoffset: 0; stroke: #d9d1c7; stroke-opacity: 0.9; stroke-width: 0.8"/>
     </g>
     <g id="line2d_19">
      <g>
       <use xlink:href="#m2d6e5c9581" x="51.5" y="219.631087" style="fill: #5e5a55; stroke: #5e5a55; stroke-width: 0.8"/>
      </g>
     </g>
     <g id="text_14">
      <!-- 2.75 -->
      <g style="fill: #5e5a55" transform="translate(22.234375 223.430306) scale(0.1 -0.1)">
       <use xlink:href="#DejaVuSans-32"/>
       <use xlink:href="#DejaVuSans-2e" x="63.623047"/>
       <use xlink:href="#DejaVuSans-37" x="95.410156"/>
       <use xlink:href="#DejaVuSans-35" x="159.033203"/>
      </g>
     </g>
    </g>
    <g id="ytick_7">
     <g id="line2d_20">
      <path d="M 51.5 177.631584 
L 958.68 177.631584 
" clip-path="url(#p3fcccc3690)" style="fill: none; stroke-dasharray: 2.96,1.28; stroke-dashoffset: 0; stroke: #d9d1c7; stroke-opacity: 0.9; stroke-width: 0.8"/>
     </g>
     <g id="line2d_21">
      <g>
       <use xlink:href="#m2d6e5c9581" x="51.5" y="177.631584" style="fill: #5e5a55; stroke: #5e5a55; stroke-width: 0.8"/>
      </g>
     </g>
     <g id="text_15">
      <!-- 2.80 -->
      <g style="fill: #5e5a55" transform="translate(22.234375 181.430803) scale(0.1 -0.1)">
       <defs>
        <path id="DejaVuSans-38" d="M 2034 2216 
Q 1584 2216 1326 1975 
Q 1069 1734 1069 1313 
Q 1069 891 1326 650 
Q 1584 409 2034 409 
Q 2484 409 2743 651 
Q 3003 894 3003 1313 
Q 3003 1734 2745 1975 
Q 2488 2216 2034 2216 
z
M 1403 2484 
Q 997 2584 770 2862 
Q 544 3141 544 3541 
Q 544 4100 942 4425 
Q 1341 4750 2034 4750 
Q 2731 4750 3128 4425 
Q 3525 4100 3525 3541 
Q 3525 3141 3298 2862 
Q 3072 2584 2669 2484 
Q 3125 2378 3379 2068 
Q 3634 1759 3634 1313 
Q 3634 634 3220 271 
Q 2806 -91 2034 -91 
Q 1263 -91 848 271 
Q 434 634 434 1313 
Q 434 1759 690 2068 
Q 947 2378 1403 2484 
z
M 1172 3481 
Q 1172 3119 1398 2916 
Q 1625 2713 2034 2713 
Q 2441 2713 2670 2916 
Q 2900 3119 2900 3481 
Q 2900 3844 2670 4047 
Q 2441 4250 2034 4250 
Q 1625 4250 1398 4047 
Q 1172 3844 1172 3481 
z
" transform="scale(0.015625)"/>
       </defs>
       <use xlink:href="#DejaVuSans-32"/>
       <use xlink:href="#DejaVuSans-2e" x="63.623047"/>
       <use xlink:href="#DejaVuSans-38" x="95.410156"/>
       <use xlink:href="#DejaVuSans-30" x="159.033203"/>
      </g>
     </g>
    </g>
    <g id="ytick_8">
     <g id="line2d_22">
      <path d="M 51.5 135.632081 
L 958.68 135.632081 
" clip-path="url(#p3fcccc3690)" style="fill: none; stroke-dasharray: 2.96,1.28; stroke-dashoffset: 0; stroke: #d9d1c7; stroke-opacity: 0.9; stroke-width: 0.8"/>
     </g>
     <g id="line2d_23">
      <g>
       <use xlink:href="#m2d6e5c9581" x="51.5" y="135.632081" style="fill: #5e5a55; stroke: #5e5a55; stroke-width: 0.8"/>
      </g>
     </g>
     <g id="text_16">
      <!-- 2.85 -->
      <g style="fill: #5e5a55" transform="translate(22.234375 139.431299) scale(0.1 -0.1)">
       <use xlink:href="#DejaVuSans-32"/>
       <use xlink:href="#DejaVuSans-2e" x="63.623047"/>
       <use xlink:href="#DejaVuSans-38" x="95.410156"/>
       <use xlink:href="#DejaVuSans-35" x="159.033203"/>
      </g>
     </g>
    </g>
    <g id="text_17">
     <!-- Daily arrivals (millions) -->
     <g style="fill: #5e5a55" transform="translate(16.154687 341.964375) rotate(-90) scale(0.1 -0.1)">
      <defs>
       <path id="DejaVuSans-69" d="M 603 3500 
L 1178 3500 
L 1178 0 
L 603 0 
L 603 3500 
z
M 603 4863 
L 1178 4863 
L 1178 4134 
L 603 4134 
L 603 4863 
z
" transform="scale(0.015625)"/>
       <path id="DejaVuSans-79" d="M 2059 -325 
Q 1816 -950 1584 -1140 
Q 1353 -1331 966 -1331 
L 506 -1331 
L 506 -850 
L 844 -850 
Q 1081 -850 1212 -737 
Q 1344 -625 1503 -206 
L 1606 56 
L 191 3500 
L 800 3500 
L 1894 763 
L 2988 3500 
L 3597 3500 
L 2059 -325 
z
" transform="scale(0.015625)"/>
       <path id="DejaVuSans-76" d="M 191 3500 
L 800 3500 
L 1894 563 
L 2988 3500 
L 3597 3500 
L 2284 0 
L 1503 0 
L 191 3500 
z
" transform="scale(0.015625)"/>
       <path id="DejaVuSans-73" d="M 2834 3397 
L 2834 2853 
Q 2591 2978 2328 3040 
Q 2066 3103 1784 3103 
Q 1356 3103 1142 2972 
Q 928 2841 928 2578 
Q 928 2378 1081 2264 
Q 1234 2150 1697 2047 
L 1894 2003 
Q 2506 1872 2764 1633 
Q 3022 1394 3022 966 
Q 3022 478 2636 193 
Q 2250 -91 1575 -91 
Q 1294 -91 989 -36 
Q 684 19 347 128 
L 347 722 
Q 666 556 975 473 
Q 1284 391 1588 391 
Q 1994 391 2212 530 
Q 2431 669 2431 922 
Q 2431 1156 2273 1281 
Q 2116 1406 1581 1522 
L 1381 1569 
Q 847 1681 609 1914 
Q 372 2147 372 2553 
Q 372 3047 722 3315 
Q 1072 3584 1716 3584 
Q 2034 3584 2315 3537 
Q 2597 3491 2834 3397 
z
" transform="scale(0.015625)"/>
       <path id="DejaVuSans-28" d="M 1984 4856 
Q 1566 4138 1362 3434 
Q 1159 2731 1159 2009 
Q 1159 1288 1364 580 
Q 1569 -128 1984 -844 
L 1484 -844 
Q 1016 -109 783 600 
Q 550 1309 550 2009 
Q 550 2706 781 3412 
Q 1013 4119 1484 4856 
L 1984 4856 
z
" transform="scale(0.015625)"/>
       <path id="DejaVuSans-6d" d="M 3328 2828 
Q 3544 3216 3844 3400 
Q 4144 3584 4550 3584 
Q 5097 3584 5394 3201 
Q 5691 2819 5691 2113 
L 5691 0 
L 5113 0 
L 5113 2094 
Q 5113 2597 4934 2840 
Q 4756 3084 4391 3084 
Q 3944 3084 3684 2787 
Q 3425 2491 3425 1978 
L 3425 0 
L 2847 0 
L 2847 2094 
Q 2847 2600 2669 2842 
Q 2491 3084 2119 3084 
Q 1678 3084 1418 2786 
Q 1159 2488 1159 1978 
L 1159 0 
L 581 0 
L 581 3500 
L 1159 3500 
L 1159 2956 
Q 1356 3278 1631 3431 
Q 1906 3584 2284 3584 
Q 2666 3584 2933 3390 
Q 3200 3197 3328 2828 
z
" transform="scale(0.015625)"/>
       <path id="DejaVuSans-29" d="M 513 4856 
L 1013 4856 
Q 1481 4119 1714 3412 
Q 1947 2706 1947 2009 
Q 1947 1309 1714 600 
Q 1481 -109 1013 -844 
L 513 -844 
Q 928 -128 1133 580 
Q 1338 1288 1338 2009 
Q 1338 2731 1133 3434 
Q 928 4138 513 4856 
z
" transform="scale(0.015625)"/>
      </defs>
      <use xlink:href="#DejaVuSans-44"/>
      <use xlink:href="#DejaVuSans-61" x="77.001953"/>
      <use xlink:href="#DejaVuSans-69" x="138.28125"/>
      <use xlink:href="#DejaVuSans-6c" x="166.064453"/>
      <use xlink:href="#DejaVuSans-79" x="193.847656"/>
      <use xlink:href="#DejaVuSans-20" x="253.027344"/>
      <use xlink:href="#DejaVuSans-61" x="284.814453"/>
      <use xlink:href="#DejaVuSans-72" x="346.09375"/>
      <use xlink:href="#DejaVuSans-72" x="385.457031"/>
      <use xlink:href="#DejaVuSans-69" x="426.570312"/>
      <use xlink:href="#DejaVuSans-76" x="454.353516"/>
      <use xlink:href="#DejaVuSans-61" x="513.533203"/>
      <use xlink:href="#DejaVuSans-6c" x="574.8125"/>
      <use xlink:href="#DejaVuSans-73" x="602.595703"/>
      <use xlink:href="#DejaVuSans-20" x="654.695312"/>
      <use xlink:href="#DejaVuSans-28" x="686.482422"/>
      <use xlink:href="#DejaVuSans-6d" x="725.496094"/>
      <use xlink:href="#DejaVuSans-69" x="822.908203"/>
      <use xlink:href="#DejaVuSans-6c" x="850.691406"/>
      <use xlink:href="#DejaVuSans-6c" x="878.474609"/>
      <use xlink:href="#DejaVuSans-69" x="906.257812"/>
      <use xlink:href="#DejaVuSans-6f" x="934.041016"/>
      <use xlink:href="#DejaVuSans-6e" x="995.222656"/>
      <use xlink:href="#DejaVuSans-73" x="1058.601562"/>
      <use xlink:href="#DejaVuSans-29" x="1110.701172"/>
     </g>
    </g>
   </g>
   <g id="line2d_24">
    <path d="M 92.735455 432.275412 
L 102.001849 306.4911 
L 111.268243 395.27217 
L 120.534637 404.734658 
L 129.801032 304.208847 
L 139.067426 316.753258 
L 148.33382 278.466511 
L 157.600215 263.173652 
L 166.866609 279.575298 
L 176.133003 372.632757 
L 185.399397 414.70702 
L 194.665792 325.395916 
L 203.932186 323.048144 
L 213.19858 317.261452 
L 222.464974 131.46405 
L 231.731369 203.33696 
L 240.997763 374.229578 
L 250.264157 424.165308 
L 259.530552 340.788734 
L 268.796946 336.382146 
L 278.06334 328.230043 
L 287.329734 281.654273 
L 296.596129 187.494747 
L 305.862523 370.342104 
L 315.128917 450.561996 
L 324.395312 373.165311 
L 333.661706 369.512194 
L 342.9281 310.590251 
L 352.194494 297.340248 
L 361.460889 118.152727 
L 370.727283 289.644259 
L 379.993677 413.121958 
L 389.260072 331.353966 
L 398.526466 319.100191 
L 407.79286 284.847076 
L 417.059254 310.397893 
L 426.325649 293.008419 
L 435.592043 392.289365 
L 444.858437 415.837646 
L 454.124831 333.253183 
L 463.391226 338.465321 
L 472.65762 332.930627 
L 481.924014 297.100851 
L 491.190409 143.493548 
L 500.456803 294.428002 
L 509.723197 354.609931 
L 518.989591 323.503418 
L 528.255986 333.200264 
L 537.52238 338.007527 
L 546.788774 345.014724 
L 556.055169 334.512328 
L 565.321563 393.641749 
L 574.587957 417.497467 
L 583.854351 352.586394 
L 593.120746 341.546405 
L 602.38714 185.59805 
L 611.653534 197.063074 
L 620.919928 211.090068 
L 630.186323 328.658437 
L 639.452717 412.655764 
L 648.719111 336.194828 
L 657.985506 311.052246 
L 667.2519 309.080789 
L 676.518294 318.577717 
L 685.784688 313.290819 
L 695.051083 374.96457 
L 704.317477 403.583871 
L 713.583871 333.844536 
L 722.850266 337.72193 
L 732.11666 348.034488 
L 741.383054 325.786511 
L 750.649448 186.675757 
L 759.915843 340.913053 
L 769.182237 400.31967 
L 778.448631 317.580648 
L 787.715026 305.170635 
L 796.98142 319.98302 
L 806.247814 316.733939 
L 815.514208 294.912677 
L 824.780603 390.439707 
L 834.046997 379.19644 
L 843.313391 306.210543 
L 852.579785 291.829073 
L 861.84618 181.946613 
L 871.112574 243.92696 
L 880.378968 293.710651 
L 889.645363 385.434206 
L 898.911757 450.807273 
L 908.178151 320.647452 
L 917.444545 336.277987 
" clip-path="url(#p3fcccc3690)" style="fill: none; stroke: #204b57; stroke-opacity: 0.35; stroke-width: 1.6; stroke-linecap: square"/>
   </g>
   <g id="line2d_25">
    <path d="M 111.268243 378.012894 
L 120.534637 384.693335 
L 129.801032 368.596437 
L 139.067426 359.955907 
L 148.33382 348.314565 
L 157.600215 324.157171 
L 166.866609 320.312056 
L 176.133003 317.077854 
L 185.399397 318.502478 
L 194.665792 321.529202 
L 203.932186 322.428471 
L 213.19858 327.970606 
L 222.464974 309.154948 
L 231.731369 298.263757 
L 240.997763 298.491874 
L 250.264157 299.843058 
L 259.530552 302.042032 
L 268.796946 303.94689 
L 278.06334 305.513831 
L 287.329734 326.969577 
L 296.596129 324.706404 
L 305.862523 324.151051 
L 315.128917 327.922006 
L 324.395312 332.547231 
L 333.661706 337.280095 
L 342.9281 334.760125 
L 352.194494 337.000979 
L 361.460889 327.094976 
L 370.727283 315.566712 
L 379.993677 310.218136 
L 389.260072 304.245086 
L 398.526466 297.043371 
L 407.79286 293.365775 
L 417.059254 295.231153 
L 426.325649 320.210537 
L 435.592043 334.874124 
L 444.858437 335.262079 
L 454.124831 335.533396 
L 463.391226 338.299843 
L 472.65762 345.168922 
L 481.924014 343.269345 
L 491.190409 321.910077 
L 500.456803 307.929883 
L 509.723197 299.183066 
L 518.989591 297.790243 
L 528.255986 297.038091 
L 537.52238 297.763363 
L 546.788774 304.608202 
L 556.055169 331.896599 
L 565.321563 346.069992 
L 574.587957 355.053925 
L 583.854351 359.208636 
L 593.120746 360.400942 
L 602.38714 338.62816 
L 611.653534 317.49221 
L 620.919928 299.860458 
L 630.186323 290.577128 
L 639.452717 289.885456 
L 648.719111 287.543804 
L 657.985506 283.187495 
L 667.2519 300.827887 
L 676.518294 318.187121 
L 685.784688 332.787229 
L 695.051083 339.40239 
L 704.317477 338.106406 
L 713.583871 337.77065 
L 722.850266 341.580605 
L 732.11666 347.145419 
L 741.383054 348.175247 
L 750.649448 330.087381 
L 759.915843 325.222878 
L 769.182237 324.756564 
L 778.448631 322.433151 
L 787.715026 317.782966 
L 796.98142 313.775613 
L 806.247814 312.482389 
L 815.514208 327.944806 
L 824.780603 335.020042 
L 834.046997 332.002438 
L 843.313391 330.378137 
L 852.579785 328.4722 
L 861.84618 308.752713 
L 871.112574 298.351716 
L 880.378968 298.179998 
L 889.645363 297.464926 
L 898.911757 307.695045 
L 908.178151 309.757461 
L 917.444545 316.107306 
" clip-path="url(#p3fcccc3690)" style="fill: none; stroke: #b5653a; stroke-width: 2.8; stroke-linecap: square"/>
   </g>
   <g id="patch_3">
    <path d="M 51.5 467.44 
L 51.5 101.52 
" style="fill: none; stroke: #d9d1c7; stroke-width: 0.8; stroke-linejoin: miter; stroke-linecap: square"/>
   </g>
   <g id="patch_4">
    <path d="M 958.68 467.44 
L 958.68 101.52 
" style="fill: none; stroke: #d9d1c7; stroke-width: 0.8; stroke-linejoin: miter; stroke-linecap: square"/>
   </g>
   <g id="patch_5">
    <path d="M 51.5 467.44 
L 958.68 467.44 
" style="fill: none; stroke: #d9d1c7; stroke-width: 0.8; stroke-linejoin: miter; stroke-linecap: square"/>
   </g>
   <g id="patch_6">
    <path d="M 51.5 101.52 
L 958.68 101.52 
" style="fill: none; stroke: #d9d1c7; stroke-width: 0.8; stroke-linejoin: miter; stroke-linecap: square"/>
   </g>
   <g id="text_18">
    <g id="patch_7">
     <path d="M 774.614216 434.487534 
L 949.6082 434.487534 
Q 953.2832 434.487534 953.2832 430.812534 
L 953.2832 408.8928 
Q 953.2832 405.2178 949.6082 405.2178 
L 774.614216 405.2178 
Q 770.939216 405.2178 770.939216 408.8928 
L 770.939216 430.812534 
Q 770.939216 434.487534 774.614216 434.487534 
z
" style="fill: #fcfaf6; stroke: #d9d1c7; stroke-linejoin: miter"/>
    </g>
    <!-- Average weekday volume: 2.66M -->
    <g style="fill: #161514" transform="translate(774.699528 416.871159) scale(0.105 -0.105)">
     <defs>
      <path id="DejaVuSans-41" d="M 2188 4044 
L 1331 1722 
L 3047 1722 
L 2188 4044 
z
M 1831 4666 
L 2547 4666 
L 4325 0 
L 3669 0 
L 3244 1197 
L 1141 1197 
L 716 0 
L 50 0 
L 1831 4666 
z
" transform="scale(0.015625)"/>
      <path id="DejaVuSans-67" d="M 2906 1791 
Q 2906 2416 2648 2759 
Q 2391 3103 1925 3103 
Q 1463 3103 1205 2759 
Q 947 2416 947 1791 
Q 947 1169 1205 825 
Q 1463 481 1925 481 
Q 2391 481 2648 825 
Q 2906 1169 2906 1791 
z
M 3481 434 
Q 3481 -459 3084 -895 
Q 2688 -1331 1869 -1331 
Q 1566 -1331 1297 -1286 
Q 1028 -1241 775 -1147 
L 775 -588 
Q 1028 -725 1275 -790 
Q 1522 -856 1778 -856 
Q 2344 -856 2625 -561 
Q 2906 -266 2906 331 
L 2906 616 
Q 2728 306 2450 153 
Q 2172 0 1784 0 
Q 1141 0 747 490 
Q 353 981 353 1791 
Q 353 2603 747 3093 
Q 1141 3584 1784 3584 
Q 2172 3584 2450 3431 
Q 2728 3278 2906 2969 
L 2906 3500 
L 3481 3500 
L 3481 434 
z
" transform="scale(0.015625)"/>
      <path id="DejaVuSans-77" d="M 269 3500 
L 844 3500 
L 1563 769 
L 2278 3500 
L 2956 3500 
L 3675 769 
L 4391 3500 
L 4966 3500 
L 4050 0 
L 3372 0 
L 2619 2869 
L 1863 0 
L 1184 0 
L 269 3500 
z
" transform="scale(0.015625)"/>
      <path id="DejaVuSans-6b" d="M 581 4863 
L 1159 4863 
L 1159 1991 
L 2875 3500 
L 3609 3500 
L 1753 1863 
L 3688 0 
L 2938 0 
L 1159 1709 
L 1159 0 
L 581 0 
L 581 4863 
z
" transform="scale(0.015625)"/>
      <path id="DejaVuSans-75" d="M 544 1381 
L 544 3500 
L 1119 3500 
L 1119 1403 
Q 1119 906 1312 657 
Q 1506 409 1894 409 
Q 2359 409 2629 706 
Q 2900 1003 2900 1516 
L 2900 3500 
L 3475 3500 
L 3475 0 
L 2900 0 
L 2900 538 
Q 2691 219 2414 64 
Q 2138 -91 1772 -91 
Q 1169 -91 856 284 
Q 544 659 544 1381 
z
M 1991 3584 
L 1991 3584 
z
" transform="scale(0.015625)"/>
      <path id="DejaVuSans-3a" d="M 750 794 
L 1409 794 
L 1409 0 
L 750 0 
L 750 794 
z
M 750 3309 
L 1409 3309 
L 1409 2516 
L 750 2516 
L 750 3309 
z
" transform="scale(0.015625)"/>
     </defs>
     <use xlink:href="#DejaVuSans-41"/>
     <use xlink:href="#DejaVuSans-76" x="62.533203"/>
     <use xlink:href="#DejaVuSans-65" x="121.712891"/>
     <use xlink:href="#DejaVuSans-72" x="183.236328"/>
     <use xlink:href="#DejaVuSans-61" x="224.349609"/>
     <use xlink:href="#DejaVuSans-67" x="285.628906"/>
     <use xlink:href="#DejaVuSans-65" x="349.105469"/>
     <use xlink:href="#DejaVuSans-20" x="410.628906"/>
     <use xlink:href="#DejaVuSans-77" x="442.416016"/>
     <use xlink:href="#DejaVuSans-65" x="524.203125"/>
     <use xlink:href="#DejaVuSans-65" x="585.726562"/>
     <use xlink:href="#DejaVuSans-6b" x="647.25"/>
     <use xlink:href="#DejaVuSans-64" x="705.160156"/>
     <use xlink:href="#DejaVuSans-61" x="768.636719"/>
     <use xlink:href="#DejaVuSans-79" x="829.916016"/>
     <use xlink:href="#DejaVuSans-20" x="889.095703"/>
     <use xlink:href="#DejaVuSans-76" x="920.882812"/>
     <use xlink:href="#DejaVuSans-6f" x="980.0625"/>
     <use xlink:href="#DejaVuSans-6c" x="1041.244141"/>
     <use xlink:href="#DejaVuSans-75" x="1069.027344"/>
     <use xlink:href="#DejaVuSans-6d" x="1132.40625"/>
     <use xlink:href="#DejaVuSans-65" x="1229.818359"/>
     <use xlink:href="#DejaVuSans-3a" x="1291.341797"/>
     <use xlink:href="#DejaVuSans-20" x="1325.033203"/>
     <use xlink:href="#DejaVuSans-32" x="1356.820312"/>
     <use xlink:href="#DejaVuSans-2e" x="1420.443359"/>
     <use xlink:href="#DejaVuSans-36" x="1452.230469"/>
     <use xlink:href="#DejaVuSans-36" x="1515.853516"/>
     <use xlink:href="#DejaVuSans-4d" x="1579.476562"/>
    </g>
    <!-- Average weekend volume: 2.55M -->
    <g style="fill: #161514" transform="translate(774.614216 428.628863) scale(0.105 -0.105)">
     <use xlink:href="#DejaVuSans-41"/>
     <use xlink:href="#DejaVuSans-76" x="62.533203"/>
     <use xlink:href="#DejaVuSans-65" x="121.712891"/>
     <use xlink:href="#DejaVuSans-72" x="183.236328"/>
     <use xlink:href="#DejaVuSans-61" x="224.349609"/>
     <use xlink:href="#DejaVuSans-67" x="285.628906"/>
     <use xlink:href="#DejaVuSans-65" x="349.105469"/>
     <use xlink:href="#DejaVuSans-20" x="410.628906"/>
     <use xlink:href="#DejaVuSans-77" x="442.416016"/>
     <use xlink:href="#DejaVuSans-65" x="524.203125"/>
     <use xlink:href="#DejaVuSans-65" x="585.726562"/>
     <use xlink:href="#DejaVuSans-6b" x="647.25"/>
     <use xlink:href="#DejaVuSans-65" x="701.535156"/>
     <use xlink:href="#DejaVuSans-6e" x="763.058594"/>
     <use xlink:href="#DejaVuSans-64" x="826.4375"/>
     <use xlink:href="#DejaVuSans-20" x="889.914062"/>
     <use xlink:href="#DejaVuSans-76" x="921.701172"/>
     <use xlink:href="#DejaVuSans-6f" x="980.880859"/>
     <use xlink:href="#DejaVuSans-6c" x="1042.0625"/>
     <use xlink:href="#DejaVuSans-75" x="1069.845703"/>
     <use xlink:href="#DejaVuSans-6d" x="1133.224609"/>
     <use xlink:href="#DejaVuSans-65" x="1230.636719"/>
     <use xlink:href="#DejaVuSans-3a" x="1292.160156"/>
     <use xlink:href="#DejaVuSans-20" x="1325.851562"/>
     <use xlink:href="#DejaVuSans-32" x="1357.638672"/>
     <use xlink:href="#DejaVuSans-2e" x="1421.261719"/>
     <use xlink:href="#DejaVuSans-35" x="1453.048828"/>
     <use xlink:href="#DejaVuSans-35" x="1516.671875"/>
     <use xlink:href="#DejaVuSans-4d" x="1580.294922"/>
    </g>
   </g>
   <g id="legend_1">
    <g id="line2d_26">
     <path d="M 60.5 114.618438 
L 70.5 114.618438 
L 80.5 114.618438 
" style="fill: none; stroke: #204b57; stroke-opacity: 0.35; stroke-width: 1.6; stroke-linecap: square"/>
    </g>
    <g id="text_19">
     <!-- Daily arrivals -->
     <g transform="translate(88.5 118.118438) scale(0.1 -0.1)">
      <use xlink:href="#DejaVuSans-44"/>
      <use xlink:href="#DejaVuSans-61" x="77.001953"/>
      <use xlink:href="#DejaVuSans-69" x="138.28125"/>
      <use xlink:href="#DejaVuSans-6c" x="166.064453"/>
      <use xlink:href="#DejaVuSans-79" x="193.847656"/>
      <use xlink:href="#DejaVuSans-20" x="253.027344"/>
      <use xlink:href="#DejaVuSans-61" x="284.814453"/>
      <use xlink:href="#DejaVuSans-72" x="346.09375"/>
      <use xlink:href="#DejaVuSans-72" x="385.457031"/>
      <use xlink:href="#DejaVuSans-69" x="426.570312"/>
      <use xlink:href="#DejaVuSans-76" x="454.353516"/>
      <use xlink:href="#DejaVuSans-61" x="513.533203"/>
      <use xlink:href="#DejaVuSans-6c" x="574.8125"/>
      <use xlink:href="#DejaVuSans-73" x="602.595703"/>
     </g>
    </g>
    <g id="line2d_27">
     <path d="M 60.5 129.296563 
L 70.5 129.296563 
L 80.5 129.296563 
" style="fill: none; stroke: #b5653a; stroke-width: 2.8; stroke-linecap: square"/>
    </g>
    <g id="text_20">
     <!-- 7-day rolling average -->
     <g transform="translate(88.5 132.796563) scale(0.1 -0.1)">
      <defs>
       <path id="DejaVuSans-2d" d="M 313 2009 
L 1997 2009 
L 1997 1497 
L 313 1497 
L 313 2009 
z
" transform="scale(0.015625)"/>
      </defs>
      <use xlink:href="#DejaVuSans-37"/>
      <use xlink:href="#DejaVuSans-2d" x="63.623047"/>
      <use xlink:href="#DejaVuSans-64" x="99.707031"/>
      <use xlink:href="#DejaVuSans-61" x="163.183594"/>
      <use xlink:href="#DejaVuSans-79" x="224.462891"/>
      <use xlink:href="#DejaVuSans-20" x="283.642578"/>
      <use xlink:href="#DejaVuSans-72" x="315.429688"/>
      <use xlink:href="#DejaVuSans-6f" x="354.292969"/>
      <use xlink:href="#DejaVuSans-6c" x="415.474609"/>
      <use xlink:href="#DejaVuSans-6c" x="443.257812"/>
      <use xlink:href="#DejaVuSans-69" x="471.041016"/>
      <use xlink:href="#DejaVuSans-6e" x="498.824219"/>
      <use xlink:href="#DejaVuSans-67" x="562.203125"/>
      <use xlink:href="#DejaVuSans-20" x="625.679688"/>
      <use xlink:href="#DejaVuSans-61" x="657.466797"/>
      <use xlink:href="#DejaVuSans-76" x="718.746094"/>
      <use xlink:href="#DejaVuSans-65" x="777.925781"/>
      <use xlink:href="#DejaVuSans-72" x="839.449219"/>
      <use xlink:href="#DejaVuSans-61" x="880.5625"/>
      <use xlink:href="#DejaVuSans-67" x="941.841797"/>
      <use xlink:href="#DejaVuSans-65" x="1005.318359"/>
     </g>
    </g>
   </g>
  </g>
  <g id="text_21">
   <!-- Appendix B Panel 1 — Daily Operating Rhythm -->
   <g style="fill: #161514" transform="translate(55.8 21.637031) scale(0.19 -0.19)">
    <defs>
     <path id="DejaVuSans-Bold-41" d="M 3419 850 
L 1538 850 
L 1241 0 
L 31 0 
L 1759 4666 
L 3194 4666 
L 4922 0 
L 3713 0 
L 3419 850 
z
M 1838 1716 
L 3116 1716 
L 2478 3572 
L 1838 1716 
z
" transform="scale(0.015625)"/>
     <path id="DejaVuSans-Bold-70" d="M 1656 506 
L 1656 -1331 
L 538 -1331 
L 538 3500 
L 1656 3500 
L 1656 2988 
Q 1888 3294 2169 3439 
Q 2450 3584 2816 3584 
Q 3463 3584 3878 3070 
Q 4294 2556 4294 1747 
Q 4294 938 3878 423 
Q 3463 -91 2816 -91 
Q 2450 -91 2169 54 
Q 1888 200 1656 506 
z
M 2400 2772 
Q 2041 2772 1848 2508 
Q 1656 2244 1656 1747 
Q 1656 1250 1848 986 
Q 2041 722 2400 722 
Q 2759 722 2948 984 
Q 3138 1247 3138 1747 
Q 3138 2247 2948 2509 
Q 2759 2772 2400 2772 
z
" transform="scale(0.015625)"/>
     <path id="DejaVuSans-Bold-65" d="M 4031 1759 
L 4031 1441 
L 1416 1441 
Q 1456 1047 1700 850 
Q 1944 653 2381 653 
Q 2734 653 3104 758 
Q 3475 863 3866 1075 
L 3866 213 
Q 3469 63 3072 -14 
Q 2675 -91 2278 -91 
Q 1328 -91 801 392 
Q 275 875 275 1747 
Q 275 2603 792 3093 
Q 1309 3584 2216 3584 
Q 3041 3584 3536 3087 
Q 4031 2591 4031 1759 
z
M 2881 2131 
Q 2881 2450 2695 2645 
Q 2509 2841 2209 2841 
Q 1884 2841 1681 2658 
Q 1478 2475 1428 2131 
L 2881 2131 
z
" transform="scale(0.015625)"/>
     <path id="DejaVuSans-Bold-6e" d="M 4056 2131 
L 4056 0 
L 2931 0 
L 2931 347 
L 2931 1631 
Q 2931 2084 2911 2256 
Q 2891 2428 2841 2509 
Q 2775 2619 2662 2680 
Q 2550 2741 2406 2741 
Q 2056 2741 1856 2470 
Q 1656 2200 1656 1722 
L 1656 0 
L 538 0 
L 538 3500 
L 1656 3500 
L 1656 2988 
Q 1909 3294 2193 3439 
Q 2478 3584 2822 3584 
Q 3428 3584 3742 3212 
Q 4056 2841 4056 2131 
z
" transform="scale(0.015625)"/>
     <path id="DejaVuSans-Bold-64" d="M 2919 2988 
L 2919 4863 
L 4044 4863 
L 4044 0 
L 2919 0 
L 2919 506 
Q 2688 197 2409 53 
Q 2131 -91 1766 -91 
Q 1119 -91 703 423 
Q 288 938 288 1747 
Q 288 2556 703 3070 
Q 1119 3584 1766 3584 
Q 2128 3584 2408 3439 
Q 2688 3294 2919 2988 
z
M 2181 722 
Q 2541 722 2730 984 
Q 2919 1247 2919 1747 
Q 2919 2247 2730 2509 
Q 2541 2772 2181 2772 
Q 1825 2772 1636 2509 
Q 1447 2247 1447 1747 
Q 1447 1247 1636 984 
Q 1825 722 2181 722 
z
" transform="scale(0.015625)"/>
     <path id="DejaVuSans-Bold-69" d="M 538 3500 
L 1656 3500 
L 1656 0 
L 538 0 
L 538 3500 
z
M 538 4863 
L 1656 4863 
L 1656 3950 
L 538 3950 
L 538 4863 
z
" transform="scale(0.015625)"/>
     <path id="DejaVuSans-Bold-78" d="M 1422 1791 
L 159 3500 
L 1344 3500 
L 2059 2463 
L 2784 3500 
L 3969 3500 
L 2706 1797 
L 4031 0 
L 2847 0 
L 2059 1106 
L 1281 0 
L 97 0 
L 1422 1791 
z
" transform="scale(0.015625)"/>
     <path id="DejaVuSans-Bold-20" transform="scale(0.015625)"/>
     <path id="DejaVuSans-Bold-42" d="M 2456 2859 
Q 2741 2859 2887 2984 
Q 3034 3109 3034 3353 
Q 3034 3594 2887 3720 
Q 2741 3847 2456 3847 
L 1791 3847 
L 1791 2859 
L 2456 2859 
z
M 2497 819 
Q 2859 819 3042 972 
Q 3225 1125 3225 1434 
Q 3225 1738 3044 1889 
Q 2863 2041 2497 2041 
L 1791 2041 
L 1791 819 
L 2497 819 
z
M 3616 2497 
Q 4003 2384 4215 2081 
Q 4428 1778 4428 1338 
Q 4428 663 3972 331 
Q 3516 0 2584 0 
L 588 0 
L 588 4666 
L 2394 4666 
Q 3366 4666 3802 4372 
Q 4238 4078 4238 3431 
Q 4238 3091 4078 2852 
Q 3919 2613 3616 2497 
z
" transform="scale(0.015625)"/>
     <path id="DejaVuSans-Bold-50" d="M 588 4666 
L 2584 4666 
Q 3475 4666 3951 4270 
Q 4428 3875 4428 3144 
Q 4428 2409 3951 2014 
Q 3475 1619 2584 1619 
L 1791 1619 
L 1791 0 
L 588 0 
L 588 4666 
z
M 1791 3794 
L 1791 2491 
L 2456 2491 
Q 2806 2491 2997 2661 
Q 3188 2831 3188 3144 
Q 3188 3456 2997 3625 
Q 2806 3794 2456 3794 
L 1791 3794 
z
" transform="scale(0.015625)"/>
     <path id="DejaVuSans-Bold-61" d="M 2106 1575 
Q 1756 1575 1579 1456 
Q 1403 1338 1403 1106 
Q 1403 894 1545 773 
Q 1688 653 1941 653 
Q 2256 653 2472 879 
Q 2688 1106 2688 1447 
L 2688 1575 
L 2106 1575 
z
M 3816 1997 
L 3816 0 
L 2688 0 
L 2688 519 
Q 2463 200 2181 54 
Q 1900 -91 1497 -91 
Q 953 -91 614 226 
Q 275 544 275 1050 
Q 275 1666 698 1953 
Q 1122 2241 2028 2241 
L 2688 2241 
L 2688 2328 
Q 2688 2594 2478 2717 
Q 2269 2841 1825 2841 
Q 1466 2841 1156 2769 
Q 847 2697 581 2553 
L 581 3406 
Q 941 3494 1303 3539 
Q 1666 3584 2028 3584 
Q 2975 3584 3395 3211 
Q 3816 2838 3816 1997 
z
" transform="scale(0.015625)"/>
     <path id="DejaVuSans-Bold-6c" d="M 538 4863 
L 1656 4863 
L 1656 0 
L 538 0 
L 538 4863 
z
" transform="scale(0.015625)"/>
     <path id="DejaVuSans-Bold-31" d="M 750 831 
L 1813 831 
L 1813 3847 
L 722 3622 
L 722 4441 
L 1806 4666 
L 2950 4666 
L 2950 831 
L 4013 831 
L 4013 0 
L 750 0 
L 750 831 
z
" transform="scale(0.015625)"/>
     <path id="DejaVuSans-Bold-2014" d="M 344 2156 
L 6056 2156 
L 6056 1350 
L 344 1350 
L 344 2156 
z
" transform="scale(0.015625)"/>
     <path id="DejaVuSans-Bold-44" d="M 1791 3756 
L 1791 909 
L 2222 909 
Q 2959 909 3348 1275 
Q 3738 1641 3738 2338 
Q 3738 3031 3350 3393 
Q 2963 3756 2222 3756 
L 1791 3756 
z
M 588 4666 
L 1856 4666 
Q 2919 4666 3439 4514 
Q 3959 4363 4331 4000 
Q 4659 3684 4818 3271 
Q 4978 2859 4978 2338 
Q 4978 1809 4818 1395 
Q 4659 981 4331 666 
Q 3956 303 3431 151 
Q 2906 0 1856 0 
L 588 0 
L 588 4666 
z
" transform="scale(0.015625)"/>
     <path id="DejaVuSans-Bold-79" d="M 78 3500 
L 1197 3500 
L 2138 1125 
L 2938 3500 
L 4056 3500 
L 2584 -331 
Q 2363 -916 2067 -1148 
Q 1772 -1381 1288 -1381 
L 641 -1381 
L 641 -647 
L 991 -647 
Q 1275 -647 1404 -556 
Q 1534 -466 1606 -231 
L 1638 -134 
L 78 3500 
z
" transform="scale(0.015625)"/>
     <path id="DejaVuSans-Bold-4f" d="M 2719 3878 
Q 2169 3878 1866 3472 
Q 1563 3066 1563 2328 
Q 1563 1594 1866 1187 
Q 2169 781 2719 781 
Q 3272 781 3575 1187 
Q 3878 1594 3878 2328 
Q 3878 3066 3575 3472 
Q 3272 3878 2719 3878 
z
M 2719 4750 
Q 3844 4750 4481 4106 
Q 5119 3463 5119 2328 
Q 5119 1197 4481 553 
Q 3844 -91 2719 -91 
Q 1597 -91 958 553 
Q 319 1197 319 2328 
Q 319 3463 958 4106 
Q 1597 4750 2719 4750 
z
" transform="scale(0.015625)"/>
     <path id="DejaVuSans-Bold-72" d="M 3138 2547 
Q 2991 2616 2845 2648 
Q 2700 2681 2553 2681 
Q 2122 2681 1889 2404 
Q 1656 2128 1656 1613 
L 1656 0 
L 538 0 
L 538 3500 
L 1656 3500 
L 1656 2925 
Q 1872 3269 2151 3426 
Q 2431 3584 2822 3584 
Q 2878 3584 2943 3579 
Q 3009 3575 3134 3559 
L 3138 2547 
z
" transform="scale(0.015625)"/>
     <path id="DejaVuSans-Bold-74" d="M 1759 4494 
L 1759 3500 
L 2913 3500 
L 2913 2700 
L 1759 2700 
L 1759 1216 
Q 1759 972 1856 886 
Q 1953 800 2241 800 
L 2816 800 
L 2816 0 
L 1856 0 
Q 1194 0 917 276 
Q 641 553 641 1216 
L 641 2700 
L 84 2700 
L 84 3500 
L 641 3500 
L 641 4494 
L 1759 4494 
z
" transform="scale(0.015625)"/>
     <path id="DejaVuSans-Bold-67" d="M 2919 594 
Q 2688 288 2409 144 
Q 2131 0 1766 0 
Q 1125 0 706 504 
Q 288 1009 288 1791 
Q 288 2575 706 3076 
Q 1125 3578 1766 3578 
Q 2131 3578 2409 3434 
Q 2688 3291 2919 2981 
L 2919 3500 
L 4044 3500 
L 4044 353 
Q 4044 -491 3511 -936 
Q 2978 -1381 1966 -1381 
Q 1638 -1381 1331 -1331 
Q 1025 -1281 716 -1178 
L 716 -306 
Q 1009 -475 1290 -558 
Q 1572 -641 1856 -641 
Q 2406 -641 2662 -400 
Q 2919 -159 2919 353 
L 2919 594 
z
M 2181 2772 
Q 1834 2772 1640 2515 
Q 1447 2259 1447 1791 
Q 1447 1309 1634 1061 
Q 1822 813 2181 813 
Q 2531 813 2725 1069 
Q 2919 1325 2919 1791 
Q 2919 2259 2725 2515 
Q 2531 2772 2181 2772 
z
" transform="scale(0.015625)"/>
     <path id="DejaVuSans-Bold-52" d="M 2297 2597 
Q 2675 2597 2839 2737 
Q 3003 2878 3003 3200 
Q 3003 3519 2839 3656 
Q 2675 3794 2297 3794 
L 1791 3794 
L 1791 2597 
L 2297 2597 
z
M 1791 1766 
L 1791 0 
L 588 0 
L 588 4666 
L 2425 4666 
Q 3347 4666 3776 4356 
Q 4206 4047 4206 3378 
Q 4206 2916 3982 2619 
Q 3759 2322 3309 2181 
Q 3556 2125 3751 1926 
Q 3947 1728 4147 1325 
L 4800 0 
L 3519 0 
L 2950 1159 
Q 2778 1509 2601 1637 
Q 2425 1766 2131 1766 
L 1791 1766 
z
" transform="scale(0.015625)"/>
     <path id="DejaVuSans-Bold-68" d="M 4056 2131 
L 4056 0 
L 2931 0 
L 2931 347 
L 2931 1625 
Q 2931 2084 2911 2256 
Q 2891 2428 2841 2509 
Q 2775 2619 2662 2680 
Q 2550 2741 2406 2741 
Q 2056 2741 1856 2470 
Q 1656 2200 1656 1722 
L 1656 0 
L 538 0 
L 538 4863 
L 1656 4863 
L 1656 2988 
Q 1909 3294 2193 3439 
Q 2478 3584 2822 3584 
Q 3428 3584 3742 3212 
Q 4056 2841 4056 2131 
z
" transform="scale(0.015625)"/>
     <path id="DejaVuSans-Bold-6d" d="M 3781 2919 
Q 3994 3244 4286 3414 
Q 4578 3584 4928 3584 
Q 5531 3584 5847 3212 
Q 6163 2841 6163 2131 
L 6163 0 
L 5038 0 
L 5038 1825 
Q 5041 1866 5042 1909 
Q 5044 1953 5044 2034 
Q 5044 2406 4934 2573 
Q 4825 2741 4581 2741 
Q 4263 2741 4089 2478 
Q 3916 2216 3909 1719 
L 3909 0 
L 2784 0 
L 2784 1825 
Q 2784 2406 2684 2573 
Q 2584 2741 2328 2741 
Q 2006 2741 1831 2477 
Q 1656 2213 1656 1722 
L 1656 0 
L 531 0 
L 531 3500 
L 1656 3500 
L 1656 2988 
Q 1863 3284 2130 3434 
Q 2397 3584 2719 3584 
Q 3081 3584 3359 3409 
Q 3638 3234 3781 2919 
z
" transform="scale(0.015625)"/>
    </defs>
    <use xlink:href="#DejaVuSans-Bold-41"/>
    <use xlink:href="#DejaVuSans-Bold-70" x="77.392578"/>
    <use xlink:href="#DejaVuSans-Bold-70" x="148.974609"/>
    <use xlink:href="#DejaVuSans-Bold-65" x="220.556641"/>
    <use xlink:href="#DejaVuSans-Bold-6e" x="288.378906"/>
    <use xlink:href="#DejaVuSans-Bold-64" x="359.570312"/>
    <use xlink:href="#DejaVuSans-Bold-69" x="431.152344"/>
    <use xlink:href="#DejaVuSans-Bold-78" x="465.429688"/>
    <use xlink:href="#DejaVuSans-Bold-20" x="529.931641"/>
    <use xlink:href="#DejaVuSans-Bold-42" x="564.746094"/>
    <use xlink:href="#DejaVuSans-Bold-20" x="640.966797"/>
    <use xlink:href="#DejaVuSans-Bold-50" x="675.78125"/>
    <use xlink:href="#DejaVuSans-Bold-61" x="746.447266"/>
    <use xlink:href="#DejaVuSans-Bold-6e" x="813.927734"/>
    <use xlink:href="#DejaVuSans-Bold-65" x="885.119141"/>
    <use xlink:href="#DejaVuSans-Bold-6c" x="952.941406"/>
    <use xlink:href="#DejaVuSans-Bold-20" x="987.21875"/>
    <use xlink:href="#DejaVuSans-Bold-31" x="1022.033203"/>
    <use xlink:href="#DejaVuSans-Bold-20" x="1091.613281"/>
    <use xlink:href="#DejaVuSans-Bold-2014" x="1126.427734"/>
    <use xlink:href="#DejaVuSans-Bold-20" x="1226.427734"/>
    <use xlink:href="#DejaVuSans-Bold-44" x="1261.242188"/>
    <use xlink:href="#DejaVuSans-Bold-61" x="1344.25"/>
    <use xlink:href="#DejaVuSans-Bold-69" x="1411.730469"/>
    <use xlink:href="#DejaVuSans-Bold-6c" x="1446.007812"/>
    <use xlink:href="#DejaVuSans-Bold-79" x="1480.285156"/>
    <use xlink:href="#DejaVuSans-Bold-20" x="1545.470703"/>
    <use xlink:href="#DejaVuSans-Bold-4f" x="1580.285156"/>
    <use xlink:href="#DejaVuSans-Bold-70" x="1665.294922"/>
    <use xlink:href="#DejaVuSans-Bold-65" x="1736.876953"/>
    <use xlink:href="#DejaVuSans-Bold-72" x="1804.699219"/>
    <use xlink:href="#DejaVuSans-Bold-61" x="1854.015625"/>
    <use xlink:href="#DejaVuSans-Bold-74" x="1921.496094"/>
    <use xlink:href="#DejaVuSans-Bold-69" x="1969.298828"/>
    <use xlink:href="#DejaVuSans-Bold-6e" x="2003.576172"/>
    <use xlink:href="#DejaVuSans-Bold-67" x="2074.767578"/>
    <use xlink:href="#DejaVuSans-Bold-20" x="2146.349609"/>
    <use xlink:href="#DejaVuSans-Bold-52" x="2181.164062"/>
    <use xlink:href="#DejaVuSans-Bold-68" x="2258.166016"/>
    <use xlink:href="#DejaVuSans-Bold-79" x="2329.357422"/>
    <use xlink:href="#DejaVuSans-Bold-74" x="2394.542969"/>
    <use xlink:href="#DejaVuSans-Bold-68" x="2442.345703"/>
    <use xlink:href="#DejaVuSans-Bold-6d" x="2513.537109"/>
   </g>
  </g>
  <g id="text_22">
   <!-- Three months of arrivals show stable weekly seasonality rather than flat synthetic traffic. -->
   <g style="fill: #5e5a55" transform="translate(55.8 39.6) scale(0.108 -0.108)">
    <defs>
     <path id="DejaVuSans-54" d="M -19 4666 
L 3928 4666 
L 3928 4134 
L 2272 4134 
L 2272 0 
L 1638 0 
L 1638 4134 
L -19 4134 
L -19 4666 
z
" transform="scale(0.015625)"/>
     <path id="DejaVuSans-68" d="M 3513 2113 
L 3513 0 
L 2938 0 
L 2938 2094 
Q 2938 2591 2744 2837 
Q 2550 3084 2163 3084 
Q 1697 3084 1428 2787 
Q 1159 2491 1159 1978 
L 1159 0 
L 581 0 
L 581 4863 
L 1159 4863 
L 1159 2956 
Q 1366 3272 1645 3428 
Q 1925 3584 2291 3584 
Q 2894 3584 3203 3211 
Q 3513 2838 3513 2113 
z
" transform="scale(0.015625)"/>
     <path id="DejaVuSans-66" d="M 2375 4863 
L 2375 4384 
L 1825 4384 
Q 1516 4384 1395 4259 
Q 1275 4134 1275 3809 
L 1275 3500 
L 2222 3500 
L 2222 3053 
L 1275 3053 
L 1275 0 
L 697 0 
L 697 3053 
L 147 3053 
L 147 3500 
L 697 3500 
L 697 3744 
Q 697 4328 969 4595 
Q 1241 4863 1831 4863 
L 2375 4863 
z
" transform="scale(0.015625)"/>
    </defs>
    <use xlink:href="#DejaVuSans-54"/>
    <use xlink:href="#DejaVuSans-68" x="61.083984"/>
    <use xlink:href="#DejaVuSans-72" x="124.462891"/>
    <use xlink:href="#DejaVuSans-65" x="163.326172"/>
    <use xlink:href="#DejaVuSans-65" x="224.849609"/>
    <use xlink:href="#DejaVuSans-20" x="286.373047"/>
    <use xlink:href="#DejaVuSans-6d" x="318.160156"/>
    <use xlink:href="#DejaVuSans-6f" x="415.572266"/>
    <use xlink:href="#DejaVuSans-6e" x="476.753906"/>
    <use xlink:href="#DejaVuSans-74" x="540.132812"/>
    <use xlink:href="#DejaVuSans-68" x="579.341797"/>
    <use xlink:href="#DejaVuSans-73" x="642.720703"/>
    <use xlink:href="#DejaVuSans-20" x="694.820312"/>
    <use xlink:href="#DejaVuSans-6f" x="726.607422"/>
    <use xlink:href="#DejaVuSans-66" x="787.789062"/>
    <use xlink:href="#DejaVuSans-20" x="822.994141"/>
    <use xlink:href="#DejaVuSans-61" x="854.78125"/>
    <use xlink:href="#DejaVuSans-72" x="916.060547"/>
    <use xlink:href="#DejaVuSans-72" x="955.423828"/>
    <use xlink:href="#DejaVuSans-69" x="996.537109"/>
    <use xlink:href="#DejaVuSans-76" x="1024.320312"/>
    <use xlink:href="#DejaVuSans-61" x="1083.5"/>
    <use xlink:href="#DejaVuSans-6c" x="1144.779297"/>
    <use xlink:href="#DejaVuSans-73" x="1172.5625"/>
    <use xlink:href="#DejaVuSans-20" x="1224.662109"/>
    <use xlink:href="#DejaVuSans-73" x="1256.449219"/>
    <use xlink:href="#DejaVuSans-68" x="1308.548828"/>
    <use xlink:href="#DejaVuSans-6f" x="1371.927734"/>
    <use xlink:href="#DejaVuSans-77" x="1433.109375"/>
    <use xlink:href="#DejaVuSans-20" x="1514.896484"/>
    <use xlink:href="#DejaVuSans-73" x="1546.683594"/>
    <use xlink:href="#DejaVuSans-74" x="1598.783203"/>
    <use xlink:href="#DejaVuSans-61" x="1637.992188"/>
    <use xlink:href="#DejaVuSans-62" x="1699.271484"/>
    <use xlink:href="#DejaVuSans-6c" x="1762.748047"/>
    <use xlink:href="#DejaVuSans-65" x="1790.53125"/>
    <use xlink:href="#DejaVuSans-20" x="1852.054688"/>
    <use xlink:href="#DejaVuSans-77" x="1883.841797"/>
    <use xlink:href="#DejaVuSans-65" x="1965.628906"/>
    <use xlink:href="#DejaVuSans-65" x="2027.152344"/>
    <use xlink:href="#DejaVuSans-6b" x="2088.675781"/>
    <use xlink:href="#DejaVuSans-6c" x="2146.585938"/>
    <use xlink:href="#DejaVuSans-79" x="2174.369141"/>
    <use xlink:href="#DejaVuSans-20" x="2233.548828"/>
    <use xlink:href="#DejaVuSans-73" x="2265.335938"/>
    <use xlink:href="#DejaVuSans-65" x="2317.435547"/>
    <use xlink:href="#DejaVuSans-61" x="2378.958984"/>
    <use xlink:href="#DejaVuSans-73" x="2440.238281"/>
    <use xlink:href="#DejaVuSans-6f" x="2492.337891"/>
    <use xlink:href="#DejaVuSans-6e" x="2553.519531"/>
    <use xlink:href="#DejaVuSans-61" x="2616.898438"/>
    <use xlink:href="#DejaVuSans-6c" x="2678.177734"/>
    <use xlink:href="#DejaVuSans-69" x="2705.960938"/>
    <use xlink:href="#DejaVuSans-74" x="2733.744141"/>
    <use xlink:href="#DejaVuSans-79" x="2772.953125"/>
    <use xlink:href="#DejaVuSans-20" x="2832.132812"/>
    <use xlink:href="#DejaVuSans-72" x="2863.919922"/>
    <use xlink:href="#DejaVuSans-61" x="2905.033203"/>
    <use xlink:href="#DejaVuSans-74" x="2966.3125"/>
    <use xlink:href="#DejaVuSans-68" x="3005.521484"/>
    <use xlink:href="#DejaVuSans-65" x="3068.900391"/>
    <use xlink:href="#DejaVuSans-72" x="3130.423828"/>
    <use xlink:href="#DejaVuSans-20" x="3171.537109"/>
    <use xlink:href="#DejaVuSans-74" x="3203.324219"/>
    <use xlink:href="#DejaVuSans-68" x="3242.533203"/>
    <use xlink:href="#DejaVuSans-61" x="3305.912109"/>
    <use xlink:href="#DejaVuSans-6e" x="3367.191406"/>
    <use xlink:href="#DejaVuSans-20" x="3430.570312"/>
    <use xlink:href="#DejaVuSans-66" x="3462.357422"/>
    <use xlink:href="#DejaVuSans-6c" x="3497.5625"/>
    <use xlink:href="#DejaVuSans-61" x="3525.345703"/>
    <use xlink:href="#DejaVuSans-74" x="3586.625"/>
    <use xlink:href="#DejaVuSans-20" x="3625.833984"/>
    <use xlink:href="#DejaVuSans-73" x="3657.621094"/>
    <use xlink:href="#DejaVuSans-79" x="3709.720703"/>
    <use xlink:href="#DejaVuSans-6e" x="3768.900391"/>
    <use xlink:href="#DejaVuSans-74" x="3832.279297"/>
    <use xlink:href="#DejaVuSans-68" x="3871.488281"/>
    <use xlink:href="#DejaVuSans-65" x="3934.867188"/>
    <use xlink:href="#DejaVuSans-74" x="3996.390625"/>
    <use xlink:href="#DejaVuSans-69" x="4035.599609"/>
    <use xlink:href="#DejaVuSans-63" x="4063.382812"/>
    <use xlink:href="#DejaVuSans-20" x="4118.363281"/>
    <use xlink:href="#DejaVuSans-74" x="4150.150391"/>
    <use xlink:href="#DejaVuSans-72" x="4189.359375"/>
    <use xlink:href="#DejaVuSans-61" x="4230.472656"/>
    <use xlink:href="#DejaVuSans-66" x="4291.751953"/>
    <use xlink:href="#DejaVuSans-66" x="4326.957031"/>
    <use xlink:href="#DejaVuSans-69" x="4362.162109"/>
    <use xlink:href="#DejaVuSans-63" x="4389.945312"/>
    <use xlink:href="#DejaVuSans-2e" x="4444.925781"/>
   </g>
  </g>
  <g id="text_23">
   <!-- Interpretation: arrival volume oscillates in a stable weekly pattern across the quarter instead of behaving like a flat synthetic stream. Weekdays consistently run above weekends, and the 7-day average stays within a narrow band, which suggests a governed operating world with repeatable civil-time demand shape. -->
   <g style="fill: #5e5a55" transform="translate(7.2 531) scale(0.096 -0.096)">
    <defs>
     <path id="DejaVuSans-49" d="M 628 4666 
L 1259 4666 
L 1259 0 
L 628 0 
L 628 4666 
z
" transform="scale(0.015625)"/>
     <path id="DejaVuSans-70" d="M 1159 525 
L 1159 -1331 
L 581 -1331 
L 581 3500 
L 1159 3500 
L 1159 2969 
Q 1341 3281 1617 3432 
Q 1894 3584 2278 3584 
Q 2916 3584 3314 3078 
Q 3713 2572 3713 1747 
Q 3713 922 3314 415 
Q 2916 -91 2278 -91 
Q 1894 -91 1617 61 
Q 1341 213 1159 525 
z
M 3116 1747 
Q 3116 2381 2855 2742 
Q 2594 3103 2138 3103 
Q 1681 3103 1420 2742 
Q 1159 2381 1159 1747 
Q 1159 1113 1420 752 
Q 1681 391 2138 391 
Q 2594 391 2855 752 
Q 3116 1113 3116 1747 
z
" transform="scale(0.015625)"/>
     <path id="DejaVuSans-71" d="M 947 1747 
Q 947 1113 1208 752 
Q 1469 391 1925 391 
Q 2381 391 2643 752 
Q 2906 1113 2906 1747 
Q 2906 2381 2643 2742 
Q 2381 3103 1925 3103 
Q 1469 3103 1208 2742 
Q 947 2381 947 1747 
z
M 2906 525 
Q 2725 213 2448 61 
Q 2172 -91 1784 -91 
Q 1150 -91 751 415 
Q 353 922 353 1747 
Q 353 2572 751 3078 
Q 1150 3584 1784 3584 
Q 2172 3584 2448 3432 
Q 2725 3281 2906 2969 
L 2906 3500 
L 3481 3500 
L 3481 -1331 
L 2906 -1331 
L 2906 525 
z
" transform="scale(0.015625)"/>
     <path id="DejaVuSans-57" d="M 213 4666 
L 850 4666 
L 1831 722 
L 2809 4666 
L 3519 4666 
L 4500 722 
L 5478 4666 
L 6119 4666 
L 4947 0 
L 4153 0 
L 3169 4050 
L 2175 0 
L 1381 0 
L 213 4666 
z
" transform="scale(0.015625)"/>
     <path id="DejaVuSans-2c" d="M 750 794 
L 1409 794 
L 1409 256 
L 897 -744 
L 494 -744 
L 750 256 
L 750 794 
z
" transform="scale(0.015625)"/>
    </defs>
    <use xlink:href="#DejaVuSans-49"/>
    <use xlink:href="#DejaVuSans-6e" x="29.492188"/>
    <use xlink:href="#DejaVuSans-74" x="92.871094"/>
    <use xlink:href="#DejaVuSans-65" x="132.080078"/>
    <use xlink:href="#DejaVuSans-72" x="193.603516"/>
    <use xlink:href="#DejaVuSans-70" x="234.716797"/>
    <use xlink:href="#DejaVuSans-72" x="298.193359"/>
    <use xlink:href="#DejaVuSans-65" x="337.056641"/>
    <use xlink:href="#DejaVuSans-74" x="398.580078"/>
    <use xlink:href="#DejaVuSans-61" x="437.789062"/>
    <use xlink:href="#DejaVuSans-74" x="499.068359"/>
    <use xlink:href="#DejaVuSans-69" x="538.277344"/>
    <use xlink:href="#DejaVuSans-6f" x="566.060547"/>
    <use xlink:href="#DejaVuSans-6e" x="627.242188"/>
    <use xlink:href="#DejaVuSans-3a" x="690.621094"/>
    <use xlink:href="#DejaVuSans-20" x="724.3125"/>
    <use xlink:href="#DejaVuSans-61" x="756.099609"/>
    <use xlink:href="#DejaVuSans-72" x="817.378906"/>
    <use xlink:href="#DejaVuSans-72" x="856.742188"/>
    <use xlink:href="#DejaVuSans-69" x="897.855469"/>
    <use xlink:href="#DejaVuSans-76" x="925.638672"/>
    <use xlink:href="#DejaVuSans-61" x="984.818359"/>
    <use xlink:href="#DejaVuSans-6c" x="1046.097656"/>
    <use xlink:href="#DejaVuSans-20" x="1073.880859"/>
    <use xlink:href="#DejaVuSans-76" x="1105.667969"/>
    <use xlink:href="#DejaVuSans-6f" x="1164.847656"/>
    <use xlink:href="#DejaVuSans-6c" x="1226.029297"/>
    <use xlink:href="#DejaVuSans-75" x="1253.8125"/>
    <use xlink:href="#DejaVuSans-6d" x="1317.191406"/>
    <use xlink:href="#DejaVuSans-65" x="1414.603516"/>
    <use xlink:href="#DejaVuSans-20" x="1476.126953"/>
    <use xlink:href="#DejaVuSans-6f" x="1507.914062"/>
    <use xlink:href="#DejaVuSans-73" x="1569.095703"/>
    <use xlink:href="#DejaVuSans-63" x="1621.195312"/>
    <use xlink:href="#DejaVuSans-69" x="1676.175781"/>
    <use xlink:href="#DejaVuSans-6c" x="1703.958984"/>
    <use xlink:href="#DejaVuSans-6c" x="1731.742188"/>
    <use xlink:href="#DejaVuSans-61" x="1759.525391"/>
    <use xlink:href="#DejaVuSans-74" x="1820.804688"/>
    <use xlink:href="#DejaVuSans-65" x="1860.013672"/>
    <use xlink:href="#DejaVuSans-73" x="1921.537109"/>
    <use xlink:href="#DejaVuSans-20" x="1973.636719"/>
    <use xlink:href="#DejaVuSans-69" x="2005.423828"/>
    <use xlink:href="#DejaVuSans-6e" x="2033.207031"/>
    <use xlink:href="#DejaVuSans-20" x="2096.585938"/>
    <use xlink:href="#DejaVuSans-61" x="2128.373047"/>
    <use xlink:href="#DejaVuSans-20" x="2189.652344"/>
    <use xlink:href="#DejaVuSans-73" x="2221.439453"/>
    <use xlink:href="#DejaVuSans-74" x="2273.539062"/>
    <use xlink:href="#DejaVuSans-61" x="2312.748047"/>
    <use xlink:href="#DejaVuSans-62" x="2374.027344"/>
    <use xlink:href="#DejaVuSans-6c" x="2437.503906"/>
    <use xlink:href="#DejaVuSans-65" x="2465.287109"/>
    <use xlink:href="#DejaVuSans-20" x="2526.810547"/>
    <use xlink:href="#DejaVuSans-77" x="2558.597656"/>
    <use xlink:href="#DejaVuSans-65" x="2640.384766"/>
    <use xlink:href="#DejaVuSans-65" x="2701.908203"/>
    <use xlink:href="#DejaVuSans-6b" x="2763.431641"/>
    <use xlink:href="#DejaVuSans-6c" x="2821.341797"/>
    <use xlink:href="#DejaVuSans-79" x="2849.125"/>
    <use xlink:href="#DejaVuSans-20" x="2908.304688"/>
    <use xlink:href="#DejaVuSans-70" x="2940.091797"/>
    <use xlink:href="#DejaVuSans-61" x="3003.568359"/>
    <use xlink:href="#DejaVuSans-74" x="3064.847656"/>
    <use xlink:href="#DejaVuSans-74" x="3104.056641"/>
    <use xlink:href="#DejaVuSans-65" x="3143.265625"/>
    <use xlink:href="#DejaVuSans-72" x="3204.789062"/>
    <use xlink:href="#DejaVuSans-6e" x="3244.152344"/>
    <use xlink:href="#DejaVuSans-20" x="3307.53125"/>
    <use xlink:href="#DejaVuSans-61" x="3339.318359"/>
    <use xlink:href="#DejaVuSans-63" x="3400.597656"/>
    <use xlink:href="#DejaVuSans-72" x="3455.578125"/>
    <use xlink:href="#DejaVuSans-6f" x="3494.441406"/>
    <use xlink:href="#DejaVuSans-73" x="3555.623047"/>
    <use xlink:href="#DejaVuSans-73" x="3607.722656"/>
    <use xlink:href="#DejaVuSans-20" x="3659.822266"/>
    <use xlink:href="#DejaVuSans-74" x="3691.609375"/>
    <use xlink:href="#DejaVuSans-68" x="3730.818359"/>
    <use xlink:href="#DejaVuSans-65" x="3794.197266"/>
    <use xlink:href="#DejaVuSans-20" x="3855.720703"/>
    <use xlink:href="#DejaVuSans-71" x="3887.507812"/>
    <use xlink:href="#DejaVuSans-75" x="3950.984375"/>
    <use xlink:href="#DejaVuSans-61" x="4014.363281"/>
    <use xlink:href="#DejaVuSans-72" x="4075.642578"/>
    <use xlink:href="#DejaVuSans-74" x="4116.755859"/>
    <use xlink:href="#DejaVuSans-65" x="4155.964844"/>
    <use xlink:href="#DejaVuSans-72" x="4217.488281"/>
    <use xlink:href="#DejaVuSans-20" x="4258.601562"/>
    <use xlink:href="#DejaVuSans-69" x="4290.388672"/>
    <use xlink:href="#DejaVuSans-6e" x="4318.171875"/>
    <use xlink:href="#DejaVuSans-73" x="4381.550781"/>
    <use xlink:href="#DejaVuSans-74" x="4433.650391"/>
    <use xlink:href="#DejaVuSans-65" x="4472.859375"/>
    <use xlink:href="#DejaVuSans-61" x="4534.382812"/>
    <use xlink:href="#DejaVuSans-64" x="4595.662109"/>
    <use xlink:href="#DejaVuSans-20" x="4659.138672"/>
    <use xlink:href="#DejaVuSans-6f" x="4690.925781"/>
    <use xlink:href="#DejaVuSans-66" x="4752.107422"/>
    <use xlink:href="#DejaVuSans-20" x="4787.3125"/>
    <use xlink:href="#DejaVuSans-62" x="4819.099609"/>
    <use xlink:href="#DejaVuSans-65" x="4882.576172"/>
    <use xlink:href="#DejaVuSans-68" x="4944.099609"/>
    <use xlink:href="#DejaVuSans-61" x="5007.478516"/>
    <use xlink:href="#DejaVuSans-76" x="5068.757812"/>
    <use xlink:href="#DejaVuSans-69" x="5127.9375"/>
    <use xlink:href="#DejaVuSans-6e" x="5155.720703"/>
    <use xlink:href="#DejaVuSans-67" x="5219.099609"/>
    <use xlink:href="#DejaVuSans-20" x="5282.576172"/>
    <use xlink:href="#DejaVuSans-6c" x="5314.363281"/>
    <use xlink:href="#DejaVuSans-69" x="5342.146484"/>
    <use xlink:href="#DejaVuSans-6b" x="5369.929688"/>
    <use xlink:href="#DejaVuSans-65" x="5424.214844"/>
    <use xlink:href="#DejaVuSans-20" x="5485.738281"/>
    <use xlink:href="#DejaVuSans-61" x="5517.525391"/>
    <use xlink:href="#DejaVuSans-20" x="5578.804688"/>
    <use xlink:href="#DejaVuSans-66" x="5610.591797"/>
    <use xlink:href="#DejaVuSans-6c" x="5645.796875"/>
    <use xlink:href="#DejaVuSans-61" x="5673.580078"/>
    <use xlink:href="#DejaVuSans-74" x="5734.859375"/>
    <use xlink:href="#DejaVuSans-20" x="5774.068359"/>
    <use xlink:href="#DejaVuSans-73" x="5805.855469"/>
    <use xlink:href="#DejaVuSans-79" x="5857.955078"/>
    <use xlink:href="#DejaVuSans-6e" x="5917.134766"/>
    <use xlink:href="#DejaVuSans-74" x="5980.513672"/>
    <use xlink:href="#DejaVuSans-68" x="6019.722656"/>
    <use xlink:href="#DejaVuSans-65" x="6083.101562"/>
    <use xlink:href="#DejaVuSans-74" x="6144.625"/>
    <use xlink:href="#DejaVuSans-69" x="6183.833984"/>
    <use xlink:href="#DejaVuSans-63" x="6211.617188"/>
    <use xlink:href="#DejaVuSans-20" x="6266.597656"/>
    <use xlink:href="#DejaVuSans-73" x="6298.384766"/>
    <use xlink:href="#DejaVuSans-74" x="6350.484375"/>
    <use xlink:href="#DejaVuSans-72" x="6389.693359"/>
    <use xlink:href="#DejaVuSans-65" x="6428.556641"/>
    <use xlink:href="#DejaVuSans-61" x="6490.080078"/>
    <use xlink:href="#DejaVuSans-6d" x="6551.359375"/>
    <use xlink:href="#DejaVuSans-2e" x="6648.771484"/>
    <use xlink:href="#DejaVuSans-20" x="6680.558594"/>
    <use xlink:href="#DejaVuSans-57" x="6712.345703"/>
    <use xlink:href="#DejaVuSans-65" x="6805.347656"/>
    <use xlink:href="#DejaVuSans-65" x="6866.871094"/>
    <use xlink:href="#DejaVuSans-6b" x="6928.394531"/>
    <use xlink:href="#DejaVuSans-64" x="6986.304688"/>
    <use xlink:href="#DejaVuSans-61" x="7049.78125"/>
    <use xlink:href="#DejaVuSans-79" x="7111.060547"/>
    <use xlink:href="#DejaVuSans-73" x="7170.240234"/>
    <use xlink:href="#DejaVuSans-20" x="7222.339844"/>
    <use xlink:href="#DejaVuSans-63" x="7254.126953"/>
    <use xlink:href="#DejaVuSans-6f" x="7309.107422"/>
    <use xlink:href="#DejaVuSans-6e" x="7370.289062"/>
    <use xlink:href="#DejaVuSans-73" x="7433.667969"/>
    <use xlink:href="#DejaVuSans-69" x="7485.767578"/>
    <use xlink:href="#DejaVuSans-73" x="7513.550781"/>
    <use xlink:href="#DejaVuSans-74" x="7565.650391"/>
    <use xlink:href="#DejaVuSans-65" x="7604.859375"/>
    <use xlink:href="#DejaVuSans-6e" x="7666.382812"/>
    <use xlink:href="#DejaVuSans-74" x="7729.761719"/>
    <use xlink:href="#DejaVuSans-6c" x="7768.970703"/>
    <use xlink:href="#DejaVuSans-79" x="7796.753906"/>
    <use xlink:href="#DejaVuSans-20" x="7855.933594"/>
    <use xlink:href="#DejaVuSans-72" x="7887.720703"/>
    <use xlink:href="#DejaVuSans-75" x="7928.833984"/>
    <use xlink:href="#DejaVuSans-6e" x="7992.212891"/>
    <use xlink:href="#DejaVuSans-20" x="8055.591797"/>
    <use xlink:href="#DejaVuSans-61" x="8087.378906"/>
    <use xlink:href="#DejaVuSans-62" x="8148.658203"/>
    <use xlink:href="#DejaVuSans-6f" x="8212.134766"/>
    <use xlink:href="#DejaVuSans-76" x="8273.316406"/>
    <use xlink:href="#DejaVuSans-65" x="8332.496094"/>
    <use xlink:href="#DejaVuSans-20" x="8394.019531"/>
    <use xlink:href="#DejaVuSans-77" x="8425.806641"/>
    <use xlink:href="#DejaVuSans-65" x="8507.59375"/>
    <use xlink:href="#DejaVuSans-65" x="8569.117188"/>
    <use xlink:href="#DejaVuSans-6b" x="8630.640625"/>
    <use xlink:href="#DejaVuSans-65" x="8684.925781"/>
    <use xlink:href="#DejaVuSans-6e" x="8746.449219"/>
    <use xlink:href="#DejaVuSans-64" x="8809.828125"/>
    <use xlink:href="#DejaVuSans-73" x="8873.304688"/>
    <use xlink:href="#DejaVuSans-2c" x="8925.404297"/>
    <use xlink:href="#DejaVuSans-20" x="8957.191406"/>
    <use xlink:href="#DejaVuSans-61" x="8988.978516"/>
    <use xlink:href="#DejaVuSans-6e" x="9050.257812"/>
    <use xlink:href="#DejaVuSans-64" x="9113.636719"/>
    <use xlink:href="#DejaVuSans-20" x="9177.113281"/>
    <use xlink:href="#DejaVuSans-74" x="9208.900391"/>
    <use xlink:href="#DejaVuSans-68" x="9248.109375"/>
    <use xlink:href="#DejaVuSans-65" x="9311.488281"/>
    <use xlink:href="#DejaVuSans-20" x="9373.011719"/>
    <use xlink:href="#DejaVuSans-37" x="9404.798828"/>
    <use xlink:href="#DejaVuSans-2d" x="9468.421875"/>
    <use xlink:href="#DejaVuSans-64" x="9504.505859"/>
    <use xlink:href="#DejaVuSans-61" x="9567.982422"/>
    <use xlink:href="#DejaVuSans-79" x="9629.261719"/>
    <use xlink:href="#DejaVuSans-20" x="9688.441406"/>
    <use xlink:href="#DejaVuSans-61" x="9720.228516"/>
    <use xlink:href="#DejaVuSans-76" x="9781.507812"/>
    <use xlink:href="#DejaVuSans-65" x="9840.6875"/>
    <use xlink:href="#DejaVuSans-72" x="9902.210938"/>
    <use xlink:href="#DejaVuSans-61" x="9943.324219"/>
    <use xlink:href="#DejaVuSans-67" x="10004.603516"/>
    <use xlink:href="#DejaVuSans-65" x="10068.080078"/>
    <use xlink:href="#DejaVuSans-20" x="10129.603516"/>
    <use xlink:href="#DejaVuSans-73" x="10161.390625"/>
    <use xlink:href="#DejaVuSans-74" x="10213.490234"/>
    <use xlink:href="#DejaVuSans-61" x="10252.699219"/>
    <use xlink:href="#DejaVuSans-79" x="10313.978516"/>
    <use xlink:href="#DejaVuSans-73" x="10373.158203"/>
    <use xlink:href="#DejaVuSans-20" x="10425.257812"/>
    <use xlink:href="#DejaVuSans-77" x="10457.044922"/>
    <use xlink:href="#DejaVuSans-69" x="10538.832031"/>
    <use xlink:href="#DejaVuSans-74" x="10566.615234"/>
    <use xlink:href="#DejaVuSans-68" x="10605.824219"/>
    <use xlink:href="#DejaVuSans-69" x="10669.203125"/>
    <use xlink:href="#DejaVuSans-6e" x="10696.986328"/>
    <use xlink:href="#DejaVuSans-20" x="10760.365234"/>
    <use xlink:href="#DejaVuSans-61" x="10792.152344"/>
    <use xlink:href="#DejaVuSans-20" x="10853.431641"/>
    <use xlink:href="#DejaVuSans-6e" x="10885.21875"/>
    <use xlink:href="#DejaVuSans-61" x="10948.597656"/>
    <use xlink:href="#DejaVuSans-72" x="11009.876953"/>
    <use xlink:href="#DejaVuSans-72" x="11049.240234"/>
    <use xlink:href="#DejaVuSans-6f" x="11088.103516"/>
    <use xlink:href="#DejaVuSans-77" x="11149.285156"/>
    <use xlink:href="#DejaVuSans-20" x="11231.072266"/>
    <use xlink:href="#DejaVuSans-62" x="11262.859375"/>
    <use xlink:href="#DejaVuSans-61" x="11326.335938"/>
    <use xlink:href="#DejaVuSans-6e" x="11387.615234"/>
    <use xlink:href="#DejaVuSans-64" x="11450.994141"/>
    <use xlink:href="#DejaVuSans-2c" x="11514.470703"/>
    <use xlink:href="#DejaVuSans-20" x="11546.257812"/>
    <use xlink:href="#DejaVuSans-77" x="11578.044922"/>
    <use xlink:href="#DejaVuSans-68" x="11659.832031"/>
    <use xlink:href="#DejaVuSans-69" x="11723.210938"/>
    <use xlink:href="#DejaVuSans-63" x="11750.994141"/>
    <use xlink:href="#DejaVuSans-68" x="11805.974609"/>
    <use xlink:href="#DejaVuSans-20" x="11869.353516"/>
    <use xlink:href="#DejaVuSans-73" x="11901.140625"/>
    <use xlink:href="#DejaVuSans-75" x="11953.240234"/>
    <use xlink:href="#DejaVuSans-67" x="12016.619141"/>
    <use xlink:href="#DejaVuSans-67" x="12080.095703"/>
    <use xlink:href="#DejaVuSans-65" x="12143.572266"/>
    <use xlink:href="#DejaVuSans-73" x="12205.095703"/>
    <use xlink:href="#DejaVuSans-74" x="12257.195312"/>
    <use xlink:href="#DejaVuSans-73" x="12296.404297"/>
    <use xlink:href="#DejaVuSans-20" x="12348.503906"/>
    <use xlink:href="#DejaVuSans-61" x="12380.291016"/>
    <use xlink:href="#DejaVuSans-20" x="12441.570312"/>
    <use xlink:href="#DejaVuSans-67" x="12473.357422"/>
    <use xlink:href="#DejaVuSans-6f" x="12536.833984"/>
    <use xlink:href="#DejaVuSans-76" x="12598.015625"/>
    <use xlink:href="#DejaVuSans-65" x="12657.195312"/>
    <use xlink:href="#DejaVuSans-72" x="12718.71875"/>
    <use xlink:href="#DejaVuSans-6e" x="12758.082031"/>
    <use xlink:href="#DejaVuSans-65" x="12821.460938"/>
    <use xlink:href="#DejaVuSans-64" x="12882.984375"/>
    <use xlink:href="#DejaVuSans-20" x="12946.460938"/>
    <use xlink:href="#DejaVuSans-6f" x="12978.248047"/>
    <use xlink:href="#DejaVuSans-70" x="13039.429688"/>
    <use xlink:href="#DejaVuSans-65" x="13102.90625"/>
    <use xlink:href="#DejaVuSans-72" x="13164.429688"/>
    <use xlink:href="#DejaVuSans-61" x="13205.542969"/>
    <use xlink:href="#DejaVuSans-74" x="13266.822266"/>
    <use xlink:href="#DejaVuSans-69" x="13306.03125"/>
    <use xlink:href="#DejaVuSans-6e" x="13333.814453"/>
    <use xlink:href="#DejaVuSans-67" x="13397.193359"/>
    <use xlink:href="#DejaVuSans-20" x="13460.669922"/>
    <use xlink:href="#DejaVuSans-77" x="13492.457031"/>
    <use xlink:href="#DejaVuSans-6f" x="13574.244141"/>
    <use xlink:href="#DejaVuSans-72" x="13635.425781"/>
    <use xlink:href="#DejaVuSans-6c" x="13676.539062"/>
    <use xlink:href="#DejaVuSans-64" x="13704.322266"/>
    <use xlink:href="#DejaVuSans-20" x="13767.798828"/>
    <use xlink:href="#DejaVuSans-77" x="13799.585938"/>
    <use xlink:href="#DejaVuSans-69" x="13881.373047"/>
    <use xlink:href="#DejaVuSans-74" x="13909.15625"/>
    <use xlink:href="#DejaVuSans-68" x="13948.365234"/>
    <use xlink:href="#DejaVuSans-20" x="14011.744141"/>
    <use xlink:href="#DejaVuSans-72" x="14043.53125"/>
    <use xlink:href="#DejaVuSans-65" x="14082.394531"/>
    <use xlink:href="#DejaVuSans-70" x="14143.917969"/>
    <use xlink:href="#DejaVuSans-65" x="14207.394531"/>
    <use xlink:href="#DejaVuSans-61" x="14268.917969"/>
    <use xlink:href="#DejaVuSans-74" x="14330.197266"/>
    <use xlink:href="#DejaVuSans-61" x="14369.40625"/>
    <use xlink:href="#DejaVuSans-62" x="14430.685547"/>
    <use xlink:href="#DejaVuSans-6c" x="14494.162109"/>
    <use xlink:href="#DejaVuSans-65" x="14521.945312"/>
    <use xlink:href="#DejaVuSans-20" x="14583.46875"/>
    <use xlink:href="#DejaVuSans-63" x="14615.255859"/>
    <use xlink:href="#DejaVuSans-69" x="14670.236328"/>
    <use xlink:href="#DejaVuSans-76" x="14698.019531"/>
    <use xlink:href="#DejaVuSans-69" x="14757.199219"/>
    <use xlink:href="#DejaVuSans-6c" x="14784.982422"/>
    <use xlink:href="#DejaVuSans-2d" x="14812.765625"/>
    <use xlink:href="#DejaVuSans-74" x="14848.849609"/>
    <use xlink:href="#DejaVuSans-69" x="14888.058594"/>
    <use xlink:href="#DejaVuSans-6d" x="14915.841797"/>
    <use xlink:href="#DejaVuSans-65" x="15013.253906"/>
    <use xlink:href="#DejaVuSans-20" x="15074.777344"/>
    <use xlink:href="#DejaVuSans-64" x="15106.564453"/>
    <use xlink:href="#DejaVuSans-65" x="15170.041016"/>
    <use xlink:href="#DejaVuSans-6d" x="15231.564453"/>
    <use xlink:href="#DejaVuSans-61" x="15328.976562"/>
    <use xlink:href="#DejaVuSans-6e" x="15390.255859"/>
    <use xlink:href="#DejaVuSans-64" x="15453.634766"/>
    <use xlink:href="#DejaVuSans-20" x="15517.111328"/>
    <use xlink:href="#DejaVuSans-73" x="15548.898438"/>
    <use xlink:href="#DejaVuSans-68" x="15600.998047"/>
    <use xlink:href="#DejaVuSans-61" x="15664.376953"/>
    <use xlink:href="#DejaVuSans-70" x="15725.65625"/>
    <use xlink:href="#DejaVuSans-65" x="15789.132812"/>
    <use xlink:href="#DejaVuSans-2e" x="15850.65625"/>
   </g>
  </g>
 </g>
 <defs>
  <clipPath id="p3fcccc3690">
   <rect x="51.5" y="101.52" width="907.18" height="365.92"/>
  </clipPath>
 </defs>
</svg>
