<?xml version="1.0" encoding="utf-8" standalone="no"?>
<!DOCTYPE svg PUBLIC "-//W3C//DTD SVG 1.1//EN"
  "http://www.w3.org/Graphics/SVG/1.1/DTD/svg11.dtd">
<svg xmlns:xlink="http://www.w3.org/1999/xlink" width="1000.46125pt" height="539.05225pt" viewBox="0 0 1000.46125 539.05225" xmlns="http://www.w3.org/2000/svg" version="1.1">
 <metadata>
  <rdf:RDF xmlns:dc="http://purl.org/dc/elements/1.1/" xmlns:cc="http://creativecommons.org/ns#" xmlns:rdf="http://www.w3.org/1999/02/22-rdf-syntax-ns#">
   <cc:Work>
    <dc:type rdf:resource="http://purl.org/dc/dcmitype/StillImage"/>
    <dc:date>2026-03-22T02:57:57.313562</dc:date>
    <dc:format>image/svg+xml</dc:format>
    <dc:creator>
     <cc:Agent>
      <dc:title>Matplotlib v3.9.0, https://matplotlib.org/</dc:title>
     </cc:Agent>
    </dc:creator>
   </cc:Work>
  </rdf:RDF>
 </metadata>
 <defs>
  <style type="text/css">*{stroke-linejoin: round; stroke-linecap: butt}</style>
 </defs>
 <g id="figure_1">
  <g id="patch_1">
   <path d="M 0 539.05225 
L 1000.46125 539.05225 
L 1000.46125 0 
L 0 0 
z
" style="fill: #f7f4ed"/>
  </g>
  <g id="axes_1">
   <g id="patch_2">
    <path d="M 43.78125 501.496 
L 993.26125 501.496 
L 993.26125 113.184 
L 43.78125 113.184 
z
" style="fill: #f7f4ed"/>
   </g>
   <g id="patch_3">
    <path d="M 697.942905 501.496 
L 950.103068 501.496 
L 950.103068 113.184 
L 697.942905 113.184 
z
" clip-path="url(#pfc9959e4c3)" style="fill: #e8ded2; opacity: 0.55; stroke: #e8ded2; stroke-linejoin: miter"/>
   </g>
   <g id="matplotlib.axis_1">
    <g id="xtick_1">
     <g id="line2d_1">
      <defs>
       <path id="mfcc30b7bd9" d="M 0 0 
L 0 3.5 
" style="stroke: #5e5a55; stroke-width: 0.8"/>
      </defs>
      <g>
       <use xlink:href="#mfcc30b7bd9" x="86.939432" y="501.496" style="fill: #5e5a55; stroke: #5e5a55; stroke-width: 0.8"/>
      </g>
     </g>
     <g id="text_1">
      <!-- Jan -->
      <g style="fill: #5e5a55" transform="translate(79.231619 516.094437) scale(0.1 -0.1)">
       <defs>
        <path id="DejaVuSans-4a" d="M 628 4666 
L 1259 4666 
L 1259 325 
Q 1259 -519 939 -900 
Q 619 -1281 -91 -1281 
L -331 -1281 
L -331 -750 
L -134 -750 
Q 284 -750 456 -515 
Q 628 -281 628 325 
L 628 4666 
z
" transform="scale(0.015625)"/>
        <path id="DejaVuSans-61" d="M 2194 1759 
Q 1497 1759 1228 1600 
Q 959 1441 959 1056 
Q 959 750 1161 570 
Q 1363 391 1709 391 
Q 2188 391 2477 730 
Q 2766 1069 2766 1631 
L 2766 1759 
L 2194 1759 
z
M 3341 1997 
L 3341 0 
L 2766 0 
L 2766 531 
Q 2569 213 2275 61 
Q 1981 -91 1556 -91 
Q 1019 -91 701 211 
Q 384 513 384 1019 
Q 384 1609 779 1909 
Q 1175 2209 1959 2209 
L 2766 2209 
L 2766 2266 
Q 2766 2663 2505 2880 
Q 2244 3097 1772 3097 
Q 1472 3097 1187 3025 
Q 903 2953 641 2809 
L 641 3341 
Q 956 3463 1253 3523 
Q 1550 3584 1831 3584 
Q 2591 3584 2966 3190 
Q 3341 2797 3341 1997 
z
" transform="scale(0.015625)"/>
        <path id="DejaVuSans-6e" d="M 3513 2113 
L 3513 0 
L 2938 0 
L 2938 2094 
Q 2938 2591 2744 2837 
Q 2550 3084 2163 3084 
Q 1697 3084 1428 2787 
Q 1159 2491 1159 1978 
L 1159 0 
L 581 0 
L 581 3500 
L 1159 3500 
L 1159 2956 
Q 1366 3272 1645 3428 
Q 1925 3584 2291 3584 
Q 2894 3584 3203 3211 
Q 3513 2838 3513 2113 
z
" transform="scale(0.015625)"/>
       </defs>
       <use xlink:href="#DejaVuSans-4a"/>
       <use xlink:href="#DejaVuSans-61" x="29.492188"/>
       <use xlink:href="#DejaVuSans-6e" x="90.771484"/>
      </g>
     </g>
    </g>
    <g id="xtick_2">
     <g id="line2d_2">
      <g>
       <use xlink:href="#mfcc30b7bd9" x="387.591934" y="501.496" style="fill: #5e5a55; stroke: #5e5a55; stroke-width: 0.8"/>
      </g>
     </g>
     <g id="text_2">
      <!-- Feb -->
      <g style="fill: #5e5a55" transform="translate(378.740372 516.094437) scale(0.1 -0.1)">
       <defs>
        <path id="DejaVuSans-46" d="M 628 4666 
L 3309 4666 
L 3309 4134 
L 1259 4134 
L 1259 2759 
L 3109 2759 
L 3109 2228 
L 1259 2228 
L 1259 0 
L 628 0 
L 628 4666 
z
" transform="scale(0.015625)"/>
        <path id="DejaVuSans-65" d="M 3597 1894 
L 3597 1613 
L 953 1613 
Q 991 1019 1311 708 
Q 1631 397 2203 397 
Q 2534 397 2845 478 
Q 3156 559 3463 722 
L 3463 178 
Q 3153 47 2828 -22 
Q 2503 -91 2169 -91 
Q 1331 -91 842 396 
Q 353 884 353 1716 
Q 353 2575 817 3079 
Q 1281 3584 2069 3584 
Q 2775 3584 3186 3129 
Q 3597 2675 3597 1894 
z
M 3022 2063 
Q 3016 2534 2758 2815 
Q 2500 3097 2075 3097 
Q 1594 3097 1305 2825 
Q 1016 2553 972 2059 
L 3022 2063 
z
" transform="scale(0.015625)"/>
        <path id="DejaVuSans-62" d="M 3116 1747 
Q 3116 2381 2855 2742 
Q 2594 3103 2138 3103 
Q 1681 3103 1420 2742 
Q 1159 2381 1159 1747 
Q 1159 1113 1420 752 
Q 1681 391 2138 391 
Q 2594 391 2855 752 
Q 3116 1113 3116 1747 
z
M 1159 2969 
Q 1341 3281 1617 3432 
Q 1894 3584 2278 3584 
Q 2916 3584 3314 3078 
Q 3713 2572 3713 1747 
Q 3713 922 3314 415 
Q 2916 -91 2278 -91 
Q 1894 -91 1617 61 
Q 1341 213 1159 525 
L 1159 0 
L 581 0 
L 581 4863 
L 1159 4863 
L 1159 2969 
z
" transform="scale(0.015625)"/>
       </defs>
       <use xlink:href="#DejaVuSans-46"/>
       <use xlink:href="#DejaVuSans-65" x="52.019531"/>
       <use xlink:href="#DejaVuSans-62" x="113.542969"/>
      </g>
     </g>
    </g>
    <g id="xtick_3">
     <g id="line2d_3">
      <g>
       <use xlink:href="#mfcc30b7bd9" x="659.149033" y="501.496" style="fill: #5e5a55; stroke: #5e5a55; stroke-width: 0.8"/>
      </g>
     </g>
     <g id="text_3">
      <!-- Mar -->
      <g style="fill: #5e5a55" transform="translate(649.71544 516.094437) scale(0.1 -0.1)">
       <defs>
        <path id="DejaVuSans-4d" d="M 628 4666 
L 1569 4666 
L 2759 1491 
L 3956 4666 
L 4897 4666 
L 4897 0 
L 4281 0 
L 4281 4097 
L 3078 897 
L 2444 897 
L 1241 4097 
L 1241 0 
L 628 0 
L 628 4666 
z
" transform="scale(0.015625)"/>
        <path id="DejaVuSans-72" d="M 2631 2963 
Q 2534 3019 2420 3045 
Q 2306 3072 2169 3072 
Q 1681 3072 1420 2755 
Q 1159 2438 1159 1844 
L 1159 0 
L 581 0 
L 581 3500 
L 1159 3500 
L 1159 2956 
Q 1341 3275 1631 3429 
Q 1922 3584 2338 3584 
Q 2397 3584 2469 3576 
Q 2541 3569 2628 3553 
L 2631 2963 
z
" transform="scale(0.015625)"/>
       </defs>
       <use xlink:href="#DejaVuSans-4d"/>
       <use xlink:href="#DejaVuSans-61" x="86.279297"/>
       <use xlink:href="#DejaVuSans-72" x="147.558594"/>
      </g>
     </g>
    </g>
    <g id="xtick_4">
     <g id="line2d_4">
      <g>
       <use xlink:href="#mfcc30b7bd9" x="959.801536" y="501.496" style="fill: #5e5a55; stroke: #5e5a55; stroke-width: 0.8"/>
      </g>
     </g>
     <g id="text_4">
      <!-- Apr -->
      <g style="fill: #5e5a55" transform="translate(951.151536 516.094437) scale(0.1 -0.1)">
       <defs>
        <path id="DejaVuSans-41" d="M 2188 4044 
L 1331 1722 
L 3047 1722 
L 2188 4044 
z
M 1831 4666 
L 2547 4666 
L 4325 0 
L 3669 0 
L 3244 1197 
L 1141 1197 
L 716 0 
L 50 0 
L 1831 4666 
z
" transform="scale(0.015625)"/>
        <path id="DejaVuSans-70" d="M 1159 525 
L 1159 -1331 
L 581 -1331 
L 581 3500 
L 1159 3500 
L 1159 2969 
Q 1341 3281 1617 3432 
Q 1894 3584 2278 3584 
Q 2916 3584 3314 3078 
Q 3713 2572 3713 1747 
Q 3713 922 3314 415 
Q 2916 -91 2278 -91 
Q 1894 -91 1617 61 
Q 1341 213 1159 525 
z
M 3116 1747 
Q 3116 2381 2855 2742 
Q 2594 3103 2138 3103 
Q 1681 3103 1420 2742 
Q 1159 2381 1159 1747 
Q 1159 1113 1420 752 
Q 1681 391 2138 391 
Q 2594 391 2855 752 
Q 3116 1113 3116 1747 
z
" transform="scale(0.015625)"/>
       </defs>
       <use xlink:href="#DejaVuSans-41"/>
       <use xlink:href="#DejaVuSans-70" x="68.408203"/>
       <use xlink:href="#DejaVuSans-72" x="131.884766"/>
      </g>
     </g>
    </g>
    <g id="text_5">
     <!-- UTC date -->
     <g style="fill: #5e5a55" transform="translate(495.74625 529.772562) scale(0.1 -0.1)">
      <defs>
       <path id="DejaVuSans-55" d="M 556 4666 
L 1191 4666 
L 1191 1831 
Q 1191 1081 1462 751 
Q 1734 422 2344 422 
Q 2950 422 3222 751 
Q 3494 1081 3494 1831 
L 3494 4666 
L 4128 4666 
L 4128 1753 
Q 4128 841 3676 375 
Q 3225 -91 2344 -91 
Q 1459 -91 1007 375 
Q 556 841 556 1753 
L 556 4666 
z
" transform="scale(0.015625)"/>
       <path id="DejaVuSans-54" d="M -19 4666 
L 3928 4666 
L 3928 4134 
L 2272 4134 
L 2272 0 
L 1638 0 
L 1638 4134 
L -19 4134 
L -19 4666 
z
" transform="scale(0.015625)"/>
       <path id="DejaVuSans-43" d="M 4122 4306 
L 4122 3641 
Q 3803 3938 3442 4084 
Q 3081 4231 2675 4231 
Q 1875 4231 1450 3742 
Q 1025 3253 1025 2328 
Q 1025 1406 1450 917 
Q 1875 428 2675 428 
Q 3081 428 3442 575 
Q 3803 722 4122 1019 
L 4122 359 
Q 3791 134 3420 21 
Q 3050 -91 2638 -91 
Q 1578 -91 968 557 
Q 359 1206 359 2328 
Q 359 3453 968 4101 
Q 1578 4750 2638 4750 
Q 3056 4750 3426 4639 
Q 3797 4528 4122 4306 
z
" transform="scale(0.015625)"/>
       <path id="DejaVuSans-20" transform="scale(0.015625)"/>
       <path id="DejaVuSans-64" d="M 2906 2969 
L 2906 4863 
L 3481 4863 
L 3481 0 
L 2906 0 
L 2906 525 
Q 2725 213 2448 61 
Q 2172 -91 1784 -91 
Q 1150 -91 751 415 
Q 353 922 353 1747 
Q 353 2572 751 3078 
Q 1150 3584 1784 3584 
Q 2172 3584 2448 3432 
Q 2725 3281 2906 2969 
z
M 947 1747 
Q 947 1113 1208 752 
Q 1469 391 1925 391 
Q 2381 391 2643 752 
Q 2906 1113 2906 1747 
Q 2906 2381 2643 2742 
Q 2381 3103 1925 3103 
Q 1469 3103 1208 2742 
Q 947 2381 947 1747 
z
" transform="scale(0.015625)"/>
       <path id="DejaVuSans-74" d="M 1172 4494 
L 1172 3500 
L 2356 3500 
L 2356 3053 
L 1172 3053 
L 1172 1153 
Q 1172 725 1289 603 
Q 1406 481 1766 481 
L 2356 481 
L 2356 0 
L 1766 0 
Q 1100 0 847 248 
Q 594 497 594 1153 
L 594 3053 
L 172 3053 
L 172 3500 
L 594 3500 
L 594 4494 
L 1172 4494 
z
" transform="scale(0.015625)"/>
      </defs>
      <use xlink:href="#DejaVuSans-55"/>
      <use xlink:href="#DejaVuSans-54" x="73.193359"/>
      <use xlink:href="#DejaVuSans-43" x="128.402344"/>
      <use xlink:href="#DejaVuSans-20" x="198.226562"/>
      <use xlink:href="#DejaVuSans-64" x="230.013672"/>
      <use xlink:href="#DejaVuSans-61" x="293.490234"/>
      <use xlink:href="#DejaVuSans-74" x="354.769531"/>
      <use xlink:href="#DejaVuSans-65" x="393.978516"/>
     </g>
    </g>
   </g>
   <g id="matplotlib.axis_2">
    <g id="ytick_1">
     <g id="line2d_5">
      <path d="M 43.78125 460.321561 
L 993.26125 460.321561 
" clip-path="url(#pfc9959e4c3)" style="fill: none; stroke-dasharray: 2.96,1.28; stroke-dashoffset: 0; stroke: #d9d1c7; stroke-opacity: 0.9; stroke-width: 0.8"/>
     </g>
     <g id="line2d_6">
      <defs>
       <path id="mf9e5659544" d="M 0 0 
L -3.5 0 
" style="stroke: #5e5a55; stroke-width: 0.8"/>
      </defs>
      <g>
       <use xlink:href="#mf9e5659544" x="43.78125" y="460.321561" style="fill: #5e5a55; stroke: #5e5a55; stroke-width: 0.8"/>
      </g>
     </g>
     <g id="text_6">
      <!-- 5.0 -->
      <g style="fill: #5e5a55" transform="translate(20.878125 464.120779) scale(0.1 -0.1)">
       <defs>
        <path id="DejaVuSans-35" d="M 691 4666 
L 3169 4666 
L 3169 4134 
L 1269 4134 
L 1269 2991 
Q 1406 3038 1543 3061 
Q 1681 3084 1819 3084 
Q 2600 3084 3056 2656 
Q 3513 2228 3513 1497 
Q 3513 744 3044 326 
Q 2575 -91 1722 -91 
Q 1428 -91 1123 -41 
Q 819 9 494 109 
L 494 744 
Q 775 591 1075 516 
Q 1375 441 1709 441 
Q 2250 441 2565 725 
Q 2881 1009 2881 1497 
Q 2881 1984 2565 2268 
Q 2250 2553 1709 2553 
Q 1456 2553 1204 2497 
Q 953 2441 691 2322 
L 691 4666 
z
" transform="scale(0.015625)"/>
        <path id="DejaVuSans-2e" d="M 684 794 
L 1344 794 
L 1344 0 
L 684 0 
L 684 794 
z
" transform="scale(0.015625)"/>
        <path id="DejaVuSans-30" d="M 2034 4250 
Q 1547 4250 1301 3770 
Q 1056 3291 1056 2328 
Q 1056 1369 1301 889 
Q 1547 409 2034 409 
Q 2525 409 2770 889 
Q 3016 1369 3016 2328 
Q 3016 3291 2770 3770 
Q 2525 4250 2034 4250 
z
M 2034 4750 
Q 2819 4750 3233 4129 
Q 3647 3509 3647 2328 
Q 3647 1150 3233 529 
Q 2819 -91 2034 -91 
Q 1250 -91 836 529 
Q 422 1150 422 2328 
Q 422 3509 836 4129 
Q 1250 4750 2034 4750 
z
" transform="scale(0.015625)"/>
       </defs>
       <use xlink:href="#DejaVuSans-35"/>
       <use xlink:href="#DejaVuSans-2e" x="63.623047"/>
       <use xlink:href="#DejaVuSans-30" x="95.410156"/>
      </g>
     </g>
    </g>
    <g id="ytick_2">
     <g id="line2d_7">
      <path d="M 43.78125 375.364018 
L 993.26125 375.364018 
" clip-path="url(#pfc9959e4c3)" style="fill: none; stroke-dasharray: 2.96,1.28; stroke-dashoffset: 0; stroke: #d9d1c7; stroke-opacity: 0.9; stroke-width: 0.8"/>
     </g>
     <g id="line2d_8">
      <g>
       <use xlink:href="#mf9e5659544" x="43.78125" y="375.364018" style="fill: #5e5a55; stroke: #5e5a55; stroke-width: 0.8"/>
      </g>
     </g>
     <g id="text_7">
      <!-- 5.2 -->
      <g style="fill: #5e5a55" transform="translate(20.878125 379.163236) scale(0.1 -0.1)">
       <defs>
        <path id="DejaVuSans-32" d="M 1228 531 
L 3431 531 
L 3431 0 
L 469 0 
L 469 531 
Q 828 903 1448 1529 
Q 2069 2156 2228 2338 
Q 2531 2678 2651 2914 
Q 2772 3150 2772 3378 
Q 2772 3750 2511 3984 
Q 2250 4219 1831 4219 
Q 1534 4219 1204 4116 
Q 875 4013 500 3803 
L 500 4441 
Q 881 4594 1212 4672 
Q 1544 4750 1819 4750 
Q 2544 4750 2975 4387 
Q 3406 4025 3406 3419 
Q 3406 3131 3298 2873 
Q 3191 2616 2906 2266 
Q 2828 2175 2409 1742 
Q 1991 1309 1228 531 
z
" transform="scale(0.015625)"/>
       </defs>
       <use xlink:href="#DejaVuSans-35"/>
       <use xlink:href="#DejaVuSans-2e" x="63.623047"/>
       <use xlink:href="#DejaVuSans-32" x="95.410156"/>
      </g>
     </g>
    </g>
    <g id="ytick_3">
     <g id="line2d_9">
      <path d="M 43.78125 290.406475 
L 993.26125 290.406475 
" clip-path="url(#pfc9959e4c3)" style="fill: none; stroke-dasharray: 2.96,1.28; stroke-dashoffset: 0; stroke: #d9d1c7; stroke-opacity: 0.9; stroke-width: 0.8"/>
     </g>
     <g id="line2d_10">
      <g>
       <use xlink:href="#mf9e5659544" x="43.78125" y="290.406475" style="fill: #5e5a55; stroke: #5e5a55; stroke-width: 0.8"/>
      </g>
     </g>
     <g id="text_8">
      <!-- 5.4 -->
      <g style="fill: #5e5a55" transform="translate(20.878125 294.205694) scale(0.1 -0.1)">
       <defs>
        <path id="DejaVuSans-34" d="M 2419 4116 
L 825 1625 
L 2419 1625 
L 2419 4116 
z
M 2253 4666 
L 3047 4666 
L 3047 1625 
L 3713 1625 
L 3713 1100 
L 3047 1100 
L 3047 0 
L 2419 0 
L 2419 1100 
L 313 1100 
L 313 1709 
L 2253 4666 
z
" transform="scale(0.015625)"/>
       </defs>
       <use xlink:href="#DejaVuSans-35"/>
       <use xlink:href="#DejaVuSans-2e" x="63.623047"/>
       <use xlink:href="#DejaVuSans-34" x="95.410156"/>
      </g>
     </g>
    </g>
    <g id="ytick_4">
     <g id="line2d_11">
      <path d="M 43.78125 205.448932 
L 993.26125 205.448932 
" clip-path="url(#pfc9959e4c3)" style="fill: none; stroke-dasharray: 2.96,1.28; stroke-dashoffset: 0; stroke: #d9d1c7; stroke-opacity: 0.9; stroke-width: 0.8"/>
     </g>
     <g id="line2d_12">
      <g>
       <use xlink:href="#mf9e5659544" x="43.78125" y="205.448932" style="fill: #5e5a55; stroke: #5e5a55; stroke-width: 0.8"/>
      </g>
     </g>
     <g id="text_9">
      <!-- 5.6 -->
      <g style="fill: #5e5a55" transform="translate(20.878125 209.248151) scale(0.1 -0.1)">
       <defs>
        <path id="DejaVuSans-36" d="M 2113 2584 
Q 1688 2584 1439 2293 
Q 1191 2003 1191 1497 
Q 1191 994 1439 701 
Q 1688 409 2113 409 
Q 2538 409 2786 701 
Q 3034 994 3034 1497 
Q 3034 2003 2786 2293 
Q 2538 2584 2113 2584 
z
M 3366 4563 
L 3366 3988 
Q 3128 4100 2886 4159 
Q 2644 4219 2406 4219 
Q 1781 4219 1451 3797 
Q 1122 3375 1075 2522 
Q 1259 2794 1537 2939 
Q 1816 3084 2150 3084 
Q 2853 3084 3261 2657 
Q 3669 2231 3669 1497 
Q 3669 778 3244 343 
Q 2819 -91 2113 -91 
Q 1303 -91 875 529 
Q 447 1150 447 2328 
Q 447 3434 972 4092 
Q 1497 4750 2381 4750 
Q 2619 4750 2861 4703 
Q 3103 4656 3366 4563 
z
" transform="scale(0.015625)"/>
       </defs>
       <use xlink:href="#DejaVuSans-35"/>
       <use xlink:href="#DejaVuSans-2e" x="63.623047"/>
       <use xlink:href="#DejaVuSans-36" x="95.410156"/>
      </g>
     </g>
    </g>
    <g id="ytick_5">
     <g id="line2d_13">
      <path d="M 43.78125 120.491389 
L 993.26125 120.491389 
" clip-path="url(#pfc9959e4c3)" style="fill: none; stroke-dasharray: 2.96,1.28; stroke-dashoffset: 0; stroke: #d9d1c7; stroke-opacity: 0.9; stroke-width: 0.8"/>
     </g>
     <g id="line2d_14">
      <g>
       <use xlink:href="#mf9e5659544" x="43.78125" y="120.491389" style="fill: #5e5a55; stroke: #5e5a55; stroke-width: 0.8"/>
      </g>
     </g>
     <g id="text_10">
      <!-- 5.8 -->
      <g style="fill: #5e5a55" transform="translate(20.878125 124.290608) scale(0.1 -0.1)">
       <defs>
        <path id="DejaVuSans-38" d="M 2034 2216 
Q 1584 2216 1326 1975 
Q 1069 1734 1069 1313 
Q 1069 891 1326 650 
Q 1584 409 2034 409 
Q 2484 409 2743 651 
Q 3003 894 3003 1313 
Q 3003 1734 2745 1975 
Q 2488 2216 2034 2216 
z
M 1403 2484 
Q 997 2584 770 2862 
Q 544 3141 544 3541 
Q 544 4100 942 4425 
Q 1341 4750 2034 4750 
Q 2731 4750 3128 4425 
Q 3525 4100 3525 3541 
Q 3525 3141 3298 2862 
Q 3072 2584 2669 2484 
Q 3125 2378 3379 2068 
Q 3634 1759 3634 1313 
Q 3634 634 3220 271 
Q 2806 -91 2034 -91 
Q 1263 -91 848 271 
Q 434 634 434 1313 
Q 434 1759 690 2068 
Q 947 2378 1403 2484 
z
M 1172 3481 
Q 1172 3119 1398 2916 
Q 1625 2713 2034 2713 
Q 2441 2713 2670 2916 
Q 2900 3119 2900 3481 
Q 2900 3844 2670 4047 
Q 2441 4250 2034 4250 
Q 1625 4250 1398 4047 
Q 1172 3844 1172 3481 
z
" transform="scale(0.015625)"/>
       </defs>
       <use xlink:href="#DejaVuSans-35"/>
       <use xlink:href="#DejaVuSans-2e" x="63.623047"/>
       <use xlink:href="#DejaVuSans-38" x="95.410156"/>
      </g>
     </g>
    </g>
    <g id="text_11">
     <!-- Daily events (millions) -->
     <g style="fill: #5e5a55" transform="translate(14.798438 363.176719) rotate(-90) scale(0.1 -0.1)">
      <defs>
       <path id="DejaVuSans-44" d="M 1259 4147 
L 1259 519 
L 2022 519 
Q 2988 519 3436 956 
Q 3884 1394 3884 2338 
Q 3884 3275 3436 3711 
Q 2988 4147 2022 4147 
L 1259 4147 
z
M 628 4666 
L 1925 4666 
Q 3281 4666 3915 4102 
Q 4550 3538 4550 2338 
Q 4550 1131 3912 565 
Q 3275 0 1925 0 
L 628 0 
L 628 4666 
z
" transform="scale(0.015625)"/>
       <path id="DejaVuSans-69" d="M 603 3500 
L 1178 3500 
L 1178 0 
L 603 0 
L 603 3500 
z
M 603 4863 
L 1178 4863 
L 1178 4134 
L 603 4134 
L 603 4863 
z
" transform="scale(0.015625)"/>
       <path id="DejaVuSans-6c" d="M 603 4863 
L 1178 4863 
L 1178 0 
L 603 0 
L 603 4863 
z
" transform="scale(0.015625)"/>
       <path id="DejaVuSans-79" d="M 2059 -325 
Q 1816 -950 1584 -1140 
Q 1353 -1331 966 -1331 
L 506 -1331 
L 506 -850 
L 844 -850 
Q 1081 -850 1212 -737 
Q 1344 -625 1503 -206 
L 1606 56 
L 191 3500 
L 800 3500 
L 1894 763 
L 2988 3500 
L 3597 3500 
L 2059 -325 
z
" transform="scale(0.015625)"/>
       <path id="DejaVuSans-76" d="M 191 3500 
L 800 3500 
L 1894 563 
L 2988 3500 
L 3597 3500 
L 2284 0 
L 1503 0 
L 191 3500 
z
" transform="scale(0.015625)"/>
       <path id="DejaVuSans-73" d="M 2834 3397 
L 2834 2853 
Q 2591 2978 2328 3040 
Q 2066 3103 1784 3103 
Q 1356 3103 1142 2972 
Q 928 2841 928 2578 
Q 928 2378 1081 2264 
Q 1234 2150 1697 2047 
L 1894 2003 
Q 2506 1872 2764 1633 
Q 3022 1394 3022 966 
Q 3022 478 2636 193 
Q 2250 -91 1575 -91 
Q 1294 -91 989 -36 
Q 684 19 347 128 
L 347 722 
Q 666 556 975 473 
Q 1284 391 1588 391 
Q 1994 391 2212 530 
Q 2431 669 2431 922 
Q 2431 1156 2273 1281 
Q 2116 1406 1581 1522 
L 1381 1569 
Q 847 1681 609 1914 
Q 372 2147 372 2553 
Q 372 3047 722 3315 
Q 1072 3584 1716 3584 
Q 2034 3584 2315 3537 
Q 2597 3491 2834 3397 
z
" transform="scale(0.015625)"/>
       <path id="DejaVuSans-28" d="M 1984 4856 
Q 1566 4138 1362 3434 
Q 1159 2731 1159 2009 
Q 1159 1288 1364 580 
Q 1569 -128 1984 -844 
L 1484 -844 
Q 1016 -109 783 600 
Q 550 1309 550 2009 
Q 550 2706 781 3412 
Q 1013 4119 1484 4856 
L 1984 4856 
z
" transform="scale(0.015625)"/>
       <path id="DejaVuSans-6d" d="M 3328 2828 
Q 3544 3216 3844 3400 
Q 4144 3584 4550 3584 
Q 5097 3584 5394 3201 
Q 5691 2819 5691 2113 
L 5691 0 
L 5113 0 
L 5113 2094 
Q 5113 2597 4934 2840 
Q 4756 3084 4391 3084 
Q 3944 3084 3684 2787 
Q 3425 2491 3425 1978 
L 3425 0 
L 2847 0 
L 2847 2094 
Q 2847 2600 2669 2842 
Q 2491 3084 2119 3084 
Q 1678 3084 1418 2786 
Q 1159 2488 1159 1978 
L 1159 0 
L 581 0 
L 581 3500 
L 1159 3500 
L 1159 2956 
Q 1356 3278 1631 3431 
Q 1906 3584 2284 3584 
Q 2666 3584 2933 3390 
Q 3200 3197 3328 2828 
z
" transform="scale(0.015625)"/>
       <path id="DejaVuSans-6f" d="M 1959 3097 
Q 1497 3097 1228 2736 
Q 959 2375 959 1747 
Q 959 1119 1226 758 
Q 1494 397 1959 397 
Q 2419 397 2687 759 
Q 2956 1122 2956 1747 
Q 2956 2369 2687 2733 
Q 2419 3097 1959 3097 
z
M 1959 3584 
Q 2709 3584 3137 3096 
Q 3566 2609 3566 1747 
Q 3566 888 3137 398 
Q 2709 -91 1959 -91 
Q 1206 -91 779 398 
Q 353 888 353 1747 
Q 353 2609 779 3096 
Q 1206 3584 1959 3584 
z
" transform="scale(0.015625)"/>
       <path id="DejaVuSans-29" d="M 513 4856 
L 1013 4856 
Q 1481 4119 1714 3412 
Q 1947 2706 1947 2009 
Q 1947 1309 1714 600 
Q 1481 -109 1013 -844 
L 513 -844 
Q 928 -128 1133 580 
Q 1338 1288 1338 2009 
Q 1338 2731 1133 3434 
Q 928 4138 513 4856 
z
" transform="scale(0.015625)"/>
      </defs>
      <use xlink:href="#DejaVuSans-44"/>
      <use xlink:href="#DejaVuSans-61" x="77.001953"/>
      <use xlink:href="#DejaVuSans-69" x="138.28125"/>
      <use xlink:href="#DejaVuSans-6c" x="166.064453"/>
      <use xlink:href="#DejaVuSans-79" x="193.847656"/>
      <use xlink:href="#DejaVuSans-20" x="253.027344"/>
      <use xlink:href="#DejaVuSans-65" x="284.814453"/>
      <use xlink:href="#DejaVuSans-76" x="346.337891"/>
      <use xlink:href="#DejaVuSans-65" x="405.517578"/>
      <use xlink:href="#DejaVuSans-6e" x="467.041016"/>
      <use xlink:href="#DejaVuSans-74" x="530.419922"/>
      <use xlink:href="#DejaVuSans-73" x="569.628906"/>
      <use xlink:href="#DejaVuSans-20" x="621.728516"/>
      <use xlink:href="#DejaVuSans-28" x="653.515625"/>
      <use xlink:href="#DejaVuSans-6d" x="692.529297"/>
      <use xlink:href="#DejaVuSans-69" x="789.941406"/>
      <use xlink:href="#DejaVuSans-6c" x="817.724609"/>
      <use xlink:href="#DejaVuSans-6c" x="845.507812"/>
      <use xlink:href="#DejaVuSans-69" x="873.291016"/>
      <use xlink:href="#DejaVuSans-6f" x="901.074219"/>
      <use xlink:href="#DejaVuSans-6e" x="962.255859"/>
      <use xlink:href="#DejaVuSans-73" x="1025.634766"/>
      <use xlink:href="#DejaVuSans-29" x="1077.734375"/>
     </g>
    </g>
   </g>
   <g id="line2d_15">
    <path d="M 86.939432 344.738948 
L 96.6379 334.518555 
L 106.336367 433.538695 
L 116.034835 440.504789 
L 125.733303 325.754335 
L 135.431771 342.004164 
L 145.130239 314.500434 
L 154.828707 291.163447 
L 164.527174 303.657303 
L 174.225642 405.838713 
L 183.92411 447.523131 
L 193.622578 354.543473 
L 203.321046 351.942498 
L 213.019514 350.699144 
L 222.717981 144.82238 
L 232.416449 237.054412 
L 242.114917 408.872122 
L 251.813385 457.222734 
L 261.511853 363.576159 
L 271.21032 360.125608 
L 280.908788 366.924335 
L 290.607256 319.656507 
L 300.305724 213.271823 
L 310.004192 394.315072 
L 319.70266 483.845455 
L 329.401127 401.380566 
L 339.099595 401.845284 
L 348.798063 337.655612 
L 358.496531 330.7269 
L 368.194999 130.834545 
L 377.893467 326.943741 
L 387.591934 447.555415 
L 397.290402 355.737551 
L 406.98887 349.428179 
L 416.687338 311.118274 
L 426.385806 338.112684 
L 436.084273 322.757033 
L 445.782741 422.195164 
L 455.481209 456.941525 
L 465.179677 358.774358 
L 474.878145 364.89385 
L 484.576613 362.209617 
L 494.27508 334.303188 
L 503.973548 160.398496 
L 513.672016 326.278098 
L 523.370484 389.935086 
L 533.068952 351.410239 
L 542.76742 363.639877 
L 552.465887 366.022086 
L 562.164355 375.579385 
L 571.862823 357.976182 
L 581.561291 428.0258 
L 591.259759 452.128255 
L 600.958227 373.950324 
L 610.656694 376.532609 
L 620.355162 197.981164 
L 630.05363 238.452389 
L 639.752098 233.483647 
L 649.450566 370.043976 
L 659.149033 443.982526 
L 668.847501 358.28033 
L 678.545969 340.152515 
L 688.244437 340.03145 
L 697.942905 349.090473 
L 707.641373 342.353764 
L 717.33984 404.96535 
L 727.038308 435.656687 
L 736.736776 357.576882 
L 746.435244 366.69495 
L 756.133712 377.680385 
L 765.83218 353.072008 
L 775.530647 205.342735 
L 785.229115 379.789881 
L 794.927583 435.66051 
L 804.626051 338.618181 
L 814.324519 335.465832 
L 824.022986 351.474806 
L 833.721454 346.681077 
L 843.419922 323.528447 
L 853.11839 417.712379 
L 862.816858 412.334992 
L 872.515326 332.951513 
L 882.213793 328.498888 
L 891.912261 203.636363 
L 901.610729 275.752573 
L 911.309197 314.104532 
L 921.007665 418.027997 
L 930.706133 453.026256 
L 940.4046 347.579503 
L 950.103068 300.439536 
" clip-path="url(#pfc9959e4c3)" style="fill: none; stroke: #204b57; stroke-opacity: 0.35; stroke-width: 1.4; stroke-linecap: square"/>
   </g>
   <g id="line2d_16">
    <path d="M 106.336367 370.932066 
L 116.034835 388.325247 
L 125.733303 375.811064 
L 135.431771 370.176581 
L 145.130239 362.222846 
L 154.828707 354.569203 
L 164.527174 350.160452 
L 174.225642 346.203312 
L 183.92411 347.205933 
L 193.622578 351.318666 
L 203.321046 352.738428 
L 213.019514 357.909673 
L 222.717981 337.003806 
L 232.416449 327.489107 
L 242.114917 327.922451 
L 251.813385 329.308109 
L 261.511853 330.598493 
L 271.21032 331.767509 
L 280.908788 334.085393 
L 290.607256 359.061697 
L 300.305724 355.664184 
L 310.004192 353.584605 
L 319.70266 357.387851 
L 329.401127 362.788481 
L 339.099595 368.748435 
L 348.798063 364.567188 
L 358.496531 366.148673 
L 368.194999 354.371919 
L 377.893467 344.747443 
L 387.591934 339.563152 
L 397.290402 333.042721 
L 406.98887 325.554563 
L 416.687338 321.763515 
L 426.385806 322.818627 
L 436.084273 350.236125 
L 445.782741 363.843472 
L 455.481209 365.184344 
L 465.179677 365.618174 
L 474.878145 367.827555 
L 484.576613 375.126319 
L 494.27508 374.582105 
L 503.973548 351.388028 
L 513.672016 337.68559 
L 523.370484 328.113242 
L 533.068952 327.061225 
L 542.76742 326.882086 
L 552.465887 327.426724 
L 562.164355 333.323324 
L 571.862823 361.548708 
L 581.561291 376.084094 
L 591.259759 384.968832 
L 600.958227 388.188844 
L 610.656694 390.030663 
L 620.355162 366.024817 
L 630.05363 346.435246 
L 639.752098 328.650598 
L 649.450566 320.367481 
L 659.149033 319.203805 
L 668.847501 316.965234 
L 678.545969 311.768078 
L 688.244437 332.060976 
L 697.942905 347.866417 
L 707.641373 363.419291 
L 717.33984 368.408058 
L 727.038308 367.218653 
L 736.736776 367.11816 
L 746.435244 370.909937 
L 756.133712 376.288356 
L 765.83218 376.857147 
L 775.530647 357.284142 
L 785.229115 353.687647 
L 794.927583 353.688193 
L 804.626051 350.979807 
L 814.324519 346.518505 
L 824.022986 342.77485 
L 833.721454 341.86186 
L 843.419922 358.745533 
L 853.11839 364.163033 
L 862.816858 360.830816 
L 872.515326 360.021292 
L 882.213793 359.026015 
L 891.912261 337.906237 
L 901.610729 327.773594 
L 911.309197 326.42732 
L 921.007665 326.472408 
L 930.706133 332.285446 
L 940.4046 334.375159 
L 950.103068 330.36668 
" clip-path="url(#pfc9959e4c3)" style="fill: none; stroke: #b5653a; stroke-width: 2.7; stroke-linecap: square"/>
   </g>
   <g id="line2d_17">
    <path d="M 697.943015 501.496 
L 697.943015 113.184 
" clip-path="url(#pfc9959e4c3)" style="fill: none; stroke-dasharray: 5.55,2.4; stroke-dashoffset: 0; stroke: #2f2a24; stroke-width: 1.5"/>
   </g>
   <g id="patch_4">
    <path d="M 43.78125 501.496 
L 43.78125 113.184 
" style="fill: none; stroke: #d9d1c7; stroke-width: 0.8; stroke-linejoin: miter; stroke-linecap: square"/>
   </g>
   <g id="patch_5">
    <path d="M 993.26125 501.496 
L 993.26125 113.184 
" style="fill: none; stroke: #d9d1c7; stroke-width: 0.8; stroke-linejoin: miter; stroke-linecap: square"/>
   </g>
   <g id="patch_6">
    <path d="M 43.78125 501.496 
L 993.26125 501.496 
" style="fill: none; stroke: #d9d1c7; stroke-width: 0.8; stroke-linejoin: miter; stroke-linecap: square"/>
   </g>
   <g id="patch_7">
    <path d="M 43.78125 113.184 
L 993.26125 113.184 
" style="fill: none; stroke: #d9d1c7; stroke-width: 0.8; stroke-linejoin: miter; stroke-linecap: square"/>
   </g>
   <g id="text_12">
    <g id="patch_8">
     <path d="M 697.943015 284.608227 
L 837.576031 284.608227 
Q 840.486031 284.608227 840.486031 281.698227 
L 840.486031 261.448568 
Q 840.486031 258.538568 837.576031 258.538568 
L 697.943015 258.538568 
Q 695.033015 258.538568 695.033015 261.448568 
L 695.033015 281.698227 
Q 695.033015 284.608227 697.943015 284.608227 
z
" style="fill: #fcfaf6; stroke: #d9d1c7; stroke-linejoin: miter"/>
    </g>
    <!-- Accepted current-slice cutoff -->
    <g style="fill: #161514" transform="translate(697.943015 268.819052) scale(0.097 -0.097)">
     <defs>
      <path id="DejaVuSans-63" d="M 3122 3366 
L 3122 2828 
Q 2878 2963 2633 3030 
Q 2388 3097 2138 3097 
Q 1578 3097 1268 2742 
Q 959 2388 959 1747 
Q 959 1106 1268 751 
Q 1578 397 2138 397 
Q 2388 397 2633 464 
Q 2878 531 3122 666 
L 3122 134 
Q 2881 22 2623 -34 
Q 2366 -91 2075 -91 
Q 1284 -91 818 406 
Q 353 903 353 1747 
Q 353 2603 823 3093 
Q 1294 3584 2113 3584 
Q 2378 3584 2631 3529 
Q 2884 3475 3122 3366 
z
" transform="scale(0.015625)"/>
      <path id="DejaVuSans-75" d="M 544 1381 
L 544 3500 
L 1119 3500 
L 1119 1403 
Q 1119 906 1312 657 
Q 1506 409 1894 409 
Q 2359 409 2629 706 
Q 2900 1003 2900 1516 
L 2900 3500 
L 3475 3500 
L 3475 0 
L 2900 0 
L 2900 538 
Q 2691 219 2414 64 
Q 2138 -91 1772 -91 
Q 1169 -91 856 284 
Q 544 659 544 1381 
z
M 1991 3584 
L 1991 3584 
z
" transform="scale(0.015625)"/>
      <path id="DejaVuSans-2d" d="M 313 2009 
L 1997 2009 
L 1997 1497 
L 313 1497 
L 313 2009 
z
" transform="scale(0.015625)"/>
      <path id="DejaVuSans-66" d="M 2375 4863 
L 2375 4384 
L 1825 4384 
Q 1516 4384 1395 4259 
Q 1275 4134 1275 3809 
L 1275 3500 
L 2222 3500 
L 2222 3053 
L 1275 3053 
L 1275 0 
L 697 0 
L 697 3053 
L 147 3053 
L 147 3500 
L 697 3500 
L 697 3744 
Q 697 4328 969 4595 
Q 1241 4863 1831 4863 
L 2375 4863 
z
" transform="scale(0.015625)"/>
     </defs>
     <use xlink:href="#DejaVuSans-41"/>
     <use xlink:href="#DejaVuSans-63" x="66.658203"/>
     <use xlink:href="#DejaVuSans-63" x="121.638672"/>
     <use xlink:href="#DejaVuSans-65" x="176.619141"/>
     <use xlink:href="#DejaVuSans-70" x="238.142578"/>
     <use xlink:href="#DejaVuSans-74" x="301.619141"/>
     <use xlink:href="#DejaVuSans-65" x="340.828125"/>
     <use xlink:href="#DejaVuSans-64" x="402.351562"/>
     <use xlink:href="#DejaVuSans-20" x="465.828125"/>
     <use xlink:href="#DejaVuSans-63" x="497.615234"/>
     <use xlink:href="#DejaVuSans-75" x="552.595703"/>
     <use xlink:href="#DejaVuSans-72" x="615.974609"/>
     <use xlink:href="#DejaVuSans-72" x="655.337891"/>
     <use xlink:href="#DejaVuSans-65" x="694.201172"/>
     <use xlink:href="#DejaVuSans-6e" x="755.724609"/>
     <use xlink:href="#DejaVuSans-74" x="819.103516"/>
     <use xlink:href="#DejaVuSans-2d" x="858.3125"/>
     <use xlink:href="#DejaVuSans-73" x="894.396484"/>
     <use xlink:href="#DejaVuSans-6c" x="946.496094"/>
     <use xlink:href="#DejaVuSans-69" x="974.279297"/>
     <use xlink:href="#DejaVuSans-63" x="1002.0625"/>
     <use xlink:href="#DejaVuSans-65" x="1057.042969"/>
     <use xlink:href="#DejaVuSans-20" x="1118.566406"/>
     <use xlink:href="#DejaVuSans-63" x="1150.353516"/>
     <use xlink:href="#DejaVuSans-75" x="1205.333984"/>
     <use xlink:href="#DejaVuSans-74" x="1268.712891"/>
     <use xlink:href="#DejaVuSans-6f" x="1307.921875"/>
     <use xlink:href="#DejaVuSans-66" x="1369.103516"/>
     <use xlink:href="#DejaVuSans-66" x="1404.308594"/>
    </g>
    <!-- 2026-03-05 00:00 UTC -->
    <g style="fill: #161514" transform="translate(697.943015 279.68093) scale(0.097 -0.097)">
     <defs>
      <path id="DejaVuSans-33" d="M 2597 2516 
Q 3050 2419 3304 2112 
Q 3559 1806 3559 1356 
Q 3559 666 3084 287 
Q 2609 -91 1734 -91 
Q 1441 -91 1130 -33 
Q 819 25 488 141 
L 488 750 
Q 750 597 1062 519 
Q 1375 441 1716 441 
Q 2309 441 2620 675 
Q 2931 909 2931 1356 
Q 2931 1769 2642 2001 
Q 2353 2234 1838 2234 
L 1294 2234 
L 1294 2753 
L 1863 2753 
Q 2328 2753 2575 2939 
Q 2822 3125 2822 3475 
Q 2822 3834 2567 4026 
Q 2313 4219 1838 4219 
Q 1578 4219 1281 4162 
Q 984 4106 628 3988 
L 628 4550 
Q 988 4650 1302 4700 
Q 1616 4750 1894 4750 
Q 2613 4750 3031 4423 
Q 3450 4097 3450 3541 
Q 3450 3153 3228 2886 
Q 3006 2619 2597 2516 
z
" transform="scale(0.015625)"/>
      <path id="DejaVuSans-3a" d="M 750 794 
L 1409 794 
L 1409 0 
L 750 0 
L 750 794 
z
M 750 3309 
L 1409 3309 
L 1409 2516 
L 750 2516 
L 750 3309 
z
" transform="scale(0.015625)"/>
     </defs>
     <use xlink:href="#DejaVuSans-32"/>
     <use xlink:href="#DejaVuSans-30" x="63.623047"/>
     <use xlink:href="#DejaVuSans-32" x="127.246094"/>
     <use xlink:href="#DejaVuSans-36" x="190.869141"/>
     <use xlink:href="#DejaVuSans-2d" x="254.492188"/>
     <use xlink:href="#DejaVuSans-30" x="290.576172"/>
     <use xlink:href="#DejaVuSans-33" x="354.199219"/>
     <use xlink:href="#DejaVuSans-2d" x="417.822266"/>
     <use xlink:href="#DejaVuSans-30" x="453.90625"/>
     <use xlink:href="#DejaVuSans-35" x="517.529297"/>
     <use xlink:href="#DejaVuSans-20" x="581.152344"/>
     <use xlink:href="#DejaVuSans-30" x="612.939453"/>
     <use xlink:href="#DejaVuSans-30" x="676.5625"/>
     <use xlink:href="#DejaVuSans-3a" x="740.185547"/>
     <use xlink:href="#DejaVuSans-30" x="773.876953"/>
     <use xlink:href="#DejaVuSans-30" x="837.5"/>
     <use xlink:href="#DejaVuSans-20" x="901.123047"/>
     <use xlink:href="#DejaVuSans-55" x="932.910156"/>
     <use xlink:href="#DejaVuSans-54" x="1006.103516"/>
     <use xlink:href="#DejaVuSans-43" x="1061.3125"/>
    </g>
   </g>
   <g id="text_13">
    <g id="patch_9">
     <path d="M 757.986238 458.39856 
L 979.01905 458.39856 
Q 982.51905 458.39856 982.51905 454.89856 
L 982.51905 422.82481 
Q 982.51905 419.32481 979.01905 419.32481 
L 757.986238 419.32481 
Q 754.486238 419.32481 754.486238 422.82481 
L 754.486238 454.89856 
Q 754.486238 458.39856 757.986238 458.39856 
z
" style="fill: #fcfaf6; stroke: #d9d1c7; stroke-linejoin: miter"/>
    </g>
    <!-- Accepted current slice: 331.5M events -->
    <g style="fill: #161514" transform="translate(786.917487 430.423248) scale(0.1 -0.1)">
     <defs>
      <path id="DejaVuSans-31" d="M 794 531 
L 1825 531 
L 1825 4091 
L 703 3866 
L 703 4441 
L 1819 4666 
L 2450 4666 
L 2450 531 
L 3481 531 
L 3481 0 
L 794 0 
L 794 531 
z
" transform="scale(0.015625)"/>
     </defs>
     <use xlink:href="#DejaVuSans-41"/>
     <use xlink:href="#DejaVuSans-63" x="66.658203"/>
     <use xlink:href="#DejaVuSans-63" x="121.638672"/>
     <use xlink:href="#DejaVuSans-65" x="176.619141"/>
     <use xlink:href="#DejaVuSans-70" x="238.142578"/>
     <use xlink:href="#DejaVuSans-74" x="301.619141"/>
     <use xlink:href="#DejaVuSans-65" x="340.828125"/>
     <use xlink:href="#DejaVuSans-64" x="402.351562"/>
     <use xlink:href="#DejaVuSans-20" x="465.828125"/>
     <use xlink:href="#DejaVuSans-63" x="497.615234"/>
     <use xlink:href="#DejaVuSans-75" x="552.595703"/>
     <use xlink:href="#DejaVuSans-72" x="615.974609"/>
     <use xlink:href="#DejaVuSans-72" x="655.337891"/>
     <use xlink:href="#DejaVuSans-65" x="694.201172"/>
     <use xlink:href="#DejaVuSans-6e" x="755.724609"/>
     <use xlink:href="#DejaVuSans-74" x="819.103516"/>
     <use xlink:href="#DejaVuSans-20" x="858.3125"/>
     <use xlink:href="#DejaVuSans-73" x="890.099609"/>
     <use xlink:href="#DejaVuSans-6c" x="942.199219"/>
     <use xlink:href="#DejaVuSans-69" x="969.982422"/>
     <use xlink:href="#DejaVuSans-63" x="997.765625"/>
     <use xlink:href="#DejaVuSans-65" x="1052.746094"/>
     <use xlink:href="#DejaVuSans-3a" x="1114.269531"/>
     <use xlink:href="#DejaVuSans-20" x="1147.960938"/>
     <use xlink:href="#DejaVuSans-33" x="1179.748047"/>
     <use xlink:href="#DejaVuSans-33" x="1243.371094"/>
     <use xlink:href="#DejaVuSans-31" x="1306.994141"/>
     <use xlink:href="#DejaVuSans-2e" x="1370.617188"/>
     <use xlink:href="#DejaVuSans-35" x="1402.404297"/>
     <use xlink:href="#DejaVuSans-4d" x="1466.027344"/>
     <use xlink:href="#DejaVuSans-20" x="1552.306641"/>
     <use xlink:href="#DejaVuSans-65" x="1584.09375"/>
     <use xlink:href="#DejaVuSans-76" x="1645.617188"/>
     <use xlink:href="#DejaVuSans-65" x="1704.796875"/>
     <use xlink:href="#DejaVuSans-6e" x="1766.320312"/>
     <use xlink:href="#DejaVuSans-74" x="1829.699219"/>
     <use xlink:href="#DejaVuSans-73" x="1868.908203"/>
    </g>
    <!-- Raw horizon: 473.4M events -->
    <g style="fill: #161514" transform="translate(837.0878 441.62106) scale(0.1 -0.1)">
     <defs>
      <path id="DejaVuSans-52" d="M 2841 2188 
Q 3044 2119 3236 1894 
Q 3428 1669 3622 1275 
L 4263 0 
L 3584 0 
L 2988 1197 
Q 2756 1666 2539 1819 
Q 2322 1972 1947 1972 
L 1259 1972 
L 1259 0 
L 628 0 
L 628 4666 
L 2053 4666 
Q 2853 4666 3247 4331 
Q 3641 3997 3641 3322 
Q 3641 2881 3436 2590 
Q 3231 2300 2841 2188 
z
M 1259 4147 
L 1259 2491 
L 2053 2491 
Q 2509 2491 2742 2702 
Q 2975 2913 2975 3322 
Q 2975 3731 2742 3939 
Q 2509 4147 2053 4147 
L 1259 4147 
z
" transform="scale(0.015625)"/>
      <path id="DejaVuSans-77" d="M 269 3500 
L 844 3500 
L 1563 769 
L 2278 3500 
L 2956 3500 
L 3675 769 
L 4391 3500 
L 4966 3500 
L 4050 0 
L 3372 0 
L 2619 2869 
L 1863 0 
L 1184 0 
L 269 3500 
z
" transform="scale(0.015625)"/>
      <path id="DejaVuSans-68" d="M 3513 2113 
L 3513 0 
L 2938 0 
L 2938 2094 
Q 2938 2591 2744 2837 
Q 2550 3084 2163 3084 
Q 1697 3084 1428 2787 
Q 1159 2491 1159 1978 
L 1159 0 
L 581 0 
L 581 4863 
L 1159 4863 
L 1159 2956 
Q 1366 3272 1645 3428 
Q 1925 3584 2291 3584 
Q 2894 3584 3203 3211 
Q 3513 2838 3513 2113 
z
" transform="scale(0.015625)"/>
      <path id="DejaVuSans-7a" d="M 353 3500 
L 3084 3500 
L 3084 2975 
L 922 459 
L 3084 459 
L 3084 0 
L 275 0 
L 275 525 
L 2438 3041 
L 353 3041 
L 353 3500 
z
" transform="scale(0.015625)"/>
      <path id="DejaVuSans-37" d="M 525 4666 
L 3525 4666 
L 3525 4397 
L 1831 0 
L 1172 0 
L 2766 4134 
L 525 4134 
L 525 4666 
z
" transform="scale(0.015625)"/>
     </defs>
     <use xlink:href="#DejaVuSans-52"/>
     <use xlink:href="#DejaVuSans-61" x="67.232422"/>
     <use xlink:href="#DejaVuSans-77" x="128.511719"/>
     <use xlink:href="#DejaVuSans-20" x="210.298828"/>
     <use xlink:href="#DejaVuSans-68" x="242.085938"/>
     <use xlink:href="#DejaVuSans-6f" x="305.464844"/>
     <use xlink:href="#DejaVuSans-72" x="366.646484"/>
     <use xlink:href="#DejaVuSans-69" x="407.759766"/>
     <use xlink:href="#DejaVuSans-7a" x="435.542969"/>
     <use xlink:href="#DejaVuSans-6f" x="488.033203"/>
     <use xlink:href="#DejaVuSans-6e" x="549.214844"/>
     <use xlink:href="#DejaVuSans-3a" x="612.59375"/>
     <use xlink:href="#DejaVuSans-20" x="646.285156"/>
     <use xlink:href="#DejaVuSans-34" x="678.072266"/>
     <use xlink:href="#DejaVuSans-37" x="741.695312"/>
     <use xlink:href="#DejaVuSans-33" x="805.318359"/>
     <use xlink:href="#DejaVuSans-2e" x="868.941406"/>
     <use xlink:href="#DejaVuSans-34" x="900.728516"/>
     <use xlink:href="#DejaVuSans-4d" x="964.351562"/>
     <use xlink:href="#DejaVuSans-20" x="1050.630859"/>
     <use xlink:href="#DejaVuSans-65" x="1082.417969"/>
     <use xlink:href="#DejaVuSans-76" x="1143.941406"/>
     <use xlink:href="#DejaVuSans-65" x="1203.121094"/>
     <use xlink:href="#DejaVuSans-6e" x="1264.644531"/>
     <use xlink:href="#DejaVuSans-74" x="1328.023438"/>
     <use xlink:href="#DejaVuSans-73" x="1367.232422"/>
    </g>
    <!-- Excess horizon beyond slice: 141.9M events -->
    <g style="fill: #161514" transform="translate(757.986238 452.818872) scale(0.1 -0.1)">
     <defs>
      <path id="DejaVuSans-45" d="M 628 4666 
L 3578 4666 
L 3578 4134 
L 1259 4134 
L 1259 2753 
L 3481 2753 
L 3481 2222 
L 1259 2222 
L 1259 531 
L 3634 531 
L 3634 0 
L 628 0 
L 628 4666 
z
" transform="scale(0.015625)"/>
      <path id="DejaVuSans-78" d="M 3513 3500 
L 2247 1797 
L 3578 0 
L 2900 0 
L 1881 1375 
L 863 0 
L 184 0 
L 1544 1831 
L 300 3500 
L 978 3500 
L 1906 2253 
L 2834 3500 
L 3513 3500 
z
" transform="scale(0.015625)"/>
      <path id="DejaVuSans-39" d="M 703 97 
L 703 672 
Q 941 559 1184 500 
Q 1428 441 1663 441 
Q 2288 441 2617 861 
Q 2947 1281 2994 2138 
Q 2813 1869 2534 1725 
Q 2256 1581 1919 1581 
Q 1219 1581 811 2004 
Q 403 2428 403 3163 
Q 403 3881 828 4315 
Q 1253 4750 1959 4750 
Q 2769 4750 3195 4129 
Q 3622 3509 3622 2328 
Q 3622 1225 3098 567 
Q 2575 -91 1691 -91 
Q 1453 -91 1209 -44 
Q 966 3 703 97 
z
M 1959 2075 
Q 2384 2075 2632 2365 
Q 2881 2656 2881 3163 
Q 2881 3666 2632 3958 
Q 2384 4250 1959 4250 
Q 1534 4250 1286 3958 
Q 1038 3666 1038 3163 
Q 1038 2656 1286 2365 
Q 1534 2075 1959 2075 
z
" transform="scale(0.015625)"/>
     </defs>
     <use xlink:href="#DejaVuSans-45"/>
     <use xlink:href="#DejaVuSans-78" x="63.183594"/>
     <use xlink:href="#DejaVuSans-63" x="120.613281"/>
     <use xlink:href="#DejaVuSans-65" x="175.59375"/>
     <use xlink:href="#DejaVuSans-73" x="237.117188"/>
     <use xlink:href="#DejaVuSans-73" x="289.216797"/>
     <use xlink:href="#DejaVuSans-20" x="341.316406"/>
     <use xlink:href="#DejaVuSans-68" x="373.103516"/>
     <use xlink:href="#DejaVuSans-6f" x="436.482422"/>
     <use xlink:href="#DejaVuSans-72" x="497.664062"/>
     <use xlink:href="#DejaVuSans-69" x="538.777344"/>
     <use xlink:href="#DejaVuSans-7a" x="566.560547"/>
     <use xlink:href="#DejaVuSans-6f" x="619.050781"/>
     <use xlink:href="#DejaVuSans-6e" x="680.232422"/>
     <use xlink:href="#DejaVuSans-20" x="743.611328"/>
     <use xlink:href="#DejaVuSans-62" x="775.398438"/>
     <use xlink:href="#DejaVuSans-65" x="838.875"/>
     <use xlink:href="#DejaVuSans-79" x="900.398438"/>
     <use xlink:href="#DejaVuSans-6f" x="959.578125"/>
     <use xlink:href="#DejaVuSans-6e" x="1020.759766"/>
     <use xlink:href="#DejaVuSans-64" x="1084.138672"/>
     <use xlink:href="#DejaVuSans-20" x="1147.615234"/>
     <use xlink:href="#DejaVuSans-73" x="1179.402344"/>
     <use xlink:href="#DejaVuSans-6c" x="1231.501953"/>
     <use xlink:href="#DejaVuSans-69" x="1259.285156"/>
     <use xlink:href="#DejaVuSans-63" x="1287.068359"/>
     <use xlink:href="#DejaVuSans-65" x="1342.048828"/>
     <use xlink:href="#DejaVuSans-3a" x="1403.572266"/>
     <use xlink:href="#DejaVuSans-20" x="1437.263672"/>
     <use xlink:href="#DejaVuSans-31" x="1469.050781"/>
     <use xlink:href="#DejaVuSans-34" x="1532.673828"/>
     <use xlink:href="#DejaVuSans-31" x="1596.296875"/>
     <use xlink:href="#DejaVuSans-2e" x="1659.919922"/>
     <use xlink:href="#DejaVuSans-39" x="1691.707031"/>
     <use xlink:href="#DejaVuSans-4d" x="1755.330078"/>
     <use xlink:href="#DejaVuSans-20" x="1841.609375"/>
     <use xlink:href="#DejaVuSans-65" x="1873.396484"/>
     <use xlink:href="#DejaVuSans-76" x="1934.919922"/>
     <use xlink:href="#DejaVuSans-65" x="1994.099609"/>
     <use xlink:href="#DejaVuSans-6e" x="2055.623047"/>
     <use xlink:href="#DejaVuSans-74" x="2119.001953"/>
     <use xlink:href="#DejaVuSans-73" x="2158.210938"/>
    </g>
   </g>
   <g id="legend_1">
    <g id="line2d_18">
     <path d="M 52.78125 122.399318 
L 62.78125 122.399318 
L 72.78125 122.399318 
" style="fill: none; stroke: #204b57; stroke-opacity: 0.35; stroke-width: 1.4; stroke-linecap: square"/>
    </g>
    <g id="text_14">
     <!-- Daily event volume -->
     <g transform="translate(80.78125 125.899318) scale(0.1 -0.1)">
      <use xlink:href="#DejaVuSans-44"/>
      <use xlink:href="#DejaVuSans-61" x="77.001953"/>
      <use xlink:href="#DejaVuSans-69" x="138.28125"/>
      <use xlink:href="#DejaVuSans-6c" x="166.064453"/>
      <use xlink:href="#DejaVuSans-79" x="193.847656"/>
      <use xlink:href="#DejaVuSans-20" x="253.027344"/>
      <use xlink:href="#DejaVuSans-65" x="284.814453"/>
      <use xlink:href="#DejaVuSans-76" x="346.337891"/>
      <use xlink:href="#DejaVuSans-65" x="405.517578"/>
      <use xlink:href="#DejaVuSans-6e" x="467.041016"/>
      <use xlink:href="#DejaVuSans-74" x="530.419922"/>
      <use xlink:href="#DejaVuSans-20" x="569.628906"/>
      <use xlink:href="#DejaVuSans-76" x="601.416016"/>
      <use xlink:href="#DejaVuSans-6f" x="660.595703"/>
      <use xlink:href="#DejaVuSans-6c" x="721.777344"/>
      <use xlink:href="#DejaVuSans-75" x="749.560547"/>
      <use xlink:href="#DejaVuSans-6d" x="812.939453"/>
      <use xlink:href="#DejaVuSans-65" x="910.351562"/>
     </g>
    </g>
    <g id="line2d_19">
     <path d="M 197.970313 122.399318 
L 207.970313 122.399318 
L 217.970313 122.399318 
" style="fill: none; stroke: #b5653a; stroke-width: 2.7; stroke-linecap: square"/>
    </g>
    <g id="text_15">
     <!-- 7-day rolling average -->
     <g transform="translate(225.970313 125.899318) scale(0.1 -0.1)">
      <defs>
       <path id="DejaVuSans-67" d="M 2906 1791 
Q 2906 2416 2648 2759 
Q 2391 3103 1925 3103 
Q 1463 3103 1205 2759 
Q 947 2416 947 1791 
Q 947 1169 1205 825 
Q 1463 481 1925 481 
Q 2391 481 2648 825 
Q 2906 1169 2906 1791 
z
M 3481 434 
Q 3481 -459 3084 -895 
Q 2688 -1331 1869 -1331 
Q 1566 -1331 1297 -1286 
Q 1028 -1241 775 -1147 
L 775 -588 
Q 1028 -725 1275 -790 
Q 1522 -856 1778 -856 
Q 2344 -856 2625 -561 
Q 2906 -266 2906 331 
L 2906 616 
Q 2728 306 2450 153 
Q 2172 0 1784 0 
Q 1141 0 747 490 
Q 353 981 353 1791 
Q 353 2603 747 3093 
Q 1141 3584 1784 3584 
Q 2172 3584 2450 3431 
Q 2728 3278 2906 2969 
L 2906 3500 
L 3481 3500 
L 3481 434 
z
" transform="scale(0.015625)"/>
      </defs>
      <use xlink:href="#DejaVuSans-37"/>
      <use xlink:href="#DejaVuSans-2d" x="63.623047"/>
      <use xlink:href="#DejaVuSans-64" x="99.707031"/>
      <use xlink:href="#DejaVuSans-61" x="163.183594"/>
      <use xlink:href="#DejaVuSans-79" x="224.462891"/>
      <use xlink:href="#DejaVuSans-20" x="283.642578"/>
      <use xlink:href="#DejaVuSans-72" x="315.429688"/>
      <use xlink:href="#DejaVuSans-6f" x="354.292969"/>
      <use xlink:href="#DejaVuSans-6c" x="415.474609"/>
      <use xlink:href="#DejaVuSans-6c" x="443.257812"/>
      <use xlink:href="#DejaVuSans-69" x="471.041016"/>
      <use xlink:href="#DejaVuSans-6e" x="498.824219"/>
      <use xlink:href="#DejaVuSans-67" x="562.203125"/>
      <use xlink:href="#DejaVuSans-20" x="625.679688"/>
      <use xlink:href="#DejaVuSans-61" x="657.466797"/>
      <use xlink:href="#DejaVuSans-76" x="718.746094"/>
      <use xlink:href="#DejaVuSans-65" x="777.925781"/>
      <use xlink:href="#DejaVuSans-72" x="839.449219"/>
      <use xlink:href="#DejaVuSans-61" x="880.5625"/>
      <use xlink:href="#DejaVuSans-67" x="941.841797"/>
      <use xlink:href="#DejaVuSans-65" x="1005.318359"/>
     </g>
    </g>
    <g id="patch_10">
     <path d="M 352.657812 125.899318 
L 372.657812 125.899318 
L 372.657812 118.899318 
L 352.657812 118.899318 
z
" style="fill: #e8ded2; opacity: 0.55; stroke: #e8ded2; stroke-linejoin: miter"/>
    </g>
    <g id="text_16">
     <!-- Raw-horizon remainder -->
     <g transform="translate(380.657812 125.899318) scale(0.1 -0.1)">
      <use xlink:href="#DejaVuSans-52"/>
      <use xlink:href="#DejaVuSans-61" x="67.232422"/>
      <use xlink:href="#DejaVuSans-77" x="128.511719"/>
      <use xlink:href="#DejaVuSans-2d" x="210.298828"/>
      <use xlink:href="#DejaVuSans-68" x="246.382812"/>
      <use xlink:href="#DejaVuSans-6f" x="309.761719"/>
      <use xlink:href="#DejaVuSans-72" x="370.943359"/>
      <use xlink:href="#DejaVuSans-69" x="412.056641"/>
      <use xlink:href="#DejaVuSans-7a" x="439.839844"/>
      <use xlink:href="#DejaVuSans-6f" x="492.330078"/>
      <use xlink:href="#DejaVuSans-6e" x="553.511719"/>
      <use xlink:href="#DejaVuSans-20" x="616.890625"/>
      <use xlink:href="#DejaVuSans-72" x="648.677734"/>
      <use xlink:href="#DejaVuSans-65" x="687.541016"/>
      <use xlink:href="#DejaVuSans-6d" x="749.064453"/>
      <use xlink:href="#DejaVuSans-61" x="846.476562"/>
      <use xlink:href="#DejaVuSans-69" x="907.755859"/>
      <use xlink:href="#DejaVuSans-6e" x="935.539062"/>
      <use xlink:href="#DejaVuSans-64" x="998.917969"/>
      <use xlink:href="#DejaVuSans-65" x="1062.394531"/>
      <use xlink:href="#DejaVuSans-72" x="1123.917969"/>
     </g>
    </g>
   </g>
  </g>
  <g id="text_17">
   <!-- Appendix B Panel 4 — Current Slice vs Raw Horizon -->
   <g style="fill: #161514" transform="translate(56.54125 21.637031) scale(0.19 -0.19)">
    <defs>
     <path id="DejaVuSans-Bold-41" d="M 3419 850 
L 1538 850 
L 1241 0 
L 31 0 
L 1759 4666 
L 3194 4666 
L 4922 0 
L 3713 0 
L 3419 850 
z
M 1838 1716 
L 3116 1716 
L 2478 3572 
L 1838 1716 
z
" transform="scale(0.015625)"/>
     <path id="DejaVuSans-Bold-70" d="M 1656 506 
L 1656 -1331 
L 538 -1331 
L 538 3500 
L 1656 3500 
L 1656 2988 
Q 1888 3294 2169 3439 
Q 2450 3584 2816 3584 
Q 3463 3584 3878 3070 
Q 4294 2556 4294 1747 
Q 4294 938 3878 423 
Q 3463 -91 2816 -91 
Q 2450 -91 2169 54 
Q 1888 200 1656 506 
z
M 2400 2772 
Q 2041 2772 1848 2508 
Q 1656 2244 1656 1747 
Q 1656 1250 1848 986 
Q 2041 722 2400 722 
Q 2759 722 2948 984 
Q 3138 1247 3138 1747 
Q 3138 2247 2948 2509 
Q 2759 2772 2400 2772 
z
" transform="scale(0.015625)"/>
     <path id="DejaVuSans-Bold-65" d="M 4031 1759 
L 4031 1441 
L 1416 1441 
Q 1456 1047 1700 850 
Q 1944 653 2381 653 
Q 2734 653 3104 758 
Q 3475 863 3866 1075 
L 3866 213 
Q 3469 63 3072 -14 
Q 2675 -91 2278 -91 
Q 1328 -91 801 392 
Q 275 875 275 1747 
Q 275 2603 792 3093 
Q 1309 3584 2216 3584 
Q 3041 3584 3536 3087 
Q 4031 2591 4031 1759 
z
M 2881 2131 
Q 2881 2450 2695 2645 
Q 2509 2841 2209 2841 
Q 1884 2841 1681 2658 
Q 1478 2475 1428 2131 
L 2881 2131 
z
" transform="scale(0.015625)"/>
     <path id="DejaVuSans-Bold-6e" d="M 4056 2131 
L 4056 0 
L 2931 0 
L 2931 347 
L 2931 1631 
Q 2931 2084 2911 2256 
Q 2891 2428 2841 2509 
Q 2775 2619 2662 2680 
Q 2550 2741 2406 2741 
Q 2056 2741 1856 2470 
Q 1656 2200 1656 1722 
L 1656 0 
L 538 0 
L 538 3500 
L 1656 3500 
L 1656 2988 
Q 1909 3294 2193 3439 
Q 2478 3584 2822 3584 
Q 3428 3584 3742 3212 
Q 4056 2841 4056 2131 
z
" transform="scale(0.015625)"/>
     <path id="DejaVuSans-Bold-64" d="M 2919 2988 
L 2919 4863 
L 4044 4863 
L 4044 0 
L 2919 0 
L 2919 506 
Q 2688 197 2409 53 
Q 2131 -91 1766 -91 
Q 1119 -91 703 423 
Q 288 938 288 1747 
Q 288 2556 703 3070 
Q 1119 3584 1766 3584 
Q 2128 3584 2408 3439 
Q 2688 3294 2919 2988 
z
M 2181 722 
Q 2541 722 2730 984 
Q 2919 1247 2919 1747 
Q 2919 2247 2730 2509 
Q 2541 2772 2181 2772 
Q 1825 2772 1636 2509 
Q 1447 2247 1447 1747 
Q 1447 1247 1636 984 
Q 1825 722 2181 722 
z
" transform="scale(0.015625)"/>
     <path id="DejaVuSans-Bold-69" d="M 538 3500 
L 1656 3500 
L 1656 0 
L 538 0 
L 538 3500 
z
M 538 4863 
L 1656 4863 
L 1656 3950 
L 538 3950 
L 538 4863 
z
" transform="scale(0.015625)"/>
     <path id="DejaVuSans-Bold-78" d="M 1422 1791 
L 159 3500 
L 1344 3500 
L 2059 2463 
L 2784 3500 
L 3969 3500 
L 2706 1797 
L 4031 0 
L 2847 0 
L 2059 1106 
L 1281 0 
L 97 0 
L 1422 1791 
z
" transform="scale(0.015625)"/>
     <path id="DejaVuSans-Bold-20" transform="scale(0.015625)"/>
     <path id="DejaVuSans-Bold-42" d="M 2456 2859 
Q 2741 2859 2887 2984 
Q 3034 3109 3034 3353 
Q 3034 3594 2887 3720 
Q 2741 3847 2456 3847 
L 1791 3847 
L 1791 2859 
L 2456 2859 
z
M 2497 819 
Q 2859 819 3042 972 
Q 3225 1125 3225 1434 
Q 3225 1738 3044 1889 
Q 2863 2041 2497 2041 
L 1791 2041 
L 1791 819 
L 2497 819 
z
M 3616 2497 
Q 4003 2384 4215 2081 
Q 4428 1778 4428 1338 
Q 4428 663 3972 331 
Q 3516 0 2584 0 
L 588 0 
L 588 4666 
L 2394 4666 
Q 3366 4666 3802 4372 
Q 4238 4078 4238 3431 
Q 4238 3091 4078 2852 
Q 3919 2613 3616 2497 
z
" transform="scale(0.015625)"/>
     <path id="DejaVuSans-Bold-50" d="M 588 4666 
L 2584 4666 
Q 3475 4666 3951 4270 
Q 4428 3875 4428 3144 
Q 4428 2409 3951 2014 
Q 3475 1619 2584 1619 
L 1791 1619 
L 1791 0 
L 588 0 
L 588 4666 
z
M 1791 3794 
L 1791 2491 
L 2456 2491 
Q 2806 2491 2997 2661 
Q 3188 2831 3188 3144 
Q 3188 3456 2997 3625 
Q 2806 3794 2456 3794 
L 1791 3794 
z
" transform="scale(0.015625)"/>
     <path id="DejaVuSans-Bold-61" d="M 2106 1575 
Q 1756 1575 1579 1456 
Q 1403 1338 1403 1106 
Q 1403 894 1545 773 
Q 1688 653 1941 653 
Q 2256 653 2472 879 
Q 2688 1106 2688 1447 
L 2688 1575 
L 2106 1575 
z
M 3816 1997 
L 3816 0 
L 2688 0 
L 2688 519 
Q 2463 200 2181 54 
Q 1900 -91 1497 -91 
Q 953 -91 614 226 
Q 275 544 275 1050 
Q 275 1666 698 1953 
Q 1122 2241 2028 2241 
L 2688 2241 
L 2688 2328 
Q 2688 2594 2478 2717 
Q 2269 2841 1825 2841 
Q 1466 2841 1156 2769 
Q 847 2697 581 2553 
L 581 3406 
Q 941 3494 1303 3539 
Q 1666 3584 2028 3584 
Q 2975 3584 3395 3211 
Q 3816 2838 3816 1997 
z
" transform="scale(0.015625)"/>
     <path id="DejaVuSans-Bold-6c" d="M 538 4863 
L 1656 4863 
L 1656 0 
L 538 0 
L 538 4863 
z
" transform="scale(0.015625)"/>
     <path id="DejaVuSans-Bold-34" d="M 2356 3675 
L 1038 1722 
L 2356 1722 
L 2356 3675 
z
M 2156 4666 
L 3494 4666 
L 3494 1722 
L 4159 1722 
L 4159 850 
L 3494 850 
L 3494 0 
L 2356 0 
L 2356 850 
L 288 850 
L 288 1881 
L 2156 4666 
z
" transform="scale(0.015625)"/>
     <path id="DejaVuSans-Bold-2014" d="M 344 2156 
L 6056 2156 
L 6056 1350 
L 344 1350 
L 344 2156 
z
" transform="scale(0.015625)"/>
     <path id="DejaVuSans-Bold-43" d="M 4288 256 
Q 3956 84 3597 -3 
Q 3238 -91 2847 -91 
Q 1681 -91 1000 561 
Q 319 1213 319 2328 
Q 319 3447 1000 4098 
Q 1681 4750 2847 4750 
Q 3238 4750 3597 4662 
Q 3956 4575 4288 4403 
L 4288 3438 
Q 3953 3666 3628 3772 
Q 3303 3878 2944 3878 
Q 2300 3878 1931 3465 
Q 1563 3053 1563 2328 
Q 1563 1606 1931 1193 
Q 2300 781 2944 781 
Q 3303 781 3628 887 
Q 3953 994 4288 1222 
L 4288 256 
z
" transform="scale(0.015625)"/>
     <path id="DejaVuSans-Bold-75" d="M 500 1363 
L 500 3500 
L 1625 3500 
L 1625 3150 
Q 1625 2866 1622 2436 
Q 1619 2006 1619 1863 
Q 1619 1441 1641 1255 
Q 1663 1069 1716 984 
Q 1784 875 1895 815 
Q 2006 756 2150 756 
Q 2500 756 2700 1025 
Q 2900 1294 2900 1772 
L 2900 3500 
L 4019 3500 
L 4019 0 
L 2900 0 
L 2900 506 
Q 2647 200 2364 54 
Q 2081 -91 1741 -91 
Q 1134 -91 817 281 
Q 500 653 500 1363 
z
" transform="scale(0.015625)"/>
     <path id="DejaVuSans-Bold-72" d="M 3138 2547 
Q 2991 2616 2845 2648 
Q 2700 2681 2553 2681 
Q 2122 2681 1889 2404 
Q 1656 2128 1656 1613 
L 1656 0 
L 538 0 
L 538 3500 
L 1656 3500 
L 1656 2925 
Q 1872 3269 2151 3426 
Q 2431 3584 2822 3584 
Q 2878 3584 2943 3579 
Q 3009 3575 3134 3559 
L 3138 2547 
z
" transform="scale(0.015625)"/>
     <path id="DejaVuSans-Bold-74" d="M 1759 4494 
L 1759 3500 
L 2913 3500 
L 2913 2700 
L 1759 2700 
L 1759 1216 
Q 1759 972 1856 886 
Q 1953 800 2241 800 
L 2816 800 
L 2816 0 
L 1856 0 
Q 1194 0 917 276 
Q 641 553 641 1216 
L 641 2700 
L 84 2700 
L 84 3500 
L 641 3500 
L 641 4494 
L 1759 4494 
z
" transform="scale(0.015625)"/>
     <path id="DejaVuSans-Bold-53" d="M 3834 4519 
L 3834 3531 
Q 3450 3703 3084 3790 
Q 2719 3878 2394 3878 
Q 1963 3878 1756 3759 
Q 1550 3641 1550 3391 
Q 1550 3203 1689 3098 
Q 1828 2994 2194 2919 
L 2706 2816 
Q 3484 2659 3812 2340 
Q 4141 2022 4141 1434 
Q 4141 663 3683 286 
Q 3225 -91 2284 -91 
Q 1841 -91 1394 -6 
Q 947 78 500 244 
L 500 1259 
Q 947 1022 1364 901 
Q 1781 781 2169 781 
Q 2563 781 2772 912 
Q 2981 1044 2981 1288 
Q 2981 1506 2839 1625 
Q 2697 1744 2272 1838 
L 1806 1941 
Q 1106 2091 782 2419 
Q 459 2747 459 3303 
Q 459 4000 909 4375 
Q 1359 4750 2203 4750 
Q 2588 4750 2994 4692 
Q 3400 4634 3834 4519 
z
" transform="scale(0.015625)"/>
     <path id="DejaVuSans-Bold-63" d="M 3366 3391 
L 3366 2478 
Q 3138 2634 2908 2709 
Q 2678 2784 2431 2784 
Q 1963 2784 1702 2511 
Q 1441 2238 1441 1747 
Q 1441 1256 1702 982 
Q 1963 709 2431 709 
Q 2694 709 2930 787 
Q 3166 866 3366 1019 
L 3366 103 
Q 3103 6 2833 -42 
Q 2563 -91 2291 -91 
Q 1344 -91 809 395 
Q 275 881 275 1747 
Q 275 2613 809 3098 
Q 1344 3584 2291 3584 
Q 2566 3584 2833 3536 
Q 3100 3488 3366 3391 
z
" transform="scale(0.015625)"/>
     <path id="DejaVuSans-Bold-76" d="M 97 3500 
L 1216 3500 
L 2088 1081 
L 2956 3500 
L 4078 3500 
L 2700 0 
L 1472 0 
L 97 3500 
z
" transform="scale(0.015625)"/>
     <path id="DejaVuSans-Bold-73" d="M 3272 3391 
L 3272 2541 
Q 2913 2691 2578 2766 
Q 2244 2841 1947 2841 
Q 1628 2841 1473 2761 
Q 1319 2681 1319 2516 
Q 1319 2381 1436 2309 
Q 1553 2238 1856 2203 
L 2053 2175 
Q 2913 2066 3209 1816 
Q 3506 1566 3506 1031 
Q 3506 472 3093 190 
Q 2681 -91 1863 -91 
Q 1516 -91 1145 -36 
Q 775 19 384 128 
L 384 978 
Q 719 816 1070 734 
Q 1422 653 1784 653 
Q 2113 653 2278 743 
Q 2444 834 2444 1013 
Q 2444 1163 2330 1236 
Q 2216 1309 1875 1350 
L 1678 1375 
Q 931 1469 631 1722 
Q 331 1975 331 2491 
Q 331 3047 712 3315 
Q 1094 3584 1881 3584 
Q 2191 3584 2531 3537 
Q 2872 3491 3272 3391 
z
" transform="scale(0.015625)"/>
     <path id="DejaVuSans-Bold-52" d="M 2297 2597 
Q 2675 2597 2839 2737 
Q 3003 2878 3003 3200 
Q 3003 3519 2839 3656 
Q 2675 3794 2297 3794 
L 1791 3794 
L 1791 2597 
L 2297 2597 
z
M 1791 1766 
L 1791 0 
L 588 0 
L 588 4666 
L 2425 4666 
Q 3347 4666 3776 4356 
Q 4206 4047 4206 3378 
Q 4206 2916 3982 2619 
Q 3759 2322 3309 2181 
Q 3556 2125 3751 1926 
Q 3947 1728 4147 1325 
L 4800 0 
L 3519 0 
L 2950 1159 
Q 2778 1509 2601 1637 
Q 2425 1766 2131 1766 
L 1791 1766 
z
" transform="scale(0.015625)"/>
     <path id="DejaVuSans-Bold-77" d="M 225 3500 
L 1313 3500 
L 1900 1088 
L 2491 3500 
L 3425 3500 
L 4013 1113 
L 4603 3500 
L 5691 3500 
L 4769 0 
L 3547 0 
L 2956 2406 
L 2369 0 
L 1147 0 
L 225 3500 
z
" transform="scale(0.015625)"/>
     <path id="DejaVuSans-Bold-48" d="M 588 4666 
L 1791 4666 
L 1791 2888 
L 3566 2888 
L 3566 4666 
L 4769 4666 
L 4769 0 
L 3566 0 
L 3566 1978 
L 1791 1978 
L 1791 0 
L 588 0 
L 588 4666 
z
" transform="scale(0.015625)"/>
     <path id="DejaVuSans-Bold-6f" d="M 2203 2784 
Q 1831 2784 1636 2517 
Q 1441 2250 1441 1747 
Q 1441 1244 1636 976 
Q 1831 709 2203 709 
Q 2569 709 2762 976 
Q 2956 1244 2956 1747 
Q 2956 2250 2762 2517 
Q 2569 2784 2203 2784 
z
M 2203 3584 
Q 3106 3584 3614 3096 
Q 4122 2609 4122 1747 
Q 4122 884 3614 396 
Q 3106 -91 2203 -91 
Q 1297 -91 786 396 
Q 275 884 275 1747 
Q 275 2609 786 3096 
Q 1297 3584 2203 3584 
z
" transform="scale(0.015625)"/>
     <path id="DejaVuSans-Bold-7a" d="M 366 3500 
L 3419 3500 
L 3419 2719 
L 1575 800 
L 3419 800 
L 3419 0 
L 288 0 
L 288 781 
L 2131 2700 
L 366 2700 
L 366 3500 
z
" transform="scale(0.015625)"/>
    </defs>
    <use xlink:href="#DejaVuSans-Bold-41"/>
    <use xlink:href="#DejaVuSans-Bold-70" x="77.392578"/>
    <use xlink:href="#DejaVuSans-Bold-70" x="148.974609"/>
    <use xlink:href="#DejaVuSans-Bold-65" x="220.556641"/>
    <use xlink:href="#DejaVuSans-Bold-6e" x="288.378906"/>
    <use xlink:href="#DejaVuSans-Bold-64" x="359.570312"/>
    <use xlink:href="#DejaVuSans-Bold-69" x="431.152344"/>
    <use xlink:href="#DejaVuSans-Bold-78" x="465.429688"/>
    <use xlink:href="#DejaVuSans-Bold-20" x="529.931641"/>
    <use xlink:href="#DejaVuSans-Bold-42" x="564.746094"/>
    <use xlink:href="#DejaVuSans-Bold-20" x="640.966797"/>
    <use xlink:href="#DejaVuSans-Bold-50" x="675.78125"/>
    <use xlink:href="#DejaVuSans-Bold-61" x="746.447266"/>
    <use xlink:href="#DejaVuSans-Bold-6e" x="813.927734"/>
    <use xlink:href="#DejaVuSans-Bold-65" x="885.119141"/>
    <use xlink:href="#DejaVuSans-Bold-6c" x="952.941406"/>
    <use xlink:href="#DejaVuSans-Bold-20" x="987.21875"/>
    <use xlink:href="#DejaVuSans-Bold-34" x="1022.033203"/>
    <use xlink:href="#DejaVuSans-Bold-20" x="1091.613281"/>
    <use xlink:href="#DejaVuSans-Bold-2014" x="1126.427734"/>
    <use xlink:href="#DejaVuSans-Bold-20" x="1226.427734"/>
    <use xlink:href="#DejaVuSans-Bold-43" x="1261.242188"/>
    <use xlink:href="#DejaVuSans-Bold-75" x="1334.630859"/>
    <use xlink:href="#DejaVuSans-Bold-72" x="1405.822266"/>
    <use xlink:href="#DejaVuSans-Bold-72" x="1455.138672"/>
    <use xlink:href="#DejaVuSans-Bold-65" x="1504.455078"/>
    <use xlink:href="#DejaVuSans-Bold-6e" x="1572.277344"/>
    <use xlink:href="#DejaVuSans-Bold-74" x="1643.46875"/>
    <use xlink:href="#DejaVuSans-Bold-20" x="1691.271484"/>
    <use xlink:href="#DejaVuSans-Bold-53" x="1726.085938"/>
    <use xlink:href="#DejaVuSans-Bold-6c" x="1798.107422"/>
    <use xlink:href="#DejaVuSans-Bold-69" x="1832.384766"/>
    <use xlink:href="#DejaVuSans-Bold-63" x="1866.662109"/>
    <use xlink:href="#DejaVuSans-Bold-65" x="1925.939453"/>
    <use xlink:href="#DejaVuSans-Bold-20" x="1993.761719"/>
    <use xlink:href="#DejaVuSans-Bold-76" x="2028.576172"/>
    <use xlink:href="#DejaVuSans-Bold-73" x="2093.761719"/>
    <use xlink:href="#DejaVuSans-Bold-20" x="2153.283203"/>
    <use xlink:href="#DejaVuSans-Bold-52" x="2188.097656"/>
    <use xlink:href="#DejaVuSans-Bold-61" x="2265.099609"/>
    <use xlink:href="#DejaVuSans-Bold-77" x="2332.580078"/>
    <use xlink:href="#DejaVuSans-Bold-20" x="2424.962891"/>
    <use xlink:href="#DejaVuSans-Bold-48" x="2459.777344"/>
    <use xlink:href="#DejaVuSans-Bold-6f" x="2543.46875"/>
    <use xlink:href="#DejaVuSans-Bold-72" x="2612.169922"/>
    <use xlink:href="#DejaVuSans-Bold-69" x="2661.486328"/>
    <use xlink:href="#DejaVuSans-Bold-7a" x="2695.763672"/>
    <use xlink:href="#DejaVuSans-Bold-6f" x="2753.966797"/>
    <use xlink:href="#DejaVuSans-Bold-6e" x="2822.667969"/>
   </g>
  </g>
  <g id="text_18">
   <!-- The bounded current slice ends on 05 Mar, while the larger raw horizon continues beyond it into 01 Apr. -->
   <g style="fill: #5e5a55" transform="translate(56.54125 40.032) scale(0.108 -0.108)">
    <defs>
     <path id="DejaVuSans-2c" d="M 750 794 
L 1409 794 
L 1409 256 
L 897 -744 
L 494 -744 
L 750 256 
L 750 794 
z
" transform="scale(0.015625)"/>
    </defs>
    <use xlink:href="#DejaVuSans-54"/>
    <use xlink:href="#DejaVuSans-68" x="61.083984"/>
    <use xlink:href="#DejaVuSans-65" x="124.462891"/>
    <use xlink:href="#DejaVuSans-20" x="185.986328"/>
    <use xlink:href="#DejaVuSans-62" x="217.773438"/>
    <use xlink:href="#DejaVuSans-6f" x="281.25"/>
    <use xlink:href="#DejaVuSans-75" x="342.431641"/>
    <use xlink:href="#DejaVuSans-6e" x="405.810547"/>
    <use xlink:href="#DejaVuSans-64" x="469.189453"/>
    <use xlink:href="#DejaVuSans-65" x="532.666016"/>
    <use xlink:href="#DejaVuSans-64" x="594.189453"/>
    <use xlink:href="#DejaVuSans-20" x="657.666016"/>
    <use xlink:href="#DejaVuSans-63" x="689.453125"/>
    <use xlink:href="#DejaVuSans-75" x="744.433594"/>
    <use xlink:href="#DejaVuSans-72" x="807.8125"/>
    <use xlink:href="#DejaVuSans-72" x="847.175781"/>
    <use xlink:href="#DejaVuSans-65" x="886.039062"/>
    <use xlink:href="#DejaVuSans-6e" x="947.5625"/>
    <use xlink:href="#DejaVuSans-74" x="1010.941406"/>
    <use xlink:href="#DejaVuSans-20" x="1050.150391"/>
    <use xlink:href="#DejaVuSans-73" x="1081.9375"/>
    <use xlink:href="#DejaVuSans-6c" x="1134.037109"/>
    <use xlink:href="#DejaVuSans-69" x="1161.820312"/>
    <use xlink:href="#DejaVuSans-63" x="1189.603516"/>
    <use xlink:href="#DejaVuSans-65" x="1244.583984"/>
    <use xlink:href="#DejaVuSans-20" x="1306.107422"/>
    <use xlink:href="#DejaVuSans-65" x="1337.894531"/>
    <use xlink:href="#DejaVuSans-6e" x="1399.417969"/>
    <use xlink:href="#DejaVuSans-64" x="1462.796875"/>
    <use xlink:href="#DejaVuSans-73" x="1526.273438"/>
    <use xlink:href="#DejaVuSans-20" x="1578.373047"/>
    <use xlink:href="#DejaVuSans-6f" x="1610.160156"/>
    <use xlink:href="#DejaVuSans-6e" x="1671.341797"/>
    <use xlink:href="#DejaVuSans-20" x="1734.720703"/>
    <use xlink:href="#DejaVuSans-30" x="1766.507812"/>
    <use xlink:href="#DejaVuSans-35" x="1830.130859"/>
    <use xlink:href="#DejaVuSans-20" x="1893.753906"/>
    <use xlink:href="#DejaVuSans-4d" x="1925.541016"/>
    <use xlink:href="#DejaVuSans-61" x="2011.820312"/>
    <use xlink:href="#DejaVuSans-72" x="2073.099609"/>
    <use xlink:href="#DejaVuSans-2c" x="2114.212891"/>
    <use xlink:href="#DejaVuSans-20" x="2146"/>
    <use xlink:href="#DejaVuSans-77" x="2177.787109"/>
    <use xlink:href="#DejaVuSans-68" x="2259.574219"/>
    <use xlink:href="#DejaVuSans-69" x="2322.953125"/>
    <use xlink:href="#DejaVuSans-6c" x="2350.736328"/>
    <use xlink:href="#DejaVuSans-65" x="2378.519531"/>
    <use xlink:href="#DejaVuSans-20" x="2440.042969"/>
    <use xlink:href="#DejaVuSans-74" x="2471.830078"/>
    <use xlink:href="#DejaVuSans-68" x="2511.039062"/>
    <use xlink:href="#DejaVuSans-65" x="2574.417969"/>
    <use xlink:href="#DejaVuSans-20" x="2635.941406"/>
    <use xlink:href="#DejaVuSans-6c" x="2667.728516"/>
    <use xlink:href="#DejaVuSans-61" x="2695.511719"/>
    <use xlink:href="#DejaVuSans-72" x="2756.791016"/>
    <use xlink:href="#DejaVuSans-67" x="2796.154297"/>
    <use xlink:href="#DejaVuSans-65" x="2859.630859"/>
    <use xlink:href="#DejaVuSans-72" x="2921.154297"/>
    <use xlink:href="#DejaVuSans-20" x="2962.267578"/>
    <use xlink:href="#DejaVuSans-72" x="2994.054688"/>
    <use xlink:href="#DejaVuSans-61" x="3035.167969"/>
    <use xlink:href="#DejaVuSans-77" x="3096.447266"/>
    <use xlink:href="#DejaVuSans-20" x="3178.234375"/>
    <use xlink:href="#DejaVuSans-68" x="3210.021484"/>
    <use xlink:href="#DejaVuSans-6f" x="3273.400391"/>
    <use xlink:href="#DejaVuSans-72" x="3334.582031"/>
    <use xlink:href="#DejaVuSans-69" x="3375.695312"/>
    <use xlink:href="#DejaVuSans-7a" x="3403.478516"/>
    <use xlink:href="#DejaVuSans-6f" x="3455.96875"/>
    <use xlink:href="#DejaVuSans-6e" x="3517.150391"/>
    <use xlink:href="#DejaVuSans-20" x="3580.529297"/>
    <use xlink:href="#DejaVuSans-63" x="3612.316406"/>
    <use xlink:href="#DejaVuSans-6f" x="3667.296875"/>
    <use xlink:href="#DejaVuSans-6e" x="3728.478516"/>
    <use xlink:href="#DejaVuSans-74" x="3791.857422"/>
    <use xlink:href="#DejaVuSans-69" x="3831.066406"/>
    <use xlink:href="#DejaVuSans-6e" x="3858.849609"/>
    <use xlink:href="#DejaVuSans-75" x="3922.228516"/>
    <use xlink:href="#DejaVuSans-65" x="3985.607422"/>
    <use xlink:href="#DejaVuSans-73" x="4047.130859"/>
    <use xlink:href="#DejaVuSans-20" x="4099.230469"/>
    <use xlink:href="#DejaVuSans-62" x="4131.017578"/>
    <use xlink:href="#DejaVuSans-65" x="4194.494141"/>
    <use xlink:href="#DejaVuSans-79" x="4256.017578"/>
    <use xlink:href="#DejaVuSans-6f" x="4315.197266"/>
    <use xlink:href="#DejaVuSans-6e" x="4376.378906"/>
    <use xlink:href="#DejaVuSans-64" x="4439.757812"/>
    <use xlink:href="#DejaVuSans-20" x="4503.234375"/>
    <use xlink:href="#DejaVuSans-69" x="4535.021484"/>
    <use xlink:href="#DejaVuSans-74" x="4562.804688"/>
    <use xlink:href="#DejaVuSans-20" x="4602.013672"/>
    <use xlink:href="#DejaVuSans-69" x="4633.800781"/>
    <use xlink:href="#DejaVuSans-6e" x="4661.583984"/>
    <use xlink:href="#DejaVuSans-74" x="4724.962891"/>
    <use xlink:href="#DejaVuSans-6f" x="4764.171875"/>
    <use xlink:href="#DejaVuSans-20" x="4825.353516"/>
    <use xlink:href="#DejaVuSans-30" x="4857.140625"/>
    <use xlink:href="#DejaVuSans-31" x="4920.763672"/>
    <use xlink:href="#DejaVuSans-20" x="4984.386719"/>
    <use xlink:href="#DejaVuSans-41" x="5016.173828"/>
    <use xlink:href="#DejaVuSans-70" x="5084.582031"/>
    <use xlink:href="#DejaVuSans-72" x="5148.058594"/>
    <use xlink:href="#DejaVuSans-2e" x="5180.046875"/>
   </g>
  </g>
 </g>
 <defs>
  <clipPath id="pfc9959e4c3">
   <rect x="43.78125" y="113.184" width="949.48" height="388.312"/>
  </clipPath>
 </defs>
</svg>
