<?xml version="1.0" encoding="utf-8" standalone="no"?>
<!DOCTYPE svg PUBLIC "-//W3C//DTD SVG 1.1//EN"
  "http://www.w3.org/Graphics/SVG/1.1/DTD/svg11.dtd">
<svg xmlns:xlink="http://www.w3.org/1999/xlink" width="1460.649pt" height="540.1965pt" viewBox="0 0 1460.649 540.1965" xmlns="http://www.w3.org/2000/svg" version="1.1">
 <metadata>
  <rdf:RDF xmlns:dc="http://purl.org/dc/elements/1.1/" xmlns:cc="http://creativecommons.org/ns#" xmlns:rdf="http://www.w3.org/1999/02/22-rdf-syntax-ns#">
   <cc:Work>
    <dc:type rdf:resource="http://purl.org/dc/dcmitype/StillImage"/>
    <dc:date>2026-03-21T18:49:49.623848</dc:date>
    <dc:format>image/svg+xml</dc:format>
    <dc:creator>
     <cc:Agent>
      <dc:title>Matplotlib v3.9.0, https://matplotlib.org/</dc:title>
     </cc:Agent>
    </dc:creator>
   </cc:Work>
  </rdf:RDF>
 </metadata>
 <defs>
  <style type="text/css">*{stroke-linejoin: round; stroke-linecap: butt}</style>
 </defs>
 <g id="figure_1">
  <g id="patch_1">
   <path d="M 0 540.1965 
L 1460.649 540.1965 
L 1460.649 0 
L 0 0 
z
" style="fill: #f7f4ed"/>
  </g>
  <g id="axes_1">
   <g id="patch_2">
    <path d="M 48.35 467.44 
L 958.68 467.44 
L 958.68 101.52 
L 48.35 101.52 
z
" style="fill: #f7f4ed"/>
   </g>
   <g id="matplotlib.axis_1">
    <g id="xtick_1">
     <g id="line2d_1">
      <path d="M 89.728636 467.44 
L 89.728636 101.52 
" clip-path="url(#p8c3fdcd7ba)" style="fill: none; stroke-dasharray: 2.96,1.28; stroke-dashoffset: 0; stroke: #d9d1c7; stroke-opacity: 0.85; stroke-width: 0.8"/>
     </g>
     <g id="line2d_2">
      <defs>
       <path id="m1613660f6e" d="M 0 0 
L 0 3.5 
" style="stroke: #5e5a55; stroke-width: 0.8"/>
      </defs>
      <g>
       <use xlink:href="#m1613660f6e" x="89.728636" y="467.44" style="fill: #5e5a55; stroke: #5e5a55; stroke-width: 0.8"/>
      </g>
     </g>
     <g id="text_1">
      <!-- 0 -->
      <g style="fill: #5e5a55" transform="translate(86.547386 482.038438) scale(0.1 -0.1)">
       <defs>
        <path id="DejaVuSans-30" d="M 2034 4250 
Q 1547 4250 1301 3770 
Q 1056 3291 1056 2328 
Q 1056 1369 1301 889 
Q 1547 409 2034 409 
Q 2525 409 2770 889 
Q 3016 1369 3016 2328 
Q 3016 3291 2770 3770 
Q 2525 4250 2034 4250 
z
M 2034 4750 
Q 2819 4750 3233 4129 
Q 3647 3509 3647 2328 
Q 3647 1150 3233 529 
Q 2819 -91 2034 -91 
Q 1250 -91 836 529 
Q 422 1150 422 2328 
Q 422 3509 836 4129 
Q 1250 4750 2034 4750 
z
" transform="scale(0.015625)"/>
       </defs>
       <use xlink:href="#DejaVuSans-30"/>
      </g>
     </g>
    </g>
    <g id="xtick_2">
     <g id="line2d_3">
      <path d="M 255.243182 467.44 
L 255.243182 101.52 
" clip-path="url(#p8c3fdcd7ba)" style="fill: none; stroke-dasharray: 2.96,1.28; stroke-dashoffset: 0; stroke: #d9d1c7; stroke-opacity: 0.85; stroke-width: 0.8"/>
     </g>
     <g id="line2d_4">
      <g>
       <use xlink:href="#m1613660f6e" x="255.243182" y="467.44" style="fill: #5e5a55; stroke: #5e5a55; stroke-width: 0.8"/>
      </g>
     </g>
     <g id="text_2">
      <!-- 20 -->
      <g style="fill: #5e5a55" transform="translate(248.880682 482.038438) scale(0.1 -0.1)">
       <defs>
        <path id="DejaVuSans-32" d="M 1228 531 
L 3431 531 
L 3431 0 
L 469 0 
L 469 531 
Q 828 903 1448 1529 
Q 2069 2156 2228 2338 
Q 2531 2678 2651 2914 
Q 2772 3150 2772 3378 
Q 2772 3750 2511 3984 
Q 2250 4219 1831 4219 
Q 1534 4219 1204 4116 
Q 875 4013 500 3803 
L 500 4441 
Q 881 4594 1212 4672 
Q 1544 4750 1819 4750 
Q 2544 4750 2975 4387 
Q 3406 4025 3406 3419 
Q 3406 3131 3298 2873 
Q 3191 2616 2906 2266 
Q 2828 2175 2409 1742 
Q 1991 1309 1228 531 
z
" transform="scale(0.015625)"/>
       </defs>
       <use xlink:href="#DejaVuSans-32"/>
       <use xlink:href="#DejaVuSans-30" x="63.623047"/>
      </g>
     </g>
    </g>
    <g id="xtick_3">
     <g id="line2d_5">
      <path d="M 420.757727 467.44 
L 420.757727 101.52 
" clip-path="url(#p8c3fdcd7ba)" style="fill: none; stroke-dasharray: 2.96,1.28; stroke-dashoffset: 0; stroke: #d9d1c7; stroke-opacity: 0.85; stroke-width: 0.8"/>
     </g>
     <g id="line2d_6">
      <g>
       <use xlink:href="#m1613660f6e" x="420.757727" y="467.44" style="fill: #5e5a55; stroke: #5e5a55; stroke-width: 0.8"/>
      </g>
     </g>
     <g id="text_3">
      <!-- 40 -->
      <g style="fill: #5e5a55" transform="translate(414.395227 482.038438) scale(0.1 -0.1)">
       <defs>
        <path id="DejaVuSans-34" d="M 2419 4116 
L 825 1625 
L 2419 1625 
L 2419 4116 
z
M 2253 4666 
L 3047 4666 
L 3047 1625 
L 3713 1625 
L 3713 1100 
L 3047 1100 
L 3047 0 
L 2419 0 
L 2419 1100 
L 313 1100 
L 313 1709 
L 2253 4666 
z
" transform="scale(0.015625)"/>
       </defs>
       <use xlink:href="#DejaVuSans-34"/>
       <use xlink:href="#DejaVuSans-30" x="63.623047"/>
      </g>
     </g>
    </g>
    <g id="xtick_4">
     <g id="line2d_7">
      <path d="M 586.272273 467.44 
L 586.272273 101.52 
" clip-path="url(#p8c3fdcd7ba)" style="fill: none; stroke-dasharray: 2.96,1.28; stroke-dashoffset: 0; stroke: #d9d1c7; stroke-opacity: 0.85; stroke-width: 0.8"/>
     </g>
     <g id="line2d_8">
      <g>
       <use xlink:href="#m1613660f6e" x="586.272273" y="467.44" style="fill: #5e5a55; stroke: #5e5a55; stroke-width: 0.8"/>
      </g>
     </g>
     <g id="text_4">
      <!-- 60 -->
      <g style="fill: #5e5a55" transform="translate(579.909773 482.038438) scale(0.1 -0.1)">
       <defs>
        <path id="DejaVuSans-36" d="M 2113 2584 
Q 1688 2584 1439 2293 
Q 1191 2003 1191 1497 
Q 1191 994 1439 701 
Q 1688 409 2113 409 
Q 2538 409 2786 701 
Q 3034 994 3034 1497 
Q 3034 2003 2786 2293 
Q 2538 2584 2113 2584 
z
M 3366 4563 
L 3366 3988 
Q 3128 4100 2886 4159 
Q 2644 4219 2406 4219 
Q 1781 4219 1451 3797 
Q 1122 3375 1075 2522 
Q 1259 2794 1537 2939 
Q 1816 3084 2150 3084 
Q 2853 3084 3261 2657 
Q 3669 2231 3669 1497 
Q 3669 778 3244 343 
Q 2819 -91 2113 -91 
Q 1303 -91 875 529 
Q 447 1150 447 2328 
Q 447 3434 972 4092 
Q 1497 4750 2381 4750 
Q 2619 4750 2861 4703 
Q 3103 4656 3366 4563 
z
" transform="scale(0.015625)"/>
       </defs>
       <use xlink:href="#DejaVuSans-36"/>
       <use xlink:href="#DejaVuSans-30" x="63.623047"/>
      </g>
     </g>
    </g>
    <g id="xtick_5">
     <g id="line2d_9">
      <path d="M 751.786818 467.44 
L 751.786818 101.52 
" clip-path="url(#p8c3fdcd7ba)" style="fill: none; stroke-dasharray: 2.96,1.28; stroke-dashoffset: 0; stroke: #d9d1c7; stroke-opacity: 0.85; stroke-width: 0.8"/>
     </g>
     <g id="line2d_10">
      <g>
       <use xlink:href="#m1613660f6e" x="751.786818" y="467.44" style="fill: #5e5a55; stroke: #5e5a55; stroke-width: 0.8"/>
      </g>
     </g>
     <g id="text_5">
      <!-- 80 -->
      <g style="fill: #5e5a55" transform="translate(745.424318 482.038438) scale(0.1 -0.1)">
       <defs>
        <path id="DejaVuSans-38" d="M 2034 2216 
Q 1584 2216 1326 1975 
Q 1069 1734 1069 1313 
Q 1069 891 1326 650 
Q 1584 409 2034 409 
Q 2484 409 2743 651 
Q 3003 894 3003 1313 
Q 3003 1734 2745 1975 
Q 2488 2216 2034 2216 
z
M 1403 2484 
Q 997 2584 770 2862 
Q 544 3141 544 3541 
Q 544 4100 942 4425 
Q 1341 4750 2034 4750 
Q 2731 4750 3128 4425 
Q 3525 4100 3525 3541 
Q 3525 3141 3298 2862 
Q 3072 2584 2669 2484 
Q 3125 2378 3379 2068 
Q 3634 1759 3634 1313 
Q 3634 634 3220 271 
Q 2806 -91 2034 -91 
Q 1263 -91 848 271 
Q 434 634 434 1313 
Q 434 1759 690 2068 
Q 947 2378 1403 2484 
z
M 1172 3481 
Q 1172 3119 1398 2916 
Q 1625 2713 2034 2713 
Q 2441 2713 2670 2916 
Q 2900 3119 2900 3481 
Q 2900 3844 2670 4047 
Q 2441 4250 2034 4250 
Q 1625 4250 1398 4047 
Q 1172 3844 1172 3481 
z
" transform="scale(0.015625)"/>
       </defs>
       <use xlink:href="#DejaVuSans-38"/>
       <use xlink:href="#DejaVuSans-30" x="63.623047"/>
      </g>
     </g>
    </g>
    <g id="xtick_6">
     <g id="line2d_11">
      <path d="M 917.301364 467.44 
L 917.301364 101.52 
" clip-path="url(#p8c3fdcd7ba)" style="fill: none; stroke-dasharray: 2.96,1.28; stroke-dashoffset: 0; stroke: #d9d1c7; stroke-opacity: 0.85; stroke-width: 0.8"/>
     </g>
     <g id="line2d_12">
      <g>
       <use xlink:href="#m1613660f6e" x="917.301364" y="467.44" style="fill: #5e5a55; stroke: #5e5a55; stroke-width: 0.8"/>
      </g>
     </g>
     <g id="text_6">
      <!-- 100 -->
      <g style="fill: #5e5a55" transform="translate(907.757614 482.038438) scale(0.1 -0.1)">
       <defs>
        <path id="DejaVuSans-31" d="M 794 531 
L 1825 531 
L 1825 4091 
L 703 3866 
L 703 4441 
L 1819 4666 
L 2450 4666 
L 2450 531 
L 3481 531 
L 3481 0 
L 794 0 
L 794 531 
z
" transform="scale(0.015625)"/>
       </defs>
       <use xlink:href="#DejaVuSans-31"/>
       <use xlink:href="#DejaVuSans-30" x="63.623047"/>
       <use xlink:href="#DejaVuSans-30" x="127.246094"/>
      </g>
     </g>
    </g>
    <g id="text_7">
     <!-- Share of merchants (highest volume first, %) -->
     <g style="fill: #5e5a55" transform="translate(391.0525 495.716563) scale(0.1 -0.1)">
      <defs>
       <path id="DejaVuSans-53" d="M 3425 4513 
L 3425 3897 
Q 3066 4069 2747 4153 
Q 2428 4238 2131 4238 
Q 1616 4238 1336 4038 
Q 1056 3838 1056 3469 
Q 1056 3159 1242 3001 
Q 1428 2844 1947 2747 
L 2328 2669 
Q 3034 2534 3370 2195 
Q 3706 1856 3706 1288 
Q 3706 609 3251 259 
Q 2797 -91 1919 -91 
Q 1588 -91 1214 -16 
Q 841 59 441 206 
L 441 856 
Q 825 641 1194 531 
Q 1563 422 1919 422 
Q 2459 422 2753 634 
Q 3047 847 3047 1241 
Q 3047 1584 2836 1778 
Q 2625 1972 2144 2069 
L 1759 2144 
Q 1053 2284 737 2584 
Q 422 2884 422 3419 
Q 422 4038 858 4394 
Q 1294 4750 2059 4750 
Q 2388 4750 2728 4690 
Q 3069 4631 3425 4513 
z
" transform="scale(0.015625)"/>
       <path id="DejaVuSans-68" d="M 3513 2113 
L 3513 0 
L 2938 0 
L 2938 2094 
Q 2938 2591 2744 2837 
Q 2550 3084 2163 3084 
Q 1697 3084 1428 2787 
Q 1159 2491 1159 1978 
L 1159 0 
L 581 0 
L 581 4863 
L 1159 4863 
L 1159 2956 
Q 1366 3272 1645 3428 
Q 1925 3584 2291 3584 
Q 2894 3584 3203 3211 
Q 3513 2838 3513 2113 
z
" transform="scale(0.015625)"/>
       <path id="DejaVuSans-61" d="M 2194 1759 
Q 1497 1759 1228 1600 
Q 959 1441 959 1056 
Q 959 750 1161 570 
Q 1363 391 1709 391 
Q 2188 391 2477 730 
Q 2766 1069 2766 1631 
L 2766 1759 
L 2194 1759 
z
M 3341 1997 
L 3341 0 
L 2766 0 
L 2766 531 
Q 2569 213 2275 61 
Q 1981 -91 1556 -91 
Q 1019 -91 701 211 
Q 384 513 384 1019 
Q 384 1609 779 1909 
Q 1175 2209 1959 2209 
L 2766 2209 
L 2766 2266 
Q 2766 2663 2505 2880 
Q 2244 3097 1772 3097 
Q 1472 3097 1187 3025 
Q 903 2953 641 2809 
L 641 3341 
Q 956 3463 1253 3523 
Q 1550 3584 1831 3584 
Q 2591 3584 2966 3190 
Q 3341 2797 3341 1997 
z
" transform="scale(0.015625)"/>
       <path id="DejaVuSans-72" d="M 2631 2963 
Q 2534 3019 2420 3045 
Q 2306 3072 2169 3072 
Q 1681 3072 1420 2755 
Q 1159 2438 1159 1844 
L 1159 0 
L 581 0 
L 581 3500 
L 1159 3500 
L 1159 2956 
Q 1341 3275 1631 3429 
Q 1922 3584 2338 3584 
Q 2397 3584 2469 3576 
Q 2541 3569 2628 3553 
L 2631 2963 
z
" transform="scale(0.015625)"/>
       <path id="DejaVuSans-65" d="M 3597 1894 
L 3597 1613 
L 953 1613 
Q 991 1019 1311 708 
Q 1631 397 2203 397 
Q 2534 397 2845 478 
Q 3156 559 3463 722 
L 3463 178 
Q 3153 47 2828 -22 
Q 2503 -91 2169 -91 
Q 1331 -91 842 396 
Q 353 884 353 1716 
Q 353 2575 817 3079 
Q 1281 3584 2069 3584 
Q 2775 3584 3186 3129 
Q 3597 2675 3597 1894 
z
M 3022 2063 
Q 3016 2534 2758 2815 
Q 2500 3097 2075 3097 
Q 1594 3097 1305 2825 
Q 1016 2553 972 2059 
L 3022 2063 
z
" transform="scale(0.015625)"/>
       <path id="DejaVuSans-20" transform="scale(0.015625)"/>
       <path id="DejaVuSans-6f" d="M 1959 3097 
Q 1497 3097 1228 2736 
Q 959 2375 959 1747 
Q 959 1119 1226 758 
Q 1494 397 1959 397 
Q 2419 397 2687 759 
Q 2956 1122 2956 1747 
Q 2956 2369 2687 2733 
Q 2419 3097 1959 3097 
z
M 1959 3584 
Q 2709 3584 3137 3096 
Q 3566 2609 3566 1747 
Q 3566 888 3137 398 
Q 2709 -91 1959 -91 
Q 1206 -91 779 398 
Q 353 888 353 1747 
Q 353 2609 779 3096 
Q 1206 3584 1959 3584 
z
" transform="scale(0.015625)"/>
       <path id="DejaVuSans-66" d="M 2375 4863 
L 2375 4384 
L 1825 4384 
Q 1516 4384 1395 4259 
Q 1275 4134 1275 3809 
L 1275 3500 
L 2222 3500 
L 2222 3053 
L 1275 3053 
L 1275 0 
L 697 0 
L 697 3053 
L 147 3053 
L 147 3500 
L 697 3500 
L 697 3744 
Q 697 4328 969 4595 
Q 1241 4863 1831 4863 
L 2375 4863 
z
" transform="scale(0.015625)"/>
       <path id="DejaVuSans-6d" d="M 3328 2828 
Q 3544 3216 3844 3400 
Q 4144 3584 4550 3584 
Q 5097 3584 5394 3201 
Q 5691 2819 5691 2113 
L 5691 0 
L 5113 0 
L 5113 2094 
Q 5113 2597 4934 2840 
Q 4756 3084 4391 3084 
Q 3944 3084 3684 2787 
Q 3425 2491 3425 1978 
L 3425 0 
L 2847 0 
L 2847 2094 
Q 2847 2600 2669 2842 
Q 2491 3084 2119 3084 
Q 1678 3084 1418 2786 
Q 1159 2488 1159 1978 
L 1159 0 
L 581 0 
L 581 3500 
L 1159 3500 
L 1159 2956 
Q 1356 3278 1631 3431 
Q 1906 3584 2284 3584 
Q 2666 3584 2933 3390 
Q 3200 3197 3328 2828 
z
" transform="scale(0.015625)"/>
       <path id="DejaVuSans-63" d="M 3122 3366 
L 3122 2828 
Q 2878 2963 2633 3030 
Q 2388 3097 2138 3097 
Q 1578 3097 1268 2742 
Q 959 2388 959 1747 
Q 959 1106 1268 751 
Q 1578 397 2138 397 
Q 2388 397 2633 464 
Q 2878 531 3122 666 
L 3122 134 
Q 2881 22 2623 -34 
Q 2366 -91 2075 -91 
Q 1284 -91 818 406 
Q 353 903 353 1747 
Q 353 2603 823 3093 
Q 1294 3584 2113 3584 
Q 2378 3584 2631 3529 
Q 2884 3475 3122 3366 
z
" transform="scale(0.015625)"/>
       <path id="DejaVuSans-6e" d="M 3513 2113 
L 3513 0 
L 2938 0 
L 2938 2094 
Q 2938 2591 2744 2837 
Q 2550 3084 2163 3084 
Q 1697 3084 1428 2787 
Q 1159 2491 1159 1978 
L 1159 0 
L 581 0 
L 581 3500 
L 1159 3500 
L 1159 2956 
Q 1366 3272 1645 3428 
Q 1925 3584 2291 3584 
Q 2894 3584 3203 3211 
Q 3513 2838 3513 2113 
z
" transform="scale(0.015625)"/>
       <path id="DejaVuSans-74" d="M 1172 4494 
L 1172 3500 
L 2356 3500 
L 2356 3053 
L 1172 3053 
L 1172 1153 
Q 1172 725 1289 603 
Q 1406 481 1766 481 
L 2356 481 
L 2356 0 
L 1766 0 
Q 1100 0 847 248 
Q 594 497 594 1153 
L 594 3053 
L 172 3053 
L 172 3500 
L 594 3500 
L 594 4494 
L 1172 4494 
z
" transform="scale(0.015625)"/>
       <path id="DejaVuSans-73" d="M 2834 3397 
L 2834 2853 
Q 2591 2978 2328 3040 
Q 2066 3103 1784 3103 
Q 1356 3103 1142 2972 
Q 928 2841 928 2578 
Q 928 2378 1081 2264 
Q 1234 2150 1697 2047 
L 1894 2003 
Q 2506 1872 2764 1633 
Q 3022 1394 3022 966 
Q 3022 478 2636 193 
Q 2250 -91 1575 -91 
Q 1294 -91 989 -36 
Q 684 19 347 128 
L 347 722 
Q 666 556 975 473 
Q 1284 391 1588 391 
Q 1994 391 2212 530 
Q 2431 669 2431 922 
Q 2431 1156 2273 1281 
Q 2116 1406 1581 1522 
L 1381 1569 
Q 847 1681 609 1914 
Q 372 2147 372 2553 
Q 372 3047 722 3315 
Q 1072 3584 1716 3584 
Q 2034 3584 2315 3537 
Q 2597 3491 2834 3397 
z
" transform="scale(0.015625)"/>
       <path id="DejaVuSans-28" d="M 1984 4856 
Q 1566 4138 1362 3434 
Q 1159 2731 1159 2009 
Q 1159 1288 1364 580 
Q 1569 -128 1984 -844 
L 1484 -844 
Q 1016 -109 783 600 
Q 550 1309 550 2009 
Q 550 2706 781 3412 
Q 1013 4119 1484 4856 
L 1984 4856 
z
" transform="scale(0.015625)"/>
       <path id="DejaVuSans-69" d="M 603 3500 
L 1178 3500 
L 1178 0 
L 603 0 
L 603 3500 
z
M 603 4863 
L 1178 4863 
L 1178 4134 
L 603 4134 
L 603 4863 
z
" transform="scale(0.015625)"/>
       <path id="DejaVuSans-67" d="M 2906 1791 
Q 2906 2416 2648 2759 
Q 2391 3103 1925 3103 
Q 1463 3103 1205 2759 
Q 947 2416 947 1791 
Q 947 1169 1205 825 
Q 1463 481 1925 481 
Q 2391 481 2648 825 
Q 2906 1169 2906 1791 
z
M 3481 434 
Q 3481 -459 3084 -895 
Q 2688 -1331 1869 -1331 
Q 1566 -1331 1297 -1286 
Q 1028 -1241 775 -1147 
L 775 -588 
Q 1028 -725 1275 -790 
Q 1522 -856 1778 -856 
Q 2344 -856 2625 -561 
Q 2906 -266 2906 331 
L 2906 616 
Q 2728 306 2450 153 
Q 2172 0 1784 0 
Q 1141 0 747 490 
Q 353 981 353 1791 
Q 353 2603 747 3093 
Q 1141 3584 1784 3584 
Q 2172 3584 2450 3431 
Q 2728 3278 2906 2969 
L 2906 3500 
L 3481 3500 
L 3481 434 
z
" transform="scale(0.015625)"/>
       <path id="DejaVuSans-76" d="M 191 3500 
L 800 3500 
L 1894 563 
L 2988 3500 
L 3597 3500 
L 2284 0 
L 1503 0 
L 191 3500 
z
" transform="scale(0.015625)"/>
       <path id="DejaVuSans-6c" d="M 603 4863 
L 1178 4863 
L 1178 0 
L 603 0 
L 603 4863 
z
" transform="scale(0.015625)"/>
       <path id="DejaVuSans-75" d="M 544 1381 
L 544 3500 
L 1119 3500 
L 1119 1403 
Q 1119 906 1312 657 
Q 1506 409 1894 409 
Q 2359 409 2629 706 
Q 2900 1003 2900 1516 
L 2900 3500 
L 3475 3500 
L 3475 0 
L 2900 0 
L 2900 538 
Q 2691 219 2414 64 
Q 2138 -91 1772 -91 
Q 1169 -91 856 284 
Q 544 659 544 1381 
z
M 1991 3584 
L 1991 3584 
z
" transform="scale(0.015625)"/>
       <path id="DejaVuSans-2c" d="M 750 794 
L 1409 794 
L 1409 256 
L 897 -744 
L 494 -744 
L 750 256 
L 750 794 
z
" transform="scale(0.015625)"/>
       <path id="DejaVuSans-25" d="M 4653 2053 
Q 4381 2053 4226 1822 
Q 4072 1591 4072 1178 
Q 4072 772 4226 539 
Q 4381 306 4653 306 
Q 4919 306 5073 539 
Q 5228 772 5228 1178 
Q 5228 1588 5073 1820 
Q 4919 2053 4653 2053 
z
M 4653 2450 
Q 5147 2450 5437 2106 
Q 5728 1763 5728 1178 
Q 5728 594 5436 251 
Q 5144 -91 4653 -91 
Q 4153 -91 3862 251 
Q 3572 594 3572 1178 
Q 3572 1766 3864 2108 
Q 4156 2450 4653 2450 
z
M 1428 4353 
Q 1159 4353 1004 4120 
Q 850 3888 850 3481 
Q 850 3069 1003 2837 
Q 1156 2606 1428 2606 
Q 1700 2606 1854 2837 
Q 2009 3069 2009 3481 
Q 2009 3884 1853 4118 
Q 1697 4353 1428 4353 
z
M 4250 4750 
L 4750 4750 
L 1831 -91 
L 1331 -91 
L 4250 4750 
z
M 1428 4750 
Q 1922 4750 2215 4408 
Q 2509 4066 2509 3481 
Q 2509 2891 2217 2550 
Q 1925 2209 1428 2209 
Q 931 2209 642 2551 
Q 353 2894 353 3481 
Q 353 4063 643 4406 
Q 934 4750 1428 4750 
z
" transform="scale(0.015625)"/>
       <path id="DejaVuSans-29" d="M 513 4856 
L 1013 4856 
Q 1481 4119 1714 3412 
Q 1947 2706 1947 2009 
Q 1947 1309 1714 600 
Q 1481 -109 1013 -844 
L 513 -844 
Q 928 -128 1133 580 
Q 1338 1288 1338 2009 
Q 1338 2731 1133 3434 
Q 928 4138 513 4856 
z
" transform="scale(0.015625)"/>
      </defs>
      <use xlink:href="#DejaVuSans-53"/>
      <use xlink:href="#DejaVuSans-68" x="63.476562"/>
      <use xlink:href="#DejaVuSans-61" x="126.855469"/>
      <use xlink:href="#DejaVuSans-72" x="188.134766"/>
      <use xlink:href="#DejaVuSans-65" x="226.998047"/>
      <use xlink:href="#DejaVuSans-20" x="288.521484"/>
      <use xlink:href="#DejaVuSans-6f" x="320.308594"/>
      <use xlink:href="#DejaVuSans-66" x="381.490234"/>
      <use xlink:href="#DejaVuSans-20" x="416.695312"/>
      <use xlink:href="#DejaVuSans-6d" x="448.482422"/>
      <use xlink:href="#DejaVuSans-65" x="545.894531"/>
      <use xlink:href="#DejaVuSans-72" x="607.417969"/>
      <use xlink:href="#DejaVuSans-63" x="646.28125"/>
      <use xlink:href="#DejaVuSans-68" x="701.261719"/>
      <use xlink:href="#DejaVuSans-61" x="764.640625"/>
      <use xlink:href="#DejaVuSans-6e" x="825.919922"/>
      <use xlink:href="#DejaVuSans-74" x="889.298828"/>
      <use xlink:href="#DejaVuSans-73" x="928.507812"/>
      <use xlink:href="#DejaVuSans-20" x="980.607422"/>
      <use xlink:href="#DejaVuSans-28" x="1012.394531"/>
      <use xlink:href="#DejaVuSans-68" x="1051.408203"/>
      <use xlink:href="#DejaVuSans-69" x="1114.787109"/>
      <use xlink:href="#DejaVuSans-67" x="1142.570312"/>
      <use xlink:href="#DejaVuSans-68" x="1206.046875"/>
      <use xlink:href="#DejaVuSans-65" x="1269.425781"/>
      <use xlink:href="#DejaVuSans-73" x="1330.949219"/>
      <use xlink:href="#DejaVuSans-74" x="1383.048828"/>
      <use xlink:href="#DejaVuSans-20" x="1422.257812"/>
      <use xlink:href="#DejaVuSans-76" x="1454.044922"/>
      <use xlink:href="#DejaVuSans-6f" x="1513.224609"/>
      <use xlink:href="#DejaVuSans-6c" x="1574.40625"/>
      <use xlink:href="#DejaVuSans-75" x="1602.189453"/>
      <use xlink:href="#DejaVuSans-6d" x="1665.568359"/>
      <use xlink:href="#DejaVuSans-65" x="1762.980469"/>
      <use xlink:href="#DejaVuSans-20" x="1824.503906"/>
      <use xlink:href="#DejaVuSans-66" x="1856.291016"/>
      <use xlink:href="#DejaVuSans-69" x="1891.496094"/>
      <use xlink:href="#DejaVuSans-72" x="1919.279297"/>
      <use xlink:href="#DejaVuSans-73" x="1960.392578"/>
      <use xlink:href="#DejaVuSans-74" x="2012.492188"/>
      <use xlink:href="#DejaVuSans-2c" x="2051.701172"/>
      <use xlink:href="#DejaVuSans-20" x="2083.488281"/>
      <use xlink:href="#DejaVuSans-25" x="2115.275391"/>
      <use xlink:href="#DejaVuSans-29" x="2210.294922"/>
     </g>
    </g>
   </g>
   <g id="matplotlib.axis_2">
    <g id="ytick_1">
     <g id="line2d_13">
      <path d="M 48.35 450.807273 
L 958.68 450.807273 
" clip-path="url(#p8c3fdcd7ba)" style="fill: none; stroke-dasharray: 2.96,1.28; stroke-dashoffset: 0; stroke: #d9d1c7; stroke-opacity: 0.85; stroke-width: 0.8"/>
     </g>
     <g id="line2d_14">
      <defs>
       <path id="m2ed162b0cc" d="M 0 0 
L -3.5 0 
" style="stroke: #5e5a55; stroke-width: 0.8"/>
      </defs>
      <g>
       <use xlink:href="#m2ed162b0cc" x="48.35" y="450.807273" style="fill: #5e5a55; stroke: #5e5a55; stroke-width: 0.8"/>
      </g>
     </g>
     <g id="text_8">
      <!-- 0 -->
      <g style="fill: #5e5a55" transform="translate(34.9875 454.606491) scale(0.1 -0.1)">
       <use xlink:href="#DejaVuSans-30"/>
      </g>
     </g>
    </g>
    <g id="ytick_2">
     <g id="line2d_15">
      <path d="M 48.35 384.276364 
L 958.68 384.276364 
" clip-path="url(#p8c3fdcd7ba)" style="fill: none; stroke-dasharray: 2.96,1.28; stroke-dashoffset: 0; stroke: #d9d1c7; stroke-opacity: 0.85; stroke-width: 0.8"/>
     </g>
     <g id="line2d_16">
      <g>
       <use xlink:href="#m2ed162b0cc" x="48.35" y="384.276364" style="fill: #5e5a55; stroke: #5e5a55; stroke-width: 0.8"/>
      </g>
     </g>
     <g id="text_9">
      <!-- 20 -->
      <g style="fill: #5e5a55" transform="translate(28.625 388.075582) scale(0.1 -0.1)">
       <use xlink:href="#DejaVuSans-32"/>
       <use xlink:href="#DejaVuSans-30" x="63.623047"/>
      </g>
     </g>
    </g>
    <g id="ytick_3">
     <g id="line2d_17">
      <path d="M 48.35 317.745455 
L 958.68 317.745455 
" clip-path="url(#p8c3fdcd7ba)" style="fill: none; stroke-dasharray: 2.96,1.28; stroke-dashoffset: 0; stroke: #d9d1c7; stroke-opacity: 0.85; stroke-width: 0.8"/>
     </g>
     <g id="line2d_18">
      <g>
       <use xlink:href="#m2ed162b0cc" x="48.35" y="317.745455" style="fill: #5e5a55; stroke: #5e5a55; stroke-width: 0.8"/>
      </g>
     </g>
     <g id="text_10">
      <!-- 40 -->
      <g style="fill: #5e5a55" transform="translate(28.625 321.544673) scale(0.1 -0.1)">
       <use xlink:href="#DejaVuSans-34"/>
       <use xlink:href="#DejaVuSans-30" x="63.623047"/>
      </g>
     </g>
    </g>
    <g id="ytick_4">
     <g id="line2d_19">
      <path d="M 48.35 251.214545 
L 958.68 251.214545 
" clip-path="url(#p8c3fdcd7ba)" style="fill: none; stroke-dasharray: 2.96,1.28; stroke-dashoffset: 0; stroke: #d9d1c7; stroke-opacity: 0.85; stroke-width: 0.8"/>
     </g>
     <g id="line2d_20">
      <g>
       <use xlink:href="#m2ed162b0cc" x="48.35" y="251.214545" style="fill: #5e5a55; stroke: #5e5a55; stroke-width: 0.8"/>
      </g>
     </g>
     <g id="text_11">
      <!-- 60 -->
      <g style="fill: #5e5a55" transform="translate(28.625 255.013764) scale(0.1 -0.1)">
       <use xlink:href="#DejaVuSans-36"/>
       <use xlink:href="#DejaVuSans-30" x="63.623047"/>
      </g>
     </g>
    </g>
    <g id="ytick_5">
     <g id="line2d_21">
      <path d="M 48.35 184.683636 
L 958.68 184.683636 
" clip-path="url(#p8c3fdcd7ba)" style="fill: none; stroke-dasharray: 2.96,1.28; stroke-dashoffset: 0; stroke: #d9d1c7; stroke-opacity: 0.85; stroke-width: 0.8"/>
     </g>
     <g id="line2d_22">
      <g>
       <use xlink:href="#m2ed162b0cc" x="48.35" y="184.683636" style="fill: #5e5a55; stroke: #5e5a55; stroke-width: 0.8"/>
      </g>
     </g>
     <g id="text_12">
      <!-- 80 -->
      <g style="fill: #5e5a55" transform="translate(28.625 188.482855) scale(0.1 -0.1)">
       <use xlink:href="#DejaVuSans-38"/>
       <use xlink:href="#DejaVuSans-30" x="63.623047"/>
      </g>
     </g>
    </g>
    <g id="ytick_6">
     <g id="line2d_23">
      <path d="M 48.35 118.152727 
L 958.68 118.152727 
" clip-path="url(#p8c3fdcd7ba)" style="fill: none; stroke-dasharray: 2.96,1.28; stroke-dashoffset: 0; stroke: #d9d1c7; stroke-opacity: 0.85; stroke-width: 0.8"/>
     </g>
     <g id="line2d_24">
      <g>
       <use xlink:href="#m2ed162b0cc" x="48.35" y="118.152727" style="fill: #5e5a55; stroke: #5e5a55; stroke-width: 0.8"/>
      </g>
     </g>
     <g id="text_13">
      <!-- 100 -->
      <g style="fill: #5e5a55" transform="translate(22.2625 121.951946) scale(0.1 -0.1)">
       <use xlink:href="#DejaVuSans-31"/>
       <use xlink:href="#DejaVuSans-30" x="63.623047"/>
       <use xlink:href="#DejaVuSans-30" x="127.246094"/>
      </g>
     </g>
    </g>
    <g id="text_14">
     <!-- Share of all arrivals captured (%) -->
     <g style="fill: #5e5a55" transform="translate(16.182813 366.969844) rotate(-90) scale(0.1 -0.1)">
      <defs>
       <path id="DejaVuSans-70" d="M 1159 525 
L 1159 -1331 
L 581 -1331 
L 581 3500 
L 1159 3500 
L 1159 2969 
Q 1341 3281 1617 3432 
Q 1894 3584 2278 3584 
Q 2916 3584 3314 3078 
Q 3713 2572 3713 1747 
Q 3713 922 3314 415 
Q 2916 -91 2278 -91 
Q 1894 -91 1617 61 
Q 1341 213 1159 525 
z
M 3116 1747 
Q 3116 2381 2855 2742 
Q 2594 3103 2138 3103 
Q 1681 3103 1420 2742 
Q 1159 2381 1159 1747 
Q 1159 1113 1420 752 
Q 1681 391 2138 391 
Q 2594 391 2855 752 
Q 3116 1113 3116 1747 
z
" transform="scale(0.015625)"/>
       <path id="DejaVuSans-64" d="M 2906 2969 
L 2906 4863 
L 3481 4863 
L 3481 0 
L 2906 0 
L 2906 525 
Q 2725 213 2448 61 
Q 2172 -91 1784 -91 
Q 1150 -91 751 415 
Q 353 922 353 1747 
Q 353 2572 751 3078 
Q 1150 3584 1784 3584 
Q 2172 3584 2448 3432 
Q 2725 3281 2906 2969 
z
M 947 1747 
Q 947 1113 1208 752 
Q 1469 391 1925 391 
Q 2381 391 2643 752 
Q 2906 1113 2906 1747 
Q 2906 2381 2643 2742 
Q 2381 3103 1925 3103 
Q 1469 3103 1208 2742 
Q 947 2381 947 1747 
z
" transform="scale(0.015625)"/>
      </defs>
      <use xlink:href="#DejaVuSans-53"/>
      <use xlink:href="#DejaVuSans-68" x="63.476562"/>
      <use xlink:href="#DejaVuSans-61" x="126.855469"/>
      <use xlink:href="#DejaVuSans-72" x="188.134766"/>
      <use xlink:href="#DejaVuSans-65" x="226.998047"/>
      <use xlink:href="#DejaVuSans-20" x="288.521484"/>
      <use xlink:href="#DejaVuSans-6f" x="320.308594"/>
      <use xlink:href="#DejaVuSans-66" x="381.490234"/>
      <use xlink:href="#DejaVuSans-20" x="416.695312"/>
      <use xlink:href="#DejaVuSans-61" x="448.482422"/>
      <use xlink:href="#DejaVuSans-6c" x="509.761719"/>
      <use xlink:href="#DejaVuSans-6c" x="537.544922"/>
      <use xlink:href="#DejaVuSans-20" x="565.328125"/>
      <use xlink:href="#DejaVuSans-61" x="597.115234"/>
      <use xlink:href="#DejaVuSans-72" x="658.394531"/>
      <use xlink:href="#DejaVuSans-72" x="697.757812"/>
      <use xlink:href="#DejaVuSans-69" x="738.871094"/>
      <use xlink:href="#DejaVuSans-76" x="766.654297"/>
      <use xlink:href="#DejaVuSans-61" x="825.833984"/>
      <use xlink:href="#DejaVuSans-6c" x="887.113281"/>
      <use xlink:href="#DejaVuSans-73" x="914.896484"/>
      <use xlink:href="#DejaVuSans-20" x="966.996094"/>
      <use xlink:href="#DejaVuSans-63" x="998.783203"/>
      <use xlink:href="#DejaVuSans-61" x="1053.763672"/>
      <use xlink:href="#DejaVuSans-70" x="1115.042969"/>
      <use xlink:href="#DejaVuSans-74" x="1178.519531"/>
      <use xlink:href="#DejaVuSans-75" x="1217.728516"/>
      <use xlink:href="#DejaVuSans-72" x="1281.107422"/>
      <use xlink:href="#DejaVuSans-65" x="1319.970703"/>
      <use xlink:href="#DejaVuSans-64" x="1381.494141"/>
      <use xlink:href="#DejaVuSans-20" x="1444.970703"/>
      <use xlink:href="#DejaVuSans-28" x="1476.757812"/>
      <use xlink:href="#DejaVuSans-25" x="1515.771484"/>
      <use xlink:href="#DejaVuSans-29" x="1610.791016"/>
     </g>
    </g>
   </g>
   <g id="line2d_25">
    <path d="M 89.932975 449.624384 
L 90.95467 444.292739 
L 92.589382 436.803356 
L 94.224093 430.478414 
L 95.858805 425.104448 
L 98.106533 418.510849 
L 100.5586 412.023415 
L 103.010668 406.256507 
L 106.280091 399.172675 
L 108.732158 394.302256 
L 111.592903 389.123123 
L 115.271004 382.954887 
L 119.9708 375.647187 
L 125.079274 368.198632 
L 130.187747 361.215221 
L 135.091882 354.932778 
L 140.200356 348.774073 
L 145.513168 342.724483 
L 151.643337 336.124282 
L 156.547471 331.18938 
L 162.67764 325.286646 
L 169.012147 319.497344 
L 174.937976 314.35605 
L 182.294178 308.298685 
L 191.080753 301.400978 
L 197.823938 296.348769 
L 206.406174 290.190191 
L 214.171054 284.888356 
L 224.183662 278.364957 
L 233.991932 272.233068 
L 242.982845 266.869017 
L 253.60847 260.787397 
L 264.847112 254.624864 
L 276.494432 248.472232 
L 287.937413 242.676339 
L 298.358699 237.638596 
L 310.006019 232.24556 
L 321.653339 227.091822 
L 333.300659 222.18761 
L 345.560996 217.265215 
L 359.660383 211.871003 
L 373.146753 206.929794 
L 388.676513 201.476471 
L 403.797595 196.394772 
L 419.736033 191.29884 
L 434.857114 186.693537 
L 452.021586 181.679374 
L 467.960024 177.272869 
L 486.963545 172.277018 
L 505.149712 167.723609 
L 524.561911 163.111222 
L 543.974111 158.706774 
L 561.138582 155.028082 
L 579.12041 151.396469 
L 599.962982 147.425558 
L 619.375182 143.960039 
L 638.991721 140.672264 
L 656.769209 137.902622 
L 676.998764 134.976459 
L 696.615303 132.387175 
L 716.231842 130.023332 
L 736.257058 127.849028 
L 757.099631 125.822449 
L 778.55522 123.958543 
L 799.397792 122.378048 
L 817.37962 121.243066 
L 834.339752 120.389862 
L 854.773646 119.593469 
L 880.316015 118.825694 
L 902.384621 118.373767 
L 917.301364 118.152727 
L 917.301364 118.152727 
" clip-path="url(#p8c3fdcd7ba)" style="fill: none; stroke: #204b57; stroke-width: 2.8; stroke-linecap: square"/>
   </g>
   <g id="line2d_26">
    <path d="M 89.728636 450.807273 
L 917.301364 118.152727 
" clip-path="url(#p8c3fdcd7ba)" style="fill: none; stroke-dasharray: 5.18,2.24; stroke-dashoffset: 0; stroke: #d9d1c7; stroke-width: 1.4"/>
   </g>
   <g id="patch_3">
    <path d="M 48.35 467.44 
L 48.35 101.52 
" style="fill: none; stroke: #d9d1c7; stroke-width: 0.8; stroke-linejoin: miter; stroke-linecap: square"/>
   </g>
   <g id="patch_4">
    <path d="M 958.68 467.44 
L 958.68 101.52 
" style="fill: none; stroke: #d9d1c7; stroke-width: 0.8; stroke-linejoin: miter; stroke-linecap: square"/>
   </g>
   <g id="patch_5">
    <path d="M 48.35 467.44 
L 958.68 467.44 
" style="fill: none; stroke: #d9d1c7; stroke-width: 0.8; stroke-linejoin: miter; stroke-linecap: square"/>
   </g>
   <g id="patch_6">
    <path d="M 48.35 101.52 
L 958.68 101.52 
" style="fill: none; stroke: #d9d1c7; stroke-width: 0.8; stroke-linejoin: miter; stroke-linecap: square"/>
   </g>
   <g id="text_15">
    <!-- Top 1% -&gt; 9.7% -->
    <g style="fill: #161514" transform="translate(109.590382 415.184303) scale(0.102 -0.102)">
     <defs>
      <path id="DejaVuSans-54" d="M -19 4666 
L 3928 4666 
L 3928 4134 
L 2272 4134 
L 2272 0 
L 1638 0 
L 1638 4134 
L -19 4134 
L -19 4666 
z
" transform="scale(0.015625)"/>
      <path id="DejaVuSans-2d" d="M 313 2009 
L 1997 2009 
L 1997 1497 
L 313 1497 
L 313 2009 
z
" transform="scale(0.015625)"/>
      <path id="DejaVuSans-3e" d="M 678 3150 
L 678 3719 
L 4684 2266 
L 4684 1747 
L 678 294 
L 678 863 
L 3897 2003 
L 678 3150 
z
" transform="scale(0.015625)"/>
      <path id="DejaVuSans-39" d="M 703 97 
L 703 672 
Q 941 559 1184 500 
Q 1428 441 1663 441 
Q 2288 441 2617 861 
Q 2947 1281 2994 2138 
Q 2813 1869 2534 1725 
Q 2256 1581 1919 1581 
Q 1219 1581 811 2004 
Q 403 2428 403 3163 
Q 403 3881 828 4315 
Q 1253 4750 1959 4750 
Q 2769 4750 3195 4129 
Q 3622 3509 3622 2328 
Q 3622 1225 3098 567 
Q 2575 -91 1691 -91 
Q 1453 -91 1209 -44 
Q 966 3 703 97 
z
M 1959 2075 
Q 2384 2075 2632 2365 
Q 2881 2656 2881 3163 
Q 2881 3666 2632 3958 
Q 2384 4250 1959 4250 
Q 1534 4250 1286 3958 
Q 1038 3666 1038 3163 
Q 1038 2656 1286 2365 
Q 1534 2075 1959 2075 
z
" transform="scale(0.015625)"/>
      <path id="DejaVuSans-2e" d="M 684 794 
L 1344 794 
L 1344 0 
L 684 0 
L 684 794 
z
" transform="scale(0.015625)"/>
      <path id="DejaVuSans-37" d="M 525 4666 
L 3525 4666 
L 3525 4397 
L 1831 0 
L 1172 0 
L 2766 4134 
L 525 4134 
L 525 4666 
z
" transform="scale(0.015625)"/>
     </defs>
     <use xlink:href="#DejaVuSans-54"/>
     <use xlink:href="#DejaVuSans-6f" x="44.083984"/>
     <use xlink:href="#DejaVuSans-70" x="105.265625"/>
     <use xlink:href="#DejaVuSans-20" x="168.742188"/>
     <use xlink:href="#DejaVuSans-31" x="200.529297"/>
     <use xlink:href="#DejaVuSans-25" x="264.152344"/>
     <use xlink:href="#DejaVuSans-20" x="359.171875"/>
     <use xlink:href="#DejaVuSans-2d" x="390.958984"/>
     <use xlink:href="#DejaVuSans-3e" x="427.042969"/>
     <use xlink:href="#DejaVuSans-20" x="510.832031"/>
     <use xlink:href="#DejaVuSans-39" x="542.619141"/>
     <use xlink:href="#DejaVuSans-2e" x="606.242188"/>
     <use xlink:href="#DejaVuSans-37" x="638.029297"/>
     <use xlink:href="#DejaVuSans-25" x="701.652344"/>
    </g>
   </g>
   <g id="text_16">
    <!-- Top 5% -&gt; 27.3% -->
    <g style="fill: #161514" transform="translate(142.693291 356.545886) scale(0.102 -0.102)">
     <defs>
      <path id="DejaVuSans-35" d="M 691 4666 
L 3169 4666 
L 3169 4134 
L 1269 4134 
L 1269 2991 
Q 1406 3038 1543 3061 
Q 1681 3084 1819 3084 
Q 2600 3084 3056 2656 
Q 3513 2228 3513 1497 
Q 3513 744 3044 326 
Q 2575 -91 1722 -91 
Q 1428 -91 1123 -41 
Q 819 9 494 109 
L 494 744 
Q 775 591 1075 516 
Q 1375 441 1709 441 
Q 2250 441 2565 725 
Q 2881 1009 2881 1497 
Q 2881 1984 2565 2268 
Q 2250 2553 1709 2553 
Q 1456 2553 1204 2497 
Q 953 2441 691 2322 
L 691 4666 
z
" transform="scale(0.015625)"/>
      <path id="DejaVuSans-33" d="M 2597 2516 
Q 3050 2419 3304 2112 
Q 3559 1806 3559 1356 
Q 3559 666 3084 287 
Q 2609 -91 1734 -91 
Q 1441 -91 1130 -33 
Q 819 25 488 141 
L 488 750 
Q 750 597 1062 519 
Q 1375 441 1716 441 
Q 2309 441 2620 675 
Q 2931 909 2931 1356 
Q 2931 1769 2642 2001 
Q 2353 2234 1838 2234 
L 1294 2234 
L 1294 2753 
L 1863 2753 
Q 2328 2753 2575 2939 
Q 2822 3125 2822 3475 
Q 2822 3834 2567 4026 
Q 2313 4219 1838 4219 
Q 1578 4219 1281 4162 
Q 984 4106 628 3988 
L 628 4550 
Q 988 4650 1302 4700 
Q 1616 4750 1894 4750 
Q 2613 4750 3031 4423 
Q 3450 4097 3450 3541 
Q 3450 3153 3228 2886 
Q 3006 2619 2597 2516 
z
" transform="scale(0.015625)"/>
     </defs>
     <use xlink:href="#DejaVuSans-54"/>
     <use xlink:href="#DejaVuSans-6f" x="44.083984"/>
     <use xlink:href="#DejaVuSans-70" x="105.265625"/>
     <use xlink:href="#DejaVuSans-20" x="168.742188"/>
     <use xlink:href="#DejaVuSans-35" x="200.529297"/>
     <use xlink:href="#DejaVuSans-25" x="264.152344"/>
     <use xlink:href="#DejaVuSans-20" x="359.171875"/>
     <use xlink:href="#DejaVuSans-2d" x="390.958984"/>
     <use xlink:href="#DejaVuSans-3e" x="427.042969"/>
     <use xlink:href="#DejaVuSans-20" x="510.832031"/>
     <use xlink:href="#DejaVuSans-32" x="542.619141"/>
     <use xlink:href="#DejaVuSans-37" x="606.242188"/>
     <use xlink:href="#DejaVuSans-2e" x="669.865234"/>
     <use xlink:href="#DejaVuSans-33" x="701.652344"/>
     <use xlink:href="#DejaVuSans-25" x="765.275391"/>
    </g>
   </g>
   <g id="text_17">
    <!-- Top 10% -&gt; 40.4% -->
    <g style="fill: #161514" transform="translate(184.071927 313.116313) scale(0.102 -0.102)">
     <use xlink:href="#DejaVuSans-54"/>
     <use xlink:href="#DejaVuSans-6f" x="44.083984"/>
     <use xlink:href="#DejaVuSans-70" x="105.265625"/>
     <use xlink:href="#DejaVuSans-20" x="168.742188"/>
     <use xlink:href="#DejaVuSans-31" x="200.529297"/>
     <use xlink:href="#DejaVuSans-30" x="264.152344"/>
     <use xlink:href="#DejaVuSans-25" x="327.775391"/>
     <use xlink:href="#DejaVuSans-20" x="422.794922"/>
     <use xlink:href="#DejaVuSans-2d" x="454.582031"/>
     <use xlink:href="#DejaVuSans-3e" x="490.666016"/>
     <use xlink:href="#DejaVuSans-20" x="574.455078"/>
     <use xlink:href="#DejaVuSans-34" x="606.242188"/>
     <use xlink:href="#DejaVuSans-30" x="669.865234"/>
     <use xlink:href="#DejaVuSans-2e" x="733.488281"/>
     <use xlink:href="#DejaVuSans-34" x="765.275391"/>
     <use xlink:href="#DejaVuSans-25" x="828.898438"/>
    </g>
   </g>
   <g id="PathCollection_1">
    <defs>
     <path id="mcca67fa008" d="M 0 3 
C 0.795609 3 1.55874 2.683901 2.12132 2.12132 
C 2.683901 1.55874 3 0.795609 3 0 
C 3 -0.795609 2.683901 -1.55874 2.12132 -2.12132 
C 1.55874 -2.683901 0.795609 -3 0 -3 
C -0.795609 -3 -1.55874 -2.683901 -2.12132 -2.12132 
C -2.683901 -1.55874 -3 -0.795609 -3 0 
C -3 0.795609 -2.683901 1.55874 -2.12132 2.12132 
C -1.55874 2.683901 -0.795609 3 0 3 
z
" style="stroke: #b5653a"/>
    </defs>
    <g clip-path="url(#p8c3fdcd7ba)">
     <use xlink:href="#mcca67fa008" x="98.004364" y="418.510849" style="fill: #b5653a; stroke: #b5653a"/>
    </g>
   </g>
   <g id="PathCollection_2">
    <g clip-path="url(#p8c3fdcd7ba)">
     <use xlink:href="#mcca67fa008" x="131.107273" y="359.872432" style="fill: #b5653a; stroke: #b5653a"/>
    </g>
   </g>
   <g id="PathCollection_3">
    <g clip-path="url(#p8c3fdcd7ba)">
     <use xlink:href="#mcca67fa008" x="172.485909" y="316.442858" style="fill: #b5653a; stroke: #b5653a"/>
    </g>
   </g>
   <g id="legend_1">
    <g id="line2d_27">
     <path d="M 783.905 438.182188 
L 793.905 438.182188 
L 803.905 438.182188 
" style="fill: none; stroke: #204b57; stroke-width: 2.8; stroke-linecap: square"/>
    </g>
    <g id="text_18">
     <!-- Observed cumulative share -->
     <g transform="translate(811.905 441.682188) scale(0.1 -0.1)">
      <defs>
       <path id="DejaVuSans-4f" d="M 2522 4238 
Q 1834 4238 1429 3725 
Q 1025 3213 1025 2328 
Q 1025 1447 1429 934 
Q 1834 422 2522 422 
Q 3209 422 3611 934 
Q 4013 1447 4013 2328 
Q 4013 3213 3611 3725 
Q 3209 4238 2522 4238 
z
M 2522 4750 
Q 3503 4750 4090 4092 
Q 4678 3434 4678 2328 
Q 4678 1225 4090 567 
Q 3503 -91 2522 -91 
Q 1538 -91 948 565 
Q 359 1222 359 2328 
Q 359 3434 948 4092 
Q 1538 4750 2522 4750 
z
" transform="scale(0.015625)"/>
       <path id="DejaVuSans-62" d="M 3116 1747 
Q 3116 2381 2855 2742 
Q 2594 3103 2138 3103 
Q 1681 3103 1420 2742 
Q 1159 2381 1159 1747 
Q 1159 1113 1420 752 
Q 1681 391 2138 391 
Q 2594 391 2855 752 
Q 3116 1113 3116 1747 
z
M 1159 2969 
Q 1341 3281 1617 3432 
Q 1894 3584 2278 3584 
Q 2916 3584 3314 3078 
Q 3713 2572 3713 1747 
Q 3713 922 3314 415 
Q 2916 -91 2278 -91 
Q 1894 -91 1617 61 
Q 1341 213 1159 525 
L 1159 0 
L 581 0 
L 581 4863 
L 1159 4863 
L 1159 2969 
z
" transform="scale(0.015625)"/>
      </defs>
      <use xlink:href="#DejaVuSans-4f"/>
      <use xlink:href="#DejaVuSans-62" x="78.710938"/>
      <use xlink:href="#DejaVuSans-73" x="142.1875"/>
      <use xlink:href="#DejaVuSans-65" x="194.287109"/>
      <use xlink:href="#DejaVuSans-72" x="255.810547"/>
      <use xlink:href="#DejaVuSans-76" x="296.923828"/>
      <use xlink:href="#DejaVuSans-65" x="356.103516"/>
      <use xlink:href="#DejaVuSans-64" x="417.626953"/>
      <use xlink:href="#DejaVuSans-20" x="481.103516"/>
      <use xlink:href="#DejaVuSans-63" x="512.890625"/>
      <use xlink:href="#DejaVuSans-75" x="567.871094"/>
      <use xlink:href="#DejaVuSans-6d" x="631.25"/>
      <use xlink:href="#DejaVuSans-75" x="728.662109"/>
      <use xlink:href="#DejaVuSans-6c" x="792.041016"/>
      <use xlink:href="#DejaVuSans-61" x="819.824219"/>
      <use xlink:href="#DejaVuSans-74" x="881.103516"/>
      <use xlink:href="#DejaVuSans-69" x="920.3125"/>
      <use xlink:href="#DejaVuSans-76" x="948.095703"/>
      <use xlink:href="#DejaVuSans-65" x="1007.275391"/>
      <use xlink:href="#DejaVuSans-20" x="1068.798828"/>
      <use xlink:href="#DejaVuSans-73" x="1100.585938"/>
      <use xlink:href="#DejaVuSans-68" x="1152.685547"/>
      <use xlink:href="#DejaVuSans-61" x="1216.064453"/>
      <use xlink:href="#DejaVuSans-72" x="1277.34375"/>
      <use xlink:href="#DejaVuSans-65" x="1316.207031"/>
     </g>
    </g>
    <g id="line2d_28">
     <path d="M 783.905 452.860313 
L 793.905 452.860313 
L 803.905 452.860313 
" style="fill: none; stroke-dasharray: 5.18,2.24; stroke-dashoffset: 0; stroke: #d9d1c7; stroke-width: 1.4"/>
    </g>
    <g id="text_19">
     <!-- Uniform world reference -->
     <g transform="translate(811.905 456.360313) scale(0.1 -0.1)">
      <defs>
       <path id="DejaVuSans-55" d="M 556 4666 
L 1191 4666 
L 1191 1831 
Q 1191 1081 1462 751 
Q 1734 422 2344 422 
Q 2950 422 3222 751 
Q 3494 1081 3494 1831 
L 3494 4666 
L 4128 4666 
L 4128 1753 
Q 4128 841 3676 375 
Q 3225 -91 2344 -91 
Q 1459 -91 1007 375 
Q 556 841 556 1753 
L 556 4666 
z
" transform="scale(0.015625)"/>
       <path id="DejaVuSans-77" d="M 269 3500 
L 844 3500 
L 1563 769 
L 2278 3500 
L 2956 3500 
L 3675 769 
L 4391 3500 
L 4966 3500 
L 4050 0 
L 3372 0 
L 2619 2869 
L 1863 0 
L 1184 0 
L 269 3500 
z
" transform="scale(0.015625)"/>
      </defs>
      <use xlink:href="#DejaVuSans-55"/>
      <use xlink:href="#DejaVuSans-6e" x="73.193359"/>
      <use xlink:href="#DejaVuSans-69" x="136.572266"/>
      <use xlink:href="#DejaVuSans-66" x="164.355469"/>
      <use xlink:href="#DejaVuSans-6f" x="199.560547"/>
      <use xlink:href="#DejaVuSans-72" x="260.742188"/>
      <use xlink:href="#DejaVuSans-6d" x="300.105469"/>
      <use xlink:href="#DejaVuSans-20" x="397.517578"/>
      <use xlink:href="#DejaVuSans-77" x="429.304688"/>
      <use xlink:href="#DejaVuSans-6f" x="511.091797"/>
      <use xlink:href="#DejaVuSans-72" x="572.273438"/>
      <use xlink:href="#DejaVuSans-6c" x="613.386719"/>
      <use xlink:href="#DejaVuSans-64" x="641.169922"/>
      <use xlink:href="#DejaVuSans-20" x="704.646484"/>
      <use xlink:href="#DejaVuSans-72" x="736.433594"/>
      <use xlink:href="#DejaVuSans-65" x="775.296875"/>
      <use xlink:href="#DejaVuSans-66" x="836.820312"/>
      <use xlink:href="#DejaVuSans-65" x="872.025391"/>
      <use xlink:href="#DejaVuSans-72" x="933.548828"/>
      <use xlink:href="#DejaVuSans-65" x="972.412109"/>
      <use xlink:href="#DejaVuSans-6e" x="1033.935547"/>
      <use xlink:href="#DejaVuSans-63" x="1097.314453"/>
      <use xlink:href="#DejaVuSans-65" x="1152.294922"/>
     </g>
    </g>
   </g>
  </g>
  <g id="text_20">
   <!-- Appendix B Panel 2 — Merchant Concentration -->
   <g style="fill: #161514" transform="translate(55.8 21.637031) scale(0.19 -0.19)">
    <defs>
     <path id="DejaVuSans-Bold-41" d="M 3419 850 
L 1538 850 
L 1241 0 
L 31 0 
L 1759 4666 
L 3194 4666 
L 4922 0 
L 3713 0 
L 3419 850 
z
M 1838 1716 
L 3116 1716 
L 2478 3572 
L 1838 1716 
z
" transform="scale(0.015625)"/>
     <path id="DejaVuSans-Bold-70" d="M 1656 506 
L 1656 -1331 
L 538 -1331 
L 538 3500 
L 1656 3500 
L 1656 2988 
Q 1888 3294 2169 3439 
Q 2450 3584 2816 3584 
Q 3463 3584 3878 3070 
Q 4294 2556 4294 1747 
Q 4294 938 3878 423 
Q 3463 -91 2816 -91 
Q 2450 -91 2169 54 
Q 1888 200 1656 506 
z
M 2400 2772 
Q 2041 2772 1848 2508 
Q 1656 2244 1656 1747 
Q 1656 1250 1848 986 
Q 2041 722 2400 722 
Q 2759 722 2948 984 
Q 3138 1247 3138 1747 
Q 3138 2247 2948 2509 
Q 2759 2772 2400 2772 
z
" transform="scale(0.015625)"/>
     <path id="DejaVuSans-Bold-65" d="M 4031 1759 
L 4031 1441 
L 1416 1441 
Q 1456 1047 1700 850 
Q 1944 653 2381 653 
Q 2734 653 3104 758 
Q 3475 863 3866 1075 
L 3866 213 
Q 3469 63 3072 -14 
Q 2675 -91 2278 -91 
Q 1328 -91 801 392 
Q 275 875 275 1747 
Q 275 2603 792 3093 
Q 1309 3584 2216 3584 
Q 3041 3584 3536 3087 
Q 4031 2591 4031 1759 
z
M 2881 2131 
Q 2881 2450 2695 2645 
Q 2509 2841 2209 2841 
Q 1884 2841 1681 2658 
Q 1478 2475 1428 2131 
L 2881 2131 
z
" transform="scale(0.015625)"/>
     <path id="DejaVuSans-Bold-6e" d="M 4056 2131 
L 4056 0 
L 2931 0 
L 2931 347 
L 2931 1631 
Q 2931 2084 2911 2256 
Q 2891 2428 2841 2509 
Q 2775 2619 2662 2680 
Q 2550 2741 2406 2741 
Q 2056 2741 1856 2470 
Q 1656 2200 1656 1722 
L 1656 0 
L 538 0 
L 538 3500 
L 1656 3500 
L 1656 2988 
Q 1909 3294 2193 3439 
Q 2478 3584 2822 3584 
Q 3428 3584 3742 3212 
Q 4056 2841 4056 2131 
z
" transform="scale(0.015625)"/>
     <path id="DejaVuSans-Bold-64" d="M 2919 2988 
L 2919 4863 
L 4044 4863 
L 4044 0 
L 2919 0 
L 2919 506 
Q 2688 197 2409 53 
Q 2131 -91 1766 -91 
Q 1119 -91 703 423 
Q 288 938 288 1747 
Q 288 2556 703 3070 
Q 1119 3584 1766 3584 
Q 2128 3584 2408 3439 
Q 2688 3294 2919 2988 
z
M 2181 722 
Q 2541 722 2730 984 
Q 2919 1247 2919 1747 
Q 2919 2247 2730 2509 
Q 2541 2772 2181 2772 
Q 1825 2772 1636 2509 
Q 1447 2247 1447 1747 
Q 1447 1247 1636 984 
Q 1825 722 2181 722 
z
" transform="scale(0.015625)"/>
     <path id="DejaVuSans-Bold-69" d="M 538 3500 
L 1656 3500 
L 1656 0 
L 538 0 
L 538 3500 
z
M 538 4863 
L 1656 4863 
L 1656 3950 
L 538 3950 
L 538 4863 
z
" transform="scale(0.015625)"/>
     <path id="DejaVuSans-Bold-78" d="M 1422 1791 
L 159 3500 
L 1344 3500 
L 2059 2463 
L 2784 3500 
L 3969 3500 
L 2706 1797 
L 4031 0 
L 2847 0 
L 2059 1106 
L 1281 0 
L 97 0 
L 1422 1791 
z
" transform="scale(0.015625)"/>
     <path id="DejaVuSans-Bold-20" transform="scale(0.015625)"/>
     <path id="DejaVuSans-Bold-42" d="M 2456 2859 
Q 2741 2859 2887 2984 
Q 3034 3109 3034 3353 
Q 3034 3594 2887 3720 
Q 2741 3847 2456 3847 
L 1791 3847 
L 1791 2859 
L 2456 2859 
z
M 2497 819 
Q 2859 819 3042 972 
Q 3225 1125 3225 1434 
Q 3225 1738 3044 1889 
Q 2863 2041 2497 2041 
L 1791 2041 
L 1791 819 
L 2497 819 
z
M 3616 2497 
Q 4003 2384 4215 2081 
Q 4428 1778 4428 1338 
Q 4428 663 3972 331 
Q 3516 0 2584 0 
L 588 0 
L 588 4666 
L 2394 4666 
Q 3366 4666 3802 4372 
Q 4238 4078 4238 3431 
Q 4238 3091 4078 2852 
Q 3919 2613 3616 2497 
z
" transform="scale(0.015625)"/>
     <path id="DejaVuSans-Bold-50" d="M 588 4666 
L 2584 4666 
Q 3475 4666 3951 4270 
Q 4428 3875 4428 3144 
Q 4428 2409 3951 2014 
Q 3475 1619 2584 1619 
L 1791 1619 
L 1791 0 
L 588 0 
L 588 4666 
z
M 1791 3794 
L 1791 2491 
L 2456 2491 
Q 2806 2491 2997 2661 
Q 3188 2831 3188 3144 
Q 3188 3456 2997 3625 
Q 2806 3794 2456 3794 
L 1791 3794 
z
" transform="scale(0.015625)"/>
     <path id="DejaVuSans-Bold-61" d="M 2106 1575 
Q 1756 1575 1579 1456 
Q 1403 1338 1403 1106 
Q 1403 894 1545 773 
Q 1688 653 1941 653 
Q 2256 653 2472 879 
Q 2688 1106 2688 1447 
L 2688 1575 
L 2106 1575 
z
M 3816 1997 
L 3816 0 
L 2688 0 
L 2688 519 
Q 2463 200 2181 54 
Q 1900 -91 1497 -91 
Q 953 -91 614 226 
Q 275 544 275 1050 
Q 275 1666 698 1953 
Q 1122 2241 2028 2241 
L 2688 2241 
L 2688 2328 
Q 2688 2594 2478 2717 
Q 2269 2841 1825 2841 
Q 1466 2841 1156 2769 
Q 847 2697 581 2553 
L 581 3406 
Q 941 3494 1303 3539 
Q 1666 3584 2028 3584 
Q 2975 3584 3395 3211 
Q 3816 2838 3816 1997 
z
" transform="scale(0.015625)"/>
     <path id="DejaVuSans-Bold-6c" d="M 538 4863 
L 1656 4863 
L 1656 0 
L 538 0 
L 538 4863 
z
" transform="scale(0.015625)"/>
     <path id="DejaVuSans-Bold-32" d="M 1844 884 
L 3897 884 
L 3897 0 
L 506 0 
L 506 884 
L 2209 2388 
Q 2438 2594 2547 2791 
Q 2656 2988 2656 3200 
Q 2656 3528 2436 3728 
Q 2216 3928 1850 3928 
Q 1569 3928 1234 3808 
Q 900 3688 519 3450 
L 519 4475 
Q 925 4609 1322 4679 
Q 1719 4750 2100 4750 
Q 2938 4750 3402 4381 
Q 3866 4013 3866 3353 
Q 3866 2972 3669 2642 
Q 3472 2313 2841 1759 
L 1844 884 
z
" transform="scale(0.015625)"/>
     <path id="DejaVuSans-Bold-2014" d="M 344 2156 
L 6056 2156 
L 6056 1350 
L 344 1350 
L 344 2156 
z
" transform="scale(0.015625)"/>
     <path id="DejaVuSans-Bold-4d" d="M 588 4666 
L 2119 4666 
L 3181 2169 
L 4250 4666 
L 5778 4666 
L 5778 0 
L 4641 0 
L 4641 3413 
L 3566 897 
L 2803 897 
L 1728 3413 
L 1728 0 
L 588 0 
L 588 4666 
z
" transform="scale(0.015625)"/>
     <path id="DejaVuSans-Bold-72" d="M 3138 2547 
Q 2991 2616 2845 2648 
Q 2700 2681 2553 2681 
Q 2122 2681 1889 2404 
Q 1656 2128 1656 1613 
L 1656 0 
L 538 0 
L 538 3500 
L 1656 3500 
L 1656 2925 
Q 1872 3269 2151 3426 
Q 2431 3584 2822 3584 
Q 2878 3584 2943 3579 
Q 3009 3575 3134 3559 
L 3138 2547 
z
" transform="scale(0.015625)"/>
     <path id="DejaVuSans-Bold-63" d="M 3366 3391 
L 3366 2478 
Q 3138 2634 2908 2709 
Q 2678 2784 2431 2784 
Q 1963 2784 1702 2511 
Q 1441 2238 1441 1747 
Q 1441 1256 1702 982 
Q 1963 709 2431 709 
Q 2694 709 2930 787 
Q 3166 866 3366 1019 
L 3366 103 
Q 3103 6 2833 -42 
Q 2563 -91 2291 -91 
Q 1344 -91 809 395 
Q 275 881 275 1747 
Q 275 2613 809 3098 
Q 1344 3584 2291 3584 
Q 2566 3584 2833 3536 
Q 3100 3488 3366 3391 
z
" transform="scale(0.015625)"/>
     <path id="DejaVuSans-Bold-68" d="M 4056 2131 
L 4056 0 
L 2931 0 
L 2931 347 
L 2931 1625 
Q 2931 2084 2911 2256 
Q 2891 2428 2841 2509 
Q 2775 2619 2662 2680 
Q 2550 2741 2406 2741 
Q 2056 2741 1856 2470 
Q 1656 2200 1656 1722 
L 1656 0 
L 538 0 
L 538 4863 
L 1656 4863 
L 1656 2988 
Q 1909 3294 2193 3439 
Q 2478 3584 2822 3584 
Q 3428 3584 3742 3212 
Q 4056 2841 4056 2131 
z
" transform="scale(0.015625)"/>
     <path id="DejaVuSans-Bold-74" d="M 1759 4494 
L 1759 3500 
L 2913 3500 
L 2913 2700 
L 1759 2700 
L 1759 1216 
Q 1759 972 1856 886 
Q 1953 800 2241 800 
L 2816 800 
L 2816 0 
L 1856 0 
Q 1194 0 917 276 
Q 641 553 641 1216 
L 641 2700 
L 84 2700 
L 84 3500 
L 641 3500 
L 641 4494 
L 1759 4494 
z
" transform="scale(0.015625)"/>
     <path id="DejaVuSans-Bold-43" d="M 4288 256 
Q 3956 84 3597 -3 
Q 3238 -91 2847 -91 
Q 1681 -91 1000 561 
Q 319 1213 319 2328 
Q 319 3447 1000 4098 
Q 1681 4750 2847 4750 
Q 3238 4750 3597 4662 
Q 3956 4575 4288 4403 
L 4288 3438 
Q 3953 3666 3628 3772 
Q 3303 3878 2944 3878 
Q 2300 3878 1931 3465 
Q 1563 3053 1563 2328 
Q 1563 1606 1931 1193 
Q 2300 781 2944 781 
Q 3303 781 3628 887 
Q 3953 994 4288 1222 
L 4288 256 
z
" transform="scale(0.015625)"/>
     <path id="DejaVuSans-Bold-6f" d="M 2203 2784 
Q 1831 2784 1636 2517 
Q 1441 2250 1441 1747 
Q 1441 1244 1636 976 
Q 1831 709 2203 709 
Q 2569 709 2762 976 
Q 2956 1244 2956 1747 
Q 2956 2250 2762 2517 
Q 2569 2784 2203 2784 
z
M 2203 3584 
Q 3106 3584 3614 3096 
Q 4122 2609 4122 1747 
Q 4122 884 3614 396 
Q 3106 -91 2203 -91 
Q 1297 -91 786 396 
Q 275 884 275 1747 
Q 275 2609 786 3096 
Q 1297 3584 2203 3584 
z
" transform="scale(0.015625)"/>
    </defs>
    <use xlink:href="#DejaVuSans-Bold-41"/>
    <use xlink:href="#DejaVuSans-Bold-70" x="77.392578"/>
    <use xlink:href="#DejaVuSans-Bold-70" x="148.974609"/>
    <use xlink:href="#DejaVuSans-Bold-65" x="220.556641"/>
    <use xlink:href="#DejaVuSans-Bold-6e" x="288.378906"/>
    <use xlink:href="#DejaVuSans-Bold-64" x="359.570312"/>
    <use xlink:href="#DejaVuSans-Bold-69" x="431.152344"/>
    <use xlink:href="#DejaVuSans-Bold-78" x="465.429688"/>
    <use xlink:href="#DejaVuSans-Bold-20" x="529.931641"/>
    <use xlink:href="#DejaVuSans-Bold-42" x="564.746094"/>
    <use xlink:href="#DejaVuSans-Bold-20" x="640.966797"/>
    <use xlink:href="#DejaVuSans-Bold-50" x="675.78125"/>
    <use xlink:href="#DejaVuSans-Bold-61" x="746.447266"/>
    <use xlink:href="#DejaVuSans-Bold-6e" x="813.927734"/>
    <use xlink:href="#DejaVuSans-Bold-65" x="885.119141"/>
    <use xlink:href="#DejaVuSans-Bold-6c" x="952.941406"/>
    <use xlink:href="#DejaVuSans-Bold-20" x="987.21875"/>
    <use xlink:href="#DejaVuSans-Bold-32" x="1022.033203"/>
    <use xlink:href="#DejaVuSans-Bold-20" x="1091.613281"/>
    <use xlink:href="#DejaVuSans-Bold-2014" x="1126.427734"/>
    <use xlink:href="#DejaVuSans-Bold-20" x="1226.427734"/>
    <use xlink:href="#DejaVuSans-Bold-4d" x="1261.242188"/>
    <use xlink:href="#DejaVuSans-Bold-65" x="1360.753906"/>
    <use xlink:href="#DejaVuSans-Bold-72" x="1428.576172"/>
    <use xlink:href="#DejaVuSans-Bold-63" x="1477.892578"/>
    <use xlink:href="#DejaVuSans-Bold-68" x="1537.169922"/>
    <use xlink:href="#DejaVuSans-Bold-61" x="1608.361328"/>
    <use xlink:href="#DejaVuSans-Bold-6e" x="1675.841797"/>
    <use xlink:href="#DejaVuSans-Bold-74" x="1747.033203"/>
    <use xlink:href="#DejaVuSans-Bold-20" x="1794.835938"/>
    <use xlink:href="#DejaVuSans-Bold-43" x="1829.650391"/>
    <use xlink:href="#DejaVuSans-Bold-6f" x="1903.039062"/>
    <use xlink:href="#DejaVuSans-Bold-6e" x="1971.740234"/>
    <use xlink:href="#DejaVuSans-Bold-63" x="2042.931641"/>
    <use xlink:href="#DejaVuSans-Bold-65" x="2102.208984"/>
    <use xlink:href="#DejaVuSans-Bold-6e" x="2170.03125"/>
    <use xlink:href="#DejaVuSans-Bold-74" x="2241.222656"/>
    <use xlink:href="#DejaVuSans-Bold-72" x="2289.025391"/>
    <use xlink:href="#DejaVuSans-Bold-61" x="2338.341797"/>
    <use xlink:href="#DejaVuSans-Bold-74" x="2405.822266"/>
    <use xlink:href="#DejaVuSans-Bold-69" x="2453.625"/>
    <use xlink:href="#DejaVuSans-Bold-6f" x="2487.902344"/>
    <use xlink:href="#DejaVuSans-Bold-6e" x="2556.603516"/>
   </g>
  </g>
  <g id="text_21">
   <!-- Traffic is unevenly distributed across the merchant base, which is what a real operating world should look like. -->
   <g style="fill: #5e5a55" transform="translate(55.8 39.6) scale(0.108 -0.108)">
    <defs>
     <path id="DejaVuSans-79" d="M 2059 -325 
Q 1816 -950 1584 -1140 
Q 1353 -1331 966 -1331 
L 506 -1331 
L 506 -850 
L 844 -850 
Q 1081 -850 1212 -737 
Q 1344 -625 1503 -206 
L 1606 56 
L 191 3500 
L 800 3500 
L 1894 763 
L 2988 3500 
L 3597 3500 
L 2059 -325 
z
" transform="scale(0.015625)"/>
     <path id="DejaVuSans-6b" d="M 581 4863 
L 1159 4863 
L 1159 1991 
L 2875 3500 
L 3609 3500 
L 1753 1863 
L 3688 0 
L 2938 0 
L 1159 1709 
L 1159 0 
L 581 0 
L 581 4863 
z
" transform="scale(0.015625)"/>
    </defs>
    <use xlink:href="#DejaVuSans-54"/>
    <use xlink:href="#DejaVuSans-72" x="46.333984"/>
    <use xlink:href="#DejaVuSans-61" x="87.447266"/>
    <use xlink:href="#DejaVuSans-66" x="148.726562"/>
    <use xlink:href="#DejaVuSans-66" x="183.931641"/>
    <use xlink:href="#DejaVuSans-69" x="219.136719"/>
    <use xlink:href="#DejaVuSans-63" x="246.919922"/>
    <use xlink:href="#DejaVuSans-20" x="301.900391"/>
    <use xlink:href="#DejaVuSans-69" x="333.6875"/>
    <use xlink:href="#DejaVuSans-73" x="361.470703"/>
    <use xlink:href="#DejaVuSans-20" x="413.570312"/>
    <use xlink:href="#DejaVuSans-75" x="445.357422"/>
    <use xlink:href="#DejaVuSans-6e" x="508.736328"/>
    <use xlink:href="#DejaVuSans-65" x="572.115234"/>
    <use xlink:href="#DejaVuSans-76" x="633.638672"/>
    <use xlink:href="#DejaVuSans-65" x="692.818359"/>
    <use xlink:href="#DejaVuSans-6e" x="754.341797"/>
    <use xlink:href="#DejaVuSans-6c" x="817.720703"/>
    <use xlink:href="#DejaVuSans-79" x="845.503906"/>
    <use xlink:href="#DejaVuSans-20" x="904.683594"/>
    <use xlink:href="#DejaVuSans-64" x="936.470703"/>
    <use xlink:href="#DejaVuSans-69" x="999.947266"/>
    <use xlink:href="#DejaVuSans-73" x="1027.730469"/>
    <use xlink:href="#DejaVuSans-74" x="1079.830078"/>
    <use xlink:href="#DejaVuSans-72" x="1119.039062"/>
    <use xlink:href="#DejaVuSans-69" x="1160.152344"/>
    <use xlink:href="#DejaVuSans-62" x="1187.935547"/>
    <use xlink:href="#DejaVuSans-75" x="1251.412109"/>
    <use xlink:href="#DejaVuSans-74" x="1314.791016"/>
    <use xlink:href="#DejaVuSans-65" x="1354"/>
    <use xlink:href="#DejaVuSans-64" x="1415.523438"/>
    <use xlink:href="#DejaVuSans-20" x="1479"/>
    <use xlink:href="#DejaVuSans-61" x="1510.787109"/>
    <use xlink:href="#DejaVuSans-63" x="1572.066406"/>
    <use xlink:href="#DejaVuSans-72" x="1627.046875"/>
    <use xlink:href="#DejaVuSans-6f" x="1665.910156"/>
    <use xlink:href="#DejaVuSans-73" x="1727.091797"/>
    <use xlink:href="#DejaVuSans-73" x="1779.191406"/>
    <use xlink:href="#DejaVuSans-20" x="1831.291016"/>
    <use xlink:href="#DejaVuSans-74" x="1863.078125"/>
    <use xlink:href="#DejaVuSans-68" x="1902.287109"/>
    <use xlink:href="#DejaVuSans-65" x="1965.666016"/>
    <use xlink:href="#DejaVuSans-20" x="2027.189453"/>
    <use xlink:href="#DejaVuSans-6d" x="2058.976562"/>
    <use xlink:href="#DejaVuSans-65" x="2156.388672"/>
    <use xlink:href="#DejaVuSans-72" x="2217.912109"/>
    <use xlink:href="#DejaVuSans-63" x="2256.775391"/>
    <use xlink:href="#DejaVuSans-68" x="2311.755859"/>
    <use xlink:href="#DejaVuSans-61" x="2375.134766"/>
    <use xlink:href="#DejaVuSans-6e" x="2436.414062"/>
    <use xlink:href="#DejaVuSans-74" x="2499.792969"/>
    <use xlink:href="#DejaVuSans-20" x="2539.001953"/>
    <use xlink:href="#DejaVuSans-62" x="2570.789062"/>
    <use xlink:href="#DejaVuSans-61" x="2634.265625"/>
    <use xlink:href="#DejaVuSans-73" x="2695.544922"/>
    <use xlink:href="#DejaVuSans-65" x="2747.644531"/>
    <use xlink:href="#DejaVuSans-2c" x="2809.167969"/>
    <use xlink:href="#DejaVuSans-20" x="2840.955078"/>
    <use xlink:href="#DejaVuSans-77" x="2872.742188"/>
    <use xlink:href="#DejaVuSans-68" x="2954.529297"/>
    <use xlink:href="#DejaVuSans-69" x="3017.908203"/>
    <use xlink:href="#DejaVuSans-63" x="3045.691406"/>
    <use xlink:href="#DejaVuSans-68" x="3100.671875"/>
    <use xlink:href="#DejaVuSans-20" x="3164.050781"/>
    <use xlink:href="#DejaVuSans-69" x="3195.837891"/>
    <use xlink:href="#DejaVuSans-73" x="3223.621094"/>
    <use xlink:href="#DejaVuSans-20" x="3275.720703"/>
    <use xlink:href="#DejaVuSans-77" x="3307.507812"/>
    <use xlink:href="#DejaVuSans-68" x="3389.294922"/>
    <use xlink:href="#DejaVuSans-61" x="3452.673828"/>
    <use xlink:href="#DejaVuSans-74" x="3513.953125"/>
    <use xlink:href="#DejaVuSans-20" x="3553.162109"/>
    <use xlink:href="#DejaVuSans-61" x="3584.949219"/>
    <use xlink:href="#DejaVuSans-20" x="3646.228516"/>
    <use xlink:href="#DejaVuSans-72" x="3678.015625"/>
    <use xlink:href="#DejaVuSans-65" x="3716.878906"/>
    <use xlink:href="#DejaVuSans-61" x="3778.402344"/>
    <use xlink:href="#DejaVuSans-6c" x="3839.681641"/>
    <use xlink:href="#DejaVuSans-20" x="3867.464844"/>
    <use xlink:href="#DejaVuSans-6f" x="3899.251953"/>
    <use xlink:href="#DejaVuSans-70" x="3960.433594"/>
    <use xlink:href="#DejaVuSans-65" x="4023.910156"/>
    <use xlink:href="#DejaVuSans-72" x="4085.433594"/>
    <use xlink:href="#DejaVuSans-61" x="4126.546875"/>
    <use xlink:href="#DejaVuSans-74" x="4187.826172"/>
    <use xlink:href="#DejaVuSans-69" x="4227.035156"/>
    <use xlink:href="#DejaVuSans-6e" x="4254.818359"/>
    <use xlink:href="#DejaVuSans-67" x="4318.197266"/>
    <use xlink:href="#DejaVuSans-20" x="4381.673828"/>
    <use xlink:href="#DejaVuSans-77" x="4413.460938"/>
    <use xlink:href="#DejaVuSans-6f" x="4495.248047"/>
    <use xlink:href="#DejaVuSans-72" x="4556.429688"/>
    <use xlink:href="#DejaVuSans-6c" x="4597.542969"/>
    <use xlink:href="#DejaVuSans-64" x="4625.326172"/>
    <use xlink:href="#DejaVuSans-20" x="4688.802734"/>
    <use xlink:href="#DejaVuSans-73" x="4720.589844"/>
    <use xlink:href="#DejaVuSans-68" x="4772.689453"/>
    <use xlink:href="#DejaVuSans-6f" x="4836.068359"/>
    <use xlink:href="#DejaVuSans-75" x="4897.25"/>
    <use xlink:href="#DejaVuSans-6c" x="4960.628906"/>
    <use xlink:href="#DejaVuSans-64" x="4988.412109"/>
    <use xlink:href="#DejaVuSans-20" x="5051.888672"/>
    <use xlink:href="#DejaVuSans-6c" x="5083.675781"/>
    <use xlink:href="#DejaVuSans-6f" x="5111.458984"/>
    <use xlink:href="#DejaVuSans-6f" x="5172.640625"/>
    <use xlink:href="#DejaVuSans-6b" x="5233.822266"/>
    <use xlink:href="#DejaVuSans-20" x="5291.732422"/>
    <use xlink:href="#DejaVuSans-6c" x="5323.519531"/>
    <use xlink:href="#DejaVuSans-69" x="5351.302734"/>
    <use xlink:href="#DejaVuSans-6b" x="5379.085938"/>
    <use xlink:href="#DejaVuSans-65" x="5433.371094"/>
    <use xlink:href="#DejaVuSans-2e" x="5494.894531"/>
   </g>
  </g>
  <g id="text_22">
   <!-- Interpretation: arrivals are not evenly distributed across the merchant base. A small head of merchants carries a disproportionate share of total traffic, while the remaining merchant set still contributes a meaningful tail. That is closer to a real operating environment than to a uniform synthetic world. -->
   <g style="fill: #5e5a55" transform="translate(7.2 531) scale(0.096 -0.096)">
    <defs>
     <path id="DejaVuSans-49" d="M 628 4666 
L 1259 4666 
L 1259 0 
L 628 0 
L 628 4666 
z
" transform="scale(0.015625)"/>
     <path id="DejaVuSans-3a" d="M 750 794 
L 1409 794 
L 1409 0 
L 750 0 
L 750 794 
z
M 750 3309 
L 1409 3309 
L 1409 2516 
L 750 2516 
L 750 3309 
z
" transform="scale(0.015625)"/>
     <path id="DejaVuSans-41" d="M 2188 4044 
L 1331 1722 
L 3047 1722 
L 2188 4044 
z
M 1831 4666 
L 2547 4666 
L 4325 0 
L 3669 0 
L 3244 1197 
L 1141 1197 
L 716 0 
L 50 0 
L 1831 4666 
z
" transform="scale(0.015625)"/>
    </defs>
    <use xlink:href="#DejaVuSans-49"/>
    <use xlink:href="#DejaVuSans-6e" x="29.492188"/>
    <use xlink:href="#DejaVuSans-74" x="92.871094"/>
    <use xlink:href="#DejaVuSans-65" x="132.080078"/>
    <use xlink:href="#DejaVuSans-72" x="193.603516"/>
    <use xlink:href="#DejaVuSans-70" x="234.716797"/>
    <use xlink:href="#DejaVuSans-72" x="298.193359"/>
    <use xlink:href="#DejaVuSans-65" x="337.056641"/>
    <use xlink:href="#DejaVuSans-74" x="398.580078"/>
    <use xlink:href="#DejaVuSans-61" x="437.789062"/>
    <use xlink:href="#DejaVuSans-74" x="499.068359"/>
    <use xlink:href="#DejaVuSans-69" x="538.277344"/>
    <use xlink:href="#DejaVuSans-6f" x="566.060547"/>
    <use xlink:href="#DejaVuSans-6e" x="627.242188"/>
    <use xlink:href="#DejaVuSans-3a" x="690.621094"/>
    <use xlink:href="#DejaVuSans-20" x="724.3125"/>
    <use xlink:href="#DejaVuSans-61" x="756.099609"/>
    <use xlink:href="#DejaVuSans-72" x="817.378906"/>
    <use xlink:href="#DejaVuSans-72" x="856.742188"/>
    <use xlink:href="#DejaVuSans-69" x="897.855469"/>
    <use xlink:href="#DejaVuSans-76" x="925.638672"/>
    <use xlink:href="#DejaVuSans-61" x="984.818359"/>
    <use xlink:href="#DejaVuSans-6c" x="1046.097656"/>
    <use xlink:href="#DejaVuSans-73" x="1073.880859"/>
    <use xlink:href="#DejaVuSans-20" x="1125.980469"/>
    <use xlink:href="#DejaVuSans-61" x="1157.767578"/>
    <use xlink:href="#DejaVuSans-72" x="1219.046875"/>
    <use xlink:href="#DejaVuSans-65" x="1257.910156"/>
    <use xlink:href="#DejaVuSans-20" x="1319.433594"/>
    <use xlink:href="#DejaVuSans-6e" x="1351.220703"/>
    <use xlink:href="#DejaVuSans-6f" x="1414.599609"/>
    <use xlink:href="#DejaVuSans-74" x="1475.78125"/>
    <use xlink:href="#DejaVuSans-20" x="1514.990234"/>
    <use xlink:href="#DejaVuSans-65" x="1546.777344"/>
    <use xlink:href="#DejaVuSans-76" x="1608.300781"/>
    <use xlink:href="#DejaVuSans-65" x="1667.480469"/>
    <use xlink:href="#DejaVuSans-6e" x="1729.003906"/>
    <use xlink:href="#DejaVuSans-6c" x="1792.382812"/>
    <use xlink:href="#DejaVuSans-79" x="1820.166016"/>
    <use xlink:href="#DejaVuSans-20" x="1879.345703"/>
    <use xlink:href="#DejaVuSans-64" x="1911.132812"/>
    <use xlink:href="#DejaVuSans-69" x="1974.609375"/>
    <use xlink:href="#DejaVuSans-73" x="2002.392578"/>
    <use xlink:href="#DejaVuSans-74" x="2054.492188"/>
    <use xlink:href="#DejaVuSans-72" x="2093.701172"/>
    <use xlink:href="#DejaVuSans-69" x="2134.814453"/>
    <use xlink:href="#DejaVuSans-62" x="2162.597656"/>
    <use xlink:href="#DejaVuSans-75" x="2226.074219"/>
    <use xlink:href="#DejaVuSans-74" x="2289.453125"/>
    <use xlink:href="#DejaVuSans-65" x="2328.662109"/>
    <use xlink:href="#DejaVuSans-64" x="2390.185547"/>
    <use xlink:href="#DejaVuSans-20" x="2453.662109"/>
    <use xlink:href="#DejaVuSans-61" x="2485.449219"/>
    <use xlink:href="#DejaVuSans-63" x="2546.728516"/>
    <use xlink:href="#DejaVuSans-72" x="2601.708984"/>
    <use xlink:href="#DejaVuSans-6f" x="2640.572266"/>
    <use xlink:href="#DejaVuSans-73" x="2701.753906"/>
    <use xlink:href="#DejaVuSans-73" x="2753.853516"/>
    <use xlink:href="#DejaVuSans-20" x="2805.953125"/>
    <use xlink:href="#DejaVuSans-74" x="2837.740234"/>
    <use xlink:href="#DejaVuSans-68" x="2876.949219"/>
    <use xlink:href="#DejaVuSans-65" x="2940.328125"/>
    <use xlink:href="#DejaVuSans-20" x="3001.851562"/>
    <use xlink:href="#DejaVuSans-6d" x="3033.638672"/>
    <use xlink:href="#DejaVuSans-65" x="3131.050781"/>
    <use xlink:href="#DejaVuSans-72" x="3192.574219"/>
    <use xlink:href="#DejaVuSans-63" x="3231.4375"/>
    <use xlink:href="#DejaVuSans-68" x="3286.417969"/>
    <use xlink:href="#DejaVuSans-61" x="3349.796875"/>
    <use xlink:href="#DejaVuSans-6e" x="3411.076172"/>
    <use xlink:href="#DejaVuSans-74" x="3474.455078"/>
    <use xlink:href="#DejaVuSans-20" x="3513.664062"/>
    <use xlink:href="#DejaVuSans-62" x="3545.451172"/>
    <use xlink:href="#DejaVuSans-61" x="3608.927734"/>
    <use xlink:href="#DejaVuSans-73" x="3670.207031"/>
    <use xlink:href="#DejaVuSans-65" x="3722.306641"/>
    <use xlink:href="#DejaVuSans-2e" x="3783.830078"/>
    <use xlink:href="#DejaVuSans-20" x="3815.617188"/>
    <use xlink:href="#DejaVuSans-41" x="3847.404297"/>
    <use xlink:href="#DejaVuSans-20" x="3915.8125"/>
    <use xlink:href="#DejaVuSans-73" x="3947.599609"/>
    <use xlink:href="#DejaVuSans-6d" x="3999.699219"/>
    <use xlink:href="#DejaVuSans-61" x="4097.111328"/>
    <use xlink:href="#DejaVuSans-6c" x="4158.390625"/>
    <use xlink:href="#DejaVuSans-6c" x="4186.173828"/>
    <use xlink:href="#DejaVuSans-20" x="4213.957031"/>
    <use xlink:href="#DejaVuSans-68" x="4245.744141"/>
    <use xlink:href="#DejaVuSans-65" x="4309.123047"/>
    <use xlink:href="#DejaVuSans-61" x="4370.646484"/>
    <use xlink:href="#DejaVuSans-64" x="4431.925781"/>
    <use xlink:href="#DejaVuSans-20" x="4495.402344"/>
    <use xlink:href="#DejaVuSans-6f" x="4527.189453"/>
    <use xlink:href="#DejaVuSans-66" x="4588.371094"/>
    <use xlink:href="#DejaVuSans-20" x="4623.576172"/>
    <use xlink:href="#DejaVuSans-6d" x="4655.363281"/>
    <use xlink:href="#DejaVuSans-65" x="4752.775391"/>
    <use xlink:href="#DejaVuSans-72" x="4814.298828"/>
    <use xlink:href="#DejaVuSans-63" x="4853.162109"/>
    <use xlink:href="#DejaVuSans-68" x="4908.142578"/>
    <use xlink:href="#DejaVuSans-61" x="4971.521484"/>
    <use xlink:href="#DejaVuSans-6e" x="5032.800781"/>
    <use xlink:href="#DejaVuSans-74" x="5096.179688"/>
    <use xlink:href="#DejaVuSans-73" x="5135.388672"/>
    <use xlink:href="#DejaVuSans-20" x="5187.488281"/>
    <use xlink:href="#DejaVuSans-63" x="5219.275391"/>
    <use xlink:href="#DejaVuSans-61" x="5274.255859"/>
    <use xlink:href="#DejaVuSans-72" x="5335.535156"/>
    <use xlink:href="#DejaVuSans-72" x="5374.898438"/>
    <use xlink:href="#DejaVuSans-69" x="5416.011719"/>
    <use xlink:href="#DejaVuSans-65" x="5443.794922"/>
    <use xlink:href="#DejaVuSans-73" x="5505.318359"/>
    <use xlink:href="#DejaVuSans-20" x="5557.417969"/>
    <use xlink:href="#DejaVuSans-61" x="5589.205078"/>
    <use xlink:href="#DejaVuSans-20" x="5650.484375"/>
    <use xlink:href="#DejaVuSans-64" x="5682.271484"/>
    <use xlink:href="#DejaVuSans-69" x="5745.748047"/>
    <use xlink:href="#DejaVuSans-73" x="5773.53125"/>
    <use xlink:href="#DejaVuSans-70" x="5825.630859"/>
    <use xlink:href="#DejaVuSans-72" x="5889.107422"/>
    <use xlink:href="#DejaVuSans-6f" x="5927.970703"/>
    <use xlink:href="#DejaVuSans-70" x="5989.152344"/>
    <use xlink:href="#DejaVuSans-6f" x="6052.628906"/>
    <use xlink:href="#DejaVuSans-72" x="6113.810547"/>
    <use xlink:href="#DejaVuSans-74" x="6154.923828"/>
    <use xlink:href="#DejaVuSans-69" x="6194.132812"/>
    <use xlink:href="#DejaVuSans-6f" x="6221.916016"/>
    <use xlink:href="#DejaVuSans-6e" x="6283.097656"/>
    <use xlink:href="#DejaVuSans-61" x="6346.476562"/>
    <use xlink:href="#DejaVuSans-74" x="6407.755859"/>
    <use xlink:href="#DejaVuSans-65" x="6446.964844"/>
    <use xlink:href="#DejaVuSans-20" x="6508.488281"/>
    <use xlink:href="#DejaVuSans-73" x="6540.275391"/>
    <use xlink:href="#DejaVuSans-68" x="6592.375"/>
    <use xlink:href="#DejaVuSans-61" x="6655.753906"/>
    <use xlink:href="#DejaVuSans-72" x="6717.033203"/>
    <use xlink:href="#DejaVuSans-65" x="6755.896484"/>
    <use xlink:href="#DejaVuSans-20" x="6817.419922"/>
    <use xlink:href="#DejaVuSans-6f" x="6849.207031"/>
    <use xlink:href="#DejaVuSans-66" x="6910.388672"/>
    <use xlink:href="#DejaVuSans-20" x="6945.59375"/>
    <use xlink:href="#DejaVuSans-74" x="6977.380859"/>
    <use xlink:href="#DejaVuSans-6f" x="7016.589844"/>
    <use xlink:href="#DejaVuSans-74" x="7077.771484"/>
    <use xlink:href="#DejaVuSans-61" x="7116.980469"/>
    <use xlink:href="#DejaVuSans-6c" x="7178.259766"/>
    <use xlink:href="#DejaVuSans-20" x="7206.042969"/>
    <use xlink:href="#DejaVuSans-74" x="7237.830078"/>
    <use xlink:href="#DejaVuSans-72" x="7277.039062"/>
    <use xlink:href="#DejaVuSans-61" x="7318.152344"/>
    <use xlink:href="#DejaVuSans-66" x="7379.431641"/>
    <use xlink:href="#DejaVuSans-66" x="7414.636719"/>
    <use xlink:href="#DejaVuSans-69" x="7449.841797"/>
    <use xlink:href="#DejaVuSans-63" x="7477.625"/>
    <use xlink:href="#DejaVuSans-2c" x="7532.605469"/>
    <use xlink:href="#DejaVuSans-20" x="7564.392578"/>
    <use xlink:href="#DejaVuSans-77" x="7596.179688"/>
    <use xlink:href="#DejaVuSans-68" x="7677.966797"/>
    <use xlink:href="#DejaVuSans-69" x="7741.345703"/>
    <use xlink:href="#DejaVuSans-6c" x="7769.128906"/>
    <use xlink:href="#DejaVuSans-65" x="7796.912109"/>
    <use xlink:href="#DejaVuSans-20" x="7858.435547"/>
    <use xlink:href="#DejaVuSans-74" x="7890.222656"/>
    <use xlink:href="#DejaVuSans-68" x="7929.431641"/>
    <use xlink:href="#DejaVuSans-65" x="7992.810547"/>
    <use xlink:href="#DejaVuSans-20" x="8054.333984"/>
    <use xlink:href="#DejaVuSans-72" x="8086.121094"/>
    <use xlink:href="#DejaVuSans-65" x="8124.984375"/>
    <use xlink:href="#DejaVuSans-6d" x="8186.507812"/>
    <use xlink:href="#DejaVuSans-61" x="8283.919922"/>
    <use xlink:href="#DejaVuSans-69" x="8345.199219"/>
    <use xlink:href="#DejaVuSans-6e" x="8372.982422"/>
    <use xlink:href="#DejaVuSans-69" x="8436.361328"/>
    <use xlink:href="#DejaVuSans-6e" x="8464.144531"/>
    <use xlink:href="#DejaVuSans-67" x="8527.523438"/>
    <use xlink:href="#DejaVuSans-20" x="8591"/>
    <use xlink:href="#DejaVuSans-6d" x="8622.787109"/>
    <use xlink:href="#DejaVuSans-65" x="8720.199219"/>
    <use xlink:href="#DejaVuSans-72" x="8781.722656"/>
    <use xlink:href="#DejaVuSans-63" x="8820.585938"/>
    <use xlink:href="#DejaVuSans-68" x="8875.566406"/>
    <use xlink:href="#DejaVuSans-61" x="8938.945312"/>
    <use xlink:href="#DejaVuSans-6e" x="9000.224609"/>
    <use xlink:href="#DejaVuSans-74" x="9063.603516"/>
    <use xlink:href="#DejaVuSans-20" x="9102.8125"/>
    <use xlink:href="#DejaVuSans-73" x="9134.599609"/>
    <use xlink:href="#DejaVuSans-65" x="9186.699219"/>
    <use xlink:href="#DejaVuSans-74" x="9248.222656"/>
    <use xlink:href="#DejaVuSans-20" x="9287.431641"/>
    <use xlink:href="#DejaVuSans-73" x="9319.21875"/>
    <use xlink:href="#DejaVuSans-74" x="9371.318359"/>
    <use xlink:href="#DejaVuSans-69" x="9410.527344"/>
    <use xlink:href="#DejaVuSans-6c" x="9438.310547"/>
    <use xlink:href="#DejaVuSans-6c" x="9466.09375"/>
    <use xlink:href="#DejaVuSans-20" x="9493.876953"/>
    <use xlink:href="#DejaVuSans-63" x="9525.664062"/>
    <use xlink:href="#DejaVuSans-6f" x="9580.644531"/>
    <use xlink:href="#DejaVuSans-6e" x="9641.826172"/>
    <use xlink:href="#DejaVuSans-74" x="9705.205078"/>
    <use xlink:href="#DejaVuSans-72" x="9744.414062"/>
    <use xlink:href="#DejaVuSans-69" x="9785.527344"/>
    <use xlink:href="#DejaVuSans-62" x="9813.310547"/>
    <use xlink:href="#DejaVuSans-75" x="9876.787109"/>
    <use xlink:href="#DejaVuSans-74" x="9940.166016"/>
    <use xlink:href="#DejaVuSans-65" x="9979.375"/>
    <use xlink:href="#DejaVuSans-73" x="10040.898438"/>
    <use xlink:href="#DejaVuSans-20" x="10092.998047"/>
    <use xlink:href="#DejaVuSans-61" x="10124.785156"/>
    <use xlink:href="#DejaVuSans-20" x="10186.064453"/>
    <use xlink:href="#DejaVuSans-6d" x="10217.851562"/>
    <use xlink:href="#DejaVuSans-65" x="10315.263672"/>
    <use xlink:href="#DejaVuSans-61" x="10376.787109"/>
    <use xlink:href="#DejaVuSans-6e" x="10438.066406"/>
    <use xlink:href="#DejaVuSans-69" x="10501.445312"/>
    <use xlink:href="#DejaVuSans-6e" x="10529.228516"/>
    <use xlink:href="#DejaVuSans-67" x="10592.607422"/>
    <use xlink:href="#DejaVuSans-66" x="10656.083984"/>
    <use xlink:href="#DejaVuSans-75" x="10691.289062"/>
    <use xlink:href="#DejaVuSans-6c" x="10754.667969"/>
    <use xlink:href="#DejaVuSans-20" x="10782.451172"/>
    <use xlink:href="#DejaVuSans-74" x="10814.238281"/>
    <use xlink:href="#DejaVuSans-61" x="10853.447266"/>
    <use xlink:href="#DejaVuSans-69" x="10914.726562"/>
    <use xlink:href="#DejaVuSans-6c" x="10942.509766"/>
    <use xlink:href="#DejaVuSans-2e" x="10970.292969"/>
    <use xlink:href="#DejaVuSans-20" x="11002.080078"/>
    <use xlink:href="#DejaVuSans-54" x="11033.867188"/>
    <use xlink:href="#DejaVuSans-68" x="11094.951172"/>
    <use xlink:href="#DejaVuSans-61" x="11158.330078"/>
    <use xlink:href="#DejaVuSans-74" x="11219.609375"/>
    <use xlink:href="#DejaVuSans-20" x="11258.818359"/>
    <use xlink:href="#DejaVuSans-69" x="11290.605469"/>
    <use xlink:href="#DejaVuSans-73" x="11318.388672"/>
    <use xlink:href="#DejaVuSans-20" x="11370.488281"/>
    <use xlink:href="#DejaVuSans-63" x="11402.275391"/>
    <use xlink:href="#DejaVuSans-6c" x="11457.255859"/>
    <use xlink:href="#DejaVuSans-6f" x="11485.039062"/>
    <use xlink:href="#DejaVuSans-73" x="11546.220703"/>
    <use xlink:href="#DejaVuSans-65" x="11598.320312"/>
    <use xlink:href="#DejaVuSans-72" x="11659.84375"/>
    <use xlink:href="#DejaVuSans-20" x="11700.957031"/>
    <use xlink:href="#DejaVuSans-74" x="11732.744141"/>
    <use xlink:href="#DejaVuSans-6f" x="11771.953125"/>
    <use xlink:href="#DejaVuSans-20" x="11833.134766"/>
    <use xlink:href="#DejaVuSans-61" x="11864.921875"/>
    <use xlink:href="#DejaVuSans-20" x="11926.201172"/>
    <use xlink:href="#DejaVuSans-72" x="11957.988281"/>
    <use xlink:href="#DejaVuSans-65" x="11996.851562"/>
    <use xlink:href="#DejaVuSans-61" x="12058.375"/>
    <use xlink:href="#DejaVuSans-6c" x="12119.654297"/>
    <use xlink:href="#DejaVuSans-20" x="12147.4375"/>
    <use xlink:href="#DejaVuSans-6f" x="12179.224609"/>
    <use xlink:href="#DejaVuSans-70" x="12240.40625"/>
    <use xlink:href="#DejaVuSans-65" x="12303.882812"/>
    <use xlink:href="#DejaVuSans-72" x="12365.40625"/>
    <use xlink:href="#DejaVuSans-61" x="12406.519531"/>
    <use xlink:href="#DejaVuSans-74" x="12467.798828"/>
    <use xlink:href="#DejaVuSans-69" x="12507.007812"/>
    <use xlink:href="#DejaVuSans-6e" x="12534.791016"/>
    <use xlink:href="#DejaVuSans-67" x="12598.169922"/>
    <use xlink:href="#DejaVuSans-20" x="12661.646484"/>
    <use xlink:href="#DejaVuSans-65" x="12693.433594"/>
    <use xlink:href="#DejaVuSans-6e" x="12754.957031"/>
    <use xlink:href="#DejaVuSans-76" x="12818.335938"/>
    <use xlink:href="#DejaVuSans-69" x="12877.515625"/>
    <use xlink:href="#DejaVuSans-72" x="12905.298828"/>
    <use xlink:href="#DejaVuSans-6f" x="12944.162109"/>
    <use xlink:href="#DejaVuSans-6e" x="13005.34375"/>
    <use xlink:href="#DejaVuSans-6d" x="13068.722656"/>
    <use xlink:href="#DejaVuSans-65" x="13166.134766"/>
    <use xlink:href="#DejaVuSans-6e" x="13227.658203"/>
    <use xlink:href="#DejaVuSans-74" x="13291.037109"/>
    <use xlink:href="#DejaVuSans-20" x="13330.246094"/>
    <use xlink:href="#DejaVuSans-74" x="13362.033203"/>
    <use xlink:href="#DejaVuSans-68" x="13401.242188"/>
    <use xlink:href="#DejaVuSans-61" x="13464.621094"/>
    <use xlink:href="#DejaVuSans-6e" x="13525.900391"/>
    <use xlink:href="#DejaVuSans-20" x="13589.279297"/>
    <use xlink:href="#DejaVuSans-74" x="13621.066406"/>
    <use xlink:href="#DejaVuSans-6f" x="13660.275391"/>
    <use xlink:href="#DejaVuSans-20" x="13721.457031"/>
    <use xlink:href="#DejaVuSans-61" x="13753.244141"/>
    <use xlink:href="#DejaVuSans-20" x="13814.523438"/>
    <use xlink:href="#DejaVuSans-75" x="13846.310547"/>
    <use xlink:href="#DejaVuSans-6e" x="13909.689453"/>
    <use xlink:href="#DejaVuSans-69" x="13973.068359"/>
    <use xlink:href="#DejaVuSans-66" x="14000.851562"/>
    <use xlink:href="#DejaVuSans-6f" x="14036.056641"/>
    <use xlink:href="#DejaVuSans-72" x="14097.238281"/>
    <use xlink:href="#DejaVuSans-6d" x="14136.601562"/>
    <use xlink:href="#DejaVuSans-20" x="14234.013672"/>
    <use xlink:href="#DejaVuSans-73" x="14265.800781"/>
    <use xlink:href="#DejaVuSans-79" x="14317.900391"/>
    <use xlink:href="#DejaVuSans-6e" x="14377.080078"/>
    <use xlink:href="#DejaVuSans-74" x="14440.458984"/>
    <use xlink:href="#DejaVuSans-68" x="14479.667969"/>
    <use xlink:href="#DejaVuSans-65" x="14543.046875"/>
    <use xlink:href="#DejaVuSans-74" x="14604.570312"/>
    <use xlink:href="#DejaVuSans-69" x="14643.779297"/>
    <use xlink:href="#DejaVuSans-63" x="14671.5625"/>
    <use xlink:href="#DejaVuSans-20" x="14726.542969"/>
    <use xlink:href="#DejaVuSans-77" x="14758.330078"/>
    <use xlink:href="#DejaVuSans-6f" x="14840.117188"/>
    <use xlink:href="#DejaVuSans-72" x="14901.298828"/>
    <use xlink:href="#DejaVuSans-6c" x="14942.412109"/>
    <use xlink:href="#DejaVuSans-64" x="14970.195312"/>
    <use xlink:href="#DejaVuSans-2e" x="15033.671875"/>
   </g>
  </g>
 </g>
 <defs>
  <clipPath id="p8c3fdcd7ba">
   <rect x="48.35" y="101.52" width="910.33" height="365.92"/>
  </clipPath>
 </defs>
</svg>
